<mxfile host="65bd71144e">
    <diagram id="nP-OY_wl-n511qJIP8V6" name="Page-1">
        <mxGraphModel dx="577" dy="807" grid="1" gridSize="10" guides="1" tooltips="1" connect="1" arrows="1" fold="1" page="1" pageScale="1" pageWidth="1169" pageHeight="827" math="1" shadow="0">
            <root>
                <mxCell id="0"/>
                <mxCell id="1" parent="0"/>
                <mxCell id="3" value="" style="edgeStyle=none;rounded=0;jumpStyle=none;html=1;shadow=0;labelBackgroundColor=none;startArrow=none;startFill=0;endArrow=classic;endFill=1;jettySize=auto;orthogonalLoop=1;strokeColor=#2F5B7C;strokeWidth=3;fontFamily=Helvetica;fontSize=16;fontColor=#23445D;spacing=5;" parent="1" source="5" target="12" edge="1">
                    <mxGeometry relative="1" as="geometry"/>
                </mxCell>
                <mxCell id="4" value="" style="edgeStyle=none;rounded=0;jumpStyle=none;html=1;shadow=0;labelBackgroundColor=none;startArrow=none;startFill=0;endArrow=classic;endFill=1;jettySize=auto;orthogonalLoop=1;strokeColor=#2F5B7C;strokeWidth=3;fontFamily=Helvetica;fontSize=16;fontColor=#23445D;spacing=5;" parent="1" source="5" target="9" edge="1">
                    <mxGeometry relative="1" as="geometry"/>
                </mxCell>
                <mxCell id="5" value="Light Waves" style="rounded=1;whiteSpace=wrap;html=1;shadow=0;labelBackgroundColor=none;strokeColor=none;strokeWidth=3;fillColor=#2F5B7C;fontFamily=Helvetica;fontSize=16;fontColor=#FFFFFF;align=center;fontStyle=1;spacing=5;arcSize=7;perimeterSpacing=2;" parent="1" vertex="1">
                    <mxGeometry x="1082" y="810" width="150" height="70" as="geometry"/>
                </mxCell>
                <mxCell id="6" value="" style="edgeStyle=none;rounded=1;jumpStyle=none;html=1;shadow=0;labelBackgroundColor=none;startArrow=none;startFill=0;jettySize=auto;orthogonalLoop=1;strokeColor=#E85642;strokeWidth=3;fontFamily=Helvetica;fontSize=14;fontColor=#FFFFFF;spacing=5;fontStyle=1;fillColor=#b0e3e6;entryX=1;entryY=0.5;entryDx=0;entryDy=0;" parent="1" source="9" target="25" edge="1">
                    <mxGeometry relative="1" as="geometry">
                        <mxPoint x="763.6412213740459" y="746" as="targetPoint"/>
                    </mxGeometry>
                </mxCell>
                <mxCell id="9" value="Diffraction of light" style="rounded=1;whiteSpace=wrap;html=1;shadow=0;labelBackgroundColor=none;strokeColor=none;strokeWidth=3;fillColor=#e85642;fontFamily=Helvetica;fontSize=14;fontColor=#FFFFFF;align=center;spacing=5;fontStyle=1;arcSize=7;perimeterSpacing=2;" parent="1" vertex="1">
                    <mxGeometry x="802" y="815" width="150" height="60" as="geometry"/>
                </mxCell>
                <mxCell id="12" value="Inteference of light" style="rounded=1;whiteSpace=wrap;html=1;shadow=0;labelBackgroundColor=none;strokeColor=none;strokeWidth=3;fillColor=#12aab5;fontFamily=Helvetica;fontSize=14;fontColor=#FFFFFF;align=center;spacing=5;fontStyle=1;arcSize=7;perimeterSpacing=2;" parent="1" vertex="1">
                    <mxGeometry x="1300" y="815" width="150" height="60" as="geometry"/>
                </mxCell>
                <mxCell id="14" value="" style="edgeStyle=none;rounded=1;jumpStyle=none;html=1;shadow=0;labelBackgroundColor=none;startArrow=none;startFill=0;jettySize=auto;orthogonalLoop=1;strokeColor=#12AAB5;strokeWidth=3;fontFamily=Helvetica;fontSize=14;fontColor=#FFFFFF;spacing=5;fontStyle=1;fillColor=#b0e3e6;exitX=1;exitY=0.5;exitDx=0;exitDy=0;entryX=0;entryY=0.5;entryDx=0;entryDy=0;" parent="1" source="12" target="174" edge="1">
                    <mxGeometry relative="1" as="geometry">
                        <mxPoint x="1650" y="790" as="targetPoint"/>
                    </mxGeometry>
                </mxCell>
                <mxCell id="15" value="" style="edgeStyle=none;rounded=1;jumpStyle=none;html=1;shadow=0;labelBackgroundColor=none;startArrow=none;startFill=0;jettySize=auto;orthogonalLoop=1;strokeColor=#12AAB5;strokeWidth=3;fontFamily=Helvetica;fontSize=14;fontColor=#FFFFFF;spacing=5;fontStyle=1;fillColor=#b0e3e6;entryX=0;entryY=0.5;entryDx=0;entryDy=0;exitX=1;exitY=0;exitDx=0;exitDy=0;" parent="1" source="12" target="20" edge="1">
                    <mxGeometry relative="1" as="geometry">
                        <mxPoint x="1590" y="806.3666666666668" as="targetPoint"/>
                    </mxGeometry>
                </mxCell>
                <mxCell id="16" value="" style="edgeStyle=none;rounded=1;jumpStyle=none;html=1;shadow=0;labelBackgroundColor=none;startArrow=none;startFill=0;jettySize=auto;orthogonalLoop=1;strokeColor=#12AAB5;strokeWidth=3;fontFamily=Helvetica;fontSize=14;fontColor=#FFFFFF;spacing=5;fontStyle=1;fillColor=#b0e3e6;entryX=0;entryY=1;entryDx=0;entryDy=0;exitX=0.75;exitY=0;exitDx=0;exitDy=0;" parent="1" source="12" target="17" edge="1">
                    <mxGeometry relative="1" as="geometry">
                        <mxPoint x="1518.843971631206" y="736" as="targetPoint"/>
                    </mxGeometry>
                </mxCell>
                <mxCell id="17" value="Conditions" style="swimlane;gradientColor=none;strokeColor=#61C6CE;startSize=23;fillColor=#00BFBF;fontColor=#000000;" parent="1" vertex="1">
                    <mxGeometry x="1560" y="100" width="300.26" height="155" as="geometry"/>
                </mxCell>
                <mxCell id="18" value="Coherent sources" style="rounded=1;whiteSpace=wrap;html=1;shadow=0;labelBackgroundColor=none;strokeColor=none;strokeWidth=3;fillColor=#61c6ce;fontFamily=Helvetica;fontSize=14;align=center;spacing=5;fontStyle=0;arcSize=7;perimeterSpacing=2;fontColor=#000000;" parent="17" vertex="1">
                    <mxGeometry x="9" y="30" width="281" height="30" as="geometry"/>
                </mxCell>
                <mxCell id="19" value="Sources close to each other" style="rounded=1;whiteSpace=wrap;html=1;shadow=0;labelBackgroundColor=none;strokeColor=none;strokeWidth=3;fillColor=#61c6ce;fontFamily=Helvetica;fontSize=14;align=center;spacing=5;fontStyle=0;arcSize=7;perimeterSpacing=2;fontColor=#000000;" parent="17" vertex="1">
                    <mxGeometry x="9.63" y="65" width="281" height="34" as="geometry"/>
                </mxCell>
                <mxCell id="186" value="Amplitude of source same/almost same" style="rounded=1;whiteSpace=wrap;html=1;shadow=0;labelBackgroundColor=none;strokeColor=none;strokeWidth=3;fillColor=#61c6ce;fontFamily=Helvetica;fontSize=14;align=center;spacing=5;fontStyle=0;arcSize=7;perimeterSpacing=2;fontColor=#000000;" parent="17" vertex="1">
                    <mxGeometry x="9.63" y="105" width="281" height="35" as="geometry"/>
                </mxCell>
                <mxCell id="20" value="Constructive and destructive inteference" style="swimlane;gradientColor=none;strokeColor=#61C6CE;startSize=23;fillColor=#00BFBF;fontColor=#000000;" parent="1" vertex="1">
                    <mxGeometry x="1650" y="274" width="380" height="280" as="geometry"/>
                </mxCell>
                <mxCell id="21" value="Constructive:\[o.p.d.=m\lambda\quad m=0,1,2,3,...\]\[\phi=2m\pi\quad m=0,1,2,3,...\]" style="rounded=1;whiteSpace=wrap;html=1;shadow=0;labelBackgroundColor=none;strokeColor=none;strokeWidth=3;fillColor=#61c6ce;fontFamily=Helvetica;fontSize=14;align=center;spacing=5;fontStyle=0;arcSize=7;perimeterSpacing=2;fontColor=#000000;" parent="20" vertex="1">
                    <mxGeometry x="10" y="30" width="361" height="100" as="geometry"/>
                </mxCell>
                <mxCell id="130" value="Destructive: \[o.p.d.=(m\pm\frac{1}{2})\lambda\quad m=0,1,2,3,...\]\[\phi=(2m+1)\pi\quad m=0,1,2,3,...\]" style="rounded=1;whiteSpace=wrap;html=1;shadow=0;labelBackgroundColor=none;strokeColor=none;strokeWidth=3;fillColor=#61c6ce;fontFamily=Helvetica;fontSize=14;align=center;spacing=5;fontStyle=0;arcSize=7;perimeterSpacing=2;fontColor=#000000;" parent="20" vertex="1">
                    <mxGeometry x="9.5" y="140" width="361" height="130" as="geometry"/>
                </mxCell>
                <mxCell id="25" value="Single Slit Diffraction" style="swimlane;gradientColor=none;startSize=23;fontColor=#000000;fillColor=#DE7A73;strokeColor=#DE7A73;" parent="1" vertex="1">
                    <mxGeometry x="209" y="580" width="460" height="190" as="geometry"/>
                </mxCell>
                <mxCell id="26" value="\[a\sin\theta_0=0\quad(Central\ maximum)\]\[a\sin\theta_m=(m+\frac{1}{2})\lambda\quad m=1,2,3,...(maximum)\]\[a\sin\theta_m=m\lambda\quad m=1,2,3,...(minimum)\]" style="rounded=1;whiteSpace=wrap;html=1;shadow=0;labelBackgroundColor=none;strokeColor=none;strokeWidth=3;fontFamily=Helvetica;fontSize=14;align=center;spacing=5;fontStyle=0;arcSize=7;perimeterSpacing=2;fontColor=#000000;fillColor=#f08e81;" parent="25" vertex="1">
                    <mxGeometry x="9.5" y="30" width="441" height="150" as="geometry"/>
                </mxCell>
                <mxCell id="30" value="Diffraction grating" style="swimlane;gradientColor=none;startSize=23;fontColor=#000000;fillColor=#DE7A73;strokeColor=#DE7A73;" parent="1" vertex="1">
                    <mxGeometry x="180" y="800" width="460" height="330" as="geometry"/>
                </mxCell>
                <mxCell id="196" value="Grating constant \(d=\frac{1}{N}=a+b\)" style="rounded=1;whiteSpace=wrap;html=1;shadow=0;labelBackgroundColor=none;strokeColor=none;strokeWidth=3;fontFamily=Helvetica;fontSize=14;align=center;spacing=5;fontStyle=0;arcSize=7;perimeterSpacing=2;fontColor=#000000;fillColor=#f08e81;" parent="30" vertex="1">
                    <mxGeometry x="9.5" y="32" width="441" height="50" as="geometry"/>
                </mxCell>
                <mxCell id="197" value="\[d\sin\theta_m=m\lambda\quad m=0,1,2,3,...(maximum)\]\[d\sin\theta_m=(m+\frac{1}{2})\lambda\quad m=1,2,3,...(minimum)\]" style="rounded=1;whiteSpace=wrap;html=1;shadow=0;labelBackgroundColor=none;strokeColor=none;strokeWidth=3;fontFamily=Helvetica;fontSize=14;align=center;spacing=5;fontStyle=0;arcSize=7;perimeterSpacing=2;fontColor=#000000;fillColor=#f08e81;" parent="30" vertex="1">
                    <mxGeometry x="9.5" y="91" width="441" height="110" as="geometry"/>
                </mxCell>
                <mxCell id="198" value="\[\sin\theta_m=\frac{m\lambda}{d}\le1\]\[m\le\frac{d}{\lambda}\]" style="rounded=1;whiteSpace=wrap;html=1;shadow=0;labelBackgroundColor=none;strokeColor=none;strokeWidth=3;fontFamily=Helvetica;fontSize=14;align=center;spacing=5;fontStyle=0;arcSize=7;perimeterSpacing=2;fontColor=#000000;fillColor=#f08e81;" parent="30" vertex="1">
                    <mxGeometry x="9.5" y="210" width="441" height="110" as="geometry"/>
                </mxCell>
                <mxCell id="53" value="" style="edgeStyle=none;rounded=1;jumpStyle=none;html=1;shadow=0;labelBackgroundColor=none;startArrow=none;startFill=0;jettySize=auto;orthogonalLoop=1;strokeColor=#E85642;strokeWidth=3;fontFamily=Helvetica;fontSize=14;fontColor=#FFFFFF;spacing=5;fontStyle=1;fillColor=#b0e3e6;exitX=0;exitY=0.75;exitDx=0;exitDy=0;entryX=1;entryY=0.5;entryDx=0;entryDy=0;" parent="1" source="9" target="30" edge="1">
                    <mxGeometry relative="1" as="geometry">
                        <mxPoint x="850.3587786259545" y="823" as="sourcePoint"/>
                        <mxPoint x="773.6412213740459" y="756" as="targetPoint"/>
                    </mxGeometry>
                </mxCell>
                <mxCell id="54" value="Thin wedge film interference" style="swimlane;gradientColor=none;strokeColor=#61C6CE;startSize=23;fillColor=#00BFBF;fontColor=#000000;" parent="1" vertex="1">
                    <mxGeometry x="1430" y="1290" width="890" height="280" as="geometry"/>
                </mxCell>
                <mxCell id="55" value="Phase change when reflected at an optically denser medium" style="rounded=1;whiteSpace=wrap;html=1;shadow=0;labelBackgroundColor=none;strokeColor=none;strokeWidth=3;fillColor=#61c6ce;fontFamily=Helvetica;fontSize=14;align=center;spacing=5;fontStyle=0;arcSize=7;perimeterSpacing=2;fontColor=#000000;" parent="54" vertex="1">
                    <mxGeometry x="9" y="30" width="861" height="50" as="geometry"/>
                </mxCell>
                <mxCell id="88" value="Case 1:\[(n_2&amp;gt;n_1\ and\ n_2&amp;gt;n_3)\ or\ (n_2&amp;lt;n_1\ and\ n_2&amp;lt;n_3)\]\[2n_2t=(m+\frac{1}{2})\lambda\quad m=0,1,2,3,...\quad (bright)\]\[2n_2t=m\lambda\quad m=0,1,2,3,...\quad (dark)\]" style="rounded=1;whiteSpace=wrap;html=1;shadow=0;labelBackgroundColor=none;strokeColor=none;strokeWidth=3;fillColor=#61c6ce;fontFamily=Helvetica;fontSize=14;align=center;spacing=5;fontStyle=0;arcSize=7;perimeterSpacing=2;fontColor=#000000;" parent="54" vertex="1">
                    <mxGeometry x="9" y="90" width="421" height="170" as="geometry"/>
                </mxCell>
                <mxCell id="190" value="Case 2:\[(n_1&amp;lt;n_2&amp;lt;n_3)\ or\ (n_1&amp;gt;n_2&amp;gt;n_3&lt;br&gt;)\]\[2n_2t=m\lambda\quad m=0,1,2,3,...\quad (bright)\]\[2n_2t=(m+\frac{1}{2})\lambda\quad m=0,1,2,3,...\quad (dark)\]" style="rounded=1;whiteSpace=wrap;html=1;shadow=0;labelBackgroundColor=none;strokeColor=none;strokeWidth=3;fillColor=#61c6ce;fontFamily=Helvetica;fontSize=14;align=center;spacing=5;fontStyle=0;arcSize=7;perimeterSpacing=2;fontColor=#000000;" parent="54" vertex="1">
                    <mxGeometry x="450" y="90" width="421" height="170" as="geometry"/>
                </mxCell>
                <mxCell id="78" value="" style="edgeStyle=none;rounded=1;jumpStyle=none;html=1;shadow=0;labelBackgroundColor=none;startArrow=none;startFill=0;jettySize=auto;orthogonalLoop=1;strokeColor=#12AAB5;strokeWidth=3;fontFamily=Helvetica;fontSize=14;fontColor=#FFFFFF;spacing=5;fontStyle=1;fillColor=#b0e3e6;entryX=0;entryY=0;entryDx=0;entryDy=0;exitX=0.75;exitY=1;exitDx=0;exitDy=0;" parent="1" source="12" target="54" edge="1">
                    <mxGeometry relative="1" as="geometry">
                        <mxPoint x="1920" y="942.5" as="targetPoint"/>
                        <mxPoint x="1520" y="870" as="sourcePoint"/>
                    </mxGeometry>
                </mxCell>
                <mxCell id="174" value="Young's double-slit interference" style="swimlane;gradientColor=none;strokeColor=#61C6CE;startSize=23;fillColor=#00BFBF;fontColor=#000000;" parent="1" vertex="1">
                    <mxGeometry x="1660" y="570" width="540" height="440" as="geometry"/>
                </mxCell>
                <mxCell id="175" value="Bright fringes: \[a\sin\theta_m=m\lambda\quad m=0,1,2,3,...\]" style="rounded=1;whiteSpace=wrap;html=1;shadow=0;labelBackgroundColor=none;strokeColor=none;strokeWidth=3;fillColor=#61c6ce;fontFamily=Helvetica;fontSize=14;align=center;spacing=5;fontStyle=0;arcSize=7;perimeterSpacing=2;fontColor=#000000;" parent="174" vertex="1">
                    <mxGeometry x="10" y="260" width="331" height="70" as="geometry"/>
                </mxCell>
                <mxCell id="187" value="" style="shape=image;verticalLabelPosition=bottom;labelBackgroundColor=#ffffff;verticalAlign=top;aspect=fixed;imageAspect=0;image=data:image/png,iVBORw0KGgoAAAANSUhEUgAAAysAAAFdCAIAAACM0WX+AAAgAElEQVR4Aey9d3QjSX7n2a19p7l7bzXav26fpD/udldu5Ha1Kz093cyOuketnh5p1N67ququ6uouy6qi9xYgQQ/Qe+9AbwGSIGhAAjQgaEDv4L33mUAm7yWSzGKxSDZZJIsu+KKrE0AgM+IbkZEf/OIXv3hlE908TkJRFNnEEoqiT8/jQb1vPPvm8S709OTn+jzo5ia8uelCNxF0ExcW3UQ9myi8ibi8Cd5E0U3Es+lxbnog7GCnbue6ai/WT7Ce4K3y5iaCYOJgauzoKpewyi8mFPgWUODCK4A9DjxIdVV1Xm4ef4J/QQbtCy870PniKvDKMYu+N4G50U03gnoQFLlqz1p0c9OzuQk/S2AIhh0I7E1e/kAQ77Ebg5JLjiM7CAxFMHG8uH7MXge+DhQACpxDBQCBncNGAUU6zwocn8C2bBwoYcxANjcxAkNRD3oVCQwjqp1ctY0gKILxFoakXjwjjgndLv8BIcVV43LwIxsocCUUAAR2nh/2oGznUIHjEtgeVUI2N4l0+aniSgyse7QyaFmgAFAAKPCsAoDAwFAJFDiSAqdAYM/ek0cqDcgMFAAKAAWAAhdUAUBgF7ThQLHPSgFAYMCIBRQACgAFgAInoAAgsLN6kIPrXlAFAIGdwLhzQdseFBsoABQACpygAoDATlBMcKqroAAgMEBgQAGgAFAAKHACCgACuwrQAOp4ggoAAjuBcecE2wOcCigAFAAKXFAFAIFd0IYDxT4rBQCBAQIDCgAFgAJAgRNQ4AwJDMUiIG16Y4GfQEVO+3mMeIuKhe0G6WorAAgM3ANAAaAAUAAocAIKnCGBIcimzY0arBAEe8451qDophPeNDsQm+O8F/WcK3kJigcI7ATGnUvQD0AVgAJAAaDAMRU4KwJD0U3Yg6psyPSy2mh2HrMWp/11BN3UWdF1JSSWW0/7WuD851wBQGCAwIACQAGgAFDgBBQ4QwJzudEVPdzcNy1TGs75Q9eDbop1Ht68YWJWdM6LCop32goAAjuBcee0GwmcHygAFAAKnH8FzpDAnDC6oIZKGgbWJepzLpQH3VxVOlkT0sHRuXNeVFC801YAEBggMKAAUAAoABQ4AQXOlsDmVVAhnb0mVp32U/OY5/egmysKZ++4pJ87e8xTga9fdAUAgZ3AuHPROwEoP1AAKAAUOL4CgMAOoyEgsMOodEXyAAIDBAYUAAoABYACJ6AAILDDcAMgsMOodEXyAAI7gXHnivQVUE2gAFAAKHCAAoDADhCH+AgQGCEFOAAEBggMKAAUAAoABU5AAUBgh0EKQGCHUemK5AEEdgLjzhXpK6CaQAGgAFDgAAUAgR0gDvERIDBCCnAACAwQGFAAKAAUAAqcgAKAwA6DFIDADqPSFckDCOwExp0r0ldANYECQAGgwAEKAAI7QBziI0BghBTgABAYIDCgAFAAKAAUOAEFAIEdBikAgR1GpSuSBxDYCYw7V6SvgGoCBYACQIEDFAAEdoA4xEeAwAgpwAEgMEBgQAGgAFAAKHACCgACOwxSAAI7jEpXJA8gsBMYd65IXwHVBAoABYACBygACOwAcYiPAIERUoADQGCAwIACQAGgAFDgBBQ4WwITqqGC+n6wLyTAmgukACCwExh3LlB7g6ICBYACQIFTUuAMCczhRmfVUH59/6pYhSIokRAPAkOwy+k6JwmGYAhGluUOsDP3KXXCi3VaQGCAwIACQAGgAFDgBBQ4WwKbUbkyKru54zMb6xvra+vra+trq2vLSyv8CT5vhHce0ihvdGFuQSxRTK8aAIFdLFQ6pdICAjuBceeU2gacFigAFAAKXCAFzpLAYHRK6Yim1iSn56ampCXEJ+ApJjrW54HP7Vu3z0O6+8Pd9NT05tZO9vgaILAL1LFPr6iAwACBAQWAAkABoMAJKHC2BMaXWW/5J/6Pv/vfP/2933/1lVfPYfrJ7/7kzTffCouIaWCOAQI7Pay5QGcGBHYC484Fam9QVKAAUAAocEoKAAI7GPsAgZ1Sx7u4pwUEBggMKAAUAAoABU5AAUBggMAuLgydSckBgZ3AuHMmLQcuChQACgAFzpUCgMAAgZ2rDnn+CwMIDBAYUAAoABQACpyAAoDAAIGdf+g5VyUEBHYC4865atGXUxjEg7ickBt2owj6cq4IrgIUAAqccwUAgQECO+dd9LwVDxAYILAjK4AiqM1qX5hf1Kg1MASftz4NygMUAAqciQKAwK46gW0e+WlyJh31/FwUEBjoMUdWAEXQ9bX1uJi4nu5ek9F0fnozKAlQAChwhgoAAgMEdobd7yJeGhDYkfnjIjbzyZYZRdDZmdmvvviqsqJKq9Ge7MnB2YACQIELqgAgMEBgF7TrnlWxAYEBAjuyAiiCTgmm3n3nvaLCYrVKc1Z9F1wXKAAUOFcKAAK70gS26f1Dj/xAOVd9+CUXBhAY6C5HVgAQ2Eu+S8HlgAIXQgFAYFeOwJDNTWQT2wcda/udaRNFjvxkuRCd/GQLCQgM9JIjK4AT2HvvvFdSVKJRAxvYkQU82XsYnA0ocE4UeIbAxvk/Uirvw3vzJJ7TKLrpgFGwK9GPCH4K1inUgyJuBPvXg8AuGHJCMAQjHgTFsAyDsxNp35dfr5d2RUBg4PF5ZAVwAnv/3ffpdXS9To+iICDFkTV8aXc4uBBQ4KUpgKKox4NUVVXn5eTxf4zAMJOJB0vHLx4gsONr+AJnQBEUdsE2i80De2AINhqMSrlSp9XDkBtnL9wqtnVmAshO9eAUKPMFlDn8VwCBgWfnkRXACezjDz+eGJ+wW+0nMoYevsuCnEABoMD5VABFUI/bU1VZdRgCQ9yIG3K7Yffx6wII7PgavsAZUARVq9RTk1NGg8npcM4L57sZ3WO8MbvVjhOYG/YgHmTrzKcKXsTJAYG9QEOCr1wsBVAEnRZMf/zhx/xxvsPuwIKynsRUwsUSAZQWKAAU2KXAkQjM48YMJycSUPAqE5g3OLbLoDNYTBY3dAI4S7Qp4kEgF+x0ON2QGwcpxI3YrXaxSGwymmAXbLfa+RP8woIi7ghXLJJ0M3vyc/Mb6xvFG2K9Tu9xe9ywx+PeIjAUQa1mq9lodtgcWDkJZtrnwA257TaH1WyFnBDiRvbM74E9DpvDbDQ77c6tPIcmMBRBnQ6XXmdQq9RajdZishAVxw9wC5/T4YRc0FOOPPT5n57twBhpwAZ2ZAvQU2VfoDEuxVdwG9hHH3zEG+HZ7Vs/d4AsQAGgwBVXgCCw3Jy8iR+bhTwlAvvbv//l7//0P/3Oq79zDtP/+ZP/69dvvhUeEdvAHO8dl/RzZ4/ZYVAEddgdG+siJqN7fW3dYXcc84TE171ht23iDbFwRqiUK11OF4qgdpt9ZWmlqbFJMCnQqrVqpbqjvSPQP7CmumZyYrKhviExITGDmtHN7OYMcZRypd3mwAkMRVDIBQ1zhnu7e2enZ416455ERbyJIqhRb5yZmhka5MhlcpfTRXxEHKAIajZZ5ryGt+Wl5S3D2+GesCiCumH30sISm8XuaO9k9bBmp59pC8SDOh1OsUg8Nzsn3hDbrDZCmSMfPEtgW5PvXj85FNkEBAYI7MgK4AT2wXsfMBlMs8m8dUscrusfufuC0wIFgAIXRIHnCQwzJECwTqtXKpR4UqvU+G5mJ05gAoU9IL7w7sOA69euf/LxJ+cwffH5F3GxpJraxl7e8vEJDEVQl8Mllch6unujo6Knp6aPBQo7+hiKoHqdfkow1drSWlVRxR/nm01mFEENeuModzQrM6u5qXllaUUiktTT6+/+cLe4qHhmaqapsYlMIpNiScWFxRXlFZxBjkatJQjMbrMXFhQmJyW3t3XIJLKDHwQogsqksrbW9rzcfOGscM96oQiqUqqZjO6E+IR+9oBBb9h1To/bY7faLWYL5IJ2feQ1gDlbm1uTKEkJ5ITS4tJR7ujOPB43YjSYhoeG62rruCNcvVa/89OjHW8T2NO1oh4UX6kACOzI8HE06Xf06cv0RZzA3nvnvbLSMmwtJG5GvqSVvUwNB+oCFDhVBXYRGP5SIVcMsAeaGpoa6hsbG5oYXUyVUmUxW5wO50nOQrrRGZUrq7p3cmZZo9KolerzmQx6o9niXJDYToTAdFodb4SXScv8/rvvZ2dmcZ8Q/Em/PQmIeWIhHsTj9uAJf/n0X/fWR/hEG/5dl9PF445m0jKDAoJCg0PbWts1ag2KoCajaZI/WVJckpWZNTE+IRFLmpuaH9x/UF9Xr5ArOjs6KQmUxITEkuKS3Jzc8tLyjXURQWA2qy01JTUsNKy2pm5jfYPAEezxgXrjWewIZoF4EJlU3tHemZOdOyecs9vse+aRS+XNjc2BAYFdnQyNWoutwcTgZiuZTeY54Rx/gi8RSz1uz84tjLEpUYs1JSnl7g93I8IiGhsaRRsi4ouIB3HDbq1G29nemZ2VzWazdVod/iniwTwdifRUxh0KP6Mzgv1t/dhwwR7Ys+U2vR07DdjAAIQdWQGcwN55+53CgkK1Ug0I7FSfauDkQIGLosBOAhsfm3DDbr1OX1dbFxMVc//u/e9u3b539350ZHRleWVPd49EJIFdJ+cH5kZn1VB+ff+aWHXO5fKgmysK54kQmFKhbG9rDw0JTaIkGQ1GxI1gUOuNCmHQGVRKtV5nsFqsVovVoDeqVWq9Tm+1WB12h9PhxJLdaTFZNGqNWqW2mDFHKJwzZFJZdVXNI5/Hn3786WeffFZUWCyTYlYrL4SZuzoZAX4Bba1tapWaM8QJDQmbmZox6A1dnV052Tl1NXWcQU5RYVFxUfHa6vouAgsNCa2uqlleWrHbHHavQxjOTG7Y7bA7IRfscrrwj+xWu1ajnRifcDqcKIJFu4BckM1qI5LT4ZRKpE2NTQH+AR1tHVKJ1Gq2Ws1WzCfMgzgdLv44n5ZOi4qIqqyo0ml1uOUVr4XH7VEr1Y8ePnpw/2FlRdXq8ioMwd4yOBx2h8VsMRlNapV6hDMywhlZX9uw2+x4CW1Wu1dJjUatMRlNTrvT5XS5nC6H3WEymDRqjUqpUilVBr3BYrY4bA6Xw4VVRK0Vi8RymdyoN2LzuSiKA9jmJpiFBJaboysACOycD/GgeECBM1GAILCc7NyRYa5cJq+n11/7+prPQ58MWkZjfWNTY3NIUMiXX3xFiiNNjGErqU/ME//qERjiQeaEc0WFRdGR0e2t7TarzWQwzc8tTE5Mzk7PdnZ0ZWdlt7e2z83OLc4v9rHYeTl5rS2t83Pzep3B5XBhEbwgWDgrLC8tz8nOGRocIghMrVJzR7h1tXRaOu3+vfulJaUEgTnsjinBlM8Dn9KS0o31De4INyY6ljvCVcgVHe0dOIENc4arq6pLikueJzC/J360dFpzU0t7W0dXJ0M4I7SYLLALFosk/ewBHpc3whlhMrp7e1iCyamV5dVuZrdBb7Db7Bq1VjApaGpoaqxvrKutq6utGxsdm5uda6xvvHf3Xk52Tm11bUV5ZYUX7rUa7ZxwrqSo5P7d+9evXY8Ij+AMcXQaHb5SAfEgBr2R0cn4+KOPP/rgo7SUtOGh4YX5xaXFZVYPq5vZXVlRWVtTO8YbH+wf7Gb2eBXTizbEfay+ro6utta2/Lz84qLiwYFBvVaP93m1Ut3X21eQX5CSnJJISWxrbZsSTOm0OrPRvLSw1N7WXlpcWl1Z3cfqW1lewUx623/ABnZkC9CZDG3n6qKAwM5Vc4DCAAXOiQI7CYzJ6Gb39QcFBj249yA3J3dkeES8IZZJZIxORkhQSIBfQF1tnWhDBAjshdsO8SC8EV5iQmJoSKiAL3A6nAqZoqW5NTUlLSUpJSUpJSYqhhJPSU9Np1Ez0lPT42LikhOTqek0Vi9LrVJ73B6T0TQ+NpGdmU1JoHR2dNosNnzdn8vpMugNC/ML9Fq6z0Of0pIygsBcTtf83IK/X0BOVo5wdk44O1dRXkmvo09NTrW3tpeWlLa3ts/OzA70DzQ3tXin/7C1kLhff0pyyvVr1x/5PE5NScvKyEpKTE4gJ4xyR/U6/fTUdAYtIyI8Ii0lLTsrp76unsnorqc3hAaHzs7MriytNDe1pKdRqenUlKQU3ye+jx89bqhvEPAFNVU177z9zo1rN0JDwuJi4oIDg4ODQli9rLHRsdzs3Jvf3vzwgw8f3n/YzegWb4idDucmuumG3CqFil5X//6777/79ruxMbEdbR3DQ8ON9Y1REVFxsXFpqWk1VTWcQU57azstndbR1jElmOpj9aUkpwQGBCZSEklxpLDQsLSUtAH2gMmImb5YPawMakZcLCkqMvq7W9899nnc2d65srQyxhsrKS5NS03PzsymptNo6bS6mjrh7BzkgnBLGCAwQGBHVgAQ2AsPmuCLQIFLrMBOAmtrba+rpb/79rupyakjwyMatQZyQW4Ye/gVFRY9eeybmpI2MT4BCOyF+wPiQYYGhsLDwh8+eLi0sAS5IIlYUlRY5PvELyI8sqqiqqqiihJPefjgYUhwSFlpeU1VTVZG1sMHD4uLitfX1nVa3ShvtKmxOTI80veJb15u3uz0rFgkwWfxUARVKpStLa3PE9jK0kp0VDQ1jTrKG5OIpdOC6T5W39LCkoAv4A5zhbNCjUqzsbYhnJ3T6ww7ZyFTklO+/ebb0ODQ6spqRicjLyfvu5vfZWVmz84IB/oHfR74fPH5F9R0WntrO487yu7rz6BlfvLRJ8OcYcGkIC01LSgwqKKsooHe8OTRkzs/3Kmn189Mz1RVVL3xz2989eXX1HRadVU1OY587evrmRmZI8Pc6qpqf1//725+FxcbNzkx6Q0VC2+imzh6Dg1yvv7y6y+/+LIgv2BinM8b4WVnZt+6eSs0JLSulj4+Ni6YnGqsbwwNCc3Nzu1mduPHt27eysnKKS0ppSRQQoJDqem0hfnFqcmpgvwCSgIlKyMrJzv3zg93P//087oazIW/qrIqPDQ8KzO7taW1oqwinhQfT4pvamyymK244x0gsCPzxwvfMJfmi4DALk1TgooABU5QgZ0E1tTYXFhQ+NovX6upqhGLxDhp4WvQWppb/Hz9oqNi+tkDgMBeWH+cwEKCQm5/d3uLwESS/Nz8oMCg/LyCpYWlhbmF4sLiB/cexMWSJvmCpcWltta2B/ceZGVkzU7PCmeElRWV6WnUW9/e+uyTz4ICguh19OGhYYPOgLtM7UlgkAtaW12PJ8cnJSYN9A943aHMcpnCZDQZ9AadVofPKlotVovZ6nS4dhHYk8dPcrNz+eN8mUTW293r88AnJDiE3dff0937/e3v7/xwp7Oja2NdpNPqpgTT6WnUd/79Hc4QR8AXxMXEPXn8pLO9c2hwKDQkzO+JX3tb+7xwvra69sMPPoyJjvXOJC5UV1Xf/u52PCl+ZHikm9mdlJgUGhJaUlyikClgyI074+Prc8Ui8f279+/euctkMLUa3Zxwnkal3f7udlZm9szUjE6rE22IGugNgQGBKckpbS1t9XX14aHhD+8/HOwfnBjn11TXRIRFBAeFjPHGBvsH01LTkxOTa6pqWlvawkLDv/riq+bG5v6+/rTUtO+/+z45KaWutq4gvyAkOBRTICfXaDDhygACAwR2ZAUAgb3woAm+CBS4xArsJLDamrr0tPTXX3u9o71Dr9tazI/Hhert6Q3wDwgPDe/t6QUE9sL9YW8Cy8uPjYlldDFhyO20OxsbmvBZP61GC0PwyPDIk0dPqGlU7ghvcGCwIL8giZJ07etr77/7/v279/Ny87qZPVqN9jAERooj93T36rS6A8pPRGTFZyHxtZB1NXWidZHD7hDwBeQ4cqB/IJPB7GOx/fz8U5NT54Xzdpsd8SAryysEgU3yBWGh4bdv3a6urK6tqfXz9Y8Ij8ANb431jQ8fPGygNygVSqPB2MPsCQoISkxI5I5wR4ZHcnNySXEkei3dYrbsjKrqjSVm9vfz933iN8IZgVzQxtpGJi0Thzy9Vu+BPRq1ZheBRYRHBPgFKOVKrUbX290bFxPn+9gXJ7CUpJTYmLiS4tKOto6E+IRHDx8NDw1zBjmxMXEfffCRzwOfmOiYsNDwB/cePHn0pKigiCgPILAj88cBHe6KfAQI7Io0NKgmUOBICuwksNaWtoqyitdfe721pRVfzI/7A0EuqLenN9A/MCIsgtXLAgR2JIV3Zt5NYE5IIpIU5BWQSfHsPrYb3pfAcrJy5oXzS4tLfaw+JoOZmpIaHRVTVlo+Oz2rkCu9tiLMc0upULY0t+CzkFKJDF8mSdjAyKR4Vi/rqAQWEhxSU12z4V1dyB/nU+IpoSGhPd09/ez+kOCQ/Lz81ZVVpwNbzLiTwAR8QTw5/sa1G/6+/v6+/r6PfctKytZX13dFozAajKzevvCwiCRK0lMCiz0CgQX4B7D72BazxeN+SmCpyam4DSwiPCIwIEin1el1hp0ENsAewGd7A/wCyHHkeHJ8b0+vXKbgDnNJsaTr125Q06hNDU2tza3Njc2MTsa0YBqLjuHdTxkQGCCwIysACGznOAiOgQJAAVyBnQTW1tpeVVH1v3/xy/Q06vrqOhFuyuV0MbuYwUHBKckpE2PAD+zIwy/R2bYILDj0h9s/zAvnXU7XIQksNztXLBJDLshitvDH+dlZ2YkJicwuJu6o5yWtTQ/skUlkTQ1NPg99iotKxBtiLNoWgkJOaG1ljRxHzs7MnpyYtFmxSF37pV02MNwTP4OasbSwpFaqqyurr1+7np5GnZ6a2Y/A3v7t2wP9A2OjY2QS+fq16499Hvs+8SPFkVk9LK1GexgCi4uNq62uNZvMh7GBPU9gQQFBqSlpba3YLOSeBDbKHe3t7g3wC/j8089vfXsrKDAonhw/NMhRKdWT/MnMjMwAfyxyh0wiM+qNOo1OqVDpvCsoAYHt22/260/gfVyBZwhMBeKBgY4EFAAKYArsIrDamrpf/8uvH9x/2NnRpVKqnQ6n1WKViKWZtMz7d+8XFRZtrG9cXRvY2HF3JUI8yMjwSAI5IcA/sKe7x26zez3xixMpif3sfjfsdjlczU0tfr7+NCoNn4XkjnB9H/vm5uRKxBJ8Z57FhUV6Lb20uJTH5REPOMgFi9ZF3cyetJS0H76/QybFM7uYEpHEYXe4nK4FbC2kf7Z3LSS+upD44q6D5wns66++DvALKCspa2psSqQk3rp5q7y0fHlphTPEiY6K3mUDo1Fp77/3fntbe1Njk7+f/1dffuX7xDc6KiYzI6ujvWN5cXl5cbmhHnPV6upkaDVak8HUt20D443w+OP80uLSiLCIpMSkeeG82WT2wB7iEWY2mfE1uSOcERiCJWJJYUFhSHBIP7sft4Fp1dqmhqbY6NiiwuLe7t6G+oaoyKjwsAi9To/ZwHpYpFiS7xNfnMACAwKvX7vx4P6D8LBwUhyptaV1bWVNwBcU5BcE+AdiYV1Z7DHe2MT4xOyMUCaVY/O8wAa2q7uAl4dUACewd99+t6igSK1SH/JbIBtQAChwuRXYSWDeaBRsP1//b298mxBP6WjvHOGM9Pb0FheV3L51++Y3N+vr6rVqzDnp+JpgO3NfsHhgrt4xaT9XeJy6owjqjQdWHBEWUVVRZTFbFHJFa0trZUXllGAKi8PugjmDnOys7Ib6BqPB6Ibdwtm5JEpSPb1erVLjYU5NRtPa6try4jI+kuNTjTqtns1iZ1AzgoNCHtx/GBgQlJWZPdg/qFQo7Tb7xPjEI5/HZSVlonWRe5tp9qzITgLDdiXKLwwPC48Ij4iLjSPFksgkcn5evmBSoNfpZ6ZnigqK6LV0qVgKOSFsVyKJrJ5eHxQY3M/ub2lqCQkK+eH2D6Q4Un5efnJiMimWVFZSxuplMboYCfEJ3BGuyWiyWqzjo+NZGVlFBUVzs3NSiXRwYDCTlhkVEdXa3CpaFxG8iO9xWZBXkJaSJuALPG6PQW9g9bIyaZljo2M2qw3xIEa9sa+3Lzc7l8lgTk/N9LH6MjMyC/ILzSaz2WThcXl5OXlJicnCGWFrc2toSNgjn0cx0THpaemxMbERYRFtLW1jvDFmFzM/N58cR05OSk5LSSsuLO5mdK8ur+J13ERBRNb9Lah7dinwJv5Ld0ow9e477xUVFqtVGqAJUAAoABTYaQPLzckbGuSsr200N7V4l4wFx5MT0lPT48kJTx77fvbpZ9/dul1RVrG8uIxtLHvsQfgiEljPmOz4BCaTytpb20mxpJSkFKPBaDQYZ2dmBXyBUqFEvfvniEXiUd6ocFbodDhx3yZWb9+0YBrf5+d55XEC06g1QwNDleWV+bn5WMorqK+r543wZBKZVqPtaO8ICgxua23TqrXPn2HnOx43tiES4f83wB5oa21rbGisrqouLSltbGicE85ZLVYYgmVS2TBnmD/ONxlN+A5CZpNZOCvsaO+Ym51rb22PjooODQ4tLixubGhKoiTdu3MvKjKqrbVtdma2taVNLJK4nC7IBUnF0qGBoeGhYY1agwVIkysGBwYrKyq7md0yiQzb4dvb2fDlkBNjE2wWWywS4wtENtY3BtgDG+sb+DbkTrtzZWmlv69/cWFRo9KsLK+wWWwed9TpcLqckGhDxBnisHr7ZFJZWUlZUEBQdGR0UWFRbXVtAjnh2lfXqOlU3ghveWl5cmKytrq2IL8gPzefXkvnDnPlUrl7e2Em8AMD0wdHVmDLBgYI7NhPjp2jFTgGClx0BQgbWF5O3sT4BPZElMgYXYysjKyE+AQ8xZPjw8PCQ0PCUlPSWppblpeWd+3Z9wIiXDgCW1ZA3WNy9rFtYAa9gccdzaBl+jzwkUpk+B44dpvd496absN32sFtPzhdYfv2eAOTHqCz0+7UqDQSkQRPUrFUrVRjwSY0unnhfAYtI5GSOMwZ/lF6xnccwgkMcSN6nV6tUhNJo9a4nFhofsSD2G3YHkRWC2Z8wguGelDIBem0OrFIXFdTFxYShu0v5I3+Sm/P7LsAACAASURBVE2j+vsFpKakcYe5VotNpVTtrK/NYiNWGrpht9lkVsgVxAJPota4GcxoMOJqeDcychr1RofdQVAj7IKNeqPdim1JhEepNRu3/MkgF2TFLmS1mC15OXmPfR7HxZKqq6qbGpoSyAk3rn9DTadOCabMJrPdalfKlVKJVCqRKhUqk8EEObd3Cge7EhHtAQ4OrwAgsMNrBXICBa6OAk8JLDePP8HHH70Ws0WlUMkkMiJJxJLB/sGigqLcHGyKx2Q0Ec/dF9PqQhLYuJzNnTtMfXFy2vNfGILX1zaqK2vu/nB3mDNiNpmJbIc585HyoAiq0+oG+gdiomIaGxrXVtcIk9KRznOEzJubCIJxG6uXFRIccv3r6w8f+Pj7+t++dTsoIKipsUkskrhhbMttLNCXd4fvI5z8eL+fCZ0dNkd7W0dwUPCtm7fu3b335PGT7259d+f7O+2t7RqVxg27t/ZN3qd4wAZ2ZAvQS2vjc3shQGDntmlAwYACZ6jAngSGeBAP7HHD7p3JbrXrdXqdBgvgibixRXbHKfaFI7AlBcQcl/cdmsAQ75SiG5PxmQRDbrvNoVVrN9Y2TAaTywnhGQib0HFU3fVdFEFdTpdSoRJMCmRSmc1qx2OK7sp2ki83N1EUhSFYKVeO8cYYnYyuji5mF5PJ6B4bHZeKpXYrFjnsLAnMWzypRMob4XV1dnW0d3R1dnV2dA5zhmVSmcPuAAQGAOvkFQAEdpKjzPF+ioGSAAXOjwLPE9h+ZcPdwBHcTwjZPKYB49ITmFcuFPHsmTDAhSHY4/Z4Z/S28uyn/HHeRzwIBEFWqxVyQt7Loeg+pp3jXGXnd1EUs29hgTNMFrVKI5XI5FK5Sqk2GU3egPtbUbV2fuXlHG/ZwFAUQRCX02U2mdUqtVwql0vlGrXGbDRjEnkw+xxWnv17OLCBnTygvJwecIZXAQR2huKDSwMFzq0Chyewk63C5Sawk9XqZM6GYJFHvOllPUCRTY8bgVwQwZrY1b0BHU6mRkf9JUwo4GVE/BeFG3LDEIwrc8hSAQJ7WR3oqA18jvMDAjvk3QWyAQWulAKAwA7T3B5080izkIc555XLs79V6aVJcSTS2q9UgMAAgR1ZAUBg+91O4H2gwFVWABDYYVofENhhVLoieQCBHZk/rkjPOKCagMAOEAd8BBS4sgoAAjtM0wMCO4xKVyQPIDBAYEdWABDYFRkdQDWBAkdSABDYYeQCBHYYla5IHkBgR+aPK9IzDqgmILADxAEfAQWurAKAwA7T9IDADqPSFckDCAwQ2JEVAAR2RUYHUE2gwJEUAAR2GLkAgR1GpSuSBxDYkfnjivSMA6oJCOwAccBHQIErqwAgsMM0/R4ERoQ22ArxgAd6+JF/D3MtkOecKwAIDBDYkRUABHbO72pQPKDAmShwSgSGIii+MZ8bdu8ZPf/ixgPDIxpATshsNGvUGqVC+aNJrVKbTWbIBR1zK6cz6SHgorsUAAR2ZP7YpeAVfAkI7Ao2OqgyUOBHFTgNAkMR7740CqVwVqhUKCEn9DyEXXQCE2+ImV3M3OxcMolMiiPFxcbFxcZFR0VHR0WT4khkEjmeHI+nhHgKjUrrZnZLxVKXw/WjLQIynHMFAIEBAjuyAoDAzvldDYoHFDgTBU6DwGAIlkvldTV1sTGx9Fq6RCR53vZz0QlMqVAODw2Xl5aTSeTgoGCfhz73791//93333v3vaDAIBqVVlxUXFpSWlpSWlZaVltTN8obVSvVkAs6k1YGFz1BBQCBHZk/TlD9C3oqQGAXtOFAsS+5Anig8J3hwonjzaMNdPjsGGZtenbjP+J94sC7FyFC/OuG3ZUVVbk5efwJ/omo7XQ4lxaWKPGU69euJ1GShLPC57edvugE5nQ49Vq9aEM8OyMcHxtndDGaGpuTE5Mf+TwKDQ5l9bLWVtckYolELJFKpHKZ3KA3uJyu50n0RAQHJ3mZCgACO9rA9DLb5txeCyewD977gMnoNpvM57acoGBAgauigNeVG8MgN5aIeTps5zxs82J0E//7sb3OCK7yuD0qhUohUyjlSjwp5AqFTDEnnBsbHeON8HgjPO4wt4fZ09jQWFtTW1tTW1db11DfwOhihASHJFIST4TAUAQ1m8ycQc6XX3z1T7987dpX13p7emEI3tWsGIHBqFAFFdT3r4lVm9h2gbvSORrn9/DERzdRZBPxILi7m0Fv1Kg0C/MLFeUVvo99u5nddpt9V5XBy8uhACCwc3RnXpQuhRPYRx98NDkx6XQ4L0qxQTmBApdWAYLAvBCGExhGXsgWgWHHKIogiMftccNuN+yGXJDL6XI6nA67w26zW8wWs9GsVChFGyLRumhOONfb3dvS3NJY31hfV19VUVWQV1CYX5iYkBgRFhEWEhYdGZ2SlBIZHhngF+Dn6+fz8NGdH+74PvHNzMh8+OAhJYFyUgSm1+mZDOav33zrb//H//zNr3/T3NgMOXfPvqHophMnMDp7TaLcPaaf4f7NeyHvngT2fM+EIbivt+/enXu1NbVWi/X5DOCdS6AAILDdd+slaNTTrgJBYAK+ABDYaasNzn+pFCAmCnc9m/d7f1e2XS+938INVxhdebx0BblhCIZckNOJ0RUGWHa71WqzWq0mo0mj0qiUKpVCtbG+sbq8urSwNDszy5/gc4Y4bBabXkcvLSmtKKugUWmpKanRUdEhwSF+vv53frjz+aef37h245vr39y4duPG9Rt3frgTGxMbGhIaHRUTEx0bHBj82OdxPDm+j9WXmZGVl3sys5C4DWyEM3Lzm5tv/OqNb29829fbt6cNzOlGhWqogN63Jr4kBOaG3GwWGyOwakBgl/YxDQjs0jbt6T23AIGdnrbgzJdNga35P+//0E3MrQpP2xOD2Ac4VxHvP4tZxMwgiqCEuxV+4HF7PLDHDbmdDqfNajMZTSqlSiFXyqTyleWVeeH8vHB+emp6fGxicGConz3A7GLW1dQ11Dc21DfkZOekpaQlxCeEBIf4PPT57NPPP/rgo88+/ez729+HhYSRSfH5ufn19Pq21ra21rauzq6JsQnRukgqli4vLk9PTY/yRjs7OosKi+LJCffvPXjk8zgvJ48zxLFZbVWVVSdFYJvopsft0Wl0ba3tQYHBDfUNCrmCmGMlugpmA3Ojcxoon85aEyu2piB3fvyspMQnZ3JwSBsYILAzaZ2XfFFAYNvD33m6RV9yJzjq5QCBHVUxkP/qKrCLwAgIe57A9hmCEA8CQ7DT4bTb7CajSa/TazValVItk8pFG6ItO9b07PjYOGeQw+hiNDe11FTXFBcWZ2VkJScmx0bHRkZEBgUEPfZ5/PjR47CQsPQ0Ki2dlkHLLCosrqyorK6q7mjv6OpkdHUyGF3MPhZ7jDc2J5xfnF/cWNuQiCQSkUQmlRn0BqMB808S8AUtza15uflRkVEhwSGZtMzmxuZR7qhoXaRWaSAXdLIEhiKoxWzpZ/eT48gD7AGzybwfgQm1UH59HzYLiTuBEX3uYs5CAgIjGvASHwACAwR2ZAUAgV3iEQFU7WQU2I5yjp1t598uAsNcsFGP2wNDMAxjU4cOB+aVZbfZbVab2WQ26o0atUYqli4tLgkmBZyh4W5md3NTS3VldUF+YXpaejwpPiI8MiQ4NDQkNDIikhRHosRTkpOSqWnUTFpmTlZOSVFJeVl5dVV1bU1tY0Mjo4s50D84ODA4MjwyJZhamFtYWVpRKVU6rV6vw5JBb7SYLXgZnA6n0+HCyM9gksvkM9OzjE5GEiUpwD+AFEeuqsTQbWJ8QiqWmk1ml9MFuWA37D5xArNarIMDgwnkBM4Qx2K2PN9AuCf+jBrKrWWtbMgRj3tH8hALFPBlCmf8rwdbKbGkgJjj8j7u3PN1Id4BBEZIcYkPAIEdmT8ucW84ZNVwAvvw/Q+BH9ghFQPZrpAC2/OMqAdFPLs3lsFnD/H5RI/bA7kgq8WqVmlE6yLhrHBifGJwYJDZxWzZYqwCGpWWlJiUEJ8QT45PiKckxFMo8ZTEhMQkSlJSYlJSYnJyYjLOWznZGGzRa+nNTc2dHZ1sFnuEMzIxPjEvnF9dXpVKpEqFUq1WexnLYNAbTEaTzWJz2B0uh2vn8km8pbZ8yzyIyWhaWlzqYfbkZOckJyanJKUkJ6Xk5xWwelkbaxtajdZqscIQvOX776XJsyIwvsT+OCqDlJCanEghxcVupzhSLOmcpARyQnVVNXtgeGhafqoERsxc7womcoVuw30syudNAUBggMCOrAAgsPN2G4PynK0CxANv68CDrUD0uBGXE7JZ7WajWavWKmQK0bpoeWl5Xjg/Mz0zPjo+whlhs9hdnVjwp9rq2qKCotycXGo6NTEhMTYmLjQ41PeJ34P7D+7fvf/I51FwYHB0VHRyUnJ2VnZpcWldTV1ba1sfi80d5gr4gvk5DLNE6yK5VK6QK9QqjLTMJrPNanM6nLAL3oodRfic7f98ItjLoDdMT013dnSVFJdQ4ilBgUEx0bGFBUX97IH1tQ2rxepxe3ZNCJ5GRFYUQQ9jA7ND6Oiq+Z0vH/7jL17/sz/9kz/6gz/4w6fpD//wD84+/dEf/NH/+//8l88+/TwhKb2JNXPqBObthIDAznZk+NGrAwI7Mn/8qKaXPgNBYFvRKPbxIL70OoAKXgUFntIVZtPaGXrUA7lgPKCDzWqzmC0mo8mgN+i0Oo1ag/tpra6sTU/NjHJH+3r72lraaqpqCvGpQ3ICBliPfe/dvXf3h7s+D30C/ALCQsJIsaSU5JQMWkZ+bn5JcUlNdU1jQ2NnRxebxR4eGuZxedOC6aWFpdWVVfGGWKVUGQ1Gu80OuSAchrZNawjqQfGm2QpIgTtC7Y9fBHW5YbfD7jAajEqFcmSYG0+Ov3/vvr+ff1JiUlNjE4/LW5xfNBlM+z3Xz5bAeMumf/ng5p/+7G9+/6c/ffWVV1955VXsv6306qvYyzNOP/ndn7z55lthEbF0Jv/IBLZtW91ayeF96bWzYn2SeHO7D2BLNLZCwe1P21fh/j3ndQQEBgjsyAqgCDotmP74w48nxiccDsfWzQ/uc6DAuVfgKU4hu+cHn/8I5y03jAV3cDkhh81hszwlLZVStb62MSecm5qc4o5wMcZqbauuqi4uKsnOyklOSiHFkqIjoyMjIiMjokhxZFIcOZ4UT4mnUBIolITEpMSklORUWjotNzu3pLikurK6va29t4c1MsydmppaXlqWSWU6rc5msUFOCHuaPhub/pDPFaxS3plQLP9eBEbU2uP2WMxWuVTOn+DX0+tp1IzUlFRSLCkhnlJWWj7GGzMZTIgbOfi6Z0lgLmR40fDGB9/8yV/8zU9//z+98ur/8corv/vqK//Bm84YvAjyOw6BYebGZyEMRVCXw2UxWSwmC9bK3uRyQhaz1WQ0b00uHzoY78EtCz49JQUAgR2ZP06pJS7QaTECm5r+5KNPRjgjIFjzBWo4UFQcOBAP4oExI8EBCXbBmBe8SrOyvCKcEfInJocGhro6GQ30hvKy8oL8guys7AxqBjWNmpaSlpKUkkhJJJPIMdExmF98UEhwYHBIcGhUZDQlPjE9lZqfV1BZUdXU2NzN6OYMcfgT/NWVVblUrlVrDTqD2Wi2mq12q91hdzgdTpfLBcOw2+32uDEvcqzM2N+LjFSHITA8FLtELGEymIUFhcmJyRHhEZERUWWlZdxhrkwqs5gte/qKPd+dzpLAIJS3YvyXD278yV/89eUjMIvZsieBScVSfHMCs9GMuBHYBYtFEv7E5JRg2maxYeAOCOyFbpzn+/YpvQMI7EXGtVNqjItyWu8s5PRHH348yh112B0XpdignBdFAcIw80yB9zLhPJNhn6GWOJvL6ZJL5RPjE12dXZ0dnfxx/tTk1K7EH+ezWeyO9o6O9o7O9s6Oto7SktKc7JyszKz01PQEckJUZFRwUHCAf0BgQGBYaFhcLCk5KSUrI6uwoLCyorKxobGjrYPVwxrmDPMn+MIZITZpuLy6vrouEUuUcqVGrdHr9CajyelwuiG3x7uJEOLZNm/sU4U9zVeHqjseFv/ZcAyEIJAL0ml1S0tLw5zhwoLChPiE2OjY5KTk0pLSvt6+1ZVVo8Hoht2HuRCe5wwJzAEhY6uGX39w40//4q8uCYHBbh6XFxIcQk2jcoe566vrKoXKbMJQDE+IB5mfm6+urM7KzB7ljjodTp1G19fbV1tTOzTIAQR2+H57hjkBgQECO7ICW35g+K5Edu+uRN4pjjPsx+DSl0kB7AFD+BHvmH17xqsJ3/dvO+jDzseSy+nSarRqlRpPUol0bHRslDfKZDCzM7N9n/h+9eVX176+FhQQFBqCBXEICwmLiozKzMjMy8nLzswmx5FDg0MjwiIoCZSSopKC/MK83LyC/IKSopKy0rLK8sqa6pqG+oa2ljYmg9nP7h/2LjmcnZ5dWlwSizDMMugM2Oyh1z0LM2J5UA/sDUJAPDsRzK616d0NEMWqsOMeJGaa9qOx472PbRTp9qiUqsWFRR6X19nRWV5WnpmRGRkRSaPSmhqbR4a5S4vLRoORWOF4+K51tgQ2vmJ46xIRmMftEc4KkxKT7v5w1++JX1pKWmlJWVNj0+DA4PzcvFQitdvs01PTmRmZfk/86un1Br1hYX6hqLAoKzNrjDfmtDuxJa7ABna8++Xwnf/FcgIC2zH2ne+merEGPo1vbRPYh1OTUy6H6zQuAc55dRXAoWrbrwVHq83tNz0wFjoL23LHG6HU6/KCBSnVaXV4UqvUqyurrF4Wo4vpTYx6en1QYFBQYNCd7++88+/v/OM//ON//+v//nf/8+9e+6fXfvX6r371+q9+89Zvvv7y60RKYgYtIy83PzMjKy0ljZpGLSwo7GZ2Dw4MDXNGRrmjU5NTSwtL66vrUolMo9aaDCar2Wqz2uy27dlDJwRDWEAsYvYQd9zZ8tFBtrzjsTeJoQbnLSJmGBEtbGceIvPxDlAUhVwQ7mXf39dfUlySlpKWmpKanZVdU1VTW1M3zBmWSWVe1/7dW18/LfCBZThrAtO/hc1C/tXv/fT3L4EfGOJBlpeWM2gZn3/6+b++9a9ffPbF97d/ePTwUXhYeG5ObjezW6PSLC4sFhcV+/n6paelS0SSnu4eSgIlJztneXEZhtzEgoxDNh/I9vIVAAS2YzQ8cHB5+W1zbq+45Qf28SfTgmmnw7lrRfq5LTYo2HlWALdvbS02xAJqbm1xiLtquWEP7IKddqfZaFYr1RKxZGUJc8+aGJsY7B9kdDLaWtpamluwnaQbGgsLCoMCg5489sXTnR/uvvHPb7z15ltvvfnWa//02s//8ee/+Pkv/vn1f37jV2/89l9/+8F7H9z69hYlntLbw+IMDQtnhctLK3haXVlVKVV6nd5oMJqNZrvNjrgRfFtrj/vpekNM1f3+vESFW7m2DF0Ecr2U0cbrQLYV8dVqsa6vrff39dPr6pMTkwP8A8JDw/Ny8wb6B9VKtclodtqdHrfnOJ3k1AlscP+IrBAytqx/64Prf/KzS0JgHrdnbnYuOTH5zvd37t259/jRY38//wC/gMCAoOioaHodXSFXyKQyRheDEk959PDR+Oh4fm5+TFRMXU2dRq3FY9E9g/svpcsdp/9cwe8CAgMEdmQFUAQVzgq/vfHt7PSs0w4I7MgCXoyBBve72kUML+SMRUwR7jzYGdkB8SIX5ILwWPAWs8VoMOq0Om+sdp1Wo5PLFOtr6wtzC2O8sc6OzpqqmqzMbDIpPigw6Lub373z7++89svXfv7//XxX+sXPf/FPv/ynt3/7NpkUn5Odi3vMkOLIZFJ8clJyBi2D0clYmFvQ6wwHtQgxLUhIsacIe0LYadq0DiqzN9Q+HpgAgjBnr411EZvFpqbTbn5z81ev/+q7W7czqBncEa5Oqzv4PEf69PQIbGhgCIuJ/yMEpntKYK9chrWQfb19t2/dTk1OFc7OPb/mCUVQpULZx+pLTky+9tW1/LyC6Mjo3Oxc/jj/+cxHakeQ+aUpAAjskj4+T/PnDoqgCrmiorxCpVC5ITfu0fLSuiy40EtS4EQJDN94x7vFjcNqtmL77XgZS6PSKOVKqVi6vro+L5wf440N9g+2t7VXVVYV5Bekp6ZHR0UHBQbfv3v/5rc3v/3m5h1v9Cx/P//IiMiE+IS01PS8nDx6XT2jk8HqZbH72Oy+fjaLzWax+/v6pwRTog2RUqHEjFgms9WCXdegNxoNWDIZTUQwrYMkJQiMuKeORGAEhBFffykHHrfHaXdqNdpJvoBeR4+Njn34wCcwIBDjzi4GZ2hYLpM7Hcc1eu3S7dQIzDY0yEkgJwz9CIFhNrA/xm1gl4LA2H3se3fvV5ZXGg3GrZi6OzoPiqAatXZwYCguJu4f/v4f/Hz9goNC6HX1UrH0+cy7Wgq8PCcKAAK7egSG/1jfcScftS9icWicLrlM7nK6MEfjZ1daHfVsIP85VWBzE1tIhzvzPj/RhvcfL514nbux+O8OO7anodUbNMtoMBr0Bu8e0iqZVLa+ur4wvzAlmOIOc9l9bGzjneaW6qrqkuKS3JxcGpWWmpyakpSSmpKalpqWnppOTaNS06kZ1AwalZZBy8ikZWZnZRfkF1aWV+Ib7+AeWjzu6LRgem1lTSFT6LXYGkOzyYz/azaZnQ7nyTyKCOvXAXfNnjawPVntgJMc7yMcgKxmq16rX11ZHeGMNNAb4knxkeGR0VHRGbSMxobGifEJFTbnaILhF3T2OqC7nhKB2Sw2Dk5gA0P77gsJIWMr+jffv/bHP/tLzA/sEhAY7O5n9z988LCqospqsT4vO4qgTodzemo6KiLqP//f//mTjz9JSkzicXkmo+n5zOCd86kAILArRmA7nxPHG+7PZ4cGpToZBbz9BF835/F4PG7sH3wfQywKvNOJ7dlsd3p5y2o0GOUyxerKmnBWOMmfHBnGwpN2tHc01jdWVlQWFhRmZWbRqLStlE6jpdNwtKKmU9PT0tPT0qnpVHwpYllJWVVlVVNDU1dHV29P79Dg0BhvTDApmBPOrSytiDZECplCpVDhu+7gpGWz2Jx251bYUiz+0dZa/ZPR4YLcIyiCwhBsMVu0Gi1/YrKttb0gr8BLsbSU5JTC/EJmF3NOOKdUKM0mC+ajjS8LOGlAPFUCiyfHDw4MWUz77Mzt9QN78/2v//jPLw+BDfQP+Dz0qayo3I/A7Db7JF8QHRX9X//Lf3386DGTwVQpVTB08mx9pe6ml1lZQGBXhsB2shd+fEGeLi/zfrgA19oRf2FvN9s9Zw8PbOud7lnYMf7n3WXZ5XDZLDbcJUsiliwtLs1Oz05OTI7yRocGh/p6+xidjJbmlrpaelVFVVlJWWFBYU52DjWdmpKUkkDG4ktFhEeEhoRGhkfGk+NTklOyM7OLC4urKqsa6hs62jt6unsGB4bGRsemBFPCWeHS4tLKyqpYJFbIFGrls5sbQjDhJ44X8pnGen6u8MAqP/PdC5uTaDibxba2uj40MNTR1lFYUEgmxcdExWRmZLa1tI0Mc+fnFrQaLRZdYhtPT8lu/RIIzHwQgenefO/af/vzv/iPv/fTy2ED+1EC06i1/ez+2JjYd95+p7GhUSqR4vhFdIyjHBzjUbjTSHzSWH85btX9agEI7Bjd7mIN3LsI7GIVHpR2WwFsSPVuUIgtNX8+ZgEx/G1/tPcQ7H0S46HhIRc2e4j7SBn1Rr1Wr1FrlAqVXCYXbYiXFpdnpmeHBoaYDGZzU3NFWUVudi62X00cKSw0zPex7/279+/euefz0CcoIAjbfieWlERJolFphQWF5WXldbV1zU3Nne2drB7WCGdkfGx8emp6YX5xdWVNKpF6Vxoa7DY7FvYTebaDbtd3a+Ta9ZsBrx1R2TPytdpvVH0J7+PN6nF77Da7TqubmpyqrqrBosUGBsdExaQkp9Dr6JP8SZ1W53K4dkYlwFwG8Ahk2z3kBEt7WgRmtXGGOLgN7CACW9L9+v1r/+3P/vI//t4lmYXcj8Dw1ocheHlpuZ5eT4oj0ag0pVxJhM/d+673hqNDPLjDgBOP97Yj54s/CrdO4v3lhnWnXTcmfi9fyd9IP3pzAQJ78W73o+Keoww7n267nm3g5YVSABvsPF73LHz3Za+31s4R8KmdA0ERZCusA+yCISfkcrrw5HQ67XaHyRvZYXVlbWpyijPE6ersotfSS4tLqelUMik+PCzCz9f/8aPH2AJ4/8DQ4LCoiOi4mLgEckISJSktJS0rIys/N7+4qKS8rKKmuqatta2np2fIa9CanppeXVlVKpQmA+bt7nK4YDz+O75HITEW7/zpvGcr7ASvPYd14lvEOYl3LukB3tYet8dhd2hUmjHeWFFhcVRElN8Tv7CQsMb6xt7u3qXFZbPJTJgMnw5EuIanptUZE5g3GsUf/+yvrgiBadQaRhcjLTUtJyvHYrLs5/JIdBgYgvFYemKRZGF+Ua1Ub+15hU9JE71il5V9x/vYzyQiee8v3Fzu/U34zKD0tMvh+fHFuXve/sQJnzvYGta24xgf5uUeP0rP9zgACAwQ2NVQ4Hzfh08HrB8r59NhCF8AsYPA8PgOuIUM8m7Qq9PqZFLZ2sra3Ozc+Og4Fjqri9Hc1FxbU1taUpqfV5CTlUNLx7zgkxKTKAmUeFI8KY6ETR2GRYQEhQQFBoWHhkdHxSQnJedk55aXVjQ1NvV2944Mj0wJphYXFqViKbatodlitVptNtvWtobYxoZPdzbEw8Ej3u13sNikz20w/HRMJ4ZgQgRAYIQU2wceNwK5oPW1jdaW1qLCorCQMH9f/7TUdHotvY/VZ7PaHDYH5ILxh+vufnV5CczuQnhLmt989M2f/iW+M/fvvvrqT7Z35v4dYm/sMzz4nVd/5ye/+5Nfv/lWWEQsnclnjsv7uHO7G2i7lTfRTTfsPtgGzbhMsQAAIABJREFU5obdG+sbw5xhHpe3d3N7z4YiqNVi3VjfEPAFgkmBQq4Y5gzX0+uHBof0Oj3sgrdMpMTdh2xi1nE3tovDHvcmkW375Nitjftf7mkDw+3TXgLD9qkkNuAizrP/wVYoY29wZjwUM+zCIBJbHkREbH72ABAYeJyfSwV2Psl23OT73f94JCF8csphP6EFZYe47n7lOdfve+d0ns7s4APKyVX2KXJt/xbEt1J22B1Gg1GlVEnEktWV1fn5+ZnpGf44n8flcYY4rN6+zvbOpsbm2pq6yvLKooIiaho1KTEpLpYUHhYeGBDo5+vn7xcQEhwSHRlNSaDg84aV5ZX1dCyyQ39fP3eYK5gUzAvnF+YXV5ZXRRsimVSmUqh0Wp3JaLJarHa7HXJBCLbBziax98lOY6t3150tv3hixDxoTCfG4pNT71z3nENXE78fnQ6nRq0Z5Y3V1tSmJKcEBwWHhYbRqNgKx2nBNLYaVKc/VH1PTecztYGh46umj77xef3N3/zt//r7P/nzv/7TP/+bn/3ZX3rTz372Z+ci/c1f/83Nb26m07Jb+4VHJjCi1bYPsLWQdqdRbzQZTHvcVtu9yxu0QjPAHsjMyExPo/ax2G2t7SXFpQ31DaxeFn+Cr1FrttwAvNYvN+xWq9TLS8tSsdQNed0Dtq+46yp4t4Qh2Gy2mM0WfGn8Vg8kBgJ0E0GwLcMNeoOAL8ADGO06z34viaEPcsGiDdH42Pgod3RhfsFmtXncHuJTrNfBHpsF+wW4h913W4dD3RovPTOwgZ1LYHrp/WBX70Q8iE6rG+GMsHpYM1MzNqt9VwbwklDAy17bnEEMVUQL4u8QL/fyWNo5lOCjCR6b1GKyGHQGjVqjkCmkYqloQ7S2ura0uDQnnJvkT3KHuX0sbMkhva6+pKgkLzcvg5aZEE+JjIgKDQkLCgwKDgqJCI+Mi41LTEhMS0nLoGbk5xVUlFXUVtc20Btavdsa9vX2DQ8Nj4+OTwumF+YXVlfWxCKJWqU2Goy4exY+yG79wn62Lvh0JwZgO9OeoUkIWQ55sFOuq32MIqjNYlMqlCvLKyPDI7U1tZR4ypNHT0KCQ/BNk+aE8yqlCguMjM9Kn6lcZ0lgMDoltYclFhSWVtHrG6pq6NU19NrqOm+qra0+F4leRx9gD0zPzo0uaA4mMHxx6zM2sEPeO0S27Z6AEZhK09vDIpPIUZHRzU0t9Fo6zbskubysvKqianhoWKvR4r+XEA9iNBh5XF5VZRWjk2HUG4mB7vkDfHCwWqz4cLSxtvE0EixBYJuYRc1uc6wsrxYVFjEZTKVCuetUeHgjs8mC+SwSm3d5y48i2FZaErG0nl6flJiUnZXT090jWhc5Hd79iLfzWC22Ke8IhkXiIBQ45MG2ULtK9XJeAgIDBLZbAfzmH+WNxsXEhYeF11TXyGXyA6zcL6enntOrbBnAnlLI0/sfv7HxUQCzEnmJxYO4IbfL6XLYHTarDQ/+rtfp8bhZCrlCKpGur60vLizOTM9MjE0MDw339fZ1dXS1NLXU0+urK6tx2MrKzMrMyMrKyMqkZaanpidSEpMSk1OSUxLiKXGxJDIpPpGSSE2nFeQXVFVWNTY0dnZ0Dg0OTfIFK0srMolMp9FZLVaXC8Lcs2BvsAk39i8Rpx6HKmxQRjFnsi0LFkZaz/QW7xD8tO7Et/ZorEOOhkS2Mx0W9yj/SywPLiPiQSxmq0qpmhZMdzO7a2tqszKzSHGkxITE9NT0enr92uqaw+7Yz/vnTKpwhgTmhFGh0pVX07OyofDeal677EtstcML7kE3lxTQngRG/JixWW1ajZbRxfDz9WtqbLJZbcRHzx/gg/OWE8LOn0Pbxwa9YZQ3lp2VnZ6a3tvd29jQmJaaTk2ntTa3ZmdmV1VWra6s4gSG7dquUDU1NsXFkooLixUyBXG5XRXEQtV4sE26DHoDo4vR2NA0NTllNpmxMQFBsdg1bjcMY9ukuiG3xWSZ5AvIcWRqGnV2ZpY4J85bMATLpDLeCG9tZW3nfvA44Rn1xqHBoZjomEcPH2VnZQ9zhtdW1uw2O/HTF6dGVg+LM8hRypW4w8Nh//UgOwuzawDc+ZH3+JnRb5cgL/YSENjJa/piLXF+vuVxe4wGY2lx6QfvffDRBx/Fk+Mn+ZOYu8Czv07OT4HPsiReYsBHCuzuxXbXQTywd09D2I37vWIBtBxODLlsNrPJrFFppGLp6srqnHBOMCngjnAH+gd6e3o72jsa6huqq6pLS0qLCovy8/JzsnMyvICVnJRMSaCQSfFxMXHRkdGREZGkOHJKcmpuTl55WYV3vWFLN7NnmDPMH+cLZ+dWV9ZkUplapdZpdAa9wWgwmYwmm9XmdGBxs2AXjDlk7GjNp1Oo+z2xkM1tCHvmftkeofDldVsotm9zEHR1mIP9SnLZ30fciMvpwiJ7aXUT4/y2lra83LzkpOSkxKQMWmZVRdX42LhoQ2TQH7iT0hmp9DyBbfeQp5i+b/fYp8yYFfAQayExAlND+XXsNZHqqJd4yfn3JDB8DIFckNVitZgtc8K5wf7B0uLSiPCIgf5BHLUJPiAOcGM5bq62WW1Wi9Vhd+Ae92aTGQ9K7HF7LGbrnHAe//3Gn+AzGczCgsLGhsa52bmcrJzc7FzhrHAngVWWV4aHReTnFaytrFnMFovZstMiDrkgCMIWUJuwgcWs1+rZLHY3o3thbsFqseKbMRj0BrVSrVKqtBqtUW/UqDS8EV5cTFxEeMTgwKDdZseTG8ZC05lN5n52P5lEbmpo0ml0BIThBrD1tfXKisoH9x8G+Ad0dXbJJDK9Vm+12Ow2Bxb82YSVzWwyc0d4o7xRuUwOOSG71W7zfqTT6LRqrclgwhYDuWB8QZLdajfosOKplWqDHluLDXsj3cAQjP8qNpvMNqsNc7HwIETCBsBnf3+eSLcBBPbME+VENL3QJ0FR1GazTQum01LSvvjsiw/f//DBvQfVldVWi/Vc/do+ssg7V9IRU4EECuwz+u+6yvOPE+wdrysoHtnBYXeYTRa99/aWS+WidREWQGtmdpI/yePyhgY53cye1uZWei29vKwiLzefRqVREigx0TGhIaF+T/zu3bn3/Xff3/nhzpNHT8JDwxPICRnUjKLCInodvaO9o4/F5nFHhTPC9bV1sUgik8jwoFlezDJazFab1e6wOZwObJ05XvItD62d68O3vdawDMQfUX1CkF0HRIad39ol6c484PgoCuzsV2aTeXF+kclgVlRURoRHPnzg8+TxExqVNswZVsqVOo3uxAL9H6WEu26E/V7uJLCJ8Qn8Jb781uV0QS4If+LupP/9TkW8f0gCc8DorArKpw+uidXEd8/nwfMEhuOXxWxZWV5h9bJ6untoVFp4aHhYSBi+KSTkgp4a17fvTdSDqhSqmemZacG0TqubnJgc440tzC8oFUqFXNHV2dXV2TUzPWPQG0xGM05gRQVFc7NzA+yBqoqqPlafXCYvLizOz83fRWAV5RWhIWGJlMS21rZuZjeTwRwfG1cpVZALdtgd66vrq8ur04Lpwf5B/jhfLpVPjE2MckdF6yKMe8yW1eXV3u7eBnpDS3NLD7PHW6pFziAnKiIqMCCwqrJqlDc6yhvjT/C1ai3kgpYWl9JT0997973oyOihwSG1Uo2PYB63x6AzDLAHEimJX3351d0f7tbX1S8vLquV6nnh/MQ4f2iQ08PsmZ2eNeiNgsmpKa83pMlgwrffGBsda25srqmqGRwY0qq1du/waNAZFuYXujq6igqKCvML21rapqemvdjnVqs0k/zJoYGh/r7+8dFx3A3umaUDp3DLAAIDBLatgBfwURT7RcIZ5Pj7+UeERwYGBP3w/Z2Y6BitWnvhnByfGX934cL2KLY1rh3u1tr5pETc2Hwi5MJCPHi3O7Qb9caNtY3pqel+dj+9ll5cWJyWmh4eGv7g/sOvv/r63/71t796/Vev/fK1f/vNv33y8Se3vr3l98QvIjwyJSmlIL+grqaO0cngDnOnBVgch421DfGGWCaVKRVKjVpr0Bkw53ez1W61u5zeZYawG//bilbv8SDbf1ghcWesXbC1XcdnsAyHsO2Pnh/l99CH4LZdkhInAQdHVADvV4gHcdqdPO5oIiXp888+//ff/rvPQx+MvYYw9rJZbG7YjTkg4+tJj3iJZ+6FU/vuLgJzOpyL84vNTc11tXX0OjqjizE/N09YOA5ZpCMS2NAFJTCzyTzAHggNDr1x/cb7771/7etrlHgKq4elkCscNu9c864hy7tikT/BL8wvTKQk0qi0JEpSYkJiclIyts9EanpMdExMVExqShqji7EwvzgnnK8sryTFkbo6GW2t7VUVVew+tlKhbG1pLS8tn5vFVmXizadSqMrLym/dvHXt6+vRUTHRUTGPfB5R4im93b0ry6tzwvnamtrUlNR4cnxSYlIDvUE4I6TX0qsrq0d5oytLK6Pc0YqyCixgTWp6eFhEeFh4fm7+oBdrbly78c7b79y/dz8ulhQXS0qIp3S2dyrlyinBVGxM7Bv//MbNb26WlZatrqxixOldDapWqTs7OgP9A//tX3/79VfXSopLhzkjHW0dlITEoMCgmOjYnKycmuqatZW1irKKpoam1eVVmURWkFcQFBBEiiVFR0b7PvENDQ5l9bC0Gq3JaGL1sqjptMSExJgobFozKCCoorxiTjinUWva2trJZGwLr4iwiNiY2Nyc3Dnh/DPsewo3DiCwbf44BXEPOcScl2zeO9zj9sgkstKSskcPH1VXVhcVFvn5+j957DvGG3M6XOelqM83FoEF+Ee74GDXp8/bwLyLgLA5RO8EIgw9nUAkAEur0UnEkoW5hVHeaB+rr72to6a6pqiwKIOaQSbFR4RFBAUGef3fg0OCQ8JDw2OiYhLiEygJlJTk1AxaZk5WTl5OXnFhcWVFZQO9obO9E1tvOMKd5E8KZ4WrK6sKucJsMmMLDCEIm0fAXSjc2EN3yxKOeF0W9l52uF3DZ6u/B2xtZ9zj/8+ruuudPb7z3Fu7vkKU57mMB72x50ku0ZtYu3i7nMftcTldRoNxaXGppbk1KzMrJjoG23ScnJCVkTU0OLS6smoymtyw+0JYoAkCy83JGxwYXFpcqiivCA8L986YY7t/pqWktTS1rK5gHmyHHEyuAoHhfWB1eXVoYKiH2dPR3tHb3TsxNrGxtqHX6vHVjtiUn9edABslbHbIhW0RwR3hxkTHXP/6OplELikuiYyIvHH9xjfXvwkLwRbJRoZHhoWGZWVmD/QPSsRS3givtLiUzWJzR3hjvLH11XW7zT4zNTPCGZFJ5bsI7NrX1z//9HNyHLkgvyAwIOjxo8cZ1Iy+3r6JsYkMWsZXX3595/s7yYnJ/z977x3W1pW9C3/3n+/+9c1vJplMJtU9rnHv3XGN7Tju3ca90XvvvYoOovfee++IKpoQoAIIhBpCAnUJCfI9+2wQMsY2cezczFx41iMfH52mffbZ591rvetdxUXFuE6cn4+fp4dnSVFJXW1dfGy8rbWtl4dXclKKtZW1poamh7tHVUVVdWX1rZu3zpw6o6mhifJC+Xj7mJqYuji5dOO629vanRydfz5z1sjQKCc7d4gypIrAigqK7Gzsrl659vjRk7jY+LrauuTEZB0tnXt37xnoG4SFhlWUV/T19NnZ2KE8Ue3YdjKp38TY9MmjJ+am5o72jmamZrrauihPVD+pf5TFjo6KMdQ39PX2zcnKsTCz0NXRQweHNGAasa1YGysbQwNDDzePUHSova39o4eP4uPiaSM0ZUhhkT32d222hMCWEJhKC0z9JhKK2ts63Fzd9XT16+vq62rrvFHe2lrakRGRC9bE/V297VNtPA9vqQbdkNc2fDHI5xGzhKCMtFAgAimHHC6TwRyiDBH6CJ0dna0trZh6TFVFVXFhMQgapqQlJiTFxsRGRkSGoEMC/AN8ffx8UD4ebh6uzq5Ojk72dva21rZ2Nnauzq7eXkAgMTY6NjUlrSAfwKzmpmZ8N35wgEIbobOYo2yEmzUxPsHn8YUCoUgIQodQs/R3RWfmGlP158OJsjJW+NFRy7twE/Ldgmd8717zNljwIP/pK2dJJLCQuVgk5nK4/eT+hvqGzPTMkOAQTw8vVxfXAL+A9NT0psbmYcrwX41oP9fl3nIvVBAYuqK8orWl1dvLW0tTO8A/MC01LTgo2EDfwMTIpLa6dpy72OrR/90IDMYfK8orvDy8DA2Mnj97/m578fyFno4eOgjdiGnkcriYeoyFmcWtG7fSUtN6e3qzs7J1tHVfPHsRER7R0d6ZlpqGkBwc0tMyxthjnDEOmUimjdDYo2wuZxz2Lt44b4zNgYAY1oFl0plxMXFPHj3RUNfIzszu6+3Ly8mzMLMwMjSKjY5tbmxGeaHu37vv5elVV1tHHaYODgx6enja29nn5eSVFpcGBwZbmlumpaZjW9uCg4ItzCyCA4ObG5vr6zBq99Ueqj2MiY5paW4pKS5xsHcwMTZpw7YND1ETE5JevXwVHRlNJpEhmey3aZBEKRQIuzq6Av0DXzx74eTg1IPv7Sf1pyanGugZGBkYRUdFd3Z00ml0Yh/RyMDI3s6hqbGZSCBpaWrr6+lHRURVlFVkZmTZ29lramjW1tQODw2HokMN9A0S4xP7evr8fP2NjUxCgkPKSstSU1Jv37ptZmIWFRGVl5Pn6+177849D3ePrs4uoUD43p7/wRssITAV/PGWYeWDG/c/bsfpqWkWk5WTlaOnq6+lqVVZUVlbU+vvF/D86XN9PX2YEfkX/FFIkuE0dBTBAtIgQjcJTCabFIskvAk+e3SMPkIfGhwik8i9Pb1dHUA6qwHTWFtdW44UN8zNzk1PS0+IT4yKjAoNCQ0KDAITO3dPmMJta2Pn6ODk5uoOFKiDgqMiohLjE9PT0uGgU1td29jQhG3BdnV29eB7iATi4MDg8NAwnUZns4HrG/I65aC+NaB2IrlaIMcQeLVUFQVnX9If3shKBAY78xuRi7fGGRez5bwHRAmblOtVsaBypRIOKrd/74Lqvv8ty9OKaYUcpGhIxBIWcxTQcaqqk5OSA/wCXJxcXJ1d42LjKsorcV24IcrQ4gHKh3eVT9CwCyIwPV399LT01pbW/Lx8ezv7Z0+fpaWmMRmL5cv/1yMwhVwRFxundv/BoYOH16/b8G7buGHjvj37tLW0c7JymAwmQGDmFmr31BobGsUicS++18XZ1dLCClOPkYql2FZsYECQpbllXGz8u3UlYC9SIrD42HgdbV0XJ5cefI98UjFEGfZ099RU1wwKCGpubPb19tXV0c3LyRtjj01NTTHoDC9PL3s7e0gaCwoMsjC3zEjPwLa2RYRFeLh5pCSn4HH4psZmEPUzMW1saBTwBV2dXSgvlJmpWXtbO2Ti21rbFhcWz+lZzEZFaVRaTFSMgZ5BZHikfFIxzhnPSMuwtbH19/VvamiSiCXySXk/qV8VgWlr6djZ2pWXljNoDFxXt4+378MHD/Ny8/rJ/aEhoXq6+tFR0W2tbf5+/tZWNkmJSVWVVehg9M9nfjYxMglBhyQlJIGZg4aWj7dPG7btk7oe/uMRmCo151OkKvylBrhPfTFTiiliH9HLw+v6tRvqL9WjIqOio2Ls7ezv3r57/ux5bAtWJBD9CdEQiKiAQ2gWkUDI8vq9BtlVQJtUJpeKpSIhoMCPc8bH2GMsBos2QhuiDA/2D5KIJFwXrrmpuaaqpriwGBAzE5OjIqPRQWhvlI+zE4j6m5uam5mYwbihi5OLp4eXr7dvcGBweGh4dFR0YkJiWmpaVmZ2YUERVM/CtmJxXbi+3r6hwSFAjmYjyg5iKWAZq4QIZ37FzKWDq33X7VMCoI/7XlQe9iMuvP0Klbdp7pfCO/jHINdrqZqzXWLuFKrXA3+m6pq/wDLsCUC4coJHpzH6evrKSsuiIqLcXd3tbOzcXd2jIqOKCovx3XgBXwCDQW929f+UNQq5Ij4uAR085wMz1DcsLSkbHhpuaW7x9/N/9vSZv6//4MDgwndQlSGA3Lv/egQ2pZhqbWmNj0vw9fFzdnJ5t7k4u3ijvDPTM7u7uvkT/LraOnMz84dqD5ubmiViCaGX4OHm4eLsSugjyGSy9rb2ICUC475L2QvcC6S6BlSjSIhLsDS3DAkOGaIMTcomGXSmv58/9L2BKKSvv7mZeXFhMWeMAxAYg+HpDnxgudm5JcWl/n4BWppabq5uiQmJ7q7uAX4B5aXlA+SB5qYWRwdHO1u7psYmAV+A68KhvFCmJqZt2DbeBK+yotLa0rowvxAgsNlnHAL6GQSmbxgeGi4SiiECc3V2jQiLaMO2qSIwBzuH5qYWIoE0g8DKypl0ZjcOr0RgRAIpMCDoyeMn1lbW0VHRdrb23igfTH0DrguHDkafOnlKT0cPBXLM0T7ePm6u7mmp6SQiafER87d26bePQv8NCAzUKwDFCuQK+dQHNMGn2AUOl/DIEChADd+3ngu+ot5+n96640fcZeo3xaSitbnVyMDo7p177q7uMdGxUZFRXp5eL56/PLD/QEJcwgB5QCxcLIHjXdcMnSUqsAC0mMqfUoMK+IkUUwqFYnJyEuRAS2VSKRB3APoOQiAKT6PSiH3EjraO+tr6kuLSrMzs+Nj4kOAQL0+UrY2duZm5kaGRsaGxqYmphbmFjbWNvZ2Dk6Ozm4ubp4cnygvljfIJDAiKjIhMSkjKysgCVIaautaW1t6e3oH+QRqVNsYeEwlEMolsrqSGSpsDcKDqxIIU+Fn1r7m3JrLNnP9J5QjvaqX3bvYm4FCuUWnbufN+lJVvvyrwe+EvRbaByAPe2Zmf+TYo9vZjIohkVu0CKSg+k2ew4C7Kn7/gt39g5dytnNVYWvwa0Htlk2OjQF0iKTHZxdnF2NAY0lYSE5IwdRgalSYWAjnvGT8u4iqDTtw3Pydn8z+UOYZQ7gQ+FKqfIqEIShtAQQE+jy/gC+YZn8eHsgUf5XNifILL4YaHhQcGBMIoJMoL9eL5i5joWGxrW1FhsZWF1ZPHT4ICgiiDlLf1/DcbVigQ1tfWuzi71lTXvrUyt3wax5KFplX/JzLx39YU716vkCvKy8qNDI1fvVTv7uqWSqSUQQqizOxPJpHlk3J8d09wENrSwjIhPgFIlb67/6sgsJSkFF1tXTsbO2wrlsvhdnXi3N3cTYxM4mLiujq6/H39He0dqyqqxrnjEIF5eXrZ2dplZ+Xk5xW4u7o/uP/AyMDI1trW3RVkU5JJZBZSwNTezt7T3bOjvUMoEHbjulFeKGND47bWNt44r6y0zMjAKCUphTfOU2pPKhFYXGycibFpoH8gZYAyzgU+sHkIbIA8YGxo7OTg1NrcOovA7CvKK9mj7L5egr+v/6MHj/Lz8tuw7V6eKLV7apoamqAWiItbZXklm8Ue6B+ICIu4euUqyhNVWw3Il4MDgwP9A9ThEai//56me3fDvvPb/3gENqWYGmWNdnZ0duO6Wcy/Sh4yHETgbQP68qNjw5Rh3gTvrTfyr4HA2KPsnKwcLQ0tc1PzzvbOocGhocGhblx3fFz8jes33FzcWppbJ8bf/ive2dVe++0LIrBZEDY1BYT+pBKpgC8YY49Rh6kkIqmtra2+rr6stCw3Jzc5KTkqIgodhPb38/dB+Xh5eHm4ebi5ugNzcXNxdnF2cnZyBOaMxHdQXqigwKDoqOjUlLRchKxQV1uPbW3Dd/eQiWTq8AiLOYrwJEDKoZAvlEgkUolMJpHJEcFSOCJAfPjar0Cq8czgDIjDZh1d898i/5cgsFkMDVsJNMLrzfI2ADavVef9F+YTIDMZRFZqFubO2+yT/nf+DV0cDptSAHGv4aHhpsbm9NT0QP9AIIlkaR0cFFxcWNyIacR14vpJ/VBYhEFjMGgM6vAImdTfjet+m+G6ustKy1KSU1QtPi4+OjI6KiJKaZERkShPlL6egbamNjQdLR09HT19PX1V09TQfHD/wfWr1z+aXbtxYP8BI0MjiMC8PFH376m5gBhrvDfKR+OVho21TUlxyRh77G33a6bbqLQwRGCui0JgVf1Di41vvu0CPvX6N9UoPuyMCrmiuKjYQN9QR1uH2EeUSWUjVFpsTFxYaNgAeUA+KScTycFBaAtzi8SExPeH0pQIjMFKS0l7cP/B3dt3YbQuJSnFzNTcwd4hPy+/G9ft5+Nna21bVVE1MT6h6gPLyc7Jyc51sHe8c/uOkaGRvZ19UGBQaUkpRGCtLVg7Wzs/Xz98N14oEOJxeJQnytDAENuC5Y3zSopKNNU1vVHe7dh2DpsDqiSpRCET4hPMzcx9vH06O7oAAkvPcHNxiwiLaMe2S5DgwwB5wNQY8PpbW7BEAklHS9fe1qGqooozxiESSAH+gY8ePs7Py8fUY1xdXNXuqWlpark4AW9iXm4edZjKZDDz8/KfPHrijfJpB7qyfDqNjoA50KrvCV8s/q230Jb/8QhMIQdR6rDQ8Pi4+B58z4d15Y+4F/CZ84VQD1MsEk9PgQKruC5cSXHJQP/AW0/0F0Bg01PTxD5iQlyCo4NjVGTUGHsMTrI5Y5zGhkYvTy8tTe2qyur3z6UW6meT0kmxUKw0QD8XAyL8BHeCPcoeGR4ZIAMh+M72TkQ3q7a8tLyooCg3OzctNS0+Nj4yAnCzAv0DUZ4gC9rO1t7S3NLU2NTczNza0trR3tHT3TPAPzAyPDIxPjE7M7ukuKSmuhYU2+nownf3EHoJ/aDezhCdRoc6peNcIKAlEookIolMOokwtBBReFjzFfpakHeA0iUO7p3y7/XfCMNkM8Ey5CsV8PHbolxQ8IAL+qheP9drXWjB7f/clTPQRAEiwnMwBYFiSjFDsADK94IN4ErloDazi0r0FrTxvJ8MM1UBjwoI3s4cFin1PXdSCP6QWwZPB3Q6VEwmlUlEEokVSpzDAAAgAElEQVRIAgsSjHPHuWNcBp0xQh15ryF0YwqRQCL0Eft6Cb34Xnx3Tzeuu6sT19nR2dHW0YZtw7ZgW5pbmpuaGxuaGjCN5aXl2Vk5aanpMdGxZqbmOto6T588ffXylZGBkbWltYebBwxzR0VExUTFxEbHKi0mKgZINIWEzRg61MPNw9baVmk21rZGhkZamloa6hrPnz5/+uTpk0dPHqg9uHf33p3bd27dvH3j+o3rV69fvXz13Nnzhw8e3r/vwL69+/bs3rt3z74D+w7s2b1n1cpVK5avgPb9d99/9eVXX3z+xYL27dffLvt+2fLvl6vasu+Xvc2WL1u+ft36Nat/0NXRhQjMw93z6pVrr168cnN1DwsJi4uNKykuoY/QYbLb/Bs9++xAQXOQetzTSx+hLyGwBRtqSjGFbW3z9PAyMjQiEUgyqYw2QoNFYAfIAwq5gjpEjYuJc3VxzcnKWUzsAgx7iin2KLsgv8DYyPjRw8ewu2ppalmYWaSmpHbjuvt6CRDcN2Aa+Tz+1NQUi8kKDAjy8vQqLiouzC90c3F7/PCxna0dygvl5urm5uoWGx3b1Njc2tJqb2sf4B/Qg+8RCkR9vYTwsAgLc4t2bLuAJ6ivrTczMdPW0nZ2ci4qKGIymHBkUMgV9BF6UkKSpYVlRHgEVJTIycrx8vCKioxqb+uQiKXglw5T3V3dfX18sa0Agenp6nt6eNbV1HHHuNQhanpahoO9Y3lZBURgDx88MtQ39PL0MjcztzS3DPAPLC8tb8e229namZuao7xQYaFh6CB0aEhYZ0enVPJpFQB+HwKDXkHIJ4XCuzC4NiWfmpSB+gOgaPmsGwDmMsAENPit8qt5x3kz1xpuMFcIXXlM5O0CjimdBP4JZIQdHKA4Ojh5o3xaW1qR04FCKzPnmkn5BgM3VNNRDtnwwuQycM3K/o2cF5SFhwalchGhc4Uc6BQo5o48i9Bn1iMRBFjPp6O9MwQdmpaaTiSQFHKFTDrZ1NhUUlwCqQ/KjgXbRPF6iymv5OMugJMi78h31GpQyBWjCEEYmUYQlSm4CA+AUV9Xn5iQ2E/uf0ePnHmbzr4FYQuDN59YQh+h93T34DpxXR1dnR2d7W3t2FZsA6ahvLS8IK8gLSUtNjoWHYT28kTZ29pbWVgZGxrr6xkYGhiZmZrZ2diB+YqXd6B/YHhoeFxsXFpqGmR9VldW19fVNzc1t7e147vxkAIPkn1Y7HHuBJKzDfxYsKsgNaTBi3oOEs04sWYLS8978b/5X4jA5q2fh3hm3yKwNebONW8zJHw5BW4K4iiCPRzprjOCT2AZ2PyeoApQ3jjmO073YV8pwaVy99eirkinUkwqgDa3QMRDskpHWaMMOmN4aLgN25aZkYkORvv5+KGD0AlxCQX5BZg6DK4TNzhAYTKYnDEOItk/Ps6dMc4YhzPGGWOPsUfZ7FH2KGuUxWQx6UwGjUGj0qjDI8ND1CEKcM1SBinQR0sZHKIMUGDUgEwmk4gkIgHBST29Pfjenu4eiJY62jqaGpow9RhMPaamuqYgvyA/Lz87KzszI1PVIiMig4OC51tgcGBAkL9fgL+fv6+Pn5Ojk5WltaWFpYW5BSQRmhqbampoPn70+KHawwf3H6jdf3Dl0pVTJ04dPXz0wL4Da39Y98OaH9asWvPjxh/37Npz6MChI4eOHD189E07duTYsaPHfjr60/GfTpw8cfLkiVOnTp4+fPDwnl179uzes3f33n179s3Y3n379u7bvXP3rp27du3YtXPHzp07du7YvnPXzt1gefvOHdt3bN+2fevmrVuAbdn845YtP27ZtnXb1i1b16xes2b1mh/W/LD2h7Xr1q7fsH7Dj5t+3Pzjlq1btm7bum37tu07tu/YuWPX7p27T/x04tzP586dPXf257OnT50+efzk0SNHN6zb8NW/v/r3l/+G9tW/v/rm62+Wfb9s9arVG9dvPHTg0JbNW/X19CEC8/TwunXjlqW5ZXJicgOmoZ/czx5lQ13W+R179rGanpqWy+QjwyP5efnBgcHFRcVLCGzBtpqemh6h0qoqq3Ozc8c54wq5gjPGqa6sLispYzKYU1NTE9yJpoamgvwCbCtWJpEp548LHu03ZPCZUkxNjE/gunBZmVlhoWGB/oHuru6uLq4pSSk9+B6YM15fhyksKCISAEFqemp6YnyipLi0sKAI24otyCtwdXEzMjRKSkwqzC+MjooxN7OwsbbNzysgEkhZmVmFBYXDQ8OTskn2KLu+DpOelk4ZHJKIJSQCKTkp2c/HLygwGFOPGeeMw/FzSjEl4AtaW1ozMzIx9RjFpEIiluC78UUFRXW19SNUmnwSxO7HOeMlxSVlpWWD/YMs5mh6anpxUfFg/6BELBnnjne2dxYVFrU0tzZgGjzcPQ30DIKD0NlZ2SgvlKaGpo6WTnJi8ihrtKy0LCIMFCMJCw0LDw1PjE/saOt4x/tu4Wac7caL/PZ3IDCYGkoZoNCotKHBoR58Dx6HHx4a5k/wGXQGoY9AJpEZdKaQL4QoRyqRspgsEpGE78b34HuGKcMCPihpjtTpFNFpdDqN3k/u7+3pJRFILAYLuvumFFMyqWycOw70xJHpJm2EJpzdcVI6KeAJSAQSrhNH6CUw6Uwg0ds/aG/n4OrsWlJc2k8e6MX3DlOGRULAGZdPypHaaiw6jTFAHhihjvDGeVKJdGJ8gkwid+O6iQQiUDsUzKgdwkJsyCg/TBmk9OJ7qUNUJp05QqUNglGeMkwZFgrAD4SlHqjDI8joT6EOj3DGQE7vKIudmZF1/56amYlZaUkpiznKm+C3t7Vj6jG0ERoYXMAlAScnmUQe6B9kMlgioQgA2U8ZW5lBYNBtsLhPJVz+bfo3mXRylDWKaCLLYEoXxN8zxXaQ+g+8Cd44d3yMPfP6HKGOEPqIPfgebCu2EdNYmF8YFxMXEhwSFBDkjfL2dAdldlydXV2cXFycXNxc3Nxc5v7r4ebh5ekFIFdAYFREVEpyam5ObllJWX1dfXtbB5FApFFp45xxKTL7Adep+ocgYwRuIhErlVjG3FZKtu+CTwvcDn6luqxco9zrTQA0+9WbwGX+A6mCwAAIm51jAISocs1zy9DHo/qJ+JPAVAGZGMBPuQxMTlQNasZKxVKpGCjHQj+Q0hkpnpHkEAr5MybgCwU8AX8CoQeN8ya4E6Co0axB1xFASCw2m8VmMVj0EfrgwGBfb18bth1Th0GU0vKSk5IjwyMdkXjEgf0Htvy4ZdeOXcePHb9x7Yamhqa9rX1QYHB6anppSWlFeUVlRWVleWV5aXlJUUl+bn5udm5OVg6CjbLSUtOSEpMS4hPiYuMgKzEsNCwoMCjAPwAxUBbT19vXy9PL3dXdxcnFycHJwd7BzsbO0sLKzMTMxMjE2NDY2NDYCGjagfRe9Vfq6i/VXzx/8fDBwwfAXv9Te/DrL7+ePnla1c6fPX/h/IVfzv/yyzlgF3658NOxnw7sP7B/335ge4Ht27tv04ZN33/3/df//vqbr7757pvvvv7q6y+/+PKLz7/41z//9c3X37zXvv3621UrV61ZBYDRhnUbtm3ZBpDW3v0H9h04uP/goQOHDh08dPjQEQjdjh09dvrU6Yu/Xrz466VLv166dPHS5YuXr1y6cv3q9YcPHj1++Pjxo8dPHj958vjJ08dPnz559uzp8+dPgcyBhrqGoYGhqYmZmam5hZmFpYWltZW1vZ2Dl4eXj7evn69fgH9AYEBgUGBQcBA6JDgkOioGhvu9Ud4WZhbqL9WvXb22Y/uO5d8vX7F8xdo1a9evW79p448H9h+4cf0GJOKgvFD37tyzsbZRRiEfPXwcFxPX19vHGeO8w/WlfEBALRqJDNuKDUGH2FjZpKWmLQqBTU53M2Vhaf8XRSGRHAURe5Q9NjoT0pWKpbQRGnWYipRNnJ6UTXLYnJHhkVHWKIzrKRt5gQWIwKamYLmhkeERIoGI78ZjW7Bt2LbBgUE+jy+XgUxe9ih7eIg6zp2YlIGaQjKpjDo840guzC90cnS2MLfMy82rralNS0mzsbaxtQFJjmNsDnWYCgADjw9dFWwWe4gyBIlWE+MT/aR+XFc3vruHM8ZVTCrgFcIBkDfOo1GBiAaEiSIhwA/s0TGpBAi3gqNJJxl0BoPOEPAFMqmMSWfSaXSJWAIvj8vhjlBHqMPU2upaVyRXNDkppbKiKjI80tDAUF9PPyM9Qz4pR0hjffhuPLTeHvD2f3+7zY75CzTpIr76HQhMJpWRiKTIiKjcnLzM9MzQkNAAv4C0lLTmpubiouKY6JjYmNgiBBpLJaD6BGWAUlJcEhkRGRQQhA5CZ6Rn4rvxvAk+Uup8uCC/sCC/IDkpOSwkLCIsoqSoZGR4RD4pFwvF1CEqpr4hOSklIS4hLCQsLyevr6dP2bLYFmxkeKSPt29EeGRVZRUEfzZWNqYIUy8hLiEYGdxJRBKs8dSD7ykpLsnPy09KTC4vqyD0ESmDQy3NrbHRsYEBgdFR0fl5+R1tHWPsMSFfSOgllJWWpaelp6WmpySnoIND0lLSCvIK8nLy0lPT01PT01LTiAQSoiMl7MH35ubkZaRlpKem52bnNjY0DlGGujpxwUHoM6fPPHr4KCIsormpeYRK62jvLC0uHegfQGqITnS0dZQUl6Ymp6anpldVVlEGKQAvTs254j7sXn7SvSCkkEllQr6Qw+bQaQzaCJ1MJBN6CZ3tnS1NLU0NTdVV1aUlZaXFpcVFxelpGWEhYSHBIShPFGBlOThZW1ob6Bno6ug9ffL08cPHz54809HWsbGycUfCEylJKYX5hbU1tV2dXZRBCmeMI+QLQUdCPFgIH3lGygHge6REF4hcQXsTJ0FshHwLQctrW6q6kZQHWWhhDvDA8Nms7vxMfoAK+gFXKJuRwABqqtJJGcgOmQTqqq//SUEqAWIIJALASAQSC4BJkAwDsVgkEgmFQqFgzuYI1IKZP5D7iUBe9ijwGAF3EYPFoDFGhkeoQ2Ckg+MdZZDST+4nEUkkIhnE0ZBZTTcOj+vEKV2Sbdi21pbWlqaW5qaWpsbmBkxjfV19bU1tdVV1ZXllRVkF/CwrLS8pLinIL8jOyslMz0xPTU9OTI6JigkMCHR3c7e1tjU2MtbS1Hr86PHVK1fPnjl7+NDhzT9u/u7b7/7xP//4+9/+/vf/+fs/P/9i+bIVWzZvPXb02J3bd7W1dPR09fR09XV19LQ0tV6+ePno4SPgQ7qndv+e2t07965fu3750uWLv1688MuFX879cvbnsydPnDx44BDEPfv37d+3Z9+uHbs2/7h5/dr1P6wGfqbVK1cvX7b8m6+++eLzLz77x+ef/ePzf372z39+9s9/ffEv4K356huIkFauWLVy+cr324qVO7fv3L9v/84dO3/c+OPmTZt37ti1F8FG+xDgtXcPcETt2L5j04ZNK5av+OrfX3337ffr167fuWPn4UOHfzr206mTp65dvTbPAOnq2mt288bNF89fqL9S11DX0NPRs7Kwcnd1d3d193Dz8HD39HD39HT39PTw8vLw8vL0Qnl5hwSHJCclJyelpCQBQlhqcmpaSlp2ZnZdbV19bf2M1dVj6oDPD1Pf0FDf0NjQ2NneOThAGaHSVI3JYEnFUhgmRnz2oOSfSCji8/hMOhPbgs3Py4+NjjUzMbtz+87uXbtXrVi1auWqLZu3nDpx6vKly3du3zUzNcvKzGKz2NNT0yKhKBQdCtQ7ET0wlJe3poZWeVk5TPNUHaNmAh2ySViAD85OQc1BqUwsFFdXVQcGBIaiQ5sbmxeDwEBdSKYsLBXUhZybtyw4mfk/vVIxNf22ytyq7fNHlpUtAA4yM9lbxPsFoYLN+ODfGA/hMeeu6g0nvUgoqq2p9fTwNDI0Cg4MTohL8PPxs7OxCwoIwrZgpWKpcp45d5A3zvKJvoKdra62ztnJ2dzMPDgInZiQ6Ovta2Vp5ebqVlFeqWyxty2AIMAnuNrfgcB4E7y8nLyTx08aGxm7OLs42DsY6Bs8f/bczNTM1sYWRlUtzC0yMzJZzNFR1mhsTJyBvqGmhpaVpZW1lY25mUVgQGA3rlvAFzQ1NpmZAOlwSHHQVNfU19PPysgS8AWUQUpyUoqVhZWVhVVifCJsr9jo2L6evlHmaElRiYW5hZGBkTkgBjpGRwJBtubGZhMjkzu377x6+crG2gaO6bHRsSQCiTpETUtJM9A30NPTd3BwzM3ObcA0pqakubu6gxmbo5Ojg6OxobG1pXV9XT2JSCoqLHJ1cTXQM7C0sLSxtjEyNHr86LGOlo6DvQPKE+Xp4amro5uakkodptKotKyMLJQXCuWFcnVxs7Wx9fXxLQV+Goy5mcXRI8d+Of8LnAhSh6hZmdnOTi71dRiJSILrwnm6e3qjvMPDwv18/ULQIZh6DGeMo1AoZpw0n+A2v7vrqPa5t20JedCD/YPNjc1FhcVJiclJicnoIHSAX4Crs6uNlY2VhZW+noHGKw31l+oarzR0dfQsLaycnZxD0aGx0bEwdFhZUdnR3tHR3oHvxpMIJMoghTZCQwrvjHLHuPwJPtAmBfXjAHaZTQ2bBqFtxEs0h4fg0hSU1FKBRSqFVGfYQgogcw8OBT1/ym1BfiVIsVz4bzYMDWTFJidBrplIIhKIlAbLvnI54xw2BxZ/RXyELDqNDidbVCRYRhmgDPQPDpAH+kn9JCKZRIABsj4QGsMhMy0cHtcFIrOQSwToRK3Y1pbWpsYmgIGqa2sQq66srqqoqiirKCstn7Wy4qKSvJy8zIzMtNS01JTUlKSU+Lj4qMioEHRIoH9goH9gUADwFfl4+7i7uSPZCS5Ojs4O9o5AgMPM3NjIGM7/9HT1tDS0Xjx78eTxk8ePnjx88Oj+3fu3bwE60dXLVy/+evHXC79e+OXX82fPnz55+uiRo3v37N22dfumjT+uX7t+zao133+37Ouvvv7qSxCK+v6775d9v3zZ98tXLl8JkdCX//ry888+/+fnX/zrC+AKWvb98tUrV69bCxwnW7ds3b51+45tO3bu2LkLiXnt3rV7xnbu3j1re3aDABziEAI+of37DhzYfxAxsHAQMcQ/dPjI4SNHjxwFgbwjSCDv2PHjx44f/+nEieMnT588fe7suUsXL127cu3GtRu3b9158fzFyxcv32vqr9R9fXyjIqP8/QKcHJycnZx9fXyDg4JD0CHoYDT0xjk6OJkYm756qX739t3LFy8/VHsI3jqBQSnJKTnZOcVFxZ0dnV2dXbhOXHcX4NeDmEB3T29Pb19PH6GXQOglEPuIJCIoRUUZAKHVYcowdYhKHaKqMvQZdCaLwRoFQyvwPo6NjnHYHM4Yl8sBNiObPg4qJfMm+PwJPp83k/YIVH+RinhSsRSSLlSpCErXKfSeCniCIcpQG7atpbmlvLQ8IT5B/ZX6sSPHdu3YtXzZ8lUrAfZatXLVzh071e6roYPRpcWlLc0tZCIZyk3B91xCPFCjqKyobMO2BfiDdmvANLwpaymflE+MTwxRhvpJ/SKBSD4pH2WN9pMBX5PFZGWkZ/j5+pUUl7BH2YtEYHiGDJ1Yiu8bBH7cN7I+/yJrxCKxRCrrHZEUt9AqGkAtoD/DVGakn+J08A0CONmDQ3m5+e5uHk6Ozj4oH3dX95DgkKrKKpB48eY8+RP8dmXw4Y0FEFtgMUfz8/L9fP2g+fv5J8QlNNQ3MOjvR+1/CQSWkZaxedNmczPz+Lj43JxclBfq5o2bRoZGoejQosLiAP9AE2NTdBB6oH+wvrYeSAAYm8ZExdRUAdaFpYXl0ydP09PS+8n9GWkZD+4/cLBzKCkqKSoo8nT3fP70uae7J4PGqK6shiLjZaVleByoDw8HvpysnObGZldn11s3b8XHxdfV1GHqMNhWLG2E3tbaBqoQPH7i5OiUnZkdFhqmo61rZGhUXVU9QB4ICw27d/cezOPo7elramz2cPfU1tIJQYdUV9WUFpf6+fgZGhhCod6M9AwHewcba5uU5JTSkjIvT9SVy1e0NLViY2Jrq2srK6ru3bkX4B9AIpL4PD6hlwBZt6nJqa7Orq7Ornm5+T343lB06M3rN9VfqifGJw4OgLISkeGRr168KswvZI+y83LztDS1Y6JjGzANdbV1dbV1/eR+ENmcmvpz+uibT+AiEZh8Up6RnmFtZf3q5asnj55oqmuqv1S3NLd0sHPwdPcMDwuPR4g+FeUV1VXVmPqGNmx7R3snoY8AXy3DlOFR1ih0/8iks4V3kOqGkHUHY7sz3iMEhMFYp0wyw6EGrkdExV6A1H/ljfMmwCtnAoTGOFyEPzQTAx1lgTkAi8kCLCIGi8lgAh81jUEfodOAA2BEySiiDEIK0SCASoj1k/vJJDKRQCT0Evp6AFrq7OgEVW8BybqxAdOAqcPU1dRVVlQWFxbn5eSBkFlmdkZ6RmpKanxcfEx0DMhKi4yGfOrgwOAAvwA/H1CPxcvDC0q82tnYIUQiKwtzCxNjE309fW1NbfVX6q9evHr54uXzZy8ePXx89869Wzdu3bp569aNW9evXr908dK5n8+dOnHq1IlTgCF0/OSJ4yd/Onb82FHAHDr+0/ETx08c/+n40SNHDx86DHHJ4UMAlBw6eOjg/oMH9h1AsAsCX/YdAIEzxJED42jAkbNrz66dswBoF2AXIbyiHdu3AToRJBVt27Jty2ZAJ9r84+aNGzZuWL9hw/oNyMLGjes3btqwCaETbd66Zev+vfvBNRw4CNxUe/cdPHDop2PHfz7z87mz586fO//rhYvXr914oPbgoRqooPL44eMnj548e/pc/aW6ro6egZ6Bgb6Bgb6hkaGxhbmljbWtvZ29o70jHAc83Dz8fP0DAwKhBQcGh4WExUTHJCYkpSSnpiKWnpqek51TVFBUWlKGANay8tLyivIKWBqlprqmrrauubG5uQlYS1PLu6y5BeYqDvaDSGtfbx+RQAR9o4/Q0tySm5MbFxtvaW758vlLjVcatja20ZHRtdW1+G48ZZDCZLA4bEB0g2IQAr5gpgSCSDyTEyAGrtCZZ0EGZh2AGzrrSX1Dh+K1xAIlV1W5AJ1YyonHmwuqj7mSDgspH0w6EwRuRujt2PbE+EQLc4sXz19c+OXCmdNndm7fuXrV6rU/rN29c/e1q9cuXbx09uez6q/UszKzB/oHBHwBKFSKzJeUyWsQgdXX1VOHqYUFReWl5cOU4Tfjj/JJ+Qh1pKSoxM/Xr7mpmT061oBpTIxPLC4sHqIMdePwSABhRCFXLAaBiWXTWIpQy9zb3Aqw9IyNTP6CZmZqHhYaVlRSWdVG/e9BYLOKPFPyKZFQhFCPyAj/Ek/oJQxRhjhjHLlM/ue83d4AXjNsWtj5J2VyNotNGaBAGxoc4rA5YqFYWTBe9RmZt/yXQGDpqembNmzycPfE1GP6evpSklIePXjk7OTc2dE5MjxSWFAE8hG8fbEt2Mz0TAN9A5QnqqmhicsB+QgB/gH37t7z9fGtqa6Jjoq+e+duTFTMYP8gg87Myc599eKVtZV1b09vQnyCqYlZgH8gk84U8IBLLDgo2MXJJTIiMjU5VV9X/8Xzl9hWrLJCllgkJhKI1lY2VpbWeTl5w5ThxoZGczOLly9eFhcWQw3cx48epySnUAaHBDxBc2OzOSiwYFxfhxlljZKJ5JSkFH09fVMT08KCwuSkZFcXV19v3+bGZgaNkZKc8vTJU1trW6CuS2fSRmj37tzzQfkQ+ghCgbCvl1BUUJSTlRMWGmZoYKitpRMflzA8NJyZkfXy+Usba5uaqhqxSCwUCMNDw589eZaXm99PHkAHh+jq6JYUlzDoDAgdQCB8EuGBLTo69iaK+uA1UwoQ+CcSiNhWLJlEfi1pGZk5KTuiQq7o6uwqKixCorRp2VnZ2VnZ5aXlNVU1jQ2NuC4coY8wQgWcA/bo2Bh494xzOeMT4zw+TwBm5EhhaRmi8gA/ITlphp8EQnISAV/AHh1jIk1NG6HRqLRhyjAoB4t4jLq7ujs7utqw7U2NzXU1dVUVVZXlMxSiwoKi7KxsGBGGweKkpKToqJiwkDB0cEhwUHBQQJC/r78XKPziBghDjs6O9kAe0NIC5FQa6Bvq6+rr6+rr6eppa2k/ffL0gdrD+/fU7t0B+WW3b925dfPWzRs3QZbZtevXrl67evnq5UuXf/3l1/PnziM85XM/n/n51ElAVT5x/ARiJ0/8dAKU4j5y9MihI4cOABiEwJH9e3btAeBm247tW7dvRTDNpo0/bli/Yd3adQgzeh1C3F67auVqGCNbsXzF8u+Xf/ct4Bh9+a8vv/wC2L+//PfXX32z7LtlK1esWrN6DWDkAMfSpm1bt+3auQtQthF30cEDB48eOXryxEmIfn45/8uvF369cunKjWs3bt28def2nXt379+/d/+B2sMnj5+8eAaiYJrqmtpa2nq6+kaGxuamIFcIKa9rbWNt62AP2JaIB9fHG+XtjfLx9/UPQYe+ltAXA/ydyUnJsBhzSnJqSnJqWmp6VmZ2bk5eXm5+Xm5eQX5BcVEJoH8hVlVRVVUJysbV1tQ2YBqaGpoAPGoE2AiCeOhAwnUBH1JPdw+JQCKTyMCI5H5S/2D/IHWISqfRESIIQBJMBgupu8IdHx+HGF35yQMuImCCWRfRe10jUjEASTCDEobnBgco5WUV6OAQczNzA31DRweniPDI/LyCpsamfvIAb5wnFolhAB36X2cmGMoszpkw+hzh74Mf3vfuqHx44YJMKuOMcRh0Rm9PL2+CJ5XIGHRGc1Nzelp6UkJSTHSspbnlxQsXt2zesnrl6i//9eXKFSsPHjh46+YtI0PjkOCQwgKQ6fbqxStfHz/6CF0qmR9XUvGBhbQ0t4hF4hHqCJPOhKzceVcLhYQqyyudHJxcnF1KiksjwiPc3dxLi0thHXrkCsEpFq+5w3IAACAASURBVIPARLLpJhL/4l3dg4dPbdywCfpi/1Kfy5ctX7P6h3t373t4+WVV4P5UBPYJvE1zdxMhkIEgCVJXd1I6KRFLwGyZLxSLxDIpoCT9afHHtyOwGU1BUChF+Q6SymAq4fv2QjKi/gpRyPTU9B83/hgUGDQ4MDjGHsvLyXv+7DnKCzXGHpOIJI0NTYEBQShPVFVFlZeHl56ufig6tLenF5IDoqNi7t295+TolJ+bHx4WfvfO3eysHC6Hq5Ar6mrqNNQ1zM3M27DtIegQQwPD8LAIQE1AtL6io6I93D3RwSFhIWEarzSMDI37yf3K26+QKwYHKPZ2Dp4eXkAXWCQZ6B/w8fZVf6VekF/QT+4PCw17/ux5eVkFb4I/JZ9qbGjUB0FGKwIioMKgM0qKSmysbR4/epyWkpYQn+Dh7hEcFIzH4SUiSUFeASgL7+rWUN8ACgjy+Gr31Nxd3etq63Bd3QV5BSHBIOLj5ur2+NHj+3fvh4WE0Wn0woIiLU1tFyeXluaW6alpiViiRGA9+B53Nw9DA8Pamlql/vWcyvyfjsAgI3KUOZoQlxAaElpXW8flcJVtC9PfVAdxAV/IGeOwWWwGnUEkEOtr66srq/PzCtLTMrIys3Oyc/PzCgoLigoLivJy81OTU8NCw16zkLAwxELRoehgdKB/oK+3L8oT5eUJnENQzdnezsHW2hZEri2trS2tLcwsDA1A7r2Oto62lraWBiBTv3j24vGjxw/uPwCm9kDtvtrtW7cBKrp4+dLFy5cvXb508dKFXy6cPnUaYiAAgxBv0L69+5BksV1IstjO7Vu3QwrRmlVrYHhl5YqVy75f9uW/vvzn5//8/LPPP/vHZ5999vm/vvjy66++/u5bEGJbvmz5imUrViJUmPXrNmzcsGnTxk0/btoMcs02b92+bceunbuQzDUkbW3vvqOHj0IH1cnjJ0+dPHXm9JlzP58DhG5I7j7/y6+//Hr50pVrV6/fvH7z1o1bt2/duXv77v17ao8ePn765Omzp8+ePwPxslcv1bU0QCPo6ujp6+ob6BsYGYJYvJWltY2Vja21rb2tvZODk7ubO8oL5evj6+fr7+/nH+AfiA5Gh4eFR0UC1YOY6Ji42LjE+MSUpJS01LSMtIysjKyszOy83LziouLy0nLgKyoDLsy62roGTGNLc0tba1s7UFsA7kwkF72PTCQPkAeAX3OQQh2iMuhMNoyIsTlIXIzDHQNBsTlDWPwI9EGiY0iMTMATKLn/ygUYLINZAnNeIsRRhLhOgUKbTCKDedCwevpMouvkbJR5RqJCJb30D797VLFLb09vQX5BUGAw0JlzcfPz8YsMj8TUYUAF5TGOUCBUZhDPPUR/+AJ+16FUn1ZIQx6hjnTjuvvJA7AO6RAFJFGVFJX09vT29vRlZWaZm5nfvX335o2bp06c2vzj5pXLV65Z/cPePfuuXL6ir6vv5+OXk53T1dFFG6FPjE8kxicaGxrHRMUo5DNcadXLUyKwEHQIthULqV1vewFPT02DuV8f0cfb58IvF3R1dG2tbdFB6I62DrlMPq2YKYmxeATWSOCduvR0zdotf/v//va//p//9Re0//3//u9Tp85YWjukFmP/exDYbA+fyexW0uxUEoxUO8nSsmoL/D4eGERgIegQFpPFn+ArEdjE+IRMImtpagkOQqM8UZXllZ5IzmcIOhSPw8Pkx6jIqOdPn/v5+JWXlkeER9y9cxfk0HJB0immHqNEYOhgtL6eQWhImEggUshBzanQkFBnJ5egwOCwUIDAjI1MSESg8gBtUjbZTx6wt3PwRnmDnFupbIgyFBkRqaWppYrAKiuqgHiJfKq1udXM1MzSwqqvlyCVSOk0enFhsYO9g56uXn5uflJi0msILL9AX0/f3c1dFYE5OTjl5uRmZWQ5Ozk72Dukp6VHhEca6htqvNKIjY4FBywq1tTQcnZ0bmmaj8BIRFKAf4C+nn5VZRVvggd5r1IJUDQBuZB/LgKbUkzxJnh9vX3lpeW2NraAL9mKVS3LpdpRVJenp6YFfGFHe2d8XLyNlc3LFy/V7j8AyWVqD9WQVHy1e2p3bt+5+OvFI4ePHD50+PChw4cOHoJ+oJmI2N79e/fshfxl4PtZuxak6yNJ8ut+WLdu7br169ZvWLdh43oQ3tqwbsN6kDO/ceMGYMpo15bNW7Zu3rp1y6xt3rpty7btW7dv37Z9+3YQOIMGaUa7du7avWs3xEYIk3ofYHMDUtGBA/Bz/8wyDJ8dBH+HDh06dOTIkRM/nfj5zM8Xfrlw6ddLVy5duXrl6vVrN27duPUQuI6ePnv6HCIkTQ1NPV19Y0NjE2NTU2NTMxMzC3ML4DdycXV38/B0BxL8vki6dVhoWER4RER4RGR4ZExUTGJ8IvQS5WTl5Obk5uflFxcWV5ZX1lbX1tWCaDsAQ00tXR1dkDlE7AOBMBKR1E/qH+gfGOhH8NAAZYgyBAj4VOoIdQR4EGk06BliMgCFiIVEY8EyEpwFrkqETjTGHuNyuLwJHp/Hh74iHo+nGjITi8SISSSIN2guWAbrXEKPDtTUmP2E2H0Gwc+unCdj8dp/YQWqGZ8rSG4C9u4dIbVldv694PYzlzH7hlDtw+9dhtJlcpl8YpzHoDPx3fjCgqKoyGgrSytzMwsPN4/0tPRuXPfw0LBUAhKEwbk+6ER/ZC/YUEj4fkZubVI2yeVwYaUskNgkEnd1dpWVljdgGqHTvbent6qiKgQdEh8bjw4O0VDX3L1r98oVK4Hfa9VqyK9Xu6fm5Oicl5uH6wRFKkHxGUQ0Z0oxlZqSamJkEhsTu+Blz0NgC26junJaMc0d4yYlJp06eerI4SO6Onq52bksBgveetiki0RgYtl00wwC27yEwFQb+U9bVr1rf9pJ/9NP9GEILHSUNcrn8fNz818+f4nyQqkiMB+UD9AgySuwNLf09vJuqG8Y547TR+j+vv4mRibZmdl4HD4+Nv7e3Xu5OXMITFNd09LCsrurOyoySl/PAOWFGkKChr09fa4urtZW1hFhEWkpaXo6etpaOo0NjSwmC+bDT3An8N09tjZ2SgQ2PDQcHRWtraVdmF/YT+4PDwt/+eJlVWU1QGCKKTwO7+bqZmxoXF9bP8piEwnEhPgEEyOToMAg6I339AD+tp7uHolIUphfuAACcwQILDoy+umTpybGJsOUYUx9Q4BfgJOjU1ZGFoPOqKmqUX+pbmtti6nHyGUguzM8NPzFsxcF+QVMBiszPVNbSzsrM3tkeITFYEFBXlBvUckD+1NwGIKiBB3tHSHoEHMzC6hxrBSqhiM7BIgwTU814jA9Nc3lcIuLSuxs7fbv27/2h7Ub1m/YtHET5AatX7t+3Q/r1q5ZCxPTVi5fuWLZimXfL//+u++/+/a7b77+9ut/fw242//+6ot//uvvf/v73/72t//52//Av88/+/ybr79Z/v3ylStWrV61es3qNevWrtv84+ZdO3YhkpJ79+/dfwiQin76+fTPQB3g/IUL5y9cvHDx6pWrd27feaAGXGIP1B48evDo2dNnmhqaBnoGkA5iYmxiYWZhY2XjaO8ICiG7uLq5gsJEPt4+gEsUGg7xUFRkVFxMHOLSy8rOys7JzoFRs6LCotLi0rLSsvIywCiqqKioqqyqqaqpramrr8M0NIBEs6bGJmwrtqOjs7Ojq6O9o7Md8K8R5nUPYF7je/t6+wh9xH7yAGUQQKWhIfBJo9KYDOboKHsM8SEh0vwcIBg7wUcIxYBTzOcD8di5vOgZSsXsK3/ef4HI2ewfAmUWHqSUey1mAVI9EMmM2UPP/QvnvspPMBAjeVLgvEqOCKJ8ptxm3oIqgkH2BfBr3jbz/gviGgjogX0VZoqobgMv4wOAkRJ7CXgCGpXW3NSSn1cQgg41N7OwtrJxdXHNy8nDtmKpw9SFG/aDcJjyV7x3AT6VstkAikwq4/MEiPqdGAgG8YU93T1trW0ww1oilpJJ/W2tbU2NTUBIFocvyC/09fZ9+vjpzes3fzn3y949+5YvW/7dt98dO3rs+rXrVpZW0ZHR+XkFvT29gJz6ulbiR0dgUH2qqLDozq0727ftePHsRWlxqZAvVH2XLx6BNRN4py89WbN2CYHNjgwf1BU/vFd/Yr7/h1/Yn9wOv+d0vw+BZaZnbtuyLSwkDCKwkqISAz0Df19/iMBam1tD0aHBgcGUwSEalebq4mpoYBjgH4BoE6Tr6+k72Du0trROjE8UFxU/e/qsIK8A+sAaMY16OnrOjs7U4ZHS4lILc0stTW3o3gdF0fUNgdpqc+vgwCAK1Li47+HmkZSYlJGWkZuT29HeWVNda21l7evt24Ztg1IXMdExerp6RQVFlAFKfFy8kaFRfV29gC+YUkyRiCR/P/+XL1452jvm5+Uj1HtHbS2dtNT0bhw+KzPL18cvKjK6r6dPIpIUFxUbGRp5eng2YhphFPLRg0cebh5lJWWZGZn6evo6Wjr1tfU5WTkW5hZamlpxsXFMBpNEIL149kJHSweUr6czJ7gTEeGRxobGlRWVIqGoob7h1YtXVpbWGWkZ8bGAuN3Y0MigM+XyP42rCBwMCrkC14mLCItACiZaAoQ6wVd2cRjU53K4ZBK5E2iodhH7iJPSSbjB9NT0OHe8vLRcX0//yuUrly9duXn95mLsxvWbwK7NsqmuXL165eq1q9euX7t+4/rNmzdu3bt779mTZ69evNJQ19BU19TS0NLV1jUxNrGxsrGzsbO3s3cAVR1BrM3by9vPx8/X29ff1z8oMCgsNCw2Ji4lKSU1JTU1JRXW0i4qKKqsAJ4kmEtYVwP41x1tHSArDdfdg+8h9BEGyKD4F5PBAilmAAaNcTnjMunkn0ZcULY5JDIrX8Cq6+eW342WZp/8mYNAH9Ks1ivAIgsOke8+Jvx29sjgIhHFslmsAxXqX0NLCPSBJCcEgc16s2Z3eW1juFJlF4jeFoXAAFaD8m8I0Jx3/N+FwJTNPqUA4tICvoBBY7Q0t0aERyL6RhaODk4h6JDEhMSaqhoWk7VgDG7uNqk01yJXKi/gzQWlAjYk1/Mn+IMgx3YA1IRBFMxxXbimhiYyiYxwOoG4ZUtzK4lI5k3woHxMO7a9ML8QHYQ2NjK+fev2hfMX1qxe84+//+O7b787fPCwGlLFLzw0vLy0vJ/UL+CB6uBvGgSmH9EHBoOklEFKYEDg8Z9OHD1y7NnTZ+Gh4SBsgqQ/KxH2YnhgYtl0M2Hi9KXHSwjszXu3tOYv2wK/A4GJReK6mrq7tyF/a1wikrS3dYSGhKWnpSOKpgoyqb8QYaYDeVWJDFOHQQejbaxB6ruTg5OPt299HZBdEAqErc2t7m4edTV1UJyts6ML5YlKSUrh8/gj1JGiwmJYQM3MxMzZydnfz7+qomqUNSoWivt6+tDBaHc3d/AORnknJSSRCKS+3r6w0PDU5FQSkSSflI+xx7IysjzcPRrqG0aZo5UVlaHoUHw3Hgr4csY4NdU1fr5+Oto6piamzk7Ofr5+6anplAEKizlaU12TlZlVUV4xMjwyKZ1sbW4NDgpOTkwGtDCxVCQUebh5pCSn4oHQNj46MlpPV9/LE4gZBgUGx8bEVpRXQAlvb5S3mam5v69/dVXNyPBIWmp6bExcL75XJpWB8uz+gZbmltaW1lYWVsGBwZ3tnbAc6cyrcKHh7yN2IDjEM+iMjPRMa8QnVFtdO3MBs6cGFA2huLa6NsA/wNHBKSgwKDsrW5lPDgHcOHc8KCDIw90zJjoWU9/AZDD/uLGYLITID8AQNOgTgin3ys9x7msMa8itVi08DKhFAiGofYTkncE4mkQsAdx/JPsMyg7BoguwWIIyrj3LzZz+iG2+yEOpvn0X3uXdaEnl9s0/lBJ+vRkse/cx34LAlMdHYMFroEoFTr2GwN7h1lLZ5XciMJUo5EdBYBPjE329fWUlZdGR0X4+fm6ubna2dgF+ASXFpUNAU1ogFoES2h8doCvb880FzhiXTOon9hEFfAGUbKiqqCrIKyD0Eqanpvk8fg++p7WllTJIgSBJJpVBBUs8Dl9fhykrLffy8Hr14tVPR39at3bdmtVr9u7eu2fXnjOnz6i/Ug8KCKqvq2cymLwJkEAwKZuco6XOdifYFT8FAhtjj9VU13q4ewCJpsBgINHs7FJaUirgCYD7bdbHuTgENtVM5J6+9HDN2h+XopALjx6v39Clbf4KLfA7EJhCrmDQGYX5hWRSPyzGxGaxuzq6iARQwQZGtajDI4MDiL6oYorJYLa3tZcUl2Rlgoy5dkT1FJJIGHRmU2MTdYgqk4Cylywmq7mppbenD+YcMegMXCeusrwyMz2zurIa24IdGR6RiCWQT9bb0wt0HBA1ClwnbmJ8Ymx0rKuji0Qg8cZ504ppqURK6CU0NzbTR+hikXh4iNqObWezQCkMIO8ukTFojDZsW0F+QU52TmlJWXNTy+DAoAgRB6cOU8kk8ghSEX1KDipkQd18oNKL1DXqaAea7IBrzB3v6e4pLiouKy2rrKhqbW7twfcMDgwK+AKJWNLa0lpeVlFXW0/oI4xzJ3p7QCE5IPolB/UTOto6Ksory5BU+ZbmFhaDBRpQWRrvUz4nEDwxGcyszGxXFzd7W/vU5NRxLqhoododYbXNiLAIK0srVxfX3Jw8CB+V20xPgXZOTU71cPfw9PDMzytQ4jPlNksLf1ILKCHUO3rOOxDY6zUFlAdbzMW/CRdeXzOLwCCva7Gfszyw928/k9/0+klVcgwX9Pm93kowGYXL4fb19NXV1OXm5EaER3i4ezg6OIagQ9JS0+pq6nq6exg0xpt6CotpovduI5+UC/lC4NBCMMekdBLQNmgMmD84PTVNJpFLS0D4W8AXKOQKsUjS2d6Jqccw6AxIdQfJMYho1qR0kk4DKTJNDU1ZGVlenl4a6hqPHj4C9ZEQmbQzp8/cuXXH1NjU08MzLTUNU48BoxmHC8Up3n2pHx2BTcomBwcGM9Iz3N3ci4uK+3r78nPz/Xz8YmNiB8gDwOP+OxFYK2HszKUHPywhsNd7+Ltv69K3/2db4HcgsN+mQZHpCe6EVAKyFMF/ZXKRQASxkbIKJBA4Rmib0JnPGeOwmCwuhztTewcJSSDcBb7yOHBLkRDwGH6b/g2OMuPccSYDhPAQyRkZ/Aq++Pk8pGTKBA8WNJiUToqEIlijBoZyxEIx1NCfUkxJJVIBTzA5G1eaVoBaDUKBkDPGHWWxOWMcPg/UMZgCdX8VMokMJp/DIUk+CYowSCVSgN6Q2TbwqYglwGsyqRALxZD0ihyED8o8iyWwcKSAL4B+GiQ9Si4SikRCEazhAAZcgXAcFHsBtfD4fIFMBmAoQGCf+MlByoQrxrnjpcWlri5uzo7OiYgTcd554TuptqbO3c3D2cklJTmFTCKLZ+8O3Bhug8fhoyKirCyBJ2946GPSYuZd0tJ/l1rg47YABG2TMlBuqwffU1VZHRkR5eHm4eTg5OnhGREWgTAcOgYQdQmYUf9RLgBiJjg4wImrkC8cHBjEd+Mh1VIsFJOJZKTmHagRMj01zWQwcV0gaA62R+hx7FE2nTYjBjE9Nc2b4I2yRocow9hWbGJ8kq+Pr5Gh0cMHD8+fO78bkXY7dfLUzes3LcwsIsMjiwqKGjGNfb197FE2LJyqdPouCGSVv/qjIzDEn8duw7ZVVVYxGSyJWDo0ONSIacTUY+g0OlCQ+p0IDEtg/3zp/g9rNy35wJR3bWnhL94Cvw+B/cV/zP+ll7e4iT7ETCwmq7YGVGZwcXaF4VSJWDKv3WAx1JTkFHc3j7jYuM72TpFABEbD2QAWjH10tHeMMkcryiqA0KiHV0N9w//ZuhPzfsXSf5daYMEWgG5g3gSPy+H2k/qLCoqCAoLsbO3MTM1dnFyCg4Lz8wpwnbhRJlAPnpS+NSq34MEXXKlENnB+yJvgVVVU4bvxkIMxzhnv6uiqra4VCgADXSqWUoeoba1tDBoDTvzgDFMsEs88g1O/gWpXUjBtm1JM8Xn87q7uvNy8oIAgI0PjWzdvnzt7bs/uPTu37zx08ND5s+efP3se4BeQmJCIqcdQh6j8CT5S7wvJv36/l3FuWghPl5aSZqhvGBEWsaDuBmzbhPgEqEaxYGsoV04ppmXSSQFfCLPCIS1MwBfwJnhgVo9M4+G8d5FRSCxh9OwSAvvE03jl7Vta+CgtsITAFuCcfpSW/fMOooKNFjgp8u20YlqOyAFXV1U7OjhqamgmJiT1k/sXDKzIJ+VMBssb5ePp4VVdVTPOHVdiL3j86alpEpFkaWEJ9MH7iKA6kycqKiIKzssXE9FY4DqXBo6lFviwFoA9fBFgAhaVl8vkfB6/o72jrLQ8MiLKwsziKZAUeebm6obEwghI0vQc8lhMX4UYS5lLIZ+UQ5l4uB4W/RXwAItremqaQWf4ePuUl5aPscegB6uvt6+lqQVUU0YklGBxiJnnCD7dkO6mmIZFhID3fYxLo9LIJHJFeaW3l7fafbX9e/evWL5i1cpVGzds3Llj59kzZzXUNUNDwtqwbSIh4K4hB/zw4W4GgaWm62rrBvgFqCbuKJvodyEw5V7zF2bzZ2GG7KJzIaeWENj8lvywB2pprz+xBZYQ2IcPSYvt7u9GSH/8Zr/7+Mi3U/IpLme8rqbOxclFR1snPi6eTOqHqQnz0NVv079NykC1kEcPH9nb2WPqMG/mRk1PTXe0d1y7cq0d2y4WinFdOD8fP2MjE0x9w2D/4Mxh//jvWjrCUgsspgWQHg6wy1sMSnUrJhUSkYTD5oxQR3rxvbExsbdv3bl5/aaxoXFiQiKJSFISFd77XM/zaUHvMkRXyLKcQWcMUYbHuSBXUSFXcMY4EWERNVU13DEuxBMtTS3YViyY27zvB8JzweNIRBLuGBdWy46NjjU2NL5x/cb2bTuAlt6qNRvXb9y9c/eZ0z/r6uhGR4HiSIBNJZvJX37vid67gRKB6fyVEdjFpSjkp3+jva/TvrcvLW2gbIElBPbp++u7EdIf783vPj7y7ThnvKqy2tfb197WPjoqmkggikWAdacUVVJ2CFUE5uHm0d3VraoJBDdTRWASsWSUNZqTnWtkaOTo4GhiZILrxC3oWlM9xdLyUgt8tBaACOztPrBJ2eTY6BiDxuho60hJTvH28nZxcvHy9ArwD8zPK+ho6xgeogr4QqUf670XBtioSBEt6PSSSmRA122EBrnz/Al+A6ahsKCoG4eHbi2xUNzW2kbsI8KwIySnQh3mxZxLIpZMjE/QafSmhqbI8EgXJxdNDc3LFy/v37t/w/oN27ZuO37s+M3rN02MTKIjo2uqa3GdOPYoWyKSQJ7Ze0+xyA3+4ghMIp1q6xs9d/H+2iUe2B9/pywd4c9qgSUE9ikRGNRWhQhplkQFxjvVvz9+p9+JwCBnq7K8EuWFsrOxi42O7cZ1A61FBZLsvdC+Sh+Yp4dnT3fPm06yeQiMzxNg6jF2NnYP1B6eOXWmtrpWIprPLVvkKL+02VIL/MEWmFJMScTSUdYoUiaSMTgw2NLckpGWERQQ5Ozo7OwI1GcS4hOrKqtwXTgWgyUUCKG66TvOq3R6wQXOGKe9raOrswump3DHuNgWLLYVy6AxQL62QNTZ3llXW99P7peIJUraGSLZA9Kx32tKv5eQLxymDNfXYdJS0wMDgvT19G9cu3Hi+AmktMOe4z8dv3Txkomxia+Pb1pKWlNDE51G503wxUjM8b1nmdtAdWh6++X9RyCwsxfVlnIh5+7s2+/m0jZ/kRZYQmDvHxA/8FYhMAukOL5ZHuvPQmAKuWJifKKpocnd1d3GyiYiLKKrowvM1KdAzunb7PciMJlURugl+Pr4nTt7fuf2neWl5YA1/PbjL3211AKfqAUgm3ugfzA6KsbH28fdzd3K0urVy1e3btw6deLU1ctXrS2tszKziQQSl8OFyl5vXgnMxebzBNCHBCtAUIeoTAYTFqulDFIqyisaMI3Qc8ab4BMJJGIfEfK65JNy7hgX1G3jAfGIN4//jjUwU3JifGKgf6CpEShKoLxQOto6d27fOfvz2b179h46cOj0qdO3b93W1dF1d3NPTkpubmomk8gsJgukyyzioYOCuq/pmf1XIDAx8IGxz15cUqN468C+mO6xtM2f3AJLCOwT9tfJyUneBI89ylYoFAB0KcfHPwWBKeQKLoeLbcWig9GWFpYh6JCW5hY+j/+mT2vuwpAr/L0ITD4pH+gfCAoMPnH8xNbNW3OycibGefOO+f+z9x7gUV3XvvhL7nsvuUlucv9J3k137MTG2LiCMbYxtsEYN2zAuIExxgZMLxJCAvXee+8N9d5775qRNJJm1EajKdL03mfOmcL/22dLg1BDIAmEGX3zwSn7nL332u131l7rt8ynZgmsqQRMeiMQcqOy+tDXh9/a8daWzVuefebZJx5/4vHHHn/yX09+/tnnkeGRhL7+2f6/ELRJJVKZFEQtu2m8qVFp2CzO2CgZkAgiOoPeQBmndHZ0Dg8NQ6UXh83BYl1PgIiQBiOKmfbLZYBe57Y6mpTfSx6YSi6XyScZk/2E/tqa2sT4RNvrdseOHntv93vb39j+1o633t357ocffHjy+ElXZ9fMjMzW5lagw+PyFsORt5XENPPAkAbYNyHMFyQzFW9WsvmPr3MdmBox9I6KPjrw/dMbX/jdb3/385/9fB3+fvmL/3z//Z9sZO75fcZ85Y4SMCOwWcBoyQnojqKcn0Amk5GIpPa2do1GszACW5UcF9pJxDYfFQP9A4kJifZ29nGxcTAe1LTh15JfvctHYH29fRKxhMfldXV0+Xr7fvThR1te3pKSnMpmsW/7yF6VappfYpbAPAlAGGE0GDVqjVwm5/P4A4SBAL+Ara+8+te//PV3v/3dr3/169/8+jf/8//+9OrWVx3sHVqaW4UCoV6ntUHwlgAAIABJREFU12pAdAQYCEHAFwwOEIdIQ5DyVCaVjQyNtDS1jJMpGhWgRaCQKTDsD6TO0qG6ZTGEmZDNIgfQQ1mlUImF4inGVFdnV1Jikp2t3YnjJw4eOPjGa2+8suWVl198efeu3Sd+OOHm6hYXG1dZUYnH4blsLqJFIL+gSQJ3PsDCSQFGMZ1Bj0LXSCy2pql488Q7e05b9wjM2EeRHj5u+dHez3a8uWPzy5vX22/Ly1te2/baubPnI6Pjy5qHq/Gshs6h2RI2Hz+CEjAjsLVCYEajkcvlVldWJyUmyeW3Qi7e0n8tOd/dRV+ch8DgZ/3I8GhcbLyjvWN4aPgQCRgFG3QGwHN4p3yXicA+/+zzzo5OXDf+RuoNBzuHs2fOnjl9Zs97exLjE+lU+t3uv9yxVOYEZgnMlgAEHDCMo1ajHR4aaahrSE5MtrayPnni5Ns73t62dduT/3ryj7//41/+9Jc9773v6eHV1toOYykqFcoh0hBlnCKXAXIsKoXa3NhcXVUNw1HLpDLKOGVwYFApx8wl7zReZpdq6ePZIAmzx0dYU6zuzu70tIxrNteO/3D8/ffef/H5Fzc8teG5Tc/tfHvnD8d+uHj+YmBAUF1tPZfDnfNyDBLdFg9qTlwmeAqDeWg1Wo1ai2hRFEEhWp2mj9YvF4StcwSmRY1kjjY5p5pKZy3mFbtOrusNN8fYiBmBzenPj+apGYGtIQKbZExmpmd6eXrd5nZugmCrNbPPQ2AatZbL4VaWV9rbOYSFhJGIQ0qFCno+Lkc1tUwE9uneT50cnNzd3E+fOn3o60OXLl4K8A+wu27n6+1bXlo+NWmmyF+rrvVoTlVzag31XmwWp7sLV1NdGxMd6+vj5+XpBWO32123O3L4yK53du3YvmP/p/s93D3qauvYLDaKgJg/eBw+Pja+oa4BC6GmViqUU5NTExg/C4x+DSlPp52FV2ucYkHEdahOrVRjAXBZdbV1MdEx1lbWH77/4b8e/9ff//b3Jx5/YvPLm/d+vPfc2fOQM4xGpUnFUrDViM41KZuN55Y41uv0fC4f143vwfdMAa9PBXOKWV1Z3dvTx+XwtGrtrV3IJVXj6x+BjXG1ybm1VAZQwK/nnxmBzRnLj/KpGYGt1TJpNBoZDEbajXR3N3exSHxrmpttELYqk/ssBAbYhuTKXnxv2o10P1+/qMgoQh9BLlNAA5dldvRlIrBPPv7E4pLFmVNnLC5bBPoHlhaXdrR35OXkWVy2CPAPwOPwiAZZZo7mZGYJLFMCcGWVSWV0Kr2rsys3Jy8yIsrNxc3VxS06MrqooKi5sbkH31OQV+Dp4XnN5rqfr39Odk5NdU1zUzMMbo1oET6X34vvHR8bl4qlcCNSq9HOibu1zPLcMRkssA4FNLAgvtAAsbysIiszy8nR+euvDr21461XNr+y+aXNW7dsfXvH28e+O+bt5Z2Xm4fH4ek0ulgkXiGhFzBT06JDxKGMtIzkxOSqiipcNy43J9ffL6CpsUnAEyz//Q8BAuNokzAEdsdGebAJ9EazDmytlt0H27L3kPtdI7DZ3xYYHQ4MjgsEarp1D+VY4SMw6+mXQCXTqoCbFbwEIrD0G+kebh63EBikoljBaxcQ1AwCg56PPbiexPhEJwenoMBgjA4baL8WeGrxMiwTgR3YdyD9RnpFWUV7a/vYyJiAJ5CIJeQxsq+Pn4ebR2F+IXOSeVf5mhObJbCYBMCenVorFUu5HO7oyGhNdU1cbLy3l7eri1tIcEhUZHRyUnJxYXFfb59YJJaIJT24nsKCwuqqmiHSMGSmIA4SaRM0pVwJI9gqFcq7Zm1YfMgsWGyopYMxHAf6B2qqaxLiEuyu2x36+vC+T/e98fr2ra9sfW3bax998NHZM2dDg0OTE5NrqmtHhkeFAuFqMeoBLgxUz6Ax0m6kOTs6u7m4hYWEOTk6x8bE9RP6FXLs22x5WvmHA4Hl1FEZnAWbY/1cNCOw9dMWD7wkd4HAILGNWqWB4ahlUhkWWhsYIuhQvUqpEglFfC5fJIRu3oDtE3IPgujUWGBsOCUp5ApIkwNiZssVcplcLpMr5ArIEQptFKRiqVQilUvl01FjQQQxRC6Vg+tiqSnSNrQCkUqkAr7AFPx7ej65y+ly1VtiGoGlpXu4z0Ngy5vyllskDIEZDUaVUkUcJMVGx7o4uwT4B9RW1yoVYL25298yERjkxJ/jVqZUKCvKKwP8A8NCwrq7cHebtTn9IyGB2Wpg+P0w8xVhqr6JNMFoMKpVauB+OEhqamgqLy1PiE9wdXG7cO6C5WXLkOCQqspqXDeuB9/Tg++lUWkGnUGtUtOp9IH+wUnGJDCl1wPzR6FAJBVLEQ2yADvM3Y8RUznnHMBPQRRB5TK5SCgaJ4/X1tRmpGe4ubqdO3vuwL4Db7z2xvObnn9166t7P/7k+PfHHe0dY6JiqiqraFQ6l8OTSWTLV0rNyXqxUzAzKFRVldXWV22Ofnv04oWLXh5eHe0dXA4X1aJANz+7ORYXxTpHYBrUOMZBknLqqXQzArvrOX+xzmO+vtYSWC4CA7RWOr1MIhsbJXd2dLW2tA32D0KXHESLCAXCYdJwW0tbfW19R3sHeZQsw8CTWqUGMUCGR4R84H+EaBEGnUEikug0hkqpYk4xh0hDA/0DA/0DJCKJRgUBbSYZkwP9A7guHL4bP0AYkEvlWg0ilykm6ZOEXgKuC4frwhEHgBs2okFUShWHxcF345sam7q7cFQKFWCOJf4Wn19WXdAmBObp7jlXB2Yq4aqUB4sZp0N1k4zJrMwsSwtLD3cPEHWOL7y3Sq0EgRkNRvIYOTIi0t7OvqiweHVZue+tOuanHrAEYG+f6epGQIgwa4WYQWAAu0z/3TQYDFot+DxTKpQqpZpKoVZVVIWFhtles3W0d7SxvmZ15ar1VZvw0PCuzm4BXygWigV8IZ8nkEvl0NEPRE4UieGnmkFnmP9bdZlA7KXX6RVyJXOS2dnRVVZSFhMda3HZYu/He194/oVNz27asnnLO2+/c/CzgxaXLBITEiuwEOAcFkcilsKgRqteKrg1gWiRjvZO66vWez/a+/2xHwrzC+H8eVfa8fWPwEYBAmswI7C16EXmd66RBJaLwAx6g1KuJPQRAgMCQ4JCIsMj83Pz+3r7+Dw+iwlMSkODQ329ff39AgL8A6MionrwPQq5gk6jV1ZUZWVkkYgkRAtid1SUVSQlJJUWl5IGSZUVVQlxCRFhEVERUcmJyeVl5ROUibLSstiY2NCQ0LDQsNiY2P6+fgaN0dbalpqSGhYaFhoSGhoSGh+X0NrcyqAzyKPkgryC4KCQkOCQlKSUhroGFpM1LSkTypl9MHvqX+Nj0y7kfUBgBr2Bx+WVFJdcOH/B0sKyu7Mb7rbcW6e5ZwQGs0O0SE5WjrWVdXxsPHOKqUPv7H15b+U0P/VwSGAOApuJu2xyDQEkCXrAj4CiKFR9QdTV3Njc1tre3QXsluxs7Q5/ffjQV4f8ff3LSsqaG5vb29pHR0aBCnZGBwwx0DL/XbnoZmcElfFqpZrH4bU0t8bHJXz/3fevbNn6ryf+/djfH/vbX/72r8f/tWvnrqtWV3NzcsmjZAFfoJQrNSrNfPv6lRds9hsgbJKIJcVFJcd/OLHrnV3fHf2usrxSJpHpdYbboPCS8yGsLIqguTm56zMupAY1jnCQxNxGKmOu0+hsgayHY/Mu5HpohXVShuUiMFSLspnstNS01197w8nROTkxuaSopLurmzxGbqxvtLe1P3nipKuLa0RYhKO94/fHvo8Ij2ROscbJlKLCopTklAHCgFajpU7QCvILoyKj8nLyevG9RQVFVlesDh86fP7s+biYuML8wprqWns7e5urNl6eXp4entZW1nW1dZ0dnWmpaV4eXp7ungH+AV6eXjZXbcJCwsrLyvNy886cOmNvZx8VGZ2VkdVY3zhlsj2aDbxMx0vOMqvbJLchMPGMJf6qhyTCCBVVClUPrsfXx/fSxUvJSSnMKdZKZvYVIjCD3tDS1OLp7uno4FheVq5SLouqe3WFb37bOpLAHARmvKkHgYNArEOVQqXX6WHcxpGhETy+R61SowjgMe7B9wQHhZw7e27vx3vf3fnuN4ePeLp7lhaX0ql0hQxYLGjUGkSLAC3Og0NgM3QPeh6H19nemZiQePnS5T3vvb/znV3PP/fCX//yt8f/+fjOt3daXrZMSkjKzc7taOtgMVkogup1GB3X/GgZqz1BgT1cpbqhvjE0OPSq1dXTp06fOX02wD9QJBABBLzs7KAJCpvFTkpMunjhYmR4pFw6i2Fn5j0wWUZ6RmxMbG9P7z12whmMbsSYMmAs8/bWdh8vn5bmVtmC+RpvalDjEBeJz22cMCOwmea4R/mbH7+PElguAkM0CIPGiIuJ2/zylpDg0I72zonxCR6XRxmfiImO/fHEj6HBoS3NrYP9g8WFxXa2dpYWls2NzTjs+zUxIXEagVGouTl5YaFhWZnZPbie/Nz8y5csXJxdy8vKKeOUIdJwWmqag71DclJyD75neGiY0EeYoEzUVNf4ePva29onJya3t7bfSLlhb+fg4e5xI+VGanLqkcNHvL28y8vK+3r66DTGLcsnE+qafXAfJQsQGB0YwAI7sMUQ2PIsMBYbSPDDFFuuelNTUv18/VNTUiFz93JYJxZ77QoRmNFgnBifyMvN9/Xxi4mOmWRMrrppy2IlN19fJxIAW43Y5jjsonpUr1KolAol4KDC2FB5XB5xkEilUFVKlVajZU4y21vb83PzqRNUEnGoorwiLCTMytLq8sXLHm4e8bHxZSVlfb0EAV+AaAEN/YOqJowahGgRrVrL4/DwOHxxUUlSQpKfj9+FcxcOHji4a+eu17a9/taOt/d9su/ot9/ZWF+Lj4uvKK+cZEzyuMDMa7VM7JcjAYhdOts7gwKD3d08YmNiE+MTnZ2cL124RBmnYIT+s7aDF5kbgRUdqlMp1VOTU5UVVf5+/u5u7sWFxQqZYn4ZHiwCI5kR2CKNOL+lzFfWiQSWi8BQBOWwOSVFJceOHnN3dc/OysZ341lTrCHSsIO9w7HvjpWWlLKYLCFfiOvGhYWGnT51uqiwqLK8Mi4mLjoyGiIwCplyI+WGp4dXclIKvhufnpZx/ZptYkISeWxcrdKMjY4F+AEVV2NDk0wqAxsTOr1YKM7DgNr3333v7eldmF/o5+tnY23j6eGZlZlVWV7p5uJmb2cfHhZeUlRCHCDKpXIw6YOPuztPLmvaBtMILDXN3W1xBLbggJlnlbxgOeH+glgkrqutCwkO8fH2LSooolPp0KFhwUeWeXGFCOym4aZCpiD09keGR1lbWTc2NEol0ge4ai6z1uZkC0sA+4CZHlNLRLAx3DTAcTfDeiURS0HsRSUgstKoNBOUiZHhEQ6bo1Vr1So1dYJaUV7R2tIq4AtUShWDzmhsaIqNjk1JTo2JivH39ff29A4NCSvMLyQNkrhsrlQine3zsXBRFxxNq3QRDjeNWjPJmOzrJTTUN6SnpdvbOXx24LMd23e8vu31t95868MPPgQa/XPnnRydkxKT62rqBgcGmVNMPpcPdNJLsm2tRY2MBqNUIi0pLgkNDk2/kY7H4Ql9/ZkZmXa2doBvVqG646hUq9RCgZBGpeG6cXk5eZ4enn6+fvl5+aMjowt+Vj1ABKZGjRgCazLrwNaiL5nfuUYSWC4C0+v0cqmcRCSlptwIDAj09PCMi41rrG9sbWm7ZnPt+2Pf19XW8bl8AV+Ax+FjomPPnjlXWFBUUlQSFhIWHBjc3dmtUqjIY+T4uAQHe8e42Pjuru7kpBQnR+e0G2nj5HEFZmTm6e7p7eXT2tKqVCinLRhEkoy0jNM/nj789WEnR6eU5JTgoODQkLDM9My21jYSkVRdWR0YEOTq7Ort6Z2RnkkeJQP3SfANvi4Q2A2IwEx8YLN3IRcr4TIQGBaNDhUKhM1NzR5uHrbXbRPiE8ijZLgjs8K6rxSBGW8a9AbmJDMrI+v8ufPJScmYNdhcPskVFtL8+H2SgAmBYSyX0x3MAJoYRVBgP479IRpEJBTLZXIURfUosEYfGyUPD43wuHwUQdVK9RBpqK2ljTJOUSlViBZhs9jNTc3dXd0MOmOcPN7c1JyelhEcFOLu5u7r4xsbE1tUWIzH9XBYHOhGfZ8qe/uQhAo86IzJ5/Ep45QefE9WZra7m/upk6cO7D+w4823nn1m08YNG7e/vv3wITBBpaWm1dbU9uB7GXSGXCaftq+HI/pBIDClQtnd1V1XW0caJIkEIpFANNg/WJBfQKVQ1Uo13OZb8GMV1p1EJJWXVSQnJXt7eV+zvmZva592I41EHAIKsIWq8yARmM5I5CFxeWYE9oAXvgcyVB/eTO8CgalVaj6PPzZKbmttCwwIdMD41iHz4fEfjpeWlDKnmDwur6O9Iyw07ML5i8WFxdVVNdFRMR7uHmUlZVw2l9BHCAsNv2ZzfT4CUylUQ6ShoIAgBzuHspIyAR9QBUrEEg6bk5meeenCpYvnL2akZQwODJIGScOkYcr4BJvJ5nP54+Tx3p6+7KxsZ0dnZyeXutq6B7tPYeoKUAe2FggMboXwefyWphYHe4cTP5wICw0b6B/QqKatkk1luLeDlSMwo8Eok8ra29rd3dwD/QNJxCG1Sn3HD+57K635qfsgAegKPR1MEAsvqFKqAL+DRAriDOoNIqGoB9czMjwql8oRLSIWSXDd+M6OrknGFIqASDhsJrsH18OgMWAkaaUCxAIaIg13dXblZOcE+Ae6OLtGhEem3UirqqwaHBjkcriArv12SHQfTiHygPhSo9bIpDIBX0AaJJWWlIaGhF2zuf7N4W+2v779yX8/+cTjT7z0wkv7Pt3/44kfvb28MzMy8d342XtzJgB3H4q9WBbgyxnjxQAmd6ge7CcqVAKeAOoml0ZgBr0hLyfP5qrNse+O7d934JvDRwL8ApqbWgR8gUEHyIYwcH7bem9GYIs1xOzrZkv82dJ4xI+XjcBQvUggIhGHenA91AlqQV6Bm6ubu6t7anJqRHjEjyd/dHVxbWluIY8B50S763auLq411TUtzS1xsXGXLl4KDgruaO+4kZp24dyFkyd+jI9LwHXhUpJTnZ1c0m6kUcYpOkTH5XAjwiN++P4HH28f8HFMYxQVFHV1duXnFVy3uW552bKkqAQyhwkFQi6Hy+PyWEx2b08vh83p6+kLDgy+bnO9sKBIq9auh8V+jRAYnOMEfEFtTa2Ntc17u9879PWh8rIKQEC/Sp/aK0dgN403UQSlUWlpN9J8vX0ryiuYU6y7cn1/xIflqlcfaqpu/buYKdVMFzKhB3BgNBoMBoVcIRFLNCoNRGNTk1OEPsL42Di0E5qanMrNyauvredz+UaDUavRTjImaVSaSCiCjCQGHXiDQqZQKVVikXh4aCQ3J8/D3cPJ0cnTwzM8NDwrI6utpU0kED0o51lYZegZIJfJpxhThF5CaUlpZHjkFYsrBz87+Nq21//9xL9fevGlN17f/tmBzy5dvBQYEAgsUHv7WEy2VCIDn0AmyHgTqAkBC4YeMm7dhlRuJTOlX7MD0H5gV2BmW8BknrGErh2z4TPoDe2t7fGx8e6u7hfOXTj+/XFsgi2cmpzSITqA3uaV+UEiMNSsA3tgfWx+TzBfWaYElovAdChASJUVVdesrznYO1haWDraO2akZRB6CTXVNd5ePufPXbC6YmVvCzwZXZxc2lrbmZNMBo1RWlxqccni9I+nvTy8nBydr1hccXF2LSwo7MH1lBSX+vn6Z2VmUcYpYNZWa9ta2+yu250GgW4sba/Z2ljbtDS3DPYP5uXkubq4XrG84mDv4GDvGOAXUF9bT52g4XE9wYHBbq7ujg5O122uBwcG43E9YHZYbIGZN2UsU0z3kGyNEBiiQagT1NLi0us213e/u3vLy1t2v7u7sKBw+nN2iVl12XVfFQRmNBgVcsUQaSgpISk4KKS7q/t+2iDfQ3v9tB+BsAliqaXCHc4gMKAE0qJatRbzmAN8yMNDw53tnQwaA5JHEPr6c7JzGxsaYSBFjUrD5fCEAhHG0myAQX60ai2K6GB2Br1BIVMM9g+Wl5ZnpmcmJyWHhYZ5e3pHhEXUVtdSxikigUghU+hR/YMavBCBTTIme3v6aqpr4+MSrlhe2fPe+1u3bN30zKZnNj7z0osvvbXjrcOHDgcFBhUXleBxeA6bI5PI1Cq1DgXVvO0b4+ZNE96dryu6n50NQ9AgTuJ0phCBzTT0wiWZQWBSiRSwNhKHaqtroyOjr1hc8fP1b2xo4nJ4C3pbP0AEppm2AzP7Qppx2MMkgbtDYLU1tZ4eXl4eXoEBgQX5BaRBkpAvnGIAH5lA/0APdw9wyz8wKzMbC3mrUsgUxEFSanJqSFBIbHRsTFRMelp6dVUNcYAoFoqHh4brauuIg0S5DJjP63V62gStpKgkIjzSx8snKCAoPy+fzWLLZfLRkVFgg+/j5+nu6enhFRYa1ljfyKAzhoeGU5NTfbx9/Hz9E+ITG+obOWwO/GpfeGZZNgpZ+eOrjsAwERnGx8YzMzLPnj774vMv/ul//vTH3/9x78efVFdV31KALWSfcVfVWS0EBhwpROLE+EQHe8ec7NxbRCH3sRXuquI/2cQmt0RsAxEOkFsLM2bUhWgRpUKJ8TuAXUUBX9Df19/Z3ikSivR6vUatIQ2S2lrbqBNUiFQ4HC6JSJo+xTYiUUSng3gLY282AS+9zqBSqkhEUnFhcUpSirent7OTS1BgUFRkVF1tHaBrFgihj+RS0HDN+oxRD2YeHaIDzkAjY7nZuTbW1w5+dvCtHW9tfnnzU/9+6l+P/2vb1m3Hjh4LCQ6tqqiCERsFfIFCroDACwpk4c4DwdeaFX7hTOdktyDYWvCi6cGZDoPRaKNKhYrH4fX19CXEJ/r6+MXFxHV3duuQWTx/M3o1MwJbTouYdyGXI6VHJM1yEZhBD6ZRbOuhn9BHGCINsZgspUKpQ3SIFuGyuUPEIUIfgdBHIA4CynulQgmdGWVSOZ1KHx0ZhT8GnSHgCSDkUsgVgJkQSwm5m1UKFYfNGR8bHxwYHCINcTlcuCUBCfSJA0SYBYlIYk4x5XK5VCIdHx/v6+0b6B+gjFOgs/qD/eI09Zu1QGBymSIqIuqrL7/e9Oxzv/nVb37xf37x61/9+vy5C4B6xzSlrg8EBhtUq9GWFJe6u3kE+Ac2N7WYhGM+WCsJzO4GsCdg7EqAKV4HzIDg5hE0D2JOMWE4ah2iA3ZaeGBgoFKq9XoDn8fv7eltaW7l8/l6PaDsYgF6v3EBXwABB6JFVAqViRB1dveD2A5mMTU5NToyiuvGJSUmX7e57ubiFhkeWZBfCCJbDBKFAuGCLnVrJZwZhAGjpcllcgFfME4eb2tpy8zI9PP1P/Xj6c/2f7b99e2bnn3uuU3P73lvz3dHv7O3tY+KjKquqp5kTEJHYyiBO/671rW4P+8H1dSD4JJSibSf0A+Cnjm55OXkaTWzrPTWBwIb4iIJOY0TdOwjHHMcuWMbPZAEeoNxjI1U41kNnUP3pxHNuaxbCSwXga3bCsA9EdNAAgv/rb8HqY1cXQRm0INodyPDI99+8+2/n/j3737737/8v7/8za9+84+//8PP12+cTJm9BK6wsVZFBwYRmA7VkYikmOhYsGedngkpNG9tiMysiCsssPlxkwRMAwEYyOsMMAaiQQe2BcUiCTDBVgFGLrVKTZugNdY3clgcRIsgWmRiHBDvDfQPALZ0PQjzymKyqRNUELzZYDDojWqVRiFXaDVak/IMtCNQlmA/jKjCCELE6jRqjUQkmWRM4bvxBXkF8XHxUZFR4WHh3l7eqSmpuC4cj7vwHpapFqt+AB2rUQTVqDXQEI1EJDXUNRTkFYSHhltZWh3Yf+CVLVufenLD1i1bP/7w4yPfHLl4/mJwUHBhQeEwaZjL5sqksluyXd7qvuq1uK8vnP6QxaZTrL56nV4ilmSkZ161so6LjVdgMc6ni7Q+EBiJrQ1OKGlp7x0nj4+Njq3DH3mMPDU5xROIBukKMwK7r/15va41DzMCg5/7ULLwQ19vgAv/zFz5E0FgUAFJo9Jys3P37N7z2N8f+8P/94ff/dfv/vrnv+58Z2fajTTmFHMdIjDYFjKprLio2MnBKSIsgsVkgyXcZJKyXkfFOpoa5ui0Zp3CTj673TGcYYRE7YgWlUlkKoUK7AzqDHKpfGR4tJ/Qz+fxtWotZh5AzEjLoJApcPMRUqQyaAyVQgVMmgyAbEKj1up0gG/ilkBmzMrhlZmBZjQYAPZSKVUCvmBifKKjrTM/ryAiLMLJwcnmqo2nu2dNdQ2hj8DHyCluvW3tOwAsoUFv0Kg0Ah4oWz+hv76u3t/X/9TJU59/9vm7O999bdvr27Zue3P7m3s/3nvxwqWoyOiK8soefA9lnMKcZN5mX7/2Bb6fwllWXhi6gvy6MOCY5WXLyPBIiVg6//EHuAupRo0EhsrCMdTF3c/Tw9PJ0Wkd/txc3VJTb9Q3tLYQmGYENr//PIJXHmYEtr5nw9XSgRkNRpVSTR4l52TnXrO5vv/T/YB3+9XXNj2z6eUXX75icWWwf3DuZtDKJLNaOjATGu7v6w8JCnF2ciktKeOwOQ/K2e2hHN4LQS6IKiC0msZAmMYLMwkAHF0oigr4gu7O7iHiEPAuRHRSsbQH39vc1MycApBCo9Iw6IzmxmYeh6fVIBiZ6u2fK3cyYDJpwqAFulqt5rK5A/0DVZXVSYlJnh5e9rb2vt6+memZTQ1Nw6RhqUR6m6H6yrro0k1pwoUQECBaRCFTjJPH62rrIsIiLl+8vH/f/pdffHnDkxue+OcTz2167sP3P7x88XJocGhVZVVfL4E5xVIp1Utn8UjdBW0NTP2MKILmZOdYXLaMjIiSy9ZXVCIVYuxmDDwAAAAgAElEQVQek+05cPKpp1/47X/99mf/62fr8PeL//uLPXs+cHByz63uNSOwR2oQLVZZMwK7feFZvYVhtRAYgF9j49mZ2ddsrjs5OtvbOdhet7t44dLBAwff3vF2anIqj8uD+0G31CErq8WqIzCZRIbrwoWFhru5uk1QqA/E9GexAbDery+OwCYoEwLetFWWXqdnTjJJgyQala6QK1AU5XP5ba1tA4QBAU+gQ3Ug8s8UkzpBlYqlqBaQpiIaRCaRYbbzQINlnGM+eCcEZsAM2AG4kSu4HC5xgFhcVOzv52991eaqlXVocGhxYXFvT+8UY0oqkd7n3WcTAlMqlJOMqe4uXEpSiuVly32f7Hv1lVef/PeTf/7Tn//xt3+8t3vPyRMnA/0Dy0rKBggDk/RJuM0K7evXe8dY2Ri/q9qBvWwM4qMImp2VffnS5ciIyPWGwNQYAnv/wAkzArurxjUnfrASMCOwdY3A1Cr12OhYXm6em4ubh5tHYUERrgvXTxjowfU0NjRWlFXQJmjTJrGzluoVdqlVRGCwJDpUN0GhwvihpcWlbCb7kQNhsHVWsGrqEB2fy+fz+CbNYl9vXw++h81iQ4besdGxluYW4iBRLBYbDAatWstmsYGboUozHVFHpVEpVCiCQpdDeBFTZU3bci3Vbeb1rhlaYEFnR1dEeMQVyyuWFpY+3j7paen1dfWD/YPMKZZMBsIg6vX3LxyCqaaT9MmO9o7E+ERHB6dTP57e8eaOZzY+s+HJDa9ve33vx3uPHD7i4e6RmJDU0tQyMT4h5AtVStUDJN9fSvIr6DOr8lojcJWFW9sGFNFlZ65fBIYbk5kR2Ko0uvkl900CZgS2ThGY0QBImEZHRlNTUu3t7N1d3UtLyoA3llKNalFEi2jUGkhENG1WNW+NvOc+tOoIzGgwMqeY2ZnZVyyuxETFjI2MPRC683sWyCo8CFtnxrp5+v/bF1eIHmBMLdj6GpUG1aJQtYlokLGRsQHCgEQsgToePA7f3Ng8PjYOHxQKhDD8s0oFdtAAQkJ0JnUOQFomKgrMsHqBSs3qQjCLW2mwW9AnDtEiEpGENEiqKK+Mj4338fJxtHd0cnSKjoyuq6kbHxuHMRyng4PN2GjfetXttV75dVhUhVzB5wmoE9Suzq7c7NyQoJBTJ0+9/dbbz296ftMzm1568aXXtr126OtDzo7O8bHx5aXltAka9OYG5TQbJi7eKNMR1jE1GIrosjKzL19cpzowHFny/oEfzDqwlY8p8xvumwTMCGw9IjC4pvK4vKLCIhdnF3s7h9zsXAaNcRsHz5xJc9byucLesxYITCKSdHV2hYeGOzu5tLW0Qc+yFZbz4Xh82pAZUGLO+gMuZoB+HUUhAtDpgBm7WCSRiCWQlp3H4Y2PjTNoDESDAECmQcij5H7CgEgogpiDRqWNjoxy2dxbcsCYvaZJ2DHnRIN+FhUn1mHAs9hqOr1nPbsXzepCMAuA5DDcptfptRqtTCKbYkwRB4n1tfVJCUnuru7Xba57uHlkpGW0tbSNj40L+UJIb3Hr5feEwGDuS/8Lufg1ao1cJudxef2EgYryyuioGEsLy0/2frJ71+7nNz2/4amnN7+8Ze/He6/bXA/wDygtKevr7YO0NbdKOFsC5uMFJTCDv9c3AjPgyOL3D3y/4ennzXZgt+aEBRvUfHHdSMCMwNYdAgPmw6heJpV1tHf4+/n7ePvm5eZTJ6h3oAuftXyucPitOgKDKhmRUFRRXnH2zLkbKTdAYBNUB1bBdTMS1rQkAFLrDHo9YOTS6/TQc1AukwsFQhC/GdEpFSomkzU8NEweIyNaBO4+N9Y3trW2SyUygDYQHZ8n4PMES5XT1AegVGeoIm5DG6Y0sw9m0t9KCSndDYCdVaPWioQiGpWGx+EL8gsiwiNcXVy9PLwiwiOys7JbmlvomPGZKQr1tNYEQ5xLlXbxpodfINDGf/6/kFRCLpVzWJyRoZGO9o6CvAJ/v4DTp858sOeDTc8+94+//+OF51/Y+fbOY0ePubu55+XmjY6MwvhI91aeR/0prKsYgSX+etaBGfBjog/MCGzxYfWod+N1KRkzAlsrEGA0GBl0xgKRuWcC2i44HuDaIxFJWlta3VzdvDy9iwuLqUtbr89eSuEx1tVmqxAWzGuxi2uBwG4abmLWYBPRkdGhIWG4bpxULDUpWmBJZhd4+tgIGKceRqA2py4GvQHRIFKJVCgQQi51pUI5TqbgcT0TFKpKqZJL5RPjE12dXX09fUq5EkVQuVTOmmIx6CCU9b17Ec7uG7MnoNnXTTh45iLU1RkMBkSLyKVy6gStob4xIS7BzcXt+jVbd1f3qIioirIK0iBJwBcAM0TsDVBbhjGQgT1Q+Fusj93VdfgqyPCs1WiFAuHo8GhTY1NyUortdbuj33731o63n/jnE//4GwBeH37w4YnjJz09vAryCogDRA6LI12IN+GuCvCoJ8Y6xi0EBi3xpWvpCzlLU2s0GJUKZXtru4+XT0tzq2zBfI031YgBPyb84MAxsw7sUe+usye6dX9sRmBriMDotHtBYEqFsrur2/a6rZOjc1Fh0TiZolaqlzJVmVk4p8HKzIIKwdw9mLnchsCGhucDIKPB2E/o/+LgF4ReAiDCWE4vN9w06Awigaiups7D3SMvJ29ifAK6yJkeBwsttkEGSo79ASYqWLvlZLGe0kDhY4Go1TodCBool8qHSENdHV10Kl2lVCnkCvLYeHcXbhxj5NJqtBKRhDXF4rA5ILQi9qfTTRtyLdX6S9d6dt+YnXL29ZkOY+o/MLQ2j8sj9BHKSsuDg0Lc3dydHZ3d3TziYuMbGxoZNIZMItNqtNO9C3sbtNdeEwSmNwI8ymSRR8ktTS0pyameHl5Hvjmy/Y03X35p8xuvv/HG62+88/ZOYObl5JyXm9dP6CePkllTLLlUDjwPdIAm0Py7dwlg7Ws0ADaK7MxsK0ur2OhY+YJICAsul5GeERsTCwJ13JvYZ2IigW6PHSvkitbmVh8vn9aW1oV9MDEE1jMm+PDAd2YEdo9iv7fGMj+1MgmYEdhaTc1Gg5FOo99IveHu5iEWiZczKowGo1wm78H3+Pv6H//hePqNdPIoGZCSY0yzi70B+zZFZVIZm8U2/aajQqEgnszdrt8AgU0yfzj2Q4BfwPDQ8Px87xqBwRlcb1TKlUPEoeCg4PCw8LbWNrFIDJZwzNIIaIm0iEgoJg6SSopLEuITQFBCgWg+/ptfngd1Zbaax6A3SMVSLpurxLjCUQTlcXndnd3EQZJQIALbyhIZoZfQ29PLnGKp1RqtRsvj8uk0hpAvBA6DqB5EwtZotRrt9Hbeygb2PchkWtWkM7CZbFw3riAf8MW7u3m4OLvExcbl5+U3NTaRR8l8HtB73YrhOAPmTADahORW0nbQ11IsEvO4PDaTje/Gpyan2l6z/erLr/bs3rP9je1Pb9i48emN7+1+78Txky7OrgnxCRXllX29fcwppkoJwiUBqZqt7FevF00jsKxsayvr+Nh4mUQ23cdgB8AyujMj60xvWX7/NBqMCrmipbnFx8unraVtCQTWO8b/8MDRDU8/Z7YDW754zSkfrATMCGxdIDC4+Mll8oH+gfQb6R5uHlERUWMjY5CgfOkuokf1PC6vB9eTk50TEhTi5ekVFxPXUN8wNTkFaJ+0K0NgpNVAYNjsjFkUabhsbkFegYuza3pa+gRlAhhF6YGZuVgkoVPp3V24jPRMB3uHI998GxcbNzoyimiRpat/3+4asY1UFJm2nUcRlM/jc2bi1eh1etYUq7Ojc5IxedN4E9EiLCa7taV1eGhYIpaCuEAYPQSPywPRVFGdHgXhrtVqNVDSGAwmMAcP7hY0r1AIRoNRo9bwefxJxiQe15OVkRUcFOzh7unj7ZsQn1BXWzc8NDw1OSUWibHqg9IumCOMUHQLgd3T8g8lgGgRPo/f2dGVnJjsYOfw3dFje3bv2fTsc3/769+ff+75XTvf/fKLr6yuWCUlJjU2NBEHScwplkQsBd7BulkRo++pAAtWzXzRhMBsrtokxCU8GATWugQC0/eN8j7a/+3TZgRm7vYPjwTMCOzBIzC4Y6VSqIgDxLzcvOio6JzsnLFRQNmw2FI3ez1AEXRifKKyvDI0ONTmqs25s+csLSxdnF2KC4tlUvl6QWA3b8JANwq5At+Nd3VxCwoIwpwi5WoVgGXdXbiszKwA/wBHe0fb67bfHvnWy9OrualZKACuf9OL+v0dVxAKmBSQOhTExRPwBColiNsjEUtGhkd78L0TFCr89J9kTLY0tdBp9JvGm3qdHsSkp9EhagGbKVjMRKiVgS1u4uUCGWF/s5v1PhzDCupQnVKhpNPozU3NuTm5Hu6e9nYO3p7eSQlJEHsBXwHgQACiQ65FqaaloTPoUB2iRXhc3kD/QG1N7Y3UtGs21/d+tPfpDRv/9te/P/nvJ1/ZsvW93XvOn7vg5+tXkF/Q19vH4XC1mAYR8/p8KE0G10Kka/HOGQSWsz4RmEar7xvlfmxGYPd3klyLnvZIvdOMwB4wAoPLj1qpHiYNpyanhoaEZmVmkcfIy++FKILSJmjNjc2lxaUV5RUlxSW+3r7fHvnW9rodBdharRcdGKQ2QBGUQZ+MjYl1d3NPSkjq6+0bHRlrbGiMjIiytLjy/bHvr1hcSYhP8PbydnJ0Sk/LGBslAyfQeawKy5fP8lNCggMQ0BozJEcRFBpswSsKmYI8SiYOEPk8vkFv4LC5Q8Sh1pZW4iDxpvGmQW/gcXhUClUiliyQI9yHnXZOBGhrmugB2r3NWL8t8OBdzqew5Hf816CHYR81SoVyapLZ29NbUlQSHhbuaO94+tSZwIDAmuraqcmplZdniTeAno+hLpVCJRFJuBwedYJGHCAWFRbbXrPdv+/Aa9tef+wf//znY/98ZuMzr27d9sXnX3i4eRTkFQwQBiYoEzLpzC7YXYpoiSKZby0hATMCW3mYI3NUoiU62KN5y4zAHiQCAyulHnj6jA6PBgcFX7pwKSoiijhIvKvIidguJJ88Sh4dGaNRaSQiKS017eSJHy9dvITH4dcVAoO0FHKZoq213c3V/dzZc64ubk6OzhcvXHRydI6Pi6+tqR0ZHmFOsfC4Hj8fv9Dg0NaWVmDThqGi1R2iEPti26DTkEulVPM4PLlUjrndGfhcPnGASOglKOVKg97AnGR2tne2tbaZoAlzikWn0UVC0TILBjfpjLMRg4mjdfbFFRwvgb0grQMkG1PIFVOTzMEBYkd7Z1houMVly4sXLvp4++bnFYyOjC3Xu+KeymkqoV6nl4qlLCarq7MrLzc/IjzS0gIEDvpgzwfbtm57/LHH//D7P2569rmj337n7eWTmnKjsqKKRBySy+5gFrnMtjAnu1sJrHsEZugb5X+8/6h5F/JuW9ac/gFKwIzAHjACUylVw6ThpISky5cux0bH9vf1K+XK5Ww+mjqNHtWLheKR4dHamtrkpOToqOiLFy7u+2TfOkVgRqMO1TFoDE8Pz/f3vP/FwS8c7B3i4+Krq2qIgyQel6dRAyJ4NoudkpTi7+efnZU9yZhcCwQGLY0oZIpUIoWbg1OTUw31DSPDI4gWQRF0kj7Z3tre2twqg4xcqE6j1mjUGhM+BjGwMbMwU1ssffDAEZhapeZyuOQxcltrW0pyiruru7uru7eXd2xMbHlZxWD/IJVCVas0po3Xpatzb3chAgOeChxeU2NTaEjoN4e/eW3b689sfPYPv//jr3/1m1//56//8Ps/PPH4E29uf9PO1r64qGRwgMjn8lVK1X2OL3lvFfypPvUwIDDBR/vNvpBrtaL9VDv2g62XGYGtVX+9oy8k5LkZGR5JT0u3vWbr4+2Dx+GlYundrn+IFh0cGExNueHq4ubs6Ozn42dtZf3FwS/uGoHN0JejCDo1yfwe+kKuliX+jLIHOD4CIyppRFjEe7vfe3fXu85OzoS+fh6Pr1QAHiygqtEZVApVQ11DUEBQSFBId1c35IW/26FiNBjVKg2iQSCA02q0bBaHzWTDSJpymXxwYLCkqIRGBbE1jQYjh83pbO8cIg3BlV4ukzOnWJP0SXj3bnNfP+mhoT2dSu/v6y8pLokIi3BzdfP08IoMjyzIL2xqbCIRhzhsrlKh1KwN/ILqRq1GC2J4DxLb2zqqK6sjwiKsrljtemfX3//699/8+je//MUvf/6zn//sf/3sF//nFxuf3vjVl19h7ANtHBYH+i6sH3k+miVZ5whMrTX0jQo+2m/mA1urFe3R7PZrXWszAlur/roEAoNqALlM0YPvSU5MdnVxdXdzb25qFovE98BdpFKqS4pLrlpdvWJxJSMto6mxOSkx6eTxk3eNwDCqWJ1OJxKKcF24s2fOBQeFrA4bBdyuwkAYsIEyGDUqTVlp+fEfTrz15luXL10eJ1NQFAX3sYCGelSvQ/Ujw6OJCYmeHp4F+QVCvlCP6m852Zl82mcdAKmaDKqw+DxqlZrNYsukMh0CGLm4HF5JcWlxUQmbxdahOrVKTRmn1FTVcNgcyNmhVCgxRi4u1HIBYyktCgCcflHvv7Uenyt8/0xPk/f39Scnpbi6uLq6uAYHBqcmp1aWVxJ6CSwmSyKSqFUavW7Z8bNnyXw5LQJbgUQkdXd1p6elu7q4nTl99vODX7zx2htvv/X2xqc3/vUvf/3T//zpD7//w//++f/+j5//x/Obnr986XJOds7gwCCM0XRXKuEVSsz8+GISWO8IDDH0jok+OvD9xo0v/Pdv//vnP/v5evv9x8//4z9/+Z/v7/nQ0dk9t7q3Gs9q6BxaTNrm64+IBMwI7H4jMLgoqpXqvl5CXGyc7XU7L0+v2ppaoUB4F6vgLBMchVyRmpx64ocTttdtO9o7h4dG0tMy7s0OzGg0qpQqEpGUEJdgdeVqcmIyZZwyfyTcNR+YqbRQzYbROowOjwb4Bex8Z9fXX37d3Ngsk8nhQguDMhn0Ri6HV1FW4e/nHxEWQRwgTiuibl/+oTDhv5DxFfBwyuQ3DYAPgs1kd7R3TE1OadRgZ43H5ZWVlhcWFDGnWCBktc4glyloVDp2F5jGT0MuLYjDOL/WD8uVaWnoDQq5YoIyMdA/0NzUnJyU7GDvaGVpFRoc2ljfSKcC87XpGI6m1lnmwe1NMB+EgQLojVq1ViqWMieZxEFiTXVNRFiE7XXbgwcO7ti+Y/NLm595+pnNL23+/ODnh74+dPjQ4U8/+XTzy5v/8ue/bHv1NWsr69rqWjaTDRRy0P7vTjmCMiyz8OZk9yqBdY7ANIhxgCo7beFy+uzlE8dPHDl8ZB3+jn13zNvLJyevuLabakZg5jF703jTjMDWau5eTAcGabGoE9T4uHjb67YO9o4F+YX3wJtq6r4KuSLtRtrJEyctLllkpGckJiRds772xedfWl62xON6lmOJD6kQQKxovZ7H45eVlp87e97N1a2hvlGwUCDClSIwbA1QKpTlpeWfHTi4Z/ee0ODQ6bjjBhAKGsaTViqUA4SBhLgEJwen4sJiAV+oQwFHPCQshThDJBSJhCKNWgOXh8H+wbqaOtoE7abxplqlJo+SC/ILRoZHlArlTSMIiyQVSyHpPFyz4e7YQ423TN0Aqg8NeoNWo4VEpn29fYkJid6e3u5u7n6+fmGh4dVV1SNDI1KJzLgGkMXk2QB9SBk0RltrW1Jikpenl421zWf7P3vh+Rf+8ue/PP3U0++8/c7hQ4c93T0zMzLLy8qrq6qjI6O/OfTN+3vej46MxnXhxEIx2ItfDvAypblXYDFbgObjJSSwzhGYFjWOcTTxGeVDIxNymVwuXac/lVKl1uhGmIgZgS3R2R6dW2YEdl8R2LRFDo1eVFDk4e7p7xdQmF84MT6xkg6nVWtbmlrs7ez3frT3ww8+/HTvp/s/3f/l51+6OrsS+vqnEdjiCxUgRsBiiaAIKhVLBwgDIUEh+/cdyM8r4LKn9+PmFO+uEdiMEdjs9xgNxpHhEWcnl53v7DzyzZHurm61Wj2NBTElig7V8zi84sJiy8uW/n4BTY3NAp6Ay+HxuHyoGjEajOlpGVmZ2aMjo0aDEdEi/YT+muqaCcoEZFuQiqW0CZpELEERdHbWP7FjCEYxoze1TCobHhrOysyKi4lztHd0cnTy9vROTU7t7OgcHCCuOr2tSd8GkZ9MIuNxeLQJWg++JzUl9eTxk88+8+xv/+u3//Wb//rz//z52Y3Pvrd7j8Vly/S09LGRMVMrKOSK3p6+mOhYXx+/vl6CQqYw3TIfrB8JPAQIjKtNyq2lMtjrR2gLlkRvvDnGNiOwtVp5F5T5ur1oRmBr1Q8W1IHpUB1zigngl5tHSFBIRVnFHaJuL+PLHuymSeVjI2M11TVFBUUtTS3dXd14HJ44SGIx2ctBYAa9ETPW4XR1AgpyayvrUydP1dbUCXgCk9/f7B68WghMyBcWFRR9+cVXH77/YWpKKo1KRzCCeD2qh6QJzClmaUmpva291ZWrzo7Ofb19vT19eBxeIpbAtb+murautp5Bn9ShOqFA2N7WUVFW0Yvv5bA4CpnCoAOsVz/50DRQ+aRUKLs6u3Kzc4MCguxs7cJCwmKiYgryCwcHiGKRGEbpWXVtn0Fv1GoQkVDEZrH7evvS09Id7R2//ebbHdt3vPTiSxue2rDhqae3vrL14IGDzk7OaTfSmxqbCH0EGpWmVqpNPWoavUllErEExjsy3TIfrB8JPFgE1tzUvHRcSEwHZkZga7WcrZ9++BMriRmBrVWXnY/AjAajSChqbmz29wtwd/OorKiiU+lq1a2l6N76llFv1OtAiBuxSCzgC2RSmVKhhD+1Uj0XgZm2n2b0Unq9XiqRNTe1pKakuji7XDx/0cHeoaigiEqhyqWADH1+qe6MwGZeftv/RoyyHGrjMMWbRq0ZIAzYWNvs3rX7mvW1qsoqyjhlkjEpFgLEIJPKCX2EhPiEC+cvHvr60JHDR5qbmgm9BEIvQSyaRmB8Hl/AF6iUakjqkZKc6uXh5evtm5iQCELISeVazI5+fhV+Aleg5lIulVMnqP2EAYzVNtLZydn2mm2gf2APvodKoXI5wMPxbr1rlxYOxL5KhUoiljKnmHgcPj0tPSwkzNrK+sD+Azve3LHt1W0bntzw2rbXvvryK+urNiHBIXm5eXgcnkKmiIQi4HGJmeUtnYv57nqTAERgOdk5NtbX4uMSJGLJdADTmRE97Uaj0y8VmXtxZfxi9UURlMVkpd1Is75qnZGeAbhp5sXJNRpvYggMScqpozI4i71qnVw368DWSUOsh2KYEdgaIjAWk1VYUBgRHimVyJRy5dTkVEtTS1REVGBAUH5eAXWCtirUl4vxxQNktkRcSAwcGY1GrVbLnGJGRURZXLY8fOjwN4e/8fL07sH3igQilUJ1zwgM29ycFSUGs8GHNnCIBoRMNugNSoVqoH8wKDDowP4DX37+ZYB/QFVlVVdHF41Kp9MYXR1dSQlJttdtT/94+tTJUxaXLQYHBgU8gYAPIkPPHjxGg1Gr0TInmS3NLSnJKT7evs5OLmGhYa3NrYup8WY//nAdQ40XVDsNEYdqa+pSQCiFsMiIqODA4JSklLKSsu6u7uUDr2mWsmm+/puLnwL7PB2qk8sUDPpkc1NLTnZOUGDwhfMXPt376ds73n5lyyubX968851d3x759uKFi0GBQYUFhZ0dneQxMp/HV8gVmrvyuFyG9vfhariHvbQQgZUWlzrYOYSGhI2OjKmU6lvmelh7wa+CVURgRoNRLpN3d3WfO3vuk48/uXDuQktz6/xJyWi8qUGNoxwkKafBjMAe9p72SJXfjMDWCoHdNN4UCoRtrW1FhcUKuYIyTqkoqwgJDvV09ywuLB4nU5QKEF5w5b1tOQjMZGsPFBhYhB+TxRWMxJeTlePr7Xv50uXTp067OLsWFRZzObx7RmDAmh7YlgE2B61Gi6KADMJgMKhVauYUS8ATqFVqPaoX8AWtza2J8YmnT51+f8/7Z0+fjYqMKiosbmpsqiiviI2Jc3Zyvmp11c3VLS42vrCgUMAXLCYug96AaBGpREoeI1dVVkWER7o4A9oF4gARMtov9uBDdN1oMOoQnVwqZ7PYbS1t5WXliQlJvj6+nu6eIcGheTl5NVU1o8OjYpEYeh4ss2qLQy6IxgB7iB7zG2VOsQYHBqurqhPiEiwtLD8/+MWb23c8+8yzz296/tWtr3704Uc/fH/c1cUtJyuno61jgjLB5/HlMvkcuLzMUpmTrTcJQASG68aHhYb7ePsWFhTRaXSNWjubLXkxBKbX6bVqLTBCV6lNRpzLqaDRYBSLxHU1dfs+3ffK5lc+2ftJSXEpop1r1gkR2AgHScxtpDK4y3nzA0xj1oE9QOGvt6zNCGwNEZhSoYR0ACKhqKqy2tPD65rN9YT4hAkKFaO+XB3Kg0URmAHowFBENw25DIAKFfKdGkCU5WmOK4MBYBcuB0Q5LC0pDQwItLpiZWdrNzYyppAp4Ocm3HgyWREtuAsJIR1G5aXT64Ahl1atFQvFrCmWWCjWqrWoFhXwBLhu3MjQiEgggsivva29orzC19v3k48/2ffJPksLy+CgEF8fXw93Dw93jwD/gKREEB96nEyRiMCuxx3HD4roWExWQ12Dv6+/5WXL4qJiNpONzpuy7/ie9ZPAJHzAaMrm4rvxeTl5vj5+Hu4emJOjf0Z6Zj9hgM/jw0Dsq1JymCnUWYqEoqlJZncXLjMj09HB8dBXh3bv2r3x6Wee+OcTT/77yZdfevnzg5/b29mnp6U3NjQND43IJDL07qORrkqxzS9ZOwlAdCXgC2pragMDAl1dXIuLiilkilgoRmYIXOYjMAjfZRIZg8YYHhoeHRkViyQKOZhYTB17iTIbDUaZVNbZ3nni+Ik3t7959Nvv6uvqdcjceQAisGEukpDbODCNvXAAACAASURBVGFGYGb98cMjgZ8UAoNDetqJfR20AbZhBGjZ29s6PN09LS9bxsbEsllsqHVYYt65T7dmGXBAGw7Ig+rr43vws4P5eQUm7AIqMisyo0FvIPQRPv/s876ePo0KMEGAP0xDA9wV2Vy5TKFDdDKJbHhopKW5dRiDXCqFapI+WVtd29XZxWaxIQuXXqdXyBUd7R2XL1nsemfX7l27j3137Luj39lctclIy+jv6xcJRboZELlMsehRPYVMSUxItLtuFxIUAtRgGBvFMh9fJ8lM6xOMF66QKYZIQ/l5+U4OTgf2Hfjx5KnIiKjW5lY2E7DLTvf8lfX5OTlCVot+wkByUoqNtc2J4yf2frx349Mb//T//vSn//nzpmef+/zgF44OTvGx8SVFJQwaAwtnBDSs60SA5mKshQRg6IiC/MLz585fOH/B29O7rKSMRp02qJiDwOCpUCDCdeNzc/IiwiMC/AMqyisbGxq5HK4e1cNPwaXLqdVoJygT4WHhJ4+fjAiPJI+Nz986gAiMxEXizQhsZZPA0m1hvrvqEjAjsDXUgUHuCRqVHhsTa2N9LT0tg0alY+sl2N9Z9ba86xfOQ2BGg5HL4RYWFF6xvOLq7NpY3wg3/hZAYL2EgwcOdnZ0Av81tVaHgAiJPA6vubG5orxyoH9AIpGo1WrqBLWvp49OoyvkwDMR0SAigUgqlqJaFJB+YX96nV4kFN1IvXH40OF3d+22trJurG8cGyVPb1bqZ9IBy7JlCc2gM0xNTpUUl4SFhtvb2bc0tUhEkmU+u36SQUINpUIpEooGB4ihwaFnTp059eMpXx/f/Nz8rs4uLoenVoEglSbktMLCQwszRAvaaIg4VFNdExcbZ3XFau9He5/e8PQ/H/vnhqc2bH1l6wd7Pvjh2A9enl5FBUUjQyPQ8wNGHVgVILjCWpgfX1MJgA8tVMdmsRsbmoCdgKOzq7NranIqcZA43xJfhwKFdFBg0MULlywuW1pftb5w/sKZU2eO/3A8LzcPfOBhUciWLrBBb5BKpK3NrVERUa0tbdAPes4jZgQ2RyDm04dFAg8PAjM50UybDAOlyxwpazVaiUiyfux+UARl0Cfzc/OdnVzCwyL6evvWuU2M0WCUiCW4Llxaatp1m+uFBYUsJmua6nOODqyXsO+TfdFR0eVl5V2d3QwaQ6MCzpjEAWIPvpdGpUMbMrFIzGaxpRIpoJyFejIdRqmqN5p4zI1YrO7RkbGE+ASrK1Z+vn5sFlulVAHVF9SuzRiuzWnuxU5hwM0h0lB6WvqF8xcqyioW5JVd7PEHe91oAGEJ5FI5c4rZ10soKy1PiEsIDgx2c3Hz9fFNTkpubmyeZEzJpDKMZWNZkHTpGsE1ValQ8jg8KoXaWN8YEx1z/dr1bw5/887b72x5ectLL7780osvvf/e+6d/PO3r45uZntnZ0UkZp/B5/JV78i5dNvPddSgBaBAmEUsY9MmRoZEh0hBk3ZuDwHrwPTwuLzQk9MzpM+5u7hj7bkVJcUl2ZvbJEyfdXd3rauo4LM58hdacKgOqPwTEtyD0Etgs9oKcdkbjTTVqJPGQuLwm8y7kHAGaT9ezBB5SBDZt0jQbhIHvrSlWR3sHcZAEt8YeuNxVSjWJSIqPjY+KiOps7xQJRQ+8SHcsAKIBk11ba9uZ02dio2MpZBCVaEEd2Kd7Pw3wC8hIz2xuamHQGIgW0Wq0Qr6Qy+ECSyAEhTO1VquFehrITIFR3i8QZlGlVOG6cOFh4Z4eXgP9gyYYPZ01pgi7Y+FNCfQ6PYfNLSkqOX3qdHFRMY/LM91atwc6VKeUKyUiSV9vX3NTc1ZmVnhoeGBAUKB/YFREVG5Obkd7B5VCFYvEK4mgAKsPlVVYiHTJJH2yv6+/urI6Pjbexcnl2NFjO9/Z+dqrr23buu3NN97c98m+H0+e8nDzyEjLaGtto4xTeFzewx6qfN32gYe9YKZdyJjoWGwqJh799uiF8xdKikvoNLpQIBQKhMxJZqB/4KULl0JDwgh9hDsiMBAuzGDQqDUSkQSYLhgW8F4CCExnJJoR2PJ2CR72bvZTKv/Dg8AADjD9gALMYLi1kBv0BqFA2NLUEhEWkZOdKxKI7iHE9aq3q1qlnqBMAMunji4hFlRnNmScv3k0exPHdBc+MucUoqIl0psSmCplesOcK/NPNWrN8NDwsaPHAvwChknDsxEYfAmwA+slHNh3ICcrB9eNp1HpUCUD9hm1iEalwTYZMf0V9s90CKDpXUeAnmcObyky9Tr9BGUiKzPL2ck5Pi6eOcVCtAjwn8S8B0C+M3+wwKbqLCgfg94gFoqbGpquWl2trKgU8ASLpZ9TfVMDmdIvmMB0d8HcTcKHyeafzrkCoaqAJ+jrJVSUVURFRkWERwYGBAYHBqenpdfV1PX29FIpVJFABHWoc3Kf/bY7CgfRInBnk81iM+iM5sbmFBCx2+3Hk6c+2fvp9te3b31l64svvLhr565jR4/BDaaK8soh4hCfx59NnmKq2uzcF5PenALPPl1agAsKf3aOCyaY/f47CmSFCeYUYM6pSSCmMi+YnemuKf2cKsw5nZ1+jgDnFGDB0zlvm306523zy7Ng+We/QY/xgcVExzTUNzQ1NH124KCrs+tg/yDUXUHimIa6BotLFna29k2NTctBYDBgGqIFLDbGhawRzAjM1NDmg4dLAg8PArsFv2axTM1sTSIaZLB/MDoq+tLFS74+vuPk8QWV1fe5bYBWQ6EUCoTAqRCzTJdKpHD21Ov0UokUc15D4BVEi8hlcuCtjXkpGvQGkVAkk8ign5Fep4cLJwywY9ADZgehQAjVIdBnTSKWSCVSqHCCCWBAHjg/KhVKsUiskE+HfEERVC6TKxVKDNcCTleFXAH2/lAdqkUZNMaxo8e8Pb0H+wdheXSITsADdK/QdIOA2YF1tHWolCowP+r0SqVSwBOIxWKxSCIRS8QisUgoguWB3PRKpVIqkYLqYLRSKqVKJpWpFOBxWH46jV5bXevt5X38h+OYtT5HIpYA3gqdHkVRpVIpEQMvKlgANbbpKZfJ4SmiRRRyhcnHCkVQPo+P78ZHhEV0d3aLBCK1Si2XyVVKwACi1+nhqUKugOJFEVSpUCrkCqjdwbjKwCnkDoUhjxRyhVKhBLhQD6j2FXIFbC8gMQSVSWVSiRSWFiIqmB1sDihtmB20rFcqQHU0ao1SoeTzBOQxcn1dQ2hI2IXzF22u2gT6B6bdSKuvqyePkSViCWwdIC6lClL8KxVKqQScghDjeqAhgHdN2cmmKeZBaTESLzmPy5OIJSwme4g0VFdbdyPlRmxMrJWl1Scff7Jl85YNT214ZuMzO97cceSbI+fPnXdzcUtLTevB9Qh4AqlEimUnlUll8P2QIwB2Bti7VEqVVCKFATqhuCRiiam0ep1eLpWLRdNOczpUp5ArIFssrA6wH8AaF3Y2KC6hQAhbB9pTAoMzuRJmBzQiYgkIwY4paOG+M2S+MCWQy+SAKwEbTTpUB0YT1nuhuZtKqTIRy8H+wOfylQolLA/WoPKZrV7QvVVKlVgkNg1POBgVMgXMzjSapkc3qlfKlXKp3CQQWGVT9wBfCCLx9HDAnJTVKrVICByEYYR4RItIxMCgAgocTg4m+cPuJxaJYX82yUchny4PHA6mu1j/UcLeAgsMe69KqYLDB2x8y+SwfwIvZo0WhFbEBhfcpIbjBXZ+HaqDp0qFEtr/aTVaOPpQBNWhuvS0jJDg0Nyc3Oys7IOffR4SFEKjglCtpqmPy+Y62DlYWVrVVNUsB4Hdcd42I7A7isicYH1K4GFCYKZIvSZ6BTCbYEZCMqmssqLS1cXV6oqVr7dvVWWVKXANnHFMH3P3uRlMuRsNxpqqmpLiEjjDSiXSstKyutr6ScYUVN3TqLS62joScQjyhCkVyoz0jKqKKuYkE7pk47oBHQCHDRifYdTqpIQkHpcHZ0zyKLm4sLiyolIoEEKK/H5Cf35eAQeL7Wg0GPE4fGZGZktzC5QAi8lqamjq7uyGC5JELGltaevt6RPwAVkXaZB0+NDhKxZXmhqa1Eq1UW9UypXRkdF1tXU8Lg/qwPZ/uj8pIYnP42PLiaS7szshLiErMysvNy8vJy/9RnpyYnJpcSk0qOdyuJ0dnSXFwGkO0lLgcfja6lpCLwGb0DUjwyM1VTUFeQWR4ZG7d+2OiYrJzcmtr60fJ4+rVWouh9vd1Z2fV9DS3MphcZQKFXGQlJuT21DXAN0q6TRGe1tHe1uHgA9QKWYp3FhRVgHDPAv4gsGBwYb6ht4eYIonFUtJRFJjQ2NbS9sUY0qH6rhsLq4b19rSSqVQDToAaPDd+LbWtrGRMZUCgB4aldbW0tbV2TXJmATsr1PMjvaOpoYm0iCJz+WzmKzqqprSktJ+Qj9EvWwmu7mxua+3D6JkNgucdrZ3wseFAmFnR2dBfsFA/0BHW0dMVMzlS5e/OXzk+PfHHR0cy0rLKiuqSopLmxqbJ+mTWgxGtLd1VFfV9BP6IYzAdeMrK6p6e3qFAqFKqRodGa2qqOrBg1M9queyudWV1QV5BTTA+qsVCoQN9Q1+vn452Tl5uXmhwaFHvz369FNPP/aPx/7217/94++PPb1h45aXt3y691MvT6/amtrhoeHGhqa83LyW5haIosbJlNLi0urKarFQDDtMVmZ2RXkFi8mCcJPQRygtLh0ZHoHhpOg0elFhUV9vn0wqg6Sa9bX1eTl5zCnQmUVCUWtLq5enF64LBxNQJ6gFeQVtLW0QsnDYnNrq2sT4RDqVjsWVMowMj9RW13a2d8IBNU4eL8gvqK9r+P/Ze+/oKK4t//f9/nhv3vvNnftbc2fGvp47N/k6YYyNDTY2+DqDbWxjksFgjMkGJEBIIBRAOeecs9QKKOecs9StnKXOOedcVXqr+ghZBGMBCi1xvHp5Na2qE77nVNWn9tln73kC6+nqaWpoosxQADGMj403NTZPTU7rtLr5rR7VVdVcDhd42pGIpJjomJnpGQzFlArlYP9gWEhYd2e3TCrDUIzD5tTV1tdW10olMsSIqpSqflJ/TlbO6PAooJDOjs7MjMyWphbQHi6HV1/X0NHeCa5uqVja2d5ZX1s/MT4BEJnP47e1tA0PDSvkCgBMebfzSotL6TQ6SOg5PDRMyCDQqLRZbFar0dIotOKi4q6OLhCEhcVkNze11NXWCfgCg97A5XDBOvXgwJBOq8dQbGpyqramrq2lDbSHQWe0NLeSeklg8kglso72zt4eooAvwMdLZ+ho72isb+wj9XM5PLVKTSKSmhubW1ta2Sy2UqGcnppurG9samjic/kg31d/X39TQxOdRsdf/ASioYGhxvrGnu4ePo+v1+qpFFpba3t7azubxdZpdYSMzKtW1tevXXd1cb2HwMB4adVad1d3SGANnaMr/DyC1ZmbAmuNwEwvUqgR1Wl1YLULMYW26if1p6akBvoHBgeF+Pv6R4RHMBnMufBXppfgVScwFEHz8/IJGQRwjxaLJFmZWUWFxeQ7z4xJE0KRekkKuRJFUKVCGYV7/+RRKVTgII/H04+KZjKYs9isQq7o6uwKDAhkM9mIAbfoDA8Np6Wm3c6+zefyEQOiVmm6OruSEpOZDBZ4jW5pxk+vLK8EU5BOo5eVljU2NIIHqlgkrqmubW9r53HxO3Ifqe/I4SOXL12uranDDQ8IppApvDy9iwuL2Sw2ILBvv/k2KjKKy+GCvVGlxaXXba5bX7W5ZnPd5qrNJctL1lbWEWERDDpDrcLjUFRXVqenpVPIFIPBwOfxW1vaigqLuru6Udz3XNNH6i8pLiktKS0qLLK8aGltZe3n65+Xmz82OqZRa/g8QVNjc3JSclVFFZPOVMgVxF5iQnxCaUkZKH96arq2uraupo7H4em1egaNUV5WXlRQNDw0rFaqBXxBT3dPSXFJe1s7SN9EIpLKSstqqmpAXk4Wk9Xc1FxVWT0+NoEYcftic1NLTVXN0MAQCIo2NTFVXVXTUN9IniFrNToqhVZfW19eWg5yUNKp9Py8/ExCZldnF7Dc0E0NaG9r53P5ep2eQWdUlFXU19bPTJM1as3gwGBqSlqAf0BoSChI43j61OlTJ0/5evs2NTYJ+cLuzu6iwuLqymryDH48iqB1NXUFeQXgkazX6ZubmnNzcttb2/k8vlKhHBoYyrud19baxufhj0wmg5l3Oy85KXlifEKtUnM53Ix0wqcff7r9vR0vPP/Cf//xv//w73/41//vX//Pv/2fd7e9a3XFKjQkNDoyOiY6trW5VSaRKWT47MrOyqmprlEqlIgRGRsZy8zIzMvNEwrw9VwUQeNi4nKycwBAGPSGro4uED3EiKdh0E9PzaSlpLW3dYD8UTKJrKSoJCkxCUxmAV9QVVF11epqU0OTVCxFEXRifCIlKaW6sho3qaIYk8EszC8M8A+YnpwGBDbQP2BCrnpAGKMjY8lJKeB9BvzS1NhUVlI2PjYOiHCwf7CirAK4hCJGhMflh4eF5+flM+gM3GCmULW1tHl7eY+NjmEoJpPKujq6nG85N9Y3AsRk0BjFRSUF+YVioRg34MkVHe0dsTGxJCIJZK5sqG+IjsSvJlA72HtbV1sPrm6RQFRXW19cWDzYP2jQ4+HxOCxOdVV1b08vIDyNWpOYkETIyAQIqFape3t6IyMip6emZ7FZjVozNTlNSCc01jeK8DcKI5VCqyivKCos5rC5punELC+riI2O7e7sBmba4aHhwoLC6qpq0B7yDLmqsrqtpc0UIgS3ptfV1LU2twIA1Wl1dbV1pSVl7W0dTAZTqVC2teIBfqsrq2lU3KNgdGS0tLi0rKSMzWQb9Ebw+lRWWj4zTVar1Hwev7urp7SkrLmpmcPi6LQ6cHXUVNfSqXSdVpeRTrhw/uKF8xftbtg/kMA0Ko2bixskMEhg5sZDK9+etUNgC3wMTRFiKBVlFYH+gU63nMJDw2863gz0DyzGw6k3x8fFW1y09PXx8/H28fbyzkjPIPYSJSIJYkBWWF+tRkueIddU1ZB6SRKxlEFnMOgM8BYIbqMcNse0Dog/0hRyJYfNAa+84D2ePENmMVn4Oh2KGfQGoUBIIVPA7jOwqjI1OaVR4wYqsKZJp9GZDKZOowO/iEViGhXPOwkWYvDTZyg8zlzAaPBgBu/EYNmIx+WLhCKtBg9wwGFzThw/4e7qTiKS5tZBtPqJ8QkOmwMK7Cf179+7v762XiFX6HX6qYmp2OjY48eOW1tZR0dGx8bEenl63XK8lZ6WLhaKDTp8jY/H5dFpdJAtB/fZF4rYbI5YLMb3QhoRqUTK4XBYTNb42Dghg3Dh5wvhYeHdXd0S0xqcTqsT8oU0Ko3H5WlUGqPBKBFLqBQqh80FRhqlQsnn8fk8Pngggd5xWBywkARCW3HYHGAgBEs8XA6Xz+WD9mjUGqFAyOPygIkCMeLx+nlcPr6KqseX+ZRyJY/LF/DnFqrAc4jL4QLvYLVKzWKyGHSGWIS7aqEIChogEoqAEUKtUnPYHC6Hy6QzR4ZGCvMLQ4JCXJ1dra9aOzo4RkVGFRUWdbZ34vEtxRKjwSgVSzlszsJ1Oj6Pz2ayxSJcTBRBhQIhi8nCy9fiGx1kUjxFI24PU6q1Gp1YJBkbHWtubikvq0hJTnG65XRg/4E333jzT8/96W9/+dtrG1/78J8f/nD0mKO9Y0pSSktTy9TkFJPBZNAZUjG+4okYEYlYwmQwAc/hRiyZgkFnsJgssEqLoRiFTGEymACYwIo5g86QSXADEnh/oNPo88uIwCpJo9LA8XhoWS5vcACPIgvWGRVyBRhcxIAAmxCbxZ6anMKDmJjeoGRSGZvF5vP4gDDkMvx4DpszbwMT8IVcNhcMH4hfwOVw5VKwYxTTanQz0zP41WQiPGDXmRifAMcb9AaxSDw2OjbfHjBebBbujAiuPrFITCFTwIowhmICvoA8Q+ZxeKA9psT2HLDhA7g68Xl8sAsYtF+r1vK4vPldFCarKo1BZ4B1QzCfyTNk4CQAFp0ZNAbeHlNiUzCd2CwQRQ9VqzRcDpdCpuC3NSOumFwmZ7PYPO5ce8DlBmY7uLr5PL5QIAQmRsSImJrHFQlFGjV+NYmEIi6HC96+wJI6Pl3ZXHCxazVasUjM5XCV+KoovkZp2uPMxQs0ZZoCa8p8Hh8sdBIyMv18/VJTUgnphIP7Dwb4BUxNTgEdwKVB6iXZ2zm4u3l0dnTCVcgVfirB6sxKgbVJYDo9lUItKS6xv2G/b+++I4ePWFywSEpMGhke4bA5tTV19nYOPx0/ceT7o1cuX0lLTRscGAT34hWWXq1U9xH7/H39w8PC+0j9wG1lhdvwGNWZbuiK0ydP3++JD0oDNrCD+w/2k/qBB1JLU4vTTSfrqzaEdEIfsW9ocLi9rb2utm5oYAhHEJOd8t5IuXdl7Z6LqoCTqEwxMjRif8M+NCS0q7NLLpM/RhdW5hTw9P2N/yM4PcukMgadMTYyVl9XHxUZ5ebi5uHmERMdk59X0NzUPD42DhYrH6fZ6CxqqkKr0cqkMiqZ2kfsq6utT0lK8fbyOf/z+S+/+HLzG5s3vLLhk48/2f3lVxYXLFycXSIjIivLK6enpvk8vkKG+9I9TtULXorg6VABQMN3PPHj2lrbBvoHzp4+a3PVpqy0jDxD5nK4dBq9taU1IizC6srV8LDwoUHczfTJpYN+YE+uISxhVRRYOwS2IHwoYkTlMvnE2ER+Lh4i/JLlZRcnl8KCQmBC72jvCA4KtraydnFyIWQQhgaHpBI8oc3KL0TOE5ijvWNGesbkxOSaeNQ9GoGptRw253b27SuXrkRFRI2NjstkMpXJsVcmlamV6l8yIN3ZNjEfCez+GQ+MfyKBKD423sfbp6igiE6jg02vD9wDdX8JK/nLQ9gL93/X4/swhHwhlUzt6e7Jz82Pj40PDwv38fIJDgrJSMtob2sXm2wYj9dmUDu+5UKlYTJYpF5SdVW1Cby8LS0sv/j8i23vbNv29rbt723/+KOPDx74ztHhZnJSSnNT80D/wNTktFAgerx64VlQgV9TYD4aRVxsHLEXdzuLjY61trL29/PPyc4pLysvyCsA6cKcbjoV5uN37CUjMAOGx8SH8cDge9GaUmCtEdgdDgPerCwmq7OjKyM9w9/PP5OQOTQ4TKXQsrNyvDy9Y6JiGusbaRTaKlqeFHJFH6k/JTnF19vX+ZZzeVm5gC9AjCu9GPprt8tf+/2RCEyj0kxPTsdExVy8cLGosAhf+EDmOoiHjwBbJUBIVdQUe2Ihh933Haxh6TS6ttZ2Xx/fuBj8Po4vnZhKuNeKZpZXGngIqVVqAU8wOoK7tBfkFcRGx7o6u9rb2YeHhVdVVo+NjHHZXLAx9tdG4YG/zzMf2GYrlUh5XN7YyBh4FTl54tSeb/Z89OHHb295+5WXX3n1lVd3f7H7mvW12Ji48rIKEpEkFAgXk1vzgVXDH6ECv6nAPQSm1+mpZGpiQqK7m7u7m7uvt6+Xh5fdDTunW8452TmT45PzYf9+s+SHH3BXTHza3FLs/MVibl8QFJvk6Kt72dAP7OHD+jT8de0QGHjc3iEwMDYYhi/xdLR1eHl6h4aE5uflp6dlXLxw8eIFi9s5t4HT+mqNIoZiIqGotaU1Oyu7pLjEzdUtLDSspalFLDT3uKyPSmBDg0OBAYEWFy2aGptwx507IRPBjQ9FMDwB0R0Im9/Q+oAvd4gKRVEWk5UQlxAUEATiqYKiVmsoF1Pvnc7ioR/EInF/X39RYXFUZJSvj6+3p3d4aHhBfmFHWweVTAW+7Yspc+ExoHyw01Cr0bJZ7M72zpysnLCQsBu2N3Z/sfvNzW9teHnDC8+/sHXL28d/PG5vhy/j5t7O7e/rl0rWXlKmhX2H39eKAgsJjEQkgX8yGaymxuaSohLwKS8tHx4a4XH5IFbIUtnAtAZshKuLIVQPjc3IpDKpBI+JY24fmVSGB7XRaMdYGkhga2VWL2s71yaB3UmqCJxe83Pzbzneuul4y8dkavru4Hdnz5y9nb36BIZvScvNCw4KplJoJcWldjfsnJ2c+0h9yzqiT174gwnM5BANCkcRrL9vAPiBaVSaoYGhAP+Ai+cvNtY3ymWKXwjsTgxVnB4ekcBkEllFOb7TIjoyenhw2KDDI+w/edeWrwRgvQNhL4oKizzcPM6ePnvlslVSYjIAL6FAqFKoQPilx+gL8Kfmsrk9XT2VFZXxcfHeXj4/HD22Y/uOrVu2vvbqazs/23nk+6OXLC8H+AeWFJe2t7XPTM0w6EypBA8Rt3wdhyVDBeYVuJ/AQPALuVQuFornPyBEyPxe9fnTH/sL7gemx3opyh8vOh0+evLbb77d+elOM/zs/mK33Q275FRCZfskJLDHHu71dOJaI7A7ZhIwBmDbVFBg0LGjx44cPmJz1cbb0/vUyVN79+wNDAgcG8Xjua/WB0MxOo2ekU7w8vQWCkSTE5OZGZkuTi5hoWESMb6DabUa9pv1PpDA5tYBTXpiKDbQP3DwAO6Jr1FphgeHgwKCfj77c2FB0dwy6/1e9ncC6v5i+pofmnvWIrFZDMN0Gt3I8EhMdIynu2dVRZVCpliSd+Xf7PujHgBMUwa9QSQQNTY0BgYE2V6ztbO1CwwITEtJa2psopCpMqkM7FgE28EeqQrwSOOw8Y1vba1t6Wnpbi5uJ386+fnOzz/84KO3Nr/1+muvf/zhx8eP4Uav1JTUjvYOKoUqFOBhVLUaralefK/cI1UKD4YKPJ4C9xDY/E5VfIOt4c7HtHkT/xNuHceTXjxeXQvPwrBZtR7rnpLvPnTxjTff/dNzf/r9735vdp9/+/1//sd/7v12n7unX37tACSwhSP41H5fmwQ2+8vWOalEamlh+dPxn2yv2SbGJ9bV1mWkZ1yyuOTo4NjV2bWK44qhGI1KS09L93D3lIgltQ4C/AAAIABJREFUKqVqbHQ8OSnZ7oZdeWk5l8198ux+y9Q7ELB74V7Ie7BpIYFp1Vo6jZ6Wknb+3PmQoJCB/gGJWKKQK8RiCZ8vwLffG/Cc3L+UMM9bDyIwADR4kH0DwuVwC/MLfbx84mLjJsYnzCHJARDcZO7Cl781ajwowPDQcF1NXXJisq+3r90NOzcXt6SEpGY8xMM0CKbwSMM0j3R42HEZHsh+bHQsJTnV9rrtsR9+3PPNt599uvPdbe9tfWvr3j17L5y/6OHumUnIbG1p7SP1gdBoj1QdPBgqsIQK3E9gDyl8yQmsa1K+a9/ZF19+4/f/9vv/9X/9LzP8/Mv/8y+7dn1xy9kjt5oECewhc+Pp+dPaJLA7D2+jwcjlcK2uXHV38yjIKxgZHhHwBVMTU4kJiYEBgcRe4ioO5D0ENovNyqSy1pY2H28fDzeP5sZmkClyFVv4a1WDcEGnTpzCo1EAO+Ld2HQXgWm0Momsvrb+hu0NaytrQjqhu6u7v2+go62jqbFpaHAI3w6Jor9NYMC6Bpz3MQw1bXft7e6Ni43z8vSqqqySy+QPeF02NQwkDP217jzp7wD35yrC39p1Wr1MKqdSqCQiqaS4JCEuITAg0PmWc1BgMCGD0N7aTqVQxSLxI+HX3BYEU3YXsUg8NTnV3dVdUV6RlJDk7uZ++LvDr296/aUXX37rzS1ffP7lsR9+tLlqEx8bX1tTNzE+IZcpFloon7S/dy4uWA5U4FEVeAQCQ3EbGPg8ai33Hw9WIbvnCOx1SGD3SwR/MU8F1jaB6XV6NoudlZldXVUzPTUN8pSJhKLuru7GhkYQ/nS1dL+LwCSSWWzWoDcw6IzCgkJ7O4fI8MiB/sEHU8VqPwINeiOLwbqLwO5uEiCw7w58B+KB6TS6ibGJhLiES5aXbjrejIqMSohPiI6MjouNb6hvxBcQ5wns7nLuHRqwdgky/SEYGNzS4lKnW85xsXFUMvUBZrAVIDDTqih4X9fr9DKJjEKm9nT15N3OCwwIdLrp5O7mHh8XX1pS2tnRSTE52t/br1/vNbB4GQ1GnVYnl8npVDqJSKqprokIi7hha3fk+6Pvbntv02ubtry19f0d7+/+8qszp8/6+foXFhQODw6zGCyQqdCgN6LGX7LUL752eCRUYGkVeCQCm3sr+/WrY/FtAwTWMyn7fN+ZF1+GBLZqvjeLHzJ4JFBgbROYOY/i/QSGYZher5+ZnomPi7/pcDOLkDU2OgaCdJtVR+YJLGDeBnb3XfIeAsOzRipV46PjuTm5/r7+DnYOtxxvBQUEFRUWTU9N4zH6H9EPaW4t0pStiNRLCg4MdnVxra6sBrk+79JqqQlsvmpQC/gnakT1OoNCpqCSqY0NjVGRUTcdb4J9FQlxCfW1eP5sED38rrbdLdrCP83XgueEVmk4LM7E2ERrc2tSQtL1a9f3fbvvna3vvPXmW1ve3LL1ra2f7/r8wvmLwYHBxUXFxF4ilUIVCcVajRYEQ8cfY79eEfwTVGAlFTADAjsFCWwlRxzW9YQKQAJbrgfYXQQmxm1giBExGoxymby7qzs0ONTT3bMgv5BOxVPzPuEoLu3pCwls9EG7Ge4lMAxfm1ObSGJsdKyP2DfYPzgxNsFksBRyxWOYZ+YBxaA34CkCCwptr9uGhYSBvM53dXb5CcygN0hEkqGBofzc/LDQMHc3d1dnVz8fPOlKT3cPl4NnbnnUHY5gzVGj1lAp1Pa29rjYOKsrVnv37N3+3o4Nr2z4nz/9z0svvLTz052XLC9FR0WXlpT1dPWQp8lioRjUBdgL7DRdQkPCXcJCqoMKPLoCq0pgaM+U5PN9J198eRNchYTX8lpRABLYShEYOouiGGrK8Mjl8KqralycXf19/asqqrgcrllNl0US2P69+0uKSkCsKdzVHkENOoNapcYD3ihVGrVGp9WDNH+PaqeZIzAMQ0zpMom9RC9PL093z7aWNomJZX+Ra6kIbK4cUwhZFGcbBMHzMdMotI72jrzbebHRsd6e3t6e3lERUcWFxd2d3TPTZDxr5KIDPcyZ00w9opCpnR2dt3Nu40Erzpz78vMvX9v42l///NdXXn7lnzv+ee7sOS8Pr7SUtObGZtPGRpFSrgQb+OfZFKd2U5shgf0yGR6dGOC5S6vA6hJY76T4830nXoIEBi+EtaMAJLCVIzD8ZjeLc5hOq2fQGFmZWa4urj5ePk0NTY8Rp2Bpb50LS1skge37dl9qSpqAL1h47l3f5xHhca8HPGm3AWExWdmZ2R5uHilJKVOTU/dXsQSe+Ka1PABeIGv49NR0W0tbdma2n4/fNZtrbq74DsfqqurBgUE2k62UKxe5lRVnJtOue5VSRZ4md7Z3ZmVmBfoHXrW6unfP3s1vbH5769v/3PHPTz76ZP/e/TbWNlGRURXlFRPjEyBN+Jy5646V9MEE9rjy3qUkLAQq8MQKrDaBib6ABPbEgwhvCyupACSwlSUw0+UBAsmOj43HxsRet7keHho+Mz2j0z6yv9QyTZRFEtjeb/clJSbzeb9OYE94LzA55mMYppArerp7AvwCPNw8WppbNGrNL+u2S2QDA/ko1Wq1UCianpyuq61PjE/08/Fzd3P38fIJDwsvKigaGRoRCUV6nR5BEHwPF/awtWN8ndGIqpQqAV9AIVNGhkdam1sT4hPsb9gf2Hfg008+3fHeji1vbtny1pYjh4/Y2dqFh4YXFhSSiCQGncFhc3Ra3YMHF0DtEwoLT4cKLI8Cq0tgpEnBl/t+gjawB986lmfEYV1PqAAksJUisIUXgOk5qlFr29s6/H39ba7apCSnsJgsvU7/C1ssPH5lv5sLgZlMhmAPKZfDxb3Uba5nEjLpNPovCc5/ncCAYey3/o8vOxoNRq1Gy+cJxscmGhuaMjMyvTy9LllesrG2CQ0JbW5sxtMp6heV2R04eIFQYbj32OBQZUVlTHSM0y2nC+cv7N+3/4P3P9j46mtvbHrj048/PXP6jI+3b2FBYW9PL4vJ0mq0T3gxw9OhAqurwCoSmFaH9E3wvtr748svvwb9wFZ3GsDaF68AJLDVIDATUaFGVCwUtzS3BvoHerp71lTXcjm8X9hiZalr4YwxNwIzJeQxdHd1u7m6B/gHNtY3SiUysB4HvKAeuAr5cPZCEQwxokYDolFrOGw8qmp5WUV4WITdDTvba7aB/oGlJaVDg0M8Dg+kEsKQ+yxec/A35zqGIihI2igVS2kUGrGXWFxU7OnhefLEyc8+/eyVl1957o/PvbHpjS92fXHyxMkb12/Ex8b3Efv4XD5iMN/sCAtnBfwOFfhNBSCBPTwMLIzI+ptT6Gk7ABLYqhEYuFuxmOz8vHwbaxtvL5+O9k6pePWTKJshgaEIyucJEhMS7e3sY6JiGDTGnBvW49rANGqNWCRmMpikXhIhnRDgH+jm6u7r45eWmt7Y0DQyPDLPXgCt5myTpuoW3iOACU2lVPF5fPIMuburOzsz28fLx+KixWeffvbqho0bXnn13W3vfrX7q5MnTjo7Oedk5XR3dU+MT3DYXDyihAGmDFquC3DhMMHvK6MAJDBIYCsz09ZNLZDAlusBcH80ivsnDe4QZgpnGh0V7ejgmJaaZg7pd8yIwO4YAkFe6rqaOhdnVw93T2IPUa1S4yHyf53AHqg2sJyplWryNLmxoTExPtHR3tHZySUmOrawoKittW1yfFIkFKlU6vkAE3PO7wu8vvCvKGbQGcQiMZfNnZqYam5szrudFxkRaXHR4qvdX+3YvmPbO9u2vb1tx3s7jhw+cuumU3pqelNjE7GXyKAx5DKFVqNd5LLm/b2Av0AFzFaBVSQwjR7tm+Tv3nv8JbgKeee2abbzBDZsXgFIYKtJYCBzrVKuJPYSQ0NCvb28S0tKmQzm6ubtNk8Cw1CMQqakJKd6eXoXFRZLRKbs5osjsPn4W3Qavae7h5CRGR4WHhoSGhURFRUZVV5WMTQ4zGax5TK5TqtD8aghc2uLOOEtuJ3hDxgE0Wq1UomUxWT1dPcU5hd6e3of/f7oN1/v+ejDj1568eUNr7z6wT8/OHb0mKO9Y3RUTGVF5UDfAJvJVilVahzsFuVPtrBS+B0qsFYUWF0CI00Kdu+DBHbXLWutzJyntp2QwJZrvi7GBgamHWJEZFJZY0Ojv19AeFh4bU3dMm4wXMATvzbpzZDAQFPVKnV7W3tEeGRkeOTUxBS+exTBw2Ld7wc2j1AoguJ7EhUqNotNIpKyMrODAoNv2Nq5urji4ezr6qenpuUyOW7xQlE8AyRITHmHwObLQYwIYkC0aq2ALxgcGCwtLo2NjrW/YX/shx+3v7v9T//9Py/844W3t7792aefnTl9JsA/oLS4lNhLYjFZSoVSr9OjRvTX1Ia/QwXWjQKrTWBCuBdy3cylp6QjkMBWn8CAJUwuk+fn5Xt6eAYGBLa1ts/lnFkEMC35TDVbAgNQm52V7ebiVlleKRVLcbKZIzDcagV8tvQ6vUatUavUKqVKLBRzOdz+vv6iwqKQ4JBrNtedbjknxCc0NzZPjk9y2Jw59UBKSkBgiMkAhmEoihoNRr1Wr1aphXwhjUIb6BsoLSnz8vA6dPDQm5vffPa/nn3u2ede/MeL77z9zoH9B5xv4W5evd29fB5/yQcFFggVMH8FVpfAiFOirw+deX3z28/98bnf/evvzPDzh3//w7fffOvu4Ztf01/dy27oHDX/MYUtXFYFIIGZC4FhKDYxPhEXE2d7zTY6KloilhgN+IrVPZ9lnQ2gcOPiMnMvezywB9GnkC+sr6sP8A+Iiohi0Of88U3u8PiuRrlMLuQLpyament6O9o62lvbc7JzIsIjnG452V639fbyTk1J6+ro4nF5eJLvu1cYcQ6e/w/FEAOiVuLgRZ4mE3uJ2VnZDvYO3x8+8tEHH72x6Y0NL2/Y+Oprm157fd/e/a4uboUFRUODQxQyRcATgGCtKzBMsAqogLkpsLoE1keWnbhof+ToiX3f7vt85+dm+Pl699cOdg4paZlV7VOQwMxt9q5KeyCBmRGBScSSzvbOqMgop1vOebl5XDYX7PjDl9KQOeekFZglRr2RzWSfOnEq8KGZuVeFwMDGhfjYeKvLVq3NrQqZAkMwvc7A5wmIvcTysvKUpBQHe4eDBw7u2rnrxE8nrK9a29na+fv5386+PdA3oJDjXvC4fdG0fHmPmLh/vR5PrCSXyalkamtLW3pahquL67kz5/Z8vefdd97dtHHTG69v/uTjT08cP+Hi5BIbHVtaUtrf1y/gCfQ6vUFvQIyIWaU3uKeD8J9QgWVVYBUJTGvAxjna6LRiYv8Il8PlsDlm+OFyuGKRWCZXjjHUNb3sRmgDe9Br9rJOUXMrHBKYWRAYmBZGg5HL4bY0tQQHBl++dCU1Ja2psam3p7e9rb2utn54cFilVOEbAJd51hoNiyKw/Xv3FxcWg7yQy92k+fJRBOVyuMVFxXa2dpERUSRi38T4RG9Pb2lJaVhImO0127Onzx4+dHjXzl07tu/48ovdbq5uxUXFg/2DHBZHqVDOlzNvAMNNjKasQYgRVcqVE+MTNdU1hHSCt5f3JctLB/Yf3PHejo0bNr7x+uaPPvzoh6M/ONg7xsXGl5WU9RH76DS6SChSKpSLzw75SwOWeRBhRVCBlVdgdQlsjKdPyq2j0M0rze79o4Bgs1McfS0kMHgPxGYhgZkRgc1is3qdns1kl5WWWV+1OXP6rO11Ww83Dwd7xyuXrsTFxFHIlBWIm48TGIvzmzawg/sPdrR1qJXq+28xy/cLhmJKhbKP1BcVGX3xwsVA/8CwkDA3V/erVlfPnTl3/Njxn46fuHD+wpXLVud/vvDD0WMJcQmTE5Nqldq0mDvns2/y3J9zGkOMiEQsmTFlbMzLzfPx9jlx/MTXX3397rZ339z85pa3tn704UcH9h+wtrIO8AsoLCgc6BtgMVlikVij1qwADS+fkrBkqMCSK/AIBLakT18Mm9UasBGePiG3kUznLXm/lrZASGBLq+eaLg0SmBkRGHD50mq001PTWZnZh747tPOznbs+2/XB+x+8v/19y4uWjQ2Ncpl8uTMXGQ1GzjyBjYzdP78xFBvoH/juwHf9pP6Vz6Vj0BuYDGZRYdHuL3d/8/U3hw99f/jQ9wcPHDz+4/FrNteCAoMzMzJLikvSU9Ntr9kmxCVMT05rNVpTEC88jte805hYJKHTGKMjo7U1tbj73fUb3x/+/pOPP9ny5pZNr23a9s623V/uPnXylIe7R15uXndn99joOFhtvF8Q+AtUACoAdhQhRiSTkBkXG0cikh6mCQhufJ8v5sNO+XVoW0BgTWuCwKahDezXR/Px5sAaPQsSmNkRGIZhep2eTqWfPnX69dde/+8//vd//eczz//t+c93fh4dFc1ispY7WpjZEhhYMTToDTwur6Ks4p233/nLn//y7rZ3Dx86fMnykrub++2c3MGBIaFAKJfKhwaGggODvTy9ujq6ZFI8ixFiQAw6g1qlEQqEU5NTrc2taanpt27eOnf23FdffvX2lrdf3bDxzc1vfr7ri8OHDrs4uxIyCE2NTeNj42CdETWiD8hNBO8jUAGowB0FHsEGtgwENsrVJ+auGQKr62E3QT+wOzNnjfLTkzcbEpgZERgYTjwiFYJKxdIfjv7w/N+e//3vfv8v//e//O5ff/eP5/9hdcWqv69fo9Y8+cA/pASzIjBgtQJ7EQx6o1qp5vP4pF5SbEzcB//88D/+8B8bN2y8bHm5ubFZLJLotHrEgKBG1Kg3cticosIiB3uHosIiBp2hUWskYimFTO3p7i3IKwgODLa8aPnJR588+8yzz/zXMy/844Ud23ccPYK7eXl5etdU19KpdI1qeXV+yBDAP0EF1qICq0tgY1x9Um4zZS2sQk5z9JDA1uIMX/I2QwIzUwKTS+Uebh67dn4OIOx//7//+w///oc93+y5nX2bzWIv+TxYWCDYEDDnB7baq5Bgf6JMIhPyhRPjk9WV1VERUXa2dpYXLX86/tNLL7704Qcf+vsFzEyTjaYcixiI5oVicpm8q7PL08MzKCCooqyC1EuqramNjIg8e/rsjvd2vPjCi3/581/+/re/v7rh1Z2f7bS0sEyIT+jp7uHzBBKxVK1SG/VG6Oa1cFbA71CB31RgdQlskm/IKOqgMYS/2c7VPQDBZslcQxOJ19ozsbotgbWvugKQwMyOwIA7hUFn6O8biI6MPnb02KaNm/7zP/7rmf96dsf2HS5OLgP9A8s6bxADwufyV53A8KSZWr1MKqNSqI0Njbm388LDIvx8/QP8AqIjo7MIWdlZ2Xu+3vPZp5852jsSe4iIEQXmQ6MBjw3GZrFbm1vd3dyP//jTmdNnL164ePTI0V07d737Du5iv/3d7Xu+2WNpYRkYEJiTldPW2k6eIctlckhdyzq1YOHrW4FVJDC9EaNKDZWtwxy+1MxFRrFZlthImhINjtPNvKmwecutACQwcyQwAGFatXZ8dDwnO+eq1dX3d/xz02ubtr+33fKiZXtb+9y0AL4US72UjhgRAU+wWgQ25yyvNwr5wtGR0braupTkFF9vXz9fv9CQsLTU9OrK6sH+QSadyaAx/Hz9vjvw3YmfTuRk50glUpVCJRKKqBQasZdUkF/g4+Vz+LvDr218bcMrGza/sfntLW9/9MFHh747ZHPVJigwKDsru6W5ZWpiis/lq5QqkIp7PkrFcl94sHyowPpTYLUIbBabNaIYX2ccpbFlK7s7+zEGEcNmxVoDTaxgCcSPcTo8ZT0pAAnMfAkMRVC1Uk2n0cvLyq/bXP/2m2/3793v5uLWT+qf2w65fATGXwUCA+yl1+l5XN746HhleWVKUkpwULCvt294aDghg9Dc1DI+NsHj8tQqNWJE9Dp9c2Oz1WWrPd/scXF26enu6SP2lZeVR0fF3HS8eeKnk59+/OnGDRuffebZP//Pn9/f8f7F8xe9PL3TUvEoa+Nj41wOVy6V6zQ6xLR8uZ6uatgXqMCqKLCKBIZgmAxDRBqV3mhclb4vvlIMm1WjiNSoU+q0iz8LHrkuFYAEZqYENjfb0FnEgHBYnOKiEjtbO6srVoSMTPIMZVm3QyJGRCQUnT93PiggaGz5/cAAeBn0BrlMzufxpyenS0x5r2863nKwdwzwDyzMLxwbHaNR6Qo5Hvv0l9RBRpRJZ/p6++78bOfeb/d5e3l7e3r/9ONP77373ssvvvzyiy+/9OLLr23c9OqGja9vev3nc+e7u7oZdKaAL1QpVSDjEy7y/J6sJdoYvy5vE7BTUIHFKLCKBIZis+rZWd3sLLrUawKL6fgjHYNhs/rZWe3srNHsm/pI/YIHP4YCkMDMm8BMlyhiRNhMdhYhy8baJsA/oKuzS6lUYniEK1Pjlxod8J2YEqnTTafw0PCR4ZH7XaMWFQ9soX1u4fc7Nx0AXiCdtk6ro1FoFWUVURFRri6up0+dcXd1Dw8Lv519u7uzW8AXgL2QiBFFjKjRgBj0BlMWSMXw0LCXp9c/3//gL3/+60sm5Prjs8/98Zk/bnh5w9e7v75y6YrTTadzZ859vusLp1tOWo0WRbBf2OtOS36BsPlf4BeoAFTg0RVYXQLTrCECw2Z1GCSw5Xr4PgYJrdYpkMCWaxJgKEaj0tLT0j3cPSViyZMMMIZiGrWGSqHGxcZdvnQ5JjpmeGhErboTjH55CMzZydnL07uxoen+vENLRWCIyWVeJBBVlFWEh4V7e3l7eXr5ePsEBgRWV1WzWWylQjmXxtEUSVWv0yvkSjaLQyL2FRUWBwUGXb50efcXu19+8eU//PsfnvnPZza/vnnPN3ssLlg4Ojg62DtYX7WxuGhhY23j4e5RVVk1l1vTZEO7dzgexIj3HvPoDyRYAlTgqVJgdQlMO4vbltaEDQx/fTZ9nqrpATt7vwKQwMydwExWIjyaqEqp6mjvCPAP8HD3yCJkUclUHCkwbM55fNb031JQAoqgCpnC38/f3c29pKiEQWcgBmTh1FkMgc2buHCXtQV8Y9quiGk1WolYMjE2UV1ZbWKpYKdbTt5e3okJiXU1deRpslAgBFnJTSHsjQq5gsVkgdzb8XEJNx1vHvvhxx3bd7zx+hubX9+8+fXNmzZu2rpl6/eHvr9uc93F2cXNxc3plpOpTJ/0tPSW5hYmg7mwC3PfZ++M/oIWPuCwpVAVFgsVWPcKrC6B6WZnDWuBwNb9NIAdXLwCkMDuPIOX+im7VDaweZRBjAiXza2tqQsOCvbz9auprpGIJIgRwbMcYoC/lqYvwORWWlLq6uIaGBBUXVXN4/BMFc2tey6WwO6E5rqT+hrRaXVikZhKoXZ1dpeXVaSmpAUHBocGh6alpJWVlHV2dE5OTAoFwjnPMJ1BIpLQqPjGxrzcvPi4eLsb9keP/LDz053vbXtv29vb3t32Lp446MQp6yvWly0vH/n+yLkz5+xs7exu2DnYO/j5+KWmpLY0t5JnyBKJRKfV6XQ6lVKlUWsQxASUS8esi7/e4JFQgXWswCoSGIbh+GWEBLbUD7J1PF3NoWuQwJaGWu4fy6UisPmS76xF0goLCgP8A2KiY4i9JJVCZbKELWUvgNlpenI6MCDw+jXbAP/ApsYmoUA47/6/eAJDETy+v06jk8vkPC5vYnyipbklPy8/MiIyMCAoKiIqi5BVmF84PDQsEohA0nGD3iAWiZkM5sTYREN9Y2pyqrOT8+FD33/7zbcf/vPDrVve3rpl6ycffXLshx8dHW7Gx8WXlZQ11DZkZ2ZfuXzl2NFjYM0x0D8wMjzyds7tyXE8LTeKonqdXsAXjI+Nz0zPgETduLDzNjB424IKQAWeWIHVJTDj7Cwya3odfeKOzN914ReowLIqAAlsKdll4VAtMYHhdxYMMSJqlXp0ZDSTkOnp7pkQn0AhU0wO5ui8qWxu1e/J7kEYiilkivy8Ahdn1+vXbEOCQ9ta2+aTcC+SwFAjatAblAolm8keGhiqqa5JScajS/h4+3h7ecfFxDU1NPE4PLFQjBgRo8GoUWtkUhmdRq+vayCkE0KCQ65ZX/vuwHfb393+4gsvvfbqa598/MkPR3+4ZnMtJDi0qLB4cGCQx+GpFCq5TN7f1+/n63fh/IUA/4DiouLC/EI/Hz93N/fKikoeh2fQG1RK1ejIaO7t3LKSMj6XP0eTd0yHCwcOfocKQAUeT4HVJTDEtLMZXxCAH6jAGlEAEthyXa73EtjSeRopFMo+Un9EWITVZSvgp6VRa/C80SZ39aUiMKPBSKVQi4uK/Xz9bjreDAkKkUll4Nb2cALDPd1R3PSl1eh4XP5A/0B5aXlUZJSDvaPVFStPD8+c7Nt9xD4Wk6VS4gY8g95o0BvYTDaxh1hUWBwYEHjq5OkD+w++8/Y7G1/duOXNLTs/3bl/3/4rl60iIyIryytHhkZ4XL5CrkSMCHCuR1E8cBqDxpgcn2TQGTNTM9mZ2YcOHvrk409u2N7o7e5VyBUSsaS5qdndzSMkKIQ8QzYazD1oEHyKQAXWnAKrS2Bzt9g18uhdc4MLG7wcCkACW0YCo9PoGekZc3shl47AUAQVCUUN9Q2eHp4e7h51NXV8Lh/HLxP6LBWBYSim1+llUjxGF5fNFfAEi1yFBPil1+npVHomIeuazfULP184c+qMp4dnbw+Rx+XLJDKtWmvUGxEjopArh4dGerp60lLTrK9af/bpZ8///flnn3n2uT8+t2njpl07d507ey4oMKi8rIJGoYmEYqVcqdPq5tjL1GPAnSiCGg1GvU6PpxVnc7Iysw/sP/jJR598/dXXhfmFfB6fx+UVFxXbXr/h5eE1NTll1EMCW66Zvxz3KVjmmlBg1QkMpy9IYFCBtaMAJLDleg7dsYFleHl6SyTShfsBn/xmqtPq6DR6RXmlxUVLT3fP2upaHo//5MXeUwJgKRSPwoWwjvZWAAAgAElEQVTc44k/ODB45PsjA30DYGkSv/MaEL1Wr9VoqRRqa0tbJiHTx8vnxvUbTjedkhKT8/Pyuzq75DKFTqvXaXRqpZrJYHV39aQkp1z4+cKBfQd2bN/x6oZX//rnvz7/t+c/++Szn47/FBYaXlxU3NXZRaVQRUIxyBoEeOuedt7zTx6Xl3c779SJUz8e+/Hrr752sHdsa2mjkqkF+QXXrK95uHtCArtHMfhPqMCSKPAIBLbUz8j58IhL0hFYCFRgZRSABLaMBMagMbIIWX6+/lLpEhMYWOPjsLlZmVlWl60C/AN7unsNesPST5oHme4wFJuZmnG65TQ1OaXX6k2mMhmVTO1s76ypromKjPL08PL29A4PDU9JSqmsqBodGWXQGFwOj8vhjo6MdrZ35ubk+vn6W1y0+Gr3Vxs3bHz5xZffeH3zJx9/+sPRYzcdbxHSCVWVVTQqTS6T63X6R+0Un8cvyCu4ZHHppsNN2+u2p0+djo6Mbm1pXUBg03AV8lFVhcdDBX5TgVUmMBhha6m59jdHHB7whApAAltGAmOzOCXFJbExsXK5/AnH6YGnowjK4/J8fXydnVwK8gu4bK5Rb8RXIZfwOvwVAhPwBEWFxUw6UyFXMOnM7q7u/LyCyPDIAP+Am443fbx9crJySETSzPQMnUankKmjI2Mtza1ZmVlhIWEOdg6HDx3+4J8fbN2ydds77370IZ4t+6qVdXBQSHFRycjwKJ/HFwlFjw2UgMCsrazDQsIIGYTLlpdtr9smxCcQMjKvWV/z9PCanoIEtlzTfinn3hJOY1jUiiiwigQGJx5UYC0qAAlseR5F6CyGYmKRuKerp7qyWq2+E79+Se+DYEmurrYuMiIyJjqmubFZyBcuMYQ9iMBmsVmNWkMhU8gzlOmpmerK6sjwSE8PrwC/gLjYuIL8gq6OLsoMhcfhsVns4cHh8rKKyIioK5evfP3V17t27np/+/vvbH1n+3vbv/7qa0uLS4EBgfm5+W2tbeNjE0KByHh39NfHuKhwAssvsL1mm5KU0t7aHhQYdPHCxevXbMNCw69ZX/Py9JqZmrknxuxj1AJPgQpABe5RABLYPYLAf0IFHq4AJLDlIjAUQfVavUwi4/PuxD5YUvyaH1ehQNRQ3xgVGR0eGt5Q3yCVSOdd5uePefwvv0JgwE+/pbmlqKAoJCjEy8OLkE7o6uxm0pkqhUqtUnNYnLaWtrjY+AvnL3y1+6t3tr7z/N//8cdn/vjiCy/u37v/luOt9LT0xoamoYEhBo0hk8px8AJ1PeT/ixNwnsBSU1JHhke6OrvdXN1OnjiF5ymysvby8CJPkyGBPf6UWNwowPKfQgUggT2Fgw67/CQKQAJbHgLDPRJMexMR3I19iVcG734EIgaEx+FVV1X7+vjGx8VzWJyldHL6dQJDEZTP5TPojInxycnxSSadSSFTO9o76uvqkxKSbjneOn7s+FtvbvnrX/727DPPvr7pje8OfGdvZ+/t5Z2Xm9dH6uNyuGqlWq/VG/VGPJQGcid50dIRWFpq2sz0jEgoLsgvuGR56eCBgwcPHHR3dSfPUJYSUu8ejie5GuG5UIE1rQAksDU9fLDxK68AJLDlIrC7xtK0KImZsvTc9fuSPLzRWaVCSewlBvgHWlpYlhSViIQiFEGXpqKHEphep1erNFQKraujq7S4NCY69qbDzQP7D25/d/trG1975aVXNm7Y+ME/Pzz2w483rt+IjYlta2kjT5N5XJ5SoQRpH3/b7rUQyBYn17wNLC01jTxD1qg1w0PDvj5+H37w4Ttb33FxdqGQqYhxifRZXJOWZixgXVAB81YAEhi80qECj6QAJLAVITAMdwtbTCSFRxq8+YNBEKzK8koXZ5cA/4CW5pYlW/q8m8BAF1AET63NYXNmpmca6hsJGQQPd88j3x/dsf39LW9uef7vz7/15luf7/r8h6M/uLu6ZxKy2lvbhwaHKGSKXCoHGLqsRkEBX1BaUup00ykrM5tGpet1erlMXllRdeKnE3u+3hMbE8dmcZaMUM37iTg/Q+AXqMAKKAAJbAVEhlWsJwUggS0zga1U5kG9Ts9kMCsrKn19fKOjoluaWwV84RLM1LsJTK1UmzzbBGOjYyVFJZERkWdOn92/78Bnn3y28dXX/vqXv7315pY93+xxsHdISU6pqa6ZmpySy+QrvOSnlOM5A3Kyc1qbW0VC3LUfQzHyDDk1JTUiLKKluVUilkICW4K5AekTKnC3ApDA4GUFFXgkBSCBLTOB3X2HeqSxedSD9To9m8lOTkp2dXYNDw3vaO9YJPqAyKtGA54dCHyMhjtRLe4QGLB+TU1Otbd1lBSXhIaEXbxgsfPTnS/+48W//uVvb2x644tdXxz5/sitm065t3OHh4bnUxg9ai+W4Hh0VqvWCvlCiVgyr4BSoaRRaXQanc/lg0yaS1DRCg4ubC1UwPwVgARm/mMEW2hWCkACWz8EBvYnNjY0BvgHWF+1jo6KFgqEIHPiQ+YcQCu1SsPlcJkMJvhw2dy7/LRMq6hGA5KdlWN12Wr3F7s3v775zc1vvb317W+/+fbkTyddnFyKCop6unupFCqXw1OrliX6xkN6scg/4axpROcc/yE/QQWgAkuqACSwRd6I4GFQAaAAJLB1RWD4/kSeoKK80sPdw93Vvb6uXiQUzduBHjjpTeH1tSPDI4UFhRnpGRnpGdlZ2RXlFUwGE49Hv8AGZjQghIzMn46f2PzG5r//9e+ffvKppYVlWmpaa3PrxNgEj8tXynH/eqMBT5j9wLpW/UccNxEcwpbVEW3VuwkbABVYFQUgga2K7LDStasAJLD1Q2CzJkuVQW9gMdllpeXent7uru6N9Y1CgfAh8SkQIyKVysrLykOCQ0OCQ8LDwr08veztHOLj4qcmp7UaHQ5hppJRBBsfm6iqqEpPTU+MTyzML2xrbaOQKRKxRKvWGkBQiaWNyL+kL+igF/hWgGXalLrUrV27txXY8qdTAUhgT+e4w14/tgKQwNYVgYF5YDQY2Ux2WUnZTYebLk4ufaQ+jVrza1PEaDCKhKKszGxvT++oiKjbObfTUtMcHW5euWxVXlbB5/IXmot0Gp1CppCIJWKRWCaVqVVqkDD71wo3u9+BSe+OYc/smgcZDiqwlhWABAZvKVCBR1IAEtg6JLBZbBYxIlQKLSUpxdLCMi83n81i/1qaRaPBKBQICekEf1//29m3+0h9Pd09gQFB587+nJFOoFHpCwnskeYWPBgqABV4qhSABPZUDTfs7JMrAAlsfRIYhmJ4mNYeYoB/QGBAUFtrm1AgfKBDmNFgFPAEyYnJ/r7+ZaXl5GkyiUhyd3M/d/bnvNx8FpONIkua6nstv+I/+fUGS4AKrGMFIIGt48GFXVsOBSCBrVsCM+gNXA63qrLa08MzLDSsvbVdKpHd7yMPDgsKCLK4YBHgF0DIyAwKCDp54uT5ny80NTZJRBIYPn45LjxYJlRg/SkACWz9jSns0bIqAAlsnRKYKSulRq2hzFCKCopu2NqFhYZ3d3bLJLJ75hNOYGxugF/Ajz/8eO7sz9dsrl+8cPHokaOXLC+XlpSymKyHePHfUxT8J1QAKvA0KwAJ7Gkefdj3x1AAEtj6JLBZUyx+xIjIZYrhweHgoBA3F7ekhKShgSEQAGx+rgAbWEhw6NUrVwP9AwvyCgryCgL8A6yuWPn7BXR3dj/Ei3++EPgFKgAVgApAAoNzACrwSApAAlunBGZyt8IwzGhApGJpQ31joH+g002njLQM8gxloVc+ILDwsHCnW865t3Onp6ZZDFZ9bb29nb3FRcuS4lKFXHHvlDLtJcQw7DfDvd57InQCgwpABdavApDA4B0PKvBICkACW88EBiJgIUaEy+aWlZZ5eXq5OLsWFRQt9MqfJzAXZ9fc23mT45M0Kq2uts72mu35c+eLCosfQGAg0TggMAz66a/zKfRINxR48NOsACSwp3n0Yd8fQwFIYE/F4xNDMR6XV1JUcsP2hq+PL7GXKJfJgVe+icB4EeGRTrecoqNiykrKykrKIsIjLltednN1a21puz/FEIZher1eJBTpdXoURTEIYevXqvEY9xR4ylOrACSwp3boYccfTwFIYE8FgQFj2OTEZERYhIO9Q0xUzMjQiEqhwlAMj0bBF6QkpzjYOzg6OHp7evv6+DrdcgoPC29pbuVxeIgBuWduYSjGYrKSEpKoZKpOq4MEdo8+8J9QgadTAUhgT+e4w14/tgKQwJ4iAhOLxPV1DV6eXlaXrfJy82hUmlFvRBFUo9IM9A0U5BckJyUnxCWkpaSVFJX0dPcIeAK9Vo/dFw8MQ7Hx0XHLi5bDQ8NarRYS2GNffvBEqMB6UgAS2HoaTdiXFVAAEtjTQmCz2Kxep2fSmZXlle6u7j7ePtVV1XwennQIMSIKuYLH5THoDDqNzqQz+Ty+XCY36A0PTKGIodjgwOCRw0f6iH1ajRbsu1yByQqrgApABcxZAUhg5jw6sG1mqAAksKeIwDAU02l1TAYzPy/f1cU1OCiko63jfhPXb05TDMUG+gcO7D9A6iVpNFoMekFBBaACUAHTBh3EiGQSMuNi40hE0m/eSeABUIGnXAFIYE8RgQFvML1OPzE+mZiQ5ObqnpyYzGQw74kQ9puXxC8ERiRp1FqYOPI3FYMHQAWeBgWgDexpGGXYxyVUABLY00VgAMIMOkNPV09URJSnu2dhQaFGrbk/W9FDJtkcge070Nvdq1FpIIE9RCv4J6jA06MAJLCnZ6xhT5dEAUhgTx2BgXnD4/Ia6xuDA4M9PTyHB4f1Ov3i5xMgsO8OfNfc2KxUKk0JkGBUsKd0Ii1+2sAj170CkMDW/RDDDi6tApDAntIHJ+4QRmeWlpT6+vgWF5WolKrFTyxAYAf3HxwZGtFqdCiCofftl1x8afBIqABUYH0oAAlsfYwj7MWKKQAJ7CklMBRBdRodnUZvbmpuaW55pOSP8wTWT+rXarQogj7SIuaKTW5YEVQAKrCSCkACW0m1YV3rQAFIYA8mMOCcvpR5D025FPEZA76gD653haeUXmeQiKU8Lg8x3ht29SEtmV+F7O3p1Wg0+CokClchzWJAHzJq8E9QgeVWABLYcisMy19nCqxbAsMRCjF9UGwOeha/XRydBbcSlVKtVKgW5rG+d/gXgVMYihn0Bq1GazQYTTHoEa1aa9Ab1u7KnYnABr87eIjYS9RoNHg8MPDf4hWGR0IFoALrTgFIYPc+INbdEMMOLq0C65bAtGqtRCQRCoRKudKox9HnwcLNm6YWXiroLFiko5Apg/2DXDb3/sw8c6X9FoFhKIYiKIfNGR8b5/P4ep1eKpFNTkzyeQK9To8YEfBZSmPbwo4sz/c5G9jBQyQiaS4i6yy0AEEFoAJPuwKQwB78lFme+zCsax0osH4IDKwb4qRloiLKDKW4qJiQQeju6hYJRXOrbCbj1vyR819m7/kdw4xGo1gkKSstc3fzKC8tl4ql84P9y1kPWlKc/+v8F51WV5hf6OLsWlZaxmFzBgcGgwKDW5pbRQKRTCITCUVSiUwpVy6EsPlzfxUcV/WSnl+FJPXeIbBVbc/80MAvUAGowCoqAAlsFcWHVa9FBdYVgeEu4UYUEBh5hlJbXVuYX9je1iEUCH8hMARDjfhhgHLm9vGZCAz8jhgRFEENegOPy0tOSv753M+ZhEyxSDw/urjVyoAfg/9ynw0MLxbfG4g7pwOo0mq02Vk5ttdtC/IKuBzuzPRMVmZ2a0ubgCcYHR5tamzq6e4ZHRnVan4JbYrfyAwIYmrkfL3m82WewGBWIvMZFNgSqMCqKwAJbNWHADZgbSmw5gkMLPPpNDqxSEIhU8bHxoUCodFgVCpU42PjPd09M9NknVan1+m1Gq1UImMx2dOT0zNTM1Kx1OSMhdOYVq3lcXjTk9MTYxNTk1M0Ko3H5bEYrMSExNOnTmekZYiFYlCRXCofHBgcGhzisDlGg/EeAgMuX3wuHyRYZLPYMqlMq9FmZWZfs7men5vP5XDpNHpVRdXYyBibyW5rbUtKSAoNCSVkEEaGR5RyJd5OtVbIF5J6SSPDI3Kp/JF85Fdm8gECO7j/YEd7p1qlxn3AoA0MKgAVeOoVgAQG74RQgUdSYD0QmEqpGh0erautz8nOIWQQ2tvaBXyBQq4YHRlta22fnJhSyBXkaXJHe2dtTV1JUQkhIzM1Ja2xoZHN4qhVaplUNjE2UV5anpOdk5qSlpyYnJeb19PVMzUxlRifeObUmYy0DD6XLxaKJ8cn62vr09PSM9IyaqpqpianJWKJ0YCAtUIMxfQ6PZfNrautq66qrq2pbW1pnZqcUqvUWZlZcwTGxm1gubdz+/sGJsYm8nLzbK/bnvjphLOTc+7t3MmJSfI0mdhDLC0pi49LyCRkTYxNqJXqRxrRFTgYENi+vfsK8gskYskK1AirgApABcxfgXkCi42JI/bCvJDw1RQq8BsKrHkCQxGUy+YSMgghwSGhwaFxMXFlJWWUGQqDxqitrs0kZDU1NlFmKNWV1b7evh5uHoH+gX6+fg72jv5+/h3tHUwGc3xsPDcn19/XPzQ41NvT+5rNdWcnl5KiktGR0YT4hDOncQKjU+nEHmJkRGRgQGBEWAT+CY/MJGQSe4nqO2l5ECMiFAhbm1tDgkKSEpMK8grqaupGhkcVcmUmYY7A2Ez2QP+An69feVkFsZeYmJB08sTJr7/6+prNtfS0dGIPsamxOTkx2dvLJzwsIiE+kdRLkklk5nbnBQS2d8/e7KxskUhkbs2D7YEKQAVWRYG7CYy4Km2AlUIF1pACa57AECMyMz3j5uJ2y/FWQlxCeWl5W2sbi8EaHR5NT0339/XPyc4h9hKTk5J/PPbj+Z/PBwcGJ8QnODo4Wly0yCJkkYik6qpqV2dXp5tOSQlJ4WERFhctLC5a5t7OnZmeSUxIBAQ2PjZOyCDs/nK3g71DSlJKcmKyu6v7NZvrOVk5MqkM2MC0au3E2ERyYvI162vRkdF1NXXDg8NMOlOpUM0TGJPObG9rt7hokZSY1NPdQ8ggWFy0OPTdIRcnl6bGppHhkdKSUh9vX2cnl6KCovKy8vHRcYVcYW7zCRDY/r376+vqFQqza565yQXbAxV4ShTAMAxBkLzcvOSklH5S/1PSa9hNqMBjK7AeCIxOpQcHBru6uCXGJ+L4xWQbdIapial7COzETyd8vH26u7qnJqdzb+fa29nHxcY31jfezr5tbWUdHBRcX1dfVlru4uxid8Ouuqqax+GlJKWcOX0mLTWN1Evy9/V/6YWXnG46ZWVmZRIy3d08zp87n56aLpVIAYGpFKqhgaG0lLTrNtdDQ0KbGproVLpULF3oBzZPYMlJyZQZSkd7Z3hYhNNNp+SkZCFfyOPwqqtqgoNCQoJCGuoaerp6hHzhw6KRrZLfybwfGB4TX6t97MkHT4QKQAXWkwJ4bGYU7WjvbKhroMxQcDfZVbpHwXqhAmtCgTVPYCiCCviC7Mzsy5aXj/943MvTu6W5VSaRTY5PLiSwlOQU51vOGekZ01PTQoGoprrG6ZZTZHhkXW19QV7B1StXr1lfI6QTYqJjHR1uAlCTiKUpyalnTp8JDQkrLSlzsHd47tnnPvvks73f7t377d4vPv/y8KHvM9Iy5gkMX4XkC2uqao4fO/7Fri8sLlikJqeOj45r1b944i8kMDqN3k/qT0lK8fH2TUtJk8vkBp2hp7vHx9vn+8Pfnz51OjoyerB/UCEzOyMTJLA1cW3DRkIFVlgBkB5DIVdKxVKNSgMJbIX1h9WtOQXWPIFhKKbT4vkNqyuroyOj/Xz8wkPDK8orerp67iEwL0+vvNw8GpUmFUsb6hrcXNyiIqJqqmuys3LO/3zB4oKFq7Orp4dXRFhERVkFg8YQC8XJScmnT50ODgouLCh0dnLe9vY2by+f6KiYmOjY6KiYTELW5MSkTqub98TXqrUUMh4FIyIswv6GvaODY2ZG5vTkdHpaBvDEX0hgDBpjoG8gLSXNz9c/PTVdIVdgKCYRS0hEUmZGZmxMnKWFZXJi8sjQyCOlzV6BKQgJbAVEhlVABdaYAiCmD4Iipv/weD3QBgZNgFCBhyqwHghMr9PLZXIqhdpY3xgaEnr1ytXoqOiWppZ7CMzHyyc/L59GpYlF4oa6Bg83j+io6KrK6pTklGM/HPv53HmbqzZuru4ZaRmkXpJQIBTwBAnxCadPnY6PjW9pagkMCNz12a6szOyB/sGJ8cmJ8UkalQ7yUoMbDYqgKqWKxWSxGKze7t7gwODLl66EhoT1EftSU9IeSGCD/YNpKWm+Pn4pSSkSkcSgN+i0OolYOjkxVV1VfebUmQD/gI72Dqnkl3iw5nBThgRmDqMA2wAVMC8FAIGhKG4Jg7liH/rcNa+Bg01dPQXWPIGhCMrn8Qf6B5oamnKyb/t4+VhbWeMOYS1tGWkZgQGBebl5xF5iSnKKj5dPQV4BILCmhiY/X7+E+ISa6pqkxKTvD39//ufz9nYOPt6+sdGx5WXlE+MTDDojIT7x3NmfMzMyx0bGMjMyjxw+EhkeWVtd29ba3tnRNToyKhZJkDvRKHRaHYvBamttq6utLyku9fbytrG+FhcbPzw4nJaafv0aHg+MSWd2tHdcuXwlPS2dyWCOjYxlZWZ7unsGBQYN9A9y2FwalT4yPNLW2padha+rRkdGE3uJcpncrK5YSGBmNRywMVABc1MAxLs2t1bB9kAFzE2BNU9giBGZmpzKImT5+/o73XRyuuUcFhpeWVHVT+rPy82Pi4mrqqwaGhzKzsoOCQopLytnMdkyqbynqycxITE3J7e5sTk5KfnokaM2V20C/QMjwiNcnF3c3dyLi4rHxyZysm872jsWFxazGCxiD9HPx8/V2dXN1c3dzd3fzz87K3t8bEKn1c954itVw0Mjaanpnu6eN67fuGF7w9fHr6y0nE6j5+flu7u6l5eVc1icPmKfu5t7WWmZKXArs7KiysvDy97OPiszu4/U39banp2ZHRoSGuAX4HzLubiweGZ6RqPWmNW8gQRmVsMBGwMVMDsFHphvd/UsDWanD5QCKmBSYM0TGO6JzxM01DcQ0gkJcQlZhKyerh4OmyMSivpI/c1NLZMTkwK+oLent7qyenBgCASpZ9AYPd09A/0DpF5SZETU4UPf46xWUVVehu+F/Pnsz2GhYYMDg32k/qrKqvHRcY1aq1Zp6FR6emp6cFBwgH9ARFhEYX7h9OT0PIHhiYw4vPa2juysbB8vn+SklI42PN6YTqsbGR6tr62fHJ9UKpRsJrupsZkyQ1Gr1Dqtbnpq+nbO7Zjo2OKikplp8tDgcElxSWxMbEx0bCYhk0KmzC10mtN8hQQGb+hQAajAAxSYz9IGCcyc7tgPGCnYPPNQYM0TGEgEJBFL+TwBj8sXCkRqpdpoMCJGRKlQSsRStUpjNBgVcoVYKFYqVEajEUVRnVYvk8rlUvnE2ERwUPA3X30TGR5ZXFSSl5vv5up+9crVhPgECpmikCkkYolGrQFJHg16A4fNARmHGHQGn8cHeDTviW80GFUKlUQsoVFpXA5XIVfotDoUQTVqrVwmBwcbdAa5TK7T4L9jKKZRa3hcHofNEYvEOq1OpVQJBUIOm8NhcwR8ATgdlG8+VxEkMPMZC9gSqIAZKQAJzDye62Y0JaAgD1VgPRAYCMRsNBgBeGEIBpAFRVCQZhukdDSa0mnjDgoYhiIYfrABYTPZuTm5F89fvGZ9zcPNw8XZ9brNdU93z/q6ehzX9Pgxc0m4sVlAewa9AXyMBuOcu8OdLT/zabn1Or3RYASMZaodz9WNt+rOdqGFjTToDXMtR/HDjAbjwvLN8FqCBGaGgwKbBBVYfQUggT30cbv6AwSbZ2YKrHkCe7w5DbbqYBimUqqmJ6drqmry8woK8wsL8gtKi0s72jt5XB6KYqjRhE1mNmaP1+UlPAsS2BKKCYuCCkAFoAJQgadTgaeUwGbBf/9/e2f+1UZyL/o/6N7ce+5N8sO759zcnORlJnfeZLJM3ksmiWcyXsZjDzb7vu+LQYAx+76azWZfBBJIYpMAgRAgdiQkEGiXWmp1S73onaZBYbCH64VFmC+njt2qFt1Vn66q/lBdXUV7KJJy4S7m0aHRrD/QG3QGq8XKTvHFdJWBgb3OPsHAbmZjAbkGAkAACACBcyRwUw3sWCzY54bHjymZ0WPMs0KPh+0kYwyMps8R94dxKDCwD+M6Qi6AABAAAkDgCgmAgXnoHxq7cNxPdoWXxzdPDQbmm9cFUgUEgAAQAALXiAAY2CsGdjys3vuk8hpdzstJKhjY5XCGswABIAAEgMAHTAAM7IcN7PhJ5Qd8+d8ta2Bg78YNfgsIAAEgAASAgJfATTcwLwjYeHMCYGBvzgq+CQSAABAAAkDgtQTAwDyv5QKRZxAAAzsDDuwCAkAACAABIPAmBMDAwMDemgAY2JtULfgOEAACQAAIAIEzCICBvbV/nEHzhuwCA7shFxqyCQSAABAAAhdHAAwMDOytCYCBXVyFhCMDASAABIDADSEABvbW/nFDSsYZ2WQMbE72+e8/n5POYU7sjG/CLiAABIAAEAACQOC1BMDAwMDemoC3D0w6I2UMjJ3SFibvAAJAAAgAASAABN6YABjYW/vHa032RkXSFL2yvOL30E++IHeiTmYdJ+80tm9c8m4UMcgsEAACQAAIAIFTBMDAwMDemgBN0Rq1prS4VLWtwlCMImH1zLdmeKoewkcgAASAABC4aQTAwODe+dYEaIo26A2D/YNGvZEkSDa8tuYwC5+/GtjFzo9WfXqD/6BfDQgAgasi4DndPrymRlP0a6s/RAIBIHA2ATCw0+3L2bxgr4f20BRNEiTqQEmC9DbHryXj3fu9DTCwq7qbwnmBwNsSAAN7W2LwfSDwxgTAwMDAzp+AC3c57Jp1U4MAACAASURBVA6bFTEaTDuqndWVtRnJzJhwbFoyrVKqEBviwl2MvZE0TdIUSVEkRTLhNT/sXvbf72ncq11rH1wMSZCYE0cd6JsEJ+rEMdyNu0mCfK0NX2UkxVi72+V2YS4Mxc7OjhN1ul3uk9f9zO0Tnaw0/JwzARw7Ln52FD0MiA1Rq9Tzc/PjY+MS8fTy4rJapTYZTIgNwVB4Lfr829KrrLZvrBGQyHcmAAYGdeacCdAUrdxWTk1MCQXCnu7e8tLy1JS0AP/Ab+5+ExocWl1VPSYcm5udky/IlxeXl5eYsLS4vLS4BOEUAfmCXDornZZM/49hZnpmYX5hc31TvaM2m8zv3Bxc0C8y+oW7tbva7c3tRfni7MzsGTmamZ5dmF9gysZbBbYgLcHPeRKYnZkVT4qnJqa8YVw03tjQmBCX8O033/o/DkhOTC4rKevp6hEJRHKZ/ILKz/sflqY8NPgEEPA9AmBg5+wf799YXPcj0BQ9NTlVUV5RVFiUlJB05+s7H3/08U9+/JMf/dOPfvafP3v8yL+kqKS2ura+rr6hvqGxvrGhvrGhruF0qG9g4o/C0d76uob6uvr62psS6mrqaqpqqiurqyurqyqqzgg1VTUtzS0jvJFpyfSOasfXihBFUqgdlcvkIoGo42VHXW3dGXmprqyuq6k7XR5eLSEnYuoPt4+KR109U0ggnAeBqsrqivKKirJ/hLKSsoiwiE8/+fRff/SvP/63H//64//+6su/J8QnFhcWd3Z0nip4pzqtT+49uYuNPxnDbrMDHk7G/9ARmNexj2+uJ79/tM30DB4a2CtPVI9m0oH5dI7peTHCxuUQAAMDAztnAjRFT0uma6priouKE+ITvv777Y/+90c//vef/PM//ei//vO//B8HlJWW11TXsG5RVVnFhFf14jD+SD6Ov1BZUVVZXllxA0JleSUTTmA5imHjX/m3qqKq+Xkzf5g/LfZRA3PYHXKZXDgqfPniZW1N7dnZeee9N6FsXGYeqyqrmap6IpSXlbMG9i///C///m8//vijX39566v4uPjiouKe7p6TNy2aYgYYoA7UarHarDbMiZ0cNoo5MZvVZrVY7YidjXeiTjtiZ4MDcRBugiIpHMMRG2IxW8wmM465mNeujwcbuF2EHbEjNoR5AOrE2HjCTaAOFHNiOIY77A7EhtjtdhfuoqjD97VPGRgrXt5/wUKAwKUTAAM7Z/842Qbd5G3CTRgNRtm8rLuzu7S4NCQ45Mu/fRkSFNLf2486UIaMt+E7Y+NkfTjjazdk10kasA0ELpcAqzi6A11vT298XMLtr+8EBgRxcjg93T3zc/MH+wcnmztWvxAbMiOZ6eroGuwfVCwrbFYbRVKEm8CcmGJZwR3gdnV2iQQio95IuIlF+aJgRCAYEQhHhVMTU7p9HepA11bWhoeGOzs6m5ua11bXbVaE1TUcc+1p9kRCEZ/H5/P4CzI56nBSJGU2maWzUvmCfEWxOjE+yefxRQLR1saWw+442U92lNRT7cbl8jyJC7ZvLAEwMDCwCyHAvi/J/iVqs9qMBqPuQGc0GFEHSpEUU99ONX+v/fhqm/jar92QyFdpQAwQuCwCrIGxL0GbTWa9Tm80GK0Wq8PuwDGccBMnb6I0RVst1qmJqeDA4OjI6Nyc3J6unlXFqtloXlWs9nT3cHI4CXEJKUkpz54+EwlFNoutvbU9Mz3zSeaTwmdFPV094knxxPhEfV09J5uTn/c0Oys7Nye382XnjkqNOTHNjuZF2wtODifnSc6TzCdZmVl1NXVOh1Ov0w/0DTx7+iw7K5uTw+FkczLTMxsbGtdW10+l8DVN0GWRPAkKtm84ATCwC/GPG16q3jf7h0bFDJ49DEeuBu0jEAAC14QATdEH2oPW5tZf/uKXGWkZL9pfjgnHVhWru5rd7s7ujPTMzIzMivKKxobG5ufNszOziBXJysi69ddbgf6BRYVFIoFohD/6vOl5SlJKakpqQ11DHicvJCik8FnR8tKyRq3p6+nLyc55kvWkoqwiMz3T76FfUGCQdEa6sb5RWlL6+NHjyPDI8rLy6qpqZjsiijs4ZDKaTr8mfOovt2vC9n1bV8imLxEAAwMDuzoCp1rA7388bWCw8JEvNRxwGwACZxCgKXpPs9dQ1/DxRx+XFJXwhnlLi0v72n2NWpOflx8ZHllf1yCbkym3ldtb2wa9AXNiCXEJt/56Kysza0w0plFrBvsHs5/khASFPMnKHuwfrKyoDA0OjYmOHReNy2Xy3JzcqMiowmeFHS86CvIL7t+7/9Wtr1pbWuUL8pzsHP/HAYXPCmVzsuWl5Yz0jKDA4OdNzWqV2u1yfy/N329wvrcL6hoQuBQCYGBX5x+XcoF9ulk51QJ+/yMYmE9fOyi9QOCHCTB9YPsHvd29Af4BuTm5tTV1glGBSrmzo9xJTkqOCI/gDnLNxqNpU2iKJtxEUkKS/yP/1pZWjVqDObHe7t7w0PA7X99JjE9sb20vKS6JjowODgzmDfGmxdOxMbEPHzzk5HDY7jH/xwHfPfyupbnl0MA4cbHxPV09dsSOObG21rbYmNi62vrNjS0X7vpHnfp+a8N0tP9wdmAXELggAmBgUPGujsCrjeDZMdBEAgEgcB0IsOPAFmQLbS1t2VnZiQmJT/Of8ob5iiVFclJyZHgkb4hnMVu8LzYSboKN7+3pZQ2sp6sn0D/wiz99wUwiWFldUlySl5uXl5s3LWamx4uMiPzy1pcZ6RnFRcWFBYWcnNySohLxlFixrODkcFJTUoeHeKiDmaN4cGAwJTmlrrZ+fW3DhbnOGn56HcBekAfAYa+KABjY1fkHVHggAASAwIdIgH0Rx4k6LWaLSqlqa2lLSUopLy2fHJ9MTkoOD4toa2nbVe+SBOl2udlw0sBwDB/oG+BkMy718kWHyWCymCwmg8moN6J2VDorjYmODQwIHBON7e3umU1mk9FkMpicDufmxuYpA+MOctNS0+pq69dW1phJKw7X4Xi9h32IF+KqxALO+4YEwMDAwIAAEAACQOA8CdAUjdjs21vK9dX1/b39rs6ulOTU0uLSyfHJ1OTU0ODQJ1lPpian1Dsa2fzC/JwMsSJJiUmR4ZFsH5jb5V6UL8bGxP3li79mZmRtbWzhTly5rZLNL+ztaqWz0uiomG/ufdPd1b2v3ccxl3ZvX76w6Ha5tza3ODmctJQ0bx8Yd4CbmpJaV1u3urKKOlAwsDc0A/ja5RAAAzvPdudyrhmcBQgAASDgywScqFOlVPF5/Kd5T4sLi5lpJrKedHZ0bm9uC0eFGWkZsdGx2VnZZSVl9XUNQoHIYrZkpmcmJSQNc4cPtAcUSRkNpqbG54EBgVERUU0NTZ0vO583Pu/vG1Apd7a3lE2NTRHhEakpqTXVte2t7S3PW3p7+gg3oVKq6mrrqiurpyUzGIq5cBd/mP80v6DjZYdyW+nCXexzT+gD8+XCc6PSBgYGBgYEgAAQAALnScCFu3QHOvGUJJeTl8fJKy5i1ixalC8iVsRsMgtHhZXllXmcvNKSss6OTtmczI7Yuzq7uzq61lbXmJ4qZh13Ykm+1N3V3dTQdBQam0Z4I9pdrd1mX1tda2ttKykurayoqq2pa2tpm5qcOvQ2o0Q8PTszq93TEm7C7XLPSee5g0Nz0nmjgZn3FQzsRvmN72cWDOw82x3fv96QQiAABIDAJRBw4W7dgX5qUjw1KZ6Tzm1vbVvMFnatIYvZsihfPIyf39zY1B/o3S73jmpHvaNx2B3e5SCtFuuB9kC5pZQvyOUL8kX54vbWNmJDKJJyophym4mXzctk8wurK2sGvYGmaBzDmXlizVa2u4skyIN9nXpHYzSacAz3LosEfWCXUADgFG9CAAwMDAwIAAEgAAQ+WALMvDYwyh4I+CQBMLAPtt15EwGH7wABIAAEgAAQAAJXQgAMDAwMCAABIAAEgAAQAAKXTQAM7LKJX4low0mBABAAAkAACAABnyIABgYGBgSAABAAAr5LwDt1Pk3RPnX7hMQAgfckAAbmu+3Oe15a+HUgAASAwLUmQLgJzIkhCHJwcKA70OEYfq2zA4kHAqcIgIGBgQEBIAAEgIAvEnDYHVqtdnl5ub+/f3Ji0mw6Wsz71G0MPgKBa0oADMwX251rWpgg2deVwNkLolMe5m3+0wEqDhC4cAIOu2Ntba29vT0kJITP44OBXdcWxidngvAFmGBgF96I+MJlhjQAgbMInDQw0uMhPaenrGSmVKI8NHkYWBuDigMELpwAGNhZ1Ra05voTAAO78EYEqhAQ8GkCJ/XL26KdjGT6wEgPTRyHwwkuvd+EDSBwMQRoigYD8+mm42Ku+43KMhgYGBgQuNEEmKeLhz1cFOU5FY56vhjjomnmhTSS9pDHjyNvNLQbdZO4zMySBIk5MSfqZIPRYFxeXmafQvJ4vP39fe8uzIlhTowkyMtMHpwLCJwvATAwuJEAgRtNgKY9JEW73RSGE06nmwkYgWEEhpM4TrncFEHQJMXMA3DU9wV/+AKBCyOAY7hep98+/llbXRsfH6+srHz48CGXy1UoFOwelVKl3dPqdXp4O/J8hQCOdskEwMBu9N33kksbnM53CHgH1lO0x4mTRpNjR61b39RsbO0pd3RqjVG9a1Lvmna1Zr3Rbne6XARF0ofL6x0PyvedvEBKPgwCNEUjCKJQKLqOfzo7O6urqyMiIj7//POGhobj6K6+vj6xWKxQKOyI/cPIO+TiZhIAAwMDAwI3kQBjYIf5dpMenQGRSJfrn3fmFlQUlzc2tw909Iy0dw43NPc0NPd09wsXFNv7RgTFSZKm2WH6sNTxzbxhXGiuaYrW7mk7Ozsfn/i5d+/eZ5999tOf/vT+/ftstL+/f3h4eElJSXd398H+wYUmCQ4OBC6UABjYTbz7XmiRgoNfCwLfNzC7YGw+Ke3ZF1/5PQqOL69qedE53NLeX1Le9IRTmpyWX1DWMDAq3tDoHS6KOHxXEgzsWlzl65VImqJ1B7rxsXHeMI8Nw0PDfX19NTU1fn5+PT09PN5RPJ/HFwqEE+MTJqPpeuURUgsEThIAAwMDAwI3kQBNe5ihXbTHTXqsdkIq287Oq/3Tl4+DIjMHhicVq+q1jT3p/Pogd6KwqC4wKi2ZU9rNm9DorS7aQxw+iDzZjsA2EHh/AjRF4xhuMpq8QbunlS/I2ZH4I/wR9Y7au8tkNJlNZhfuev/zwhGAwFURAAO7nndfdrKA9xwP651x4D2Pc8ave0/BzGgAwYcIeMeBkZTHidMr69qi8vYvboeHJRRIpKsWG4bjFGLH1bvGSclCZDLnbmBsWn7l1PyGHafdFDsizIeyA6XrgyQAs1F8kJcVMuUlAAZ2/e4iNEVTJEURzPtp77xULUVSJEGRbpIiKG9pYDeOjk9SNPnux/cwcxwwv04Rh0k9PBRFMilnX6s7dVL4eFUEaNqDu+j1zf2Sqo4/340OTSyeXdhEnUzXAkXRGE4YzfaimtZ7gbGPI9Pbe8f3jRhOUMxTSM/1qztXBRnO+24EWAN78eIFzIn/bgDht3ycABiYb99FvH1IJzqQCDfhsDusFiuO4e8sSRiKWcxWo8GE2E6/TEQSJOpAERviQBxu3P1uksdqnAtz2W12u82OY7gLdzsQB2Kzu3AX62HvdmQfr1HXLnk0TeMueu3QwP50NyY0qUwqZw2MedZI07TLTXXxJkOScr8JSnpW2bG2rUdxkgIDO1Elr91Fvy4JdtgdG+sbXV1dUVFRI/wRWJXoulw4SOcbEgAD82kDO5wS86gjiu1SoinabDLLZXKhQKhSqlxvb0jscXZU6jHR+NDgkHxBfrKssPNQLy0ujYnGpLNzB9oDwkWc/MIbbjNDOpy4dlcrnZXOS+d31bv7e/uyOZlELNGoNayEkQQJEvaGPC/uazRNYy5qbeOgqKLr8zuxIcmVMvkGhuKH07MSNMl0lo4trMc/rfl7QGISp25uWY04iSMDg24w8LCLJOCwO1Qq1djYWElJiUgoAgO7uHYAjnwlBMDArp+BqZSq9tb2nOycifFJ1IG+rcSwBra8pKiuqs7l5AlGhSdLHmt4vGFeZnpmRVmFbE6GodjJL7zhNkVQVrN1dmY2P+9pSXHp1KR4bXWtt6e3uKhYIpYgNsRoMO5qdl/tgXvD48PXzosATVOYi1rd2GcM7PYpAzt8bEySc1vaJ1Xtd4JTY9LLp+a2LKibZPvAwMAu0j/O6xJf3+M47A7tnnZxcbGnp2dyYhIM7PpeSkj5awmAgV0PA6MpmiRI3YFer9MrlhRNDU2pKWlCgchhd7C7UAfqfUvoZMeYt+fMOzCLjVlaXCotKcvMyBwc4Br0BoPegNgQt4t55mgymgYHBhPiEp49fSadkTpRJ/tI0WF3IDYEdaBul/vVwkSRlAt3YSizogiGYrgTN5ss4ilJRnpGXm7+1KRYu6udkcy0PG9ZlC8adAb+ML+hvmFaMm02me2InSRIF+5CbIjZZLaYLbDYyKuELyiGoknWwAorOv9wOybY2wfGjNVnDIwkCLlKl1Pz8nZwSmRq6YR0w+Jwk9ThOLCT/4CLAIHzJkC4CcyJITbkYP/AZDTBm48X1AjAYa+KABjYNTAwiqRwDN9V7/b19nMHuMPc4erKaq+BkQRpNpmXFpeHuEPdXd2jIwKVcgd1OEmCdKJOo8Fk0BswJ0aRFObEdAc6vU6P2JAFmby0pDQuNr68tHxyfHJyfHJRvqg70Llx9ykDs9vsNqtNpVSN8Eb4PL58Qa4/0J+SMIqkHHaHclu5IJPPz8kWZHLlllJ3oPca2Mz0rNlkWVGsDPYPqrZViiUFJ5vz8MHDgqfPJicmNWqN3WY36I2ritVx0fiYaGxfu49YETf+GtW7qqryoZ6XfQq5uqktrHjx+e3IkJSy+cVNJ4qz6z+yfj+3sfekouVuUFJcZplYtgkG9qEWBsgXEAACl0kADMzXDYwiaavFuiBb6O7szsrI4mRznuY9TUlOTYhLEApEdsSh3lGLhKKmhqaC/IL0tPS01LSW5tYVxYrNYtvV7IoEIpFQtK/dd7vcugOdSCgaHhre3NiSzkpLiksf+T165Pe4pKikpKikrLSsr7dvY31Dr9N7+8CmxdMH2gPZvKyyvDIrIyv7SU5dbb1IINrT7J0cxYVjuHJL2dnRWV5W8bypufNlp1AgXFGseg1MIp7W7GgEI4KG+oblpWWRUBQRFvG7z34XGBDUUNcwOz2r3FKKpyTtre1VFVXVVTVjojGVUoXa0cusDDf2XLibXtvUFla2//FOWFhq8fzilhN1HS/LTZMkLV7cSi+sux+clJ5XM7essp18CuntBjvv/o8bezkg40AACNwQAmBgPm9gBKVYVuTn5cdExWSkZWSkZYSFht27cy8sNFwoECE2pLuzOz01PSkxqeDps6f5T+/cvuP/yL+1uXVtZU06K83Oyi56VrS6soqh2Mb6RllpWXpaunhKLBFLSopLvv7q69/+5rex0bHxcQn3v7kfFBj0vKl5c2PTa2AigUi+IG+oa/jzn/4cHxefnJQSHxefx4weEyA2hDyeEcNqsQoForiYuODA4Mryyo6XHdxB7uT4pNfAxkRjszOzxYXF8bHx/GE+d5AbGhz66f/51O+7R3U1dcNDvMnxyeLC4qiIKE4Op6a6tq21bWV5BRZ9u4xmyEPjbmpta6+wsu3/3gmNSC2WMX1gRwZG0TRBUPyphfjs0oehKQXlbYrNfTt2YiQ+DAUD9QQCQAAIvBMBMDBfNzA37hYJRH7fPYoIj5gYn5iZnmlsaIyKiIoIixAKRCajKftJdnhYRFlpmUQsWV1ZKystj4qMysvN4w5w+cP8kKCQPE7eyvIKhmLra+vFRcUpSSlTE1OSKUlpSWlQYFBifOIIb0Q8Ja4orwgLDU9LTefzRrwGxh3g9vX0paWkRUdGd3d1d3Z0crI5yYnJTY1NK4oVzImxo8p0+7qOlx2P/B7lZOdMTkypdzRGvVG7qz1pYDPTM88KCqOjooeHhkf4I5Hhkb//7e8T4xPXV9e1u1rBqDA5MfnRd4/KSsqW5Etbm9v7e/uoA/rALr58ekiXm1jb0hRXtv71bmhMStHC4roTxSnKQ9HMbCcoRrZ08kKiMkMjMzu6BXojhrkp5l1ICEAACAABIPAeBMDAfPpGQlMek8HU+bLz7u270VExB/sHmBNTLCtqqmqSk1JG+KPLS8uP/B4F+Ad0dnSajCbUgfKGeCnJKXGxcbU1tYP9g2cbWERYRFlJGepADXpDT3dvUGBwaHDoYP8ga2AF+QW93b2tza1hIWEPvn3wrOBZQX5BZHik33d+WRlZ05Jp1MEM0qcpGrHZxVOS1JS0+Lj4gqfPRvmje5o9g87wqoHFRMcIBcL1tY1cTt43d7+pqqja3trGnJhsTsbJyfX7zi81OXWYO6zXGVwYM20Y3OYvnICHwt3EyqamqLL1b3fCGANb2EAdOEl6XATtdJGaPVN6Ttm3j2NSM4unJMsoRrlJmoJFDt6j2b3wawppAwJA4DoQAAPzdQMz6Awv2l7c+fpOdFSM0WCiKXp7c5t5FzI5dYQ/Kl+QP/j2QWBA0BB3mHATLtwlHBUyXVZR0eVl5T1dPV4Dc6JOpg+s8Ht9YClJKT1dPRRJWS1WkXAsLiYuMjxyoH/Aa2Atz1sKnxXe/vvtv3zxl8iIyJSklPjY+MT4xKqKqhXFKjMlLEV7aI8LdzFzZLS9iI2ODQkKyc3JHRocWltZe62BiYQi5bbyaX7Bg28f1tXUKbeVbpfboDfwhniZGVlBgUHZWdkD/YNbm1sOuwPuVRdOgKJRJ7GwrMotavzi78HhsXnjE4t7exadwaHeNS0sbXV08yJiM+KTc9s7htRqPUF6GDEGA7sO7fuFFx6AAASAwHsQAAPzeQPTG1kDi4qM2tzYdKLORfliaUlpfFzCPwzMP3BwgHs47zxjYKkpqanJqW0tbSO8kdiYuPzc/JXlFZPBNDU5lZyUHBYaPjE2wT6FTIhPbGlutZqtep2eO8hNiEtIjE8cGhzyGlhba1tlRWWAf8B3D/3qauv4w3zBqEAwIpidkRoNJu9gfJIgLWaLYlnR1dGVlZEVHRXNyeZwB7j/g4Hdf+A1MCeKbW5sDQ5wC58VpiSlhIaEdnd1a/e0cAu5aAIUQZvM6LhkKflJ2f+7FeAXlNrY2MfjTfNHp7v7RmsbXubkl+UWVHb28FfWdlDU5V1Q8qITBscHAkAACHzYBMDAfN3AbBbbMHc4KCAoIjyyv7d/bYWZ1zQ+LiEyImp0RLC5sRkWGhbgH9BY37i+tq5Ra162v0xMSCwuKh4fG5+RzKSnZWSkZwpHhbJ5WVtrm993ft/cuz8mHJNMSUqKSwP8A5ITkxdkC9JZaUV5RXxsfH5u/ujIqHccWG9Pb8fLjvi4+EffPWL6rraUO8qd7a3tXfUu5jzqAKMp2ok6tbva5cXlacl0Y31jbExcbExcW2v7DxuYqrSk7OGD7/Lz8memZ6wWq15nWJIvTYxPDg5wOTmcv3zxl8qKSuW28sOufr6QO5Kg9Ub7uGQ5r+R5UGR2XEpxVVVHe/vQi46h5vaeuqaXtU0veALx+vaezc4MDjv6e+89/uw7PoRPVz1IJBAAAkDgogmAgfn0bYCmPG4XoVhSFBYURkZExkbHVpZXpqWkPXzwMDYmbkw0bjaay0rLY6Ji0lLSKisqW5tbM9IzUlNS+3r7VEqVYllRWlIaFhqWnZVdUV7xJOvJndt37t295zWwu3fufvm3L2travNz80OCQlKTU1++6JidkTIGFs/MyMrn8UdHRjPSM7748xfVVdUv2l90dnQOc4cVSwrU4WTHaVEkZTFZZqZn6mvry0vL83LzoyKjMtIz+MwAf0lmRmZebv6YaIwdiR8THSMSijRqTVtre1BgcKB/YHFh8bx0fnFh8UX7i4ryirra+vjYeL+Hfq3NrRq15qIrwM0+/uHKjxRlQ7C17f2RSXkPV9LPmxUK58XiRen8ysLyhmJdtbG9e2C0OXA3cfjkEQzsZpcZn24w4dIAgetFAAzMpxsUZk4mkraYLCLhWFJi0qeffPrZb3777f1vk5OS62rrZfMyJ+rc3Nhqb20PCw377De//cPv//DI7xF3kGvQGWjKY0cc0tm54KCQT/77k1t/vRUcGBwRFpGVmTUjmZHOzlVXVUeGRwY8Dnjw7YOPfvXRH//wx4ryCpVSZTaZ+Tx+RnpGeWn5vHR+b1c7OjKalJj0ya8/+cXPf/G7z34XHhrOHeBazVaKOOoSQayIYFTw4NsHP/+vn//H//qPW3+71VDfsKvZnZ2R5uXmFxeVTE5MzUnnysvKU1NSJycmESsyPyd7mv/0q1tfffLrT7KzsgWjglxO7ue///znP/v5r375q8KCwqXFJZiN4oJbE3btbZyiCZKmXbTHRTGBJDwU4SFJD3EYDkf6Hc76RXs80AcGnX9AAAgAgXMiAAZ2DQyMdJMmg0kyJRnhjwpGBBLx9IJsYX1tA7EizGI+mEu9o5mfk01LpqclM3PSOZPRRLiJw/4zt/5APzc7Nz42MTkxJRFPS2ela6trqAPFMVy9o56TzknE0+IpyZhofGJ8cnNjk10gCLWjWxtbapUasSGEm0BsyPra+hB3qL+vn5kWXyY3m8zU4WRgrCIQbsJitqyvrvf19jU1No2PjWt3tYgVQayIZkej2dHYLDa7za7Z0ewod8wmM+EmjHrjimJVOiudlsysra7va/fXV9dnpmfFU5Jp8fSqYtWO2OFdyEsxMBdFE8ShgblpD0Ezo+zZQNEeRr+Ydy2ODexwm2l8zqkBuuAM+nTthrwDASBwwwmAgfl2G310L6QJN2Gz2qwWq/VQZRx2hxNl1h1iJ4PAMdxhd3gDycwWwNwq2bUaHQizniMb7IidXaGIfYHRjti9uxAbgjkxbuRdWAAAAXhJREFUdkFGmqLZcf3sR3ZFI4vZYjKaLGYL6kBPrdvIrl3jwlwmo+lg/8BmtbldbsJNkATpdrnduJskSIqg3DizfWiHtNvldqJOhx112FHMiTFrSjox9qPDjrK5u+GV8+Kzz/aBURRNkTRN0B7SwwRWvCjaQ9Ieiun2Og6sjR3/e/HJ8+26CQ4KBIAAEHg/AmBg0MoDgZtOgO3l8poW06Qc9n55Y7wb0PUF3gkEgAAQOC8CYGA3/e57XiUJjnOtCXjnmGA3PMcdXa/GX+tsQuKBABAAAr5DAAwMDAwIAAEgAASAABAAApdNAAzsson7jn1DSoAAEAACQAAIAIGrIgAGBgYGBIAAEAACQAAIAIHLJgAGdtnEr8q14bxAAAgAASAABICA7xAAAwMDAwJAAAgAASAABIDAZRMAA7ts4r5j35ASIAAEgAAQAAJA4KoIgIGBgQEBIAAEgAAQAAJA4LIJgIFdNvGrcm04LxAAAkAACAABIOA7BP4/I+Q0zQ98Rm4AAAAASUVORK5CYII=;" parent="174" vertex="1">
                    <mxGeometry x="10" y="30" width="511.24" height="220" as="geometry"/>
                </mxCell>
                <mxCell id="188" value="Dark fringes: \[a\sin\theta_m=(m\pm\frac{1}{2})\lambda\quad m=0,1,2,3,...\]" style="rounded=1;whiteSpace=wrap;html=1;shadow=0;labelBackgroundColor=none;strokeColor=none;strokeWidth=3;fillColor=#61c6ce;fontFamily=Helvetica;fontSize=14;align=center;spacing=5;fontStyle=0;arcSize=7;perimeterSpacing=2;fontColor=#000000;" parent="174" vertex="1">
                    <mxGeometry x="10" y="340" width="331" height="90" as="geometry"/>
                </mxCell>
                <mxCell id="189" value="\[\theta\approx 0\]\[\sin\theta_m\approx\tan\theta_m\]\[\tan\theta_m=\frac{x}{D}\]\[y=\frac{D\lambda}{a}\]" style="rounded=1;whiteSpace=wrap;html=1;shadow=0;labelBackgroundColor=none;strokeColor=none;strokeWidth=3;fillColor=#61c6ce;fontFamily=Helvetica;fontSize=14;align=center;spacing=5;fontStyle=0;arcSize=7;perimeterSpacing=2;fontColor=#000000;" parent="174" vertex="1">
                    <mxGeometry x="350" y="260" width="181" height="170" as="geometry"/>
                </mxCell>
                <mxCell id="191" value="Newton's Rings" style="swimlane;gradientColor=none;strokeColor=#61C6CE;startSize=23;fillColor=#00BFBF;fontColor=#000000;" parent="1" vertex="1">
                    <mxGeometry x="1520" y="1020" width="800" height="250" as="geometry"/>
                </mxCell>
                <mxCell id="193" value="\[\frac{r^2}{R}=(m\pm\frac{1}{2})\lambda\quad m=0,1,2,3,...\quad(bright)\]\[\frac{r^2}{R}=m\lambda\quad m=0,1,2,3,...\quad(dark)\]" style="rounded=1;whiteSpace=wrap;html=1;shadow=0;labelBackgroundColor=none;strokeColor=none;strokeWidth=3;fillColor=#61c6ce;fontFamily=Helvetica;fontSize=14;align=center;spacing=5;fontStyle=0;arcSize=7;perimeterSpacing=2;fontColor=#000000;" parent="191" vertex="1">
                    <mxGeometry x="430" y="75" width="361" height="130" as="geometry"/>
                </mxCell>
                <mxCell id="194" value="" style="shape=image;verticalLabelPosition=bottom;labelBackgroundColor=#ffffff;verticalAlign=top;aspect=fixed;imageAspect=0;image=data:image/png,iVBORw0KGgoAAAANSUhEUgAAAXUAAADDCAIAAADyexZDAAAgAElEQVR4AexdCVzMzRvfu3a7tvvcdB8S0aGIVI5E5CglRAc5cr/0ImdeyVUS5U6pUBFSupOIEEVSdN+6t7bdbXd//0+Nfu/+u4R6He189rM7v5lnnpl55jfffeZ6BgFxHEcCQycBFgSxho4bh9PvLgHE714BTvl/KQlw8OWXao6fXhgOvvz0JviNC9AXmjAhiNk7vHfIb1xtTtEHLQEOvgxaVBzCXhLoCzU4+NJLTCM4gIMvI7jxOVXnSGCYJcDBl2EWMIc9RwIjWAIcfBlU47NYnFWRrwnqy2Cpc3z0NVJO/EiRAAdf/m3pQYLIIMn+5TtCfBx8GSEN/S3V5ODLF2kNgBoNDQ2urq7l5eXfIlgOLUcCHAlAHHz5+kvg6uqKQCBiY2MhCBoAhr7O6I+m+CKZvpaU/uh6cyo3kAQ4+DKQdCAIevLkCR6PRyKRtbW1XyEd2dGd+MKCIAaz88OZrRrZLwNcew6+wKLow0OlUg0MDPj4+BITEzmaSx8CYg9iQYyW5oLUR1UvX3VCDMdxJABxxkcDvgSnT59GIpF79+4dkIoT2XXoiMWsz3vvqqvnY7sMotM5QuFIAOLgywAvQUlJiaCgoLq6OplMXrZsWVNT0wDEIz6KCbGYLbnv3LS0L1gtgdo5+DLi34guAXDGR32/BywWy8rKCoVCPXz4EIIgFRUVzvxL35L6EsqEmEzyOw6+DCikkRfJwZe+2/zu3btoNHrZsmVg2mXq1Kl1dXV9k3JCOyXAwRfOe9CHBDj40odQmpqaVFRUxMTEOHte+pBO30EcfOlbLiM8lIMvfbwAbm5uCAQiICAAjqNzJixhWfTt4eBL33IZ4aEcfOn5Arx+/ZqHh2fq1KlUKhXeUGdgYPD58+eepJznfyXAwZd/ZcHxwRLg4Assik4PnU43MTHh5ubOzMxkj+DM77JLoy8/B1/6ksqID+Pgy/+9ApcvX0YgEFu2bPm/UAhycnJqbm7uEch5ZJMAB1/YhMHxdkuAgy/dkoCgyspKSUlJBQWFhoaGf0M5vkFJgIMvgxLTSCPi4MuXFmcymY6Ojmg0Ojw8vPdL8OnTJyaTs+e9t2DgEA6+wKLgeP6VwMjFlx7nieLj47FY7KJFixgMBiwemGb06NGc/XWwWPrycPClL6mM+LCRiy/sTd/S0jJu3DghIaH8/Hz2cNivoqJSU1MDww0czvF0S4CDL92S4PyySYCDL53COHz4MAKBOHbsGJtkvngBpvj6+ra2tvaO5YR0S4CDL92S4PyySWCk4wuLxcrLy+Pn59fW1m5ra2OTDMf7TRLg4Ms3iWukEI84fOkxxuno6Jg7dy43N3dqauoAbZ6YmEij0QBBDw4DpBpJURx8GUmtPei6jjh86SGZsLAwJBK5evXqHuE9Hjn763oIpNcjB196iYQTMNLsv/RQPWpra+Xl5UkkUlVV1cAvAwdfBpYP5/z01+QzQuNHrv7CYrFcXV1RKNS1a9e+2vgPHjyAx0dfJf4Rgh4I+COs/tu0HP3lv5X3b5LbyMWX9PR0bm5uMzOzbz0b/d0QABLCyWHPb/KqDFxMDr4MLJ8RGjtC8aW9vV1fX5+Pj+/t27eDaXnO+vTXpMTBl69JaETGj1B88fb2RiAQ+/btG2Sjc+ZfviYoDr58TUIjMn4k4ktxcbGQkNDo0aPJZPIgG11TU3NIzgf0NyZidblBFuaXJOPgyy/ZLD+7UCMOXxgMxpIlS7BYbExMzOCFn5+fz34uafAJRwwlB19GTFN/S0VHHL7cv38fhULZ2dn1p0p8i/S+kzYrK8vLy8vKysrNzS0tLQ0YygO8fmKpvrMyX5Jx8OXH5PeHph5Z+NLc3AwMd5eWln5Tg65evXqo7EtdvnyZh4dHS0tr/fr106dP5+XlXb9+/e9v/IGDL9/0Qo0U4pGFL25ubkgk8ty5c9+kJrBYLHB++kdeCpBjdHQ0FxfX/v37waI4i8UKCAjA4XCxsbEwcxaL1d9YbOA9OHClWCxWR0cHzPA/8fzX+AJXdphqN9z8h6nYvxrbEYQvb9684eLiMjQ0HLiX9tlCU6ZMGZL7jxwcHMaNG9fe3g7nQqfTAwICnj9/zmKxmpqajh07pqOjo6SkdOjQoaKiIhaL9fTpUy0trczMzEWLFomLi8+aNaumpqa8vFxFRSUlJQXwqaioUFdXz8jIoNFo4eHhM2fOlJeX3717d1FREQRBV65cGT169KtXryAIysnJ0dTUPHfuHFyAIfIMMb48ffr04MGD7CbWe5ezvr4eSLJPLOgd+OzZs40bN65bt45jqr23MIcpZKTgS0dHx9SpU7m4uF6+fPkdomxtbe39vn4rn46OjnHjxq1du7a/hKdPn5aQkPDz83vw4IGhoaGurm5HR0d8fDwKhRo3btytW7du374tKCi4fft2BoNhYGDg4OAAWJ04cUJGRoZCoVy6dElISOj8+fMpKSmzZ8/W0dHp6Ohoa2szMDAAEDl58mRdXd2WlhaQ8Mcr1V2XIcYXPz8/ISEheEwKlxP2lJaWysrKfvr0qbsAX/llsVjS0tJqamouLi7syh3MsEf6/sJ7kH3f47Ay/74iDVOqPx9fQFteuHABiURu3779++QIz4/8yJvR1NQkJSW1Z8+e/sqgo6Nz6NAhEJuZmYnFYt++fRsfH49EIs+ePQvCrays5s+fD0GQr6+voKBgS0sLnU7X0dHZunUri8WaNWvWtm3bACVYhs/JyQFqi4CAgJaWFj8/P1Bk+ivD94YPAb6wyxbgywB3fmdlZSEQiP7whZ0VqFFTUxMCgYiKivreCnam6832R7iNhLR/Pr5AEFRdXS0uLq6goDDA+zpwY8+cOfPHlWoWi6Wnp2dtbd0jr5qaGgaDkZ2djcPh4HtRmEymuLi4h4cHwJeCggKQatmyZWZmZhAE1dXV8fDwhIWFvX79mouL68WLFzU1NQQCgYeHR6jLCQoKolAo2GjW7t27EQjEjh07euQ+RI9DgC/sJTl79qyQkFBLSwuZTJ49e3ZYWNiCBQskJSXnzJmTm5tbWlqqpaWFQCDGjh0bGRnJYrHCwsKMjY1JJJKdnV1eXh4AAkNDw6NHj8rKypqZmY0bNw6BQKioqOzbt4/FYt26dQvQL1269P379xAEkclkc3PzI0eOKCoq2tnZ0en02NhYMzMzSUnJWbNmRUdHA55NTU3r1q2TlZWdNGlSUFDQ1KlTq6qqCgsL9fX1jx07RiKRwOSal5fXmDFjBAUF1dXVwX8DhUKZO3fu1atXZ82aJSMj4+DgUF1dvXHjRjk5uenTp79584a9+n+Mf0Tgy6pVq/oz3D3Ihhyq/bvr16+Xl5eH1X4IghobGxUVFVetWlVZWUkkEm/dugWKVFtby8PD4+/vD/AFPuEN4wuLxVqyZMm8efN27dqlra3NYrFaWlpkZWV37979sdvl5eXV19dDEFRfX6+iokIkEhUUFEDIICs+aLIhxhd4fNTQ0CAuLi4oKHjw4MHg4GA1NTVjY+O2tjZwk8z169erqqrCwsL4+Pj2798fGxs7e/ZsWVnZxsZGCIIIBIKgoOCePXu8vLwiIiKAicLc3Nzw8HBubu6DBw/GxMTMnTtXRkamvr6+sbFRXFxcQEDg77//9vb2fv78OT8//9KlS+/cuePo6IjH4xMTEyEIsrW1lZaW9vf39/HxIZFISCSysLAwJycHhUKNGjVq//79YWFhR48e5eHhuXTpUkJCwurVq7FY7MuXL8lksrS0tICAwMmTJ318fHh5ecXExBwdHcPCwjQ1NefNmzdoUf9OhH8+vqSmpiKRyPnz5/+Icrt06dLv1n3YX4fs7GwhIaElS5ZQKBTwn7lp0yY+Pr53795BEGRhYbF48WKwtHTp0iUkEpmZmdkfvkAQFB0dTSAQ5OXlfXx8QC4bNmyYNGkSmMBOTU0VFhYGf7z29vZSUlJZWVlycnKrVq2Ch3tDp/MPGb6AZuqBL46OjqCCnp6e8vLyFAoFjI8KCwtZLNb48eNXrFgBEra0tAgKCvr5+QF8cXNzAwlramoQCMTDhw/B1JWNjQ0Ib2pqkpCQ8Pb2BviydetWEG5lZaWhoQEkyWQyJ06cOGfOnKKiIl5eXsAcgqDTp08jEIiioqKcnBw0Gh0YGAjSRkdHR0REAH9hYSEajY6KigL4smHDBhBubGysoqIC+Ht4eMB+EPvHfP/J+MJisWg0mpqaGi8vb3Fxce82GzzisHfI3ny+KeT27dsEAkFAQGDq1Kn8XQ5GhwcPHsjKyiorKxsZGWEwmB07djCZzAHwpb29fdSoUby8vOXl5aAML168UFVVJZFIVlZWAgICCxcuZDAYISEhGAwGvPF37tzB4XChoaHfVOZBEA8ZvoC8euBLcHAwCA8JCZGXl29rawP48vHjx8bGRlFRUR4eHpFuh0ajAR4RCISQkBCQsKamBolEPnz4sL29nUAg4PH4bnIRLBbr7OwM8CUoKAhgrqam5qZNm+CKu7m5qaurJyUlIRAIeKz68uVLDAYD40tWVhagJ5PJx48fX7x4MYlEwuPxCAQiNDS0tbVVWlr65MmTgMbW1nbFihXAf/ToUQUFBfCXA+f4Z3h+e3xhxwh2P2geDw8PBAJx/PjxH2ytqqqq3sy/m2dra2tsbOyhQ4fCw8N7mA2nUql37tw5duzYkydPAKhVVVUFBwfDS9ppaWlAUQe5P3r06N69e+wl6ejoSE1NPX78+LNnz8A+mujo6Lt374Lys1isqKiohw8fDmF1unIfFnxpaWkB46MHDx6AOl6/fp0dXz59+tTe3i4pKblu3bqn3S4jI+Pjx49Af4H1CBhfaDSahISEs7NzN3nn78ePH5uamsTFxeGMtLW1ly1bBgvWxcVl3LhxL168wGKx8fHxIDw2NhaJRML4UllZCcKtra0lJSWPHj0aExNTWlqKwWBCQ0OB/gL/lyxdutTJyQnQe3l5AaUMzu6P8fz2+DJASxQWFnJxcY0dO5Z9PbI3/WB62tixY4fkfGPv3P+UkKHBF7gteugvcLeH9Zc3b96gUKgPHz5AEGRmZqanpwfGlaWlpSQS6cqVK/3hC4vFmj9/vo6ODsirpKRETk4uICAA6C9wRjt27JCSkgJzVa2trXJycjY2Nu3t7erq6k5OTowut3LlSvbxUWVlJYvFYjKZ3Nzc8CphVFQU0F964IutrS07vnD0l9+vI8yaNQuFQmVkZPx40Ydqfnfo5jv6qBPcOfuIG/agocEXuJj94Qusv5SUlPDz80+YMOHu3bsvXrwgEokaGhpr1qxRUlJSVlYGuEAgEHrrLxAEvXr1SlBQcPTo0S4uLipdrra2tge+VFZWKigokEgkZ2dneXl5UVHR3NxcCILu3r3Lx8enrq6upqYmJSWFRCLLysrA/Ausv8ybN09UVHTz5s2Ojo5SUlKCgoI+Pj4cfIEb90/w3LhxA4FADLCZ7Zsq6eHhAe9J+6aE7MRw/4c97LE/yw8XBvZ8V0mGGF8yMjI8PDxoNFp7e7unpyd8711OTs7x48eBQpqSkrJjx45Hjx5BEFReXu7t7e3i4uLv7w8vz+3btw+sPUMQ1NbWtnv37k+fPoFqVldX+/r6rlmz5ty5c2DmnkKhsGcE1uMuXry4du3a48ePwzNcTCazpKQkMDAwMjISjI9aWlpqa2v37NkDm/sgk8l+fn7Ozs5eXl7l5eXBwcHh4eE0Gu3o0aPPnj0D4gW7JYE/PT39xIkTA2vZ39UoPz/Rnzk+amxslJaWlpCQGJJN/T+/lX6DEgwZvvwYzH2PpAafI41GI5FIp06dAuOjFStWaGho9GlfdZA8B0n2PbX6NdL8gfjCYrE2bNiAQCDAWsCQyBkc7flxVoN8nwZJNpjyDCGrAbMbMnwZMJdhj/yquI4fP87FxaWgoCAhISEiIpKWljbsZfqdM/gD8SUzMxONRhsbGw/hZIeysvKPz++Co0Bt3a61tRV4v+MPsHc3YLFY3Yy//H6Hvg2zhT2DfreHBl++Pd+eBfw+Dt+Uqry8PDo6OjY2Fh6I9SzE1577zK7PwK9x+tXjf2986d0kHR0dEyZMwOFw8CYFBoNRyOZKSkrIZDLoe72T99dcQzK/6+fnh+pySCQSgUAgkUjwyL5nfzBFevnyJbzMCRe4uroa0eUATwwGo66uDu/+gMkG8CQnJ3t4eAxAMGDU0OBL7yx6C2QwIb35DCYErP4wGIyOLken04GHwWAMrQHTHlXo8TiYov4uNL83vvSW8smTJxEIxP79++GosrIyBALBzc3Nw8PDy8vLxcWFxWItLCy+SR8JDQ2Frcx999tQVVWV0uWuX7+OwWBOnz4NHgsLC+HSDsbDvjULpq+qqkIgEH5+foAn2ClPIBDAzmCYbACPubn50qVLv1fpGy58GaDAPx4FUINOp7e2tjY2NlZXVxcXF3/48OHdu3fZ2dlv3rzJzs5++/Ztfn5+cXFxdXV1Y2Nja2srnU4fWrj58Yr8shz+KHwpLS0VEBBQVVWFd6OBlQUEAnHz5s3GLldQUHD+/HksFvvXX3/9rFYpKCjAYrHsQ3fwvpaXl589ezYrKwse2tBotIiICE9Pz4sXLwKbe2/evDEwMDA0NIyMjGQvP8CX9PR0OBDk4u3tDUEQlUqNioo6efKkr68vvHPv2bNnqampd+7cCQgIiIqKGjdunIGBAbx5DPAZNJj+KvgCCjxAsYH5rra2tpqamvfv3z969OjmzZt+fn4HDhzYtm3bmjVrli9fbm1tvXDhwgULFixcuNDa2nr58uVr1qzZtm3bgQMH/Pz8bty4kZqampubW1NT09raCrQbWOwcD7sEhgVffgq6s1isxYsXo1CohIQE9hoC/SU6Ohr+Z2YymVOmTJk0aRI72cD+a9eusWPWwMRfjf348WNvfFm9erWYmJi5ubmIiIiRkRE4oWdraysqKmpnZ6ehoSEiIlJQUBAcHEwikUaNGuXs7MyeEcCXx48fw4GJiYloNDohIaGlpWXatGnCwsILFy5UVVXF4XBg3LR27VpRUVEBAQEhISF7e3sxMTESiTT4O1vgjLo8vwq+/H+p/n0CNv0aGxvz8vLi4uL8/f137ty5dOlSY2PjsWPHysvLg1OUvLy8BAKB+/8dgUDg5eUVEhISFxeXk5PT1NQ0NjZeunTpzp07/f394+Li8vLyGhoaOjo6BsA1UJSvEvxb4j/CNyz48lMkc//+fTQavWzZsh5NCPAlKiqK3uXa2toyMjLExcWBpZUexP2VfEjmX2DmvfWXrKwsHh4eYPuqqqpKWVk5MDCwo6MDPk3X3t6+aNEioFwMMD7atWvX5cuXAwICVq9eLSsrO2bMmPb29qSkJDk5OXA6hsViGRgYWFhYQBC0bt06bm7urKwsYD0LHh/B5fwWz6+LL0wms6Wl5cOHD/fu3fP09LS3tzc0NFRUVBQWFiYQCDgcjouLi5ubm5+fX1hYWFJSkkQiKSgogH16SkpKCgoKsrKykpKSwsLC/Pz8eDwe1+UIBIKwsLCSkpKhoaG9vb2np+e9e/c+fPjQ3Nw8hKfVvqUJfkXaPwRfmpubwRsD76GEhQ3wRV5eflyXk5eX5+fnX7RoUW9KOElvz+jRo79pvqY3B/aQ3viyf/9+GRmZU6dO+XS5yZMnz507l8ViTZ8+XUBAwMrKKigoqKamBjAB+NIDGYH+IiIiIikpKSMjY2VlFRgYCO8Ko1AoL168uHDhgqur66hRo2bOnAnwRVNTE169+vPwpaOjo7a2Nj09/cyZMw4ODgYGBjIyMry8vABTiESijIwMUEYWL17s7Oy8ffv2gwcPHj9+3NfX91y38/X1PX78+IEDB/766y8nJ6fFixcbGxtramrKyMgQiUSANby8vNLS0sCi4JkzZ9LT02tra+FBLnvTjzT/H4IvO3fuRCAQ/v7+PXodBEGlpaUIBMLFxcXX1/evv/7i5+e3trb+VhO8r1+/hvvhj78ivfFlyZIlEhISy7rd8uXLt27dSqfTm5ubT548OW3aNF5eXgEBAWB+zdbWdvny5T2K0Xv+BSYoKSkZP368oKCggYHBjh07TExMYHwxNTUFZCwWC8aX3jKEWfXv+YX0FzAUqqqqio+PP3TokIWFhbKyMh8fHw6Hw+Px4uLimpqa5ubmLi4u//zzT2BgYFxc3IsXL/Lz88vLy2tqaurq6pqampqbm1taWpqbm5uamurr64HN4/z8/BcvXsTFxV27du3IkSMuLi6zZ8/W1NQUFxcHeg0fH5+SkpKFhcWhQ4cSEhKqqqpGOMoMGb4wmczvM23b/ys72JjXr1/j8fjJkyf3CQFAf4HPrd29exeHw7m7u39XLxpskXrTsWfXG1+uXLkiJSUFm5i5efNmWFjY58+fjx07VlFRAUFQYWHhhAkT5syZA0wc2dnZ9ciix/wLe3a7du0ikUglJSVgBsrExMTU1JTFYq1btw7GFwiC5syZA9aPenAe3OOvgi9MJrO2tjYxMXHfvn0zZswAFhJwOJyQkNCYMWPmz5/v5uZ25cqVlJSU/Pz82tpasAupubm5rq6uoqLi48ePubm5b968efny5YsXL16+fPnmzZvc3NxPnz5VVlbW1dU1Nze3tbW1trbW1tbm5+enpqZeuXLFzc3N0tJyzJgxQkJCOByOm5tbRkZm+vTp+/btS0xMrK2tHbEjpiHDl+TkZBUVle/ecTS4l7gPKjqdbmxszM3N3Z9ZWfb5XQiCmEzmhg0bcDgcu5WDPvh2BcG99K+//vqR80cwH5ARjC9weHl5OZFIdHR0fPHixdWrVwkEwrlz5+h0upaW1rx587Kzs9PS0mRlZYF1og0bNqiqqvYwyzCA/nL27FlBQcGkpKRPnz55enricDhDQ0MIgtauXcuOL8uWLdPR0Xn48GF/0hgw/JfAFzKZ/OrVK09PTzMzM2lpaW5ubjweLyMjM23aNFdX10uXLqWnp5eVlbW0tLS2tn7+/Pnjx48ZGRlRUVEXL1708vLatWuXq6uro6Pj8uXLbW1tbWxsgKro6Ojo6uq6e/duT0/PCxcu3L17F5iA+Pz5c2tra0tLS1lZ2ZMnTy5duuTq6mpkZCQjI4PH47m5uaWlpc3MzDw9PTMzM8lkMtzcA0ryj4ocGnxhMjtmzpyOQCDOnDnTWzwsCGL1Du0O6T+WCUHMbirw2xnSg/7ChQsoFGr79u1w48Ee8HfdA1+AsUhFRUVNTU34QNr/59LH09DO7xYXF6uqqnaa2mWrTHp6upOTk7S09Lhx4w4dOgRGcE+fPp0/f760tDSJRFq6dClYVHry5ImKioqqqiq7RaLa2lpFRUU2FfJf6dXX1zs5OYFVp6VLlx4+fHjSpEktLS379u2DTRxBEBQVFaWoqKihofFdf7bDgi/sTdlHq7AFdXR0FBYWXrlyZcmSJbKyslxcXHg8Xl5e3sLC4vDhww8fPiwuLgaqSllZ2bNnz27cuHHkyJG1a9fOmzdPX19fTU1NRkZGVFSUSCSCJSRggwqPx4PFIyKRKCoqSiKR1NTU9PX1582b5+LicuTIkbCwsGfPnpWXlwOlpri4+OHDhx4eHvPmzZOXlweDJhKJtGTJkitXrhQWFrIPl+DawR62Cv0h3qHBl+TkRCwWjUAgehiXBUJi60R9SK3/2H97SHeynvhSUVEhISGhqKgIOl432f/91tbWamlpsW82gSDo3r1748ePDwsL+z/SXg9ww+vq6v64fe9e7Ltw9/+ht6WlpXf3bmlpaWtrY0/OYDCoVCpcPPaobn9P6bW2tn4VTzs6OtivHBqQf3c+X36HBV/gLQU9MuvxSCaT09LS3NzcdHR0wPQtUBw8PDySkpKqqqooFEpDQ8ObN29u3Lixf/9+W1tbAwMDBQUFISEhPB6PxWIxGAwWi+Xi4iIQCHx8fEQiUbDbEYlEPj4+sNIEU+LxeCEhIQUFBQMDA1tb2/3799+4cePNmzf19fUUCqWqqioxMfHw4cPm5ubS0tI4HI6Pj09bW3vnzp1paWlfbYUetfutHwfCl7q6uoP/7/q4l4sFsRjMmTNngs3pCATC19d3KCXSP/xAELRq1SokEnn79m04x4G7xHdvzKmtrR2YM1yA4fD0LjZcGNjTmS+TNZCi+O0l+z/mX0k+XPgycLYsFqumpiYsLMzGxoZEIuFwOH5+fgMDg507d8bExFRUVFAolNra2idPngCDCYaGhqNGjeLj4wNIwc3NDVaR1NXV9fT0TE1N58+fb2tra29v7+jo6Ozs7OjoaG9vb2NjM3/+fFNTUz09PXV1dRKJRCQSubm5ASrx8fGNGjXK0NDQ2dn57Nmz6enpNTU17e3tFRUVMTExO3fuNDAw4Ofnx2KxMjIyNjY2YWFh1dXV3yLbgWXwS8cOhC+1tbUbupyrq6uTkxMSiew9rQixoJSkZCwWC+OLvLz8j0xV9JRWN770bo/4+HgsFrtgwYL+blPtyep7nwe4sPU7WPauSG8mNBrtWw8NdDLpllVvhj0UAVCG/krSX3ifbLsDfwK+dHR0FBQUeHt7T5s2TUBAAIfDycrKWllZXbt2raCggEKh1NXVpaene3t729nZjRs3TlhYGIfDYTAYAoEgISGhoaFhamq6fPnynTt3njhx4urVq7dv346Pj09PT8/MzHz16lVWVtarV68yMzPT09Pj4+Nv37599erVEydO7Ny5c/ny5aampmPGjJGQkCAQCBgMBofDCQsLjxs3bunSpadOnUpPT6+rq6NQKAUFBdeuXbO2th41ahQOhxMQEDAyMvL29i4oKGAfK3WL8U/7HQhf4Lo2NTVNmTJFT08PvtoCfkEZDMasWbNgcAEeX1/fL+8oeOMHfO/hXL7JQyaTNTU1iURifzdssXODOwzsYY8djN/S0rKhoWEwlD9CAxfv77//FhYW7jEm+g7OPQQP8//Cqkf0d2Twb5L/Gl/odPrr16/d3d21tHCRIxEAACAASURBVLTweDwPD8+ECRN27NiRlJTU2NhIJpNfv37t7++/bNmyMWPGCAgIwBCgoaFhbm6+YcOGU6dOhYeHP3nypKCgoLq6GiwMtbe307odlUrt9naauWpra2tubq6uri4oKHjy5ElERMSpU6c2bNgwe/ZsDQ0NGLwEBATGjBmzbNkyf3//169fk8nkxsbGpKSkHTt2jB8/noeHh0AgjBs3zt3dfWg3PfzbFL+S7+v4QqfTly1bpqCgAGwm9yj8o0eP2JUXgC/y8vJfzFYPG74cPnz4mwx3w12r91ijR436fBza+d0+swCBLBbU0NAkJiamr6//4/9vXwGQr0QPUMzeUcOIL3DbwblSqdSMjIzNmzcrKyuDteeZM2eePn06Nze3ra2trKwsMjLS1dVVV1dXUFAQg8FwcXFJSEjo6+vb29t7eXndvXs3Ozu7urq6tbWVRqNRKJTGxsbKyspPnz5lZ2c/f/48LS0tJSUlKSkpJSUlLS3t+fPn2dnZHz9+rKysbGxspFAoNBqttbW1urr6zZs3wB77ypUrJ06cKCEhwcXFhcFgBAUFdXV1XV1dIyIiysrK2tracnNzfX19Z86cCdawlZSUNm3alJGRwT7hBVfwj/F8BV+YTObBgwelpKTANaO9q+3q6krqckQiEYFASElJgMfo6Jhu4h5rQN3Bff4O7o3Pzc0VEBDQ1dX9kX/43m9tnyUCgQsWLBhG/eX/a3327FkEAgHfyDFAqTqj/j/tV4iHMXoY8YW91CwWi0qlPn782MXFRVZWFofDSUpKWltbh4WFVVZWtrW15eTknDhxAp5YxWKx4uLikyZNcnFxCQgIePz4MejtNBqtqamptLT01atXMTExgYGBJ06c2Lt37+bNm1evXm1vb29nZ2dra2tnZ2dvb7969erNmzfv3bv35MmTgYGBDx48ePnyZWlpaXNzM41GA4j2+PHjgIAAFxeXSZMmiYuLY7FYHA4HppmPHz+enZ1NoVAqKyvDwsKWLFkiKSkJRnMuLi5paWnw0Xz2mv4Z/q/gS2BgIJFIHGBPBJlMbu5yp06dQiAQublvOzc+NjUzKBSIwYQ66F2fDqhjqD50iE63NDfnw2Azk5MhOn3oOA9YwtbW/yIjRgdEp2uNHq0kLcNoavrOHOnMzoT0ruowmBCL2WPS96vA+lWCvl79/whfaDRaenr66tWrZWRksFisrKyso6NjbGxsQ0MDPAyZMGECLy8vBoMhEonjx493cHAICAh4/vx5bW0tlUptbW0tKyt7+vTpjRs3vLy8XF1dFy1aZGRkpKWlpaysTCKRgGE6ISEhQUFBISEhERERCYnOf01lZWUtLS0jI6NFixa5urp6eXnduHHj6dOnpaWlra2tVCq1trb2+fPn58+fd3R0HD9+PJFIxGAwvLy8WlpaO3fuBAO3hoaGmJgYR0dHWVlZMOPr7Oz8+PHjb91Q3lcT/IphA+FLeno6gUCwtLS80e3u3LnTSxBf1kEDAgIQCERZWVnnphVWZz+55+fnZmm5e76lm+WCHV3fOy0XuFku6O/bzXKB2/xFnZ9+aP5esHDrwkULp03jRyB0pKS3LVi4sx/K/jh8d/i2uRbfnba/+sLhoBY7F1huXbjIytSUD4EwUlbZvnDRl9rN7/R05r6gU5Jwqk5xdX4suz5fwoGcd1ku3DOvkzgp+Hon1rC+RYX8zrf0v8AXOp2emZm5bt06EomEwWDk5eXXr1+fkpJCJpNramoiIiJWrlypqKgIjhfJyclZWloeP3780aNHNTU1NBqtpaUlPz8/Ojr65MmTLi4u4FJq9sUgdJdDoVDAA3/DIRgMBo/HE4lEEok0btw4MzMzFxeXEydOREdH5+XltbS00Gi0mpqatLS048ePL1iwQE5OjqvLKSoqrly5Mjw8vLa2lkwmp6SkrFu3Tl5eHoPByMjIrFu37vnz58CszHeK/1dNNhC+xMXF2fy/c3Z27rV6/wVf/P39/8UXZgdEpd44fDj077/fBgdnXQ95GRL6KiT069/Xb7wMudGbMis0DKR9GHB+FB+fHFEw9vKVjLAbLwfDcyhoDEXFUvwDQBlehYb1LuF3h7zoEk5nRUJDMsJuTFZXF8Fgoy9czLxx80VYZ61fhnRWs5N/aEiPXF51hod0fULZS5V1PSQ3+PrVTVsfnvOHaHSI+RvjC6xMMRiMt2/fbtu2TU5ODovFysnJbdiw4fHjx0AfuXr1qqWlpaSkJFAZtLW1N27cGBkZWVxcDHSWvLy827dvHzhwYMmSJbq6ujIyMmCVGoAIFxcXsMAAVBUFBQXlbqeoqAiUGmFhYV5eXrAsjUajsVgsHx+fjIyMrq7ukiVLDhw4cPv27by8PDKZTKVSi4uLIyMjN23apK2tzcfHh8FgJCUlLS0tr1y5UlZW1tramp6e7urqCtdl27Ztb9++He6V0P8ehQbClx6l6XtmtHv8z4YvENSFLyH/HAn+5583MbEv4uKeJsQ9i49/Gh//g9828yywCIT7327pCYlPEjoZ/jjPwXBQlpR8eOvWYCi/lSYtJuba2bPpDx8+iYsLPHcWj0bPnTmTvXYD1PFZpzzjuj7/J4cXcXFvHzy4uGt3dIA/RKMCfIE7ao9mHaLH4dVfmExmcXHxoUOH1NTUcDicjIzM2rVrAbgUFxefO3du1qxZwsLCGAxGWFh4xowZnp6eT58+bWpqolKppaWlMTExHh4eixYt0tTUFBER4eLiArBCIBBERUWVlJQmTJhgamq6cOHCFStWuLi4bN68efv27Tt27Ni+ffvmzZtdXFxWrFixcOFCExMTbW1tJSUlUVFRAoGAxWLRaDQOhxMREdHU1Fy0aJGHh0dsbGxpaSmVSm1ubs7IyDh69OiMGTOEhIRA2czMzM6dOwc2Ez9+/Hjt2rVg246qquqhQ4eKi4uHuZmGqLUHzWYgfPmmqv4fvjCYEJUa7Hnk6hGvZ/HxaYmJycmJyT/sfH19cTicrq5uQkJCUkpyUsoPcxw0A2tr6/v37w+a/BsIHz58KCEhoaamtmPHjhkzZqBQKH9/f5B+cHX8V7ZJSUkgYVpi4suHcWf3uN/7zfEFfgPr6ur8/f11dHRwOJyYmJi9vX1iYmJra2tJScnZs2dNTU3BZIekpOT8+fMvXrz44cMH0MNfvHhx9uxZe3v78ePHi4h0XjWNQqG4uLiEhYWVlZWnTJlibW29devWI0eOXLhw4datWzExMY8ePcrIyHjR7TIyMlJTU2NiYm7dunXhwoUjR45s2bLF2tp6ypQpKioqwsLCAK2wWKyIiMj48eNXrFjh5+eXmZnZ3NxMpVLz8/MvXrxoaWkpJSWFRqMFBARMTEz8/PwAxCQlJdnb24uLi+NwOB0dHX9//z/sRp1+8QVu2gGgip0G4MsXgyP/jy+Pu9/7pC73DZ2PjTQ2NlZDQwOPx1+5cmlI0IqN99e9KSnDCGZSEpKd9r67nKSkZEhICHt2KSlJ31TfpJRkNnw53zk+6jJP3XWYa/gGSsOov1AolLt3786aNYtAIAgICCxcuPDu3bstLS0VFRUBAQGmpqZgdyyJRLK1tb1+/Xp5eTmdTq+srIyOjnZzczMxMZGSkuLi4kKhUNzc3OLi4lpaWpaWlps3b/bx8QFbYPLy8iorK+vr68lkMtgCA6yR0el0Go1GpVLJZHJDQ0NFRUVeXh7Y/OLj47NlyxZLS0stLS1xcXFubm6AXFJSUsbGxjt37rx//35lZSWdTgdXrNna2oJpI35+flNT04CAgIqKiubm5rt37y5YsEBAQIBAIMyaNSsqKor9WNkAve+3iOoXXwZZ+u7hEQTwBdiI7Vw56tZfnscB/SWZvc98vUP3ogBXGq1YsaKrsw2BNtQrh4ECLl++HB8fPxDFD8TJSEnD+IJAIPB4vImJCazFfCvjPvDly/xLzxNJg2ziwZENF74wGIyXL186ODgICwvj8XgjI6PAwMC6urrPnz8HBwebm5sDzYVEIq1YseLWrVuVlZVUKhXsml21atXYsWP5+flRKBSsX1hZWbm7uwcFBaWlpX38+LG+vp5KpYJ7AsBMTWNjY11dXU1NTXV1NTAHA8x6s5PV19d//PgxLS0tKCjI3d3dysqKXT/i5+fX1NR0cHAAO4lpNFp1dXV4eLi9vb2srCxY2Jo9e3ZQUFBdXV19ff21a9eMjIzweLywsPCqVatevnz5x0zE/Ci+wBvPe4+Prh/1vHrEC+BL539wt2MDmn91++7Ivn9DQ0MFBATk5OSio6MHN2rom893h44aNer27dvfnXzghIqKit3qy5dfLi7stm1bQKrOYWBqH9rTAHLoqb+wze+yq5yDA45BUg0XvlRWVh4+fFhRURGLxWpoaHh6epaUlIC/fSsrKxEREQwGIy0tvXz58oiICLACnZOT4+vrCy/foNFoXl5eFRUVCwuLPXv2hISEZGZmgkOPDAaDRqM1NjaWlZXl5uY+f/48ISHh3r17ERERYWFhISEhYWFhERER9+7dS0hIeP78eW5ubllZWWNjI41GYzAY4ChjZmZmaGjo7t27gSErXl5eoMjIycktWLDA19c3JycHrF5HRESsWLFCRkYGg8GIiIhYWVlFRUU1NzeXlJR4eXlpaGhgsVhFRUUPD49vMq44yBb6KWRDgC+g3L3xBcy/9MYXts42WHwxMjJCoVBeXl7JyV3TLn31Nza2Q+kFaEgikYYDXwBzNTU1dnwhEok+PqfgMVFScmpScmrvKvWHL0lJSQPgy7C9ZMOCLzQaLTIy0sjICGzAXb9+fVZWFoVCSU9PX7NmDeioYmJi1tbWN2/erKmpoVKp4IJqMzMzCQkJcIhRVFTUwMBg7dq1Fy5cePr0aVVVFZVKZTAYZDK5vLw8KysL3l/n7u6+adMmJycnYP9lyZIlwP6Lk5PTpk2b3N3dT5w4ERgYGBMTk5WVVV5eTiaTwUH2qqqqp0+fXrhwYe3atQYGBqKiopguJyEhMWvWrGPHjgGIqampuXnzprW1NVjnkpGRWb16dXp6OoVCycrKWr9+Pdj+O3XqVHBf9bA11n/H+D/Cl97do7+Q3nM0hw8fRqFQM2bMgOcvO1Gme06nPz5DG75t27bY2Nih5QlzMzAwgPFFSUkpMDAQjvo+z5+BLywWKz8/38nJSVBQkIeHZ+7cudHR0a2tre/fv3d3d1dVVcVgMEJCQhYWFkFBQWBYlJ2dffz4cWNjY2FhYTQazcXFJScnN3fu3EOHDsXExBQVFVEolI6Ojubm5oKCguTk5GvXrnl4eLi4uCxatMjY2FhHR2f06NGKioqysrIyMjLS0tIyMjKysrKKioqjR4/W0dExNjZeuHDh2rVrPTw8AgODkpNTCwoKmpubOzo6KBRKUVFRTEwMsMgJdr6g0WhhYWFjY2OwhZdKpVZWVgYFBVlYWIAVJVVV1T179rx//761tTU6OtrCwoJAIAgKCjo6On748OGHlc2uETE8hTE8qDJwIYcdX7rXjwbbU9hGT51J7t+/Ly0tLSAgEB4ePlgWQ0rXozxDyvsLMwsLC4Avenp6Q7JK9TviS+/XlEwmX7p0SUVFBYvFjh071tfXt7bLnTt3Tl9fH1yYZ2Rk5OfnV1JSQqPR3r17d/LkyenTpwsKCqJQKAKBoK6uDs4ZvnjxorGxkclktrW1ffr0KSEhwd/ff/v27VZWVpMnT1ZVVZWUlAQmF8ABazQajUKhwAWbaDQanI0EO+skJSXV1NQmT55sZbVk+/Yd/v7+iYmJnz59amtrYzKZjY2NL1688Pf3X758ubq6OoFAQKFQRCJx+vTpJ06cePfuHY1GA2teRkZGPDw83NzcEydOPHfuXE1NzefPn8+cOTN27FgMBqOqqnrx4sVee82+FSGGBl96N83gy/HL4UuPDmxra4tAILZu3doj/D/WX/bv3x8XF9ejDEP1aGtri0QibWxshiqL3xFf2F9ZsNMqKytr6dKl4BqQNWvWvH79mkKhxMXFWVlZEYlELBarqam5f//+t2/f0un0oqIif3//OXPmiIqKAnAZM2aMk5PTtWvX3r9/T6FQGAxGTU3Ns2fPAgMD3dzcFi5cqKOjIysrSyQSwQIzks0BTAFjHBhrQDxQiwQEBGRl5XR09BYuXLhz587AK1efZzyrra1lMBjtbZS83PdBQUFOTk5jxowBECMqKmpubu7v719UVESn09++fbt//35NTU0sFkskEq2srOLi4igUyps3b9asWSMiIkIgEGxtbV+9evXtffvrs/jfzpO9cb7N/8vhCztwnD9/Ho/Hjx07Fu547LFD1b0Hw0dWVvb27dtDrssAhqtWrdq6desQVu13xxcIglpaWs6cOaOiooLD4SZNmhQaGkomkwsKCnbv3q2goIBGo6WkpJycnFJSUoAFqbCwMGtra7DHBI/HjxkzZs2aNaGhoR8/fgQrzSUlJbGxsZ6ensuXL580aZKsrCzYv8uOGvAlasAgqaysLIlEkpGRkZCQEBIS4uHhgZGoa0GKi49PQFZW1sDAYMWy5V6eR2NjY0tKSuhUWgeN/vHjx5CQkDVr1oBNFaDA4BxmbW0thUJJSUlxdnYGBVZQUNi1a1dBQQGZTA4LC5s0aRIOh1NWVj5z5gwwaP0tiNAHvnTh9bfhArxu0zsZWPAKDg4uKioagAwk/OXwBe7tcXFxEyZM4Obm/u6VWpjVj3uGaX4XFGzIYet3xxcWi/X69eslS5YQCARxcfGtW7fm5+e3tLSEhYUZGxsDay8zZswA67utra0JCQlr165VUlLCdjlVVVUHB4eQkJDCwkI6nd7e3v7hw4ebN2+6ubmZm5urqqoKCgpisVgw/AEm7yQlJZWUlLS0tCZPnjx9+vTZs2fPmzdv/vz58+bNMzc3NzU1NTQ01NLSUlJSkpSUFODj58LiwAAKi8UKCgqqqqqam5u7ue26cePWhw8f2tvbgT3g0NBQBwcHcGcmFotVVlZ2cXEBOwPr6uqCgoJmzpwJzhxMmzYtNDQUnJDasmWLuLg4gUBYsmTJ69evBwSXPtCkzz7fexJmQLa9UeVLSEFBgZiYmLq6ur6+Ph6PH+Dk86+OL3/99RcCgbC2tu4THYbw375P/j0C/fz8hm//S4+8fhxufnd8aWtru3DhgpqaGgaDMTQ0vHXrVmtra05OjqurK1h5UVVV3bt37/v372k0Wk5OzsGDB7W1tfF4PBqNBjYor169WlBQAMDl3bt3165dc3V1nTp1KriuBEADDocjEomjRo2aMGHC9OnTra2twRVr+/bt++eff44dO3b8+PFjx479888/+/bt2759++rVq62tradPn649foKc7ChhAX4+NIYXgej8cHORSKSpU6dt2LDx2rVr7969a29vp9PpBQUFV69etbW1lZGRQaPReDxeW1v74MGDOTk5NBrt/fv3e/fuBRPVEhISrq6uOTk5bW1t4eHhhoaGWCxWTU3twoULAxoh6RtfesMDE2LBhp6/D1kAbC1evNjQ0JDBYDCZzNWrV6uoqAxspegX1V/Cw8OFhISkpKTu3buXnPyje/N6dOAfefzxzs+eOzs34GcPYaf8Jv9vjS8sFqugoMDR0ZGPj09AQGDjxo35+flNTU1BQUFg4EAkEhcvXgzWkmpqagIDA83NzYWEhJBIJDh8dPr06bdv34J9t7m5uVevXnVxcdHX1wdmWcBhaD4+PhKJpK2tPWfOnNWrV7u7u/v4+AQGBt6+ffvhw4cpKSmPHz9+8uTJ48ePU1JSHj58ePv27cDAQB8fH3d399WrV1vMNpsybtx4ETF9Aq+ZrBwfAgEMzUycOHHNmjVXrlzJzX1LpXaaoXr79u3p06fBESQUCiUoKGhubn716tWamhoKhfLgwQNra2twD+SkSZOuXbvW3Nycn5+/adMmAQEBPj4+R0fH/Pz83ibfeyNIb0tAjfUNS6ys79y5s3jxYgMDg/3799fU1Li4uOjq6trZ2YF7tdj5XL58+VS38/b2PnXq1K1bt9gJaDQaHx/f1atXQeC7d+/QaPTz58/ZaXr4f0V8SUpKMjMzQ6FQhw4d6t2vYM1lSLpib/59hjg7Oz948KDPqF8w8PfFF3D1YmRkpK6uLgaDGT16dFBQEJlMzs3N3bhxo4SEBAaD0dTUPHr0aHFxcXt7e1pa2vr168GMDB6PnzBhwt9//52ent7a2grUh+Dg4LVr1+rp6YGdeEgkEhjKHT169IwZM5ycnA4cOHD58uX79+8/efLk7du3hYWFFRUVtbW19d2utra2oqKisLDwXc7bZ+mP46Pu3gg4f9rt7+0W81zG6+wcN2G9ppYEAoFFILhRKAkhIQNtbdc1a8KuXSv68KHTFlZLy/PHj9137pw4fjwfFxcOgVCRk9u0du3T1NSOtraKoqITR46M19DgRqFkxMS2btiQ//Zte3NzaGDgOHV1bhRq4vjx9yIiIBqt85AqkwkxGF884LH3N5u5n6qKSm4cF5FIPHTo0Pbt28Gtb8uWLTt37pyIiIi9vX0PLFi1atWcLjd37lzg2blzJ7uyU11djUQiExISQMK6ujosFnv37t0efNgfhxdfAj2P9bk+PTA0nDhxAoVCTZkyBXRdGFB+Yk8e1vmXH68XLE+we+j3xRcIgurq6vbu3SsmJobH4xctWpSVlQWGDEZGRmBEY21tDVZbysrKfH19DQ0NeXh40Gj0qFGj7O3tw8PDP3/+zGQyy8vLb9++vXnz5kmTJoENbwBcJCUldXR0rKys3Nzczp8/Hx0d/erVq6Kiorq6ura2NhqNxmQywQIW/A020bWTWyjV1c1vc7MuB56ab+k+dvzBMeP+Ga3pNmastoCAEArFi0AIIBByROJ0HZ3d69fH3bzZVFwMUamUyqqY0LD1dnYa0tL8CIQoFjdr4sRLJ040FBZBzS1PHjxwWLhQmodXCIU2nzTpQUgI1NSc/zxzxbx5IhiMHFHQ0+1vSmVlpyk1epfZsE7P//updIjWaXHpiy035heLYpWVlVxcXO7u7p1XS0AsrQnjzc3NQeffunWrnp4eOxD054fxhcVilZWVIZHI5ORkQFxfX8/NzR0ZGQnT9GYyvPhiZzIjPiKi6/z0QJ0IRpCkpKTo6GgFBQU+Pr6QkJCB0vyHcUlJSfLy8nfu3PkP8/yhrH5ffGGxWFlZWZaWllxcXFJSUgcOHKirqysrK9uzZw84uaOmpnb48OGioqL29vbExEQHBwdpaWkUCiUgIGBqaurt7Z2bm8tgMIAtO3d3dxMTE6D1IJFIbm5uEok0adKklStX/vPPPzdv3nz27FlhYWFTUxM7rDAYDPhYI41Go9PpDHBAlEYvffHq3DrXndo6B8doeqmOPqUy+qTq6ANjxtlpaExVkNeTkJogKj5RUnK6mqq9sekBp9XXjxxJDLz6KDgk5OixvStXLtTTNZAm6YhLzlRT22K1+PqRoylB1yO9vXfaLZ2pNlpHXNJs9Oj9To6x5y8+CLiww8ZmqoK8vpTM6tlzIr2900JDHoeEpYWEPQ4JSQsNSQ+98bjL/zikMxz4U0PDUsIj6A0NwGIhwJfo6OjOqRMI0p9k4ObmBiAA3BXVAw78/f09PT2PHj3q2e2uX7/OTtMbX7i4uNhvB2InBv7hxRfT0Zo6KiqRYWFgxy38N9uj9xw+fHjNmjUPHz5MTk52dHQE19H3oPm5jzdv3kzstDLx6zoYo5OTe52fZjt/1PsNGKKQoTkfQKfTQ0NDx4wZg8FgJk6cGBER0d7enpqaunDhQp4uN2fOnLt377a1tVVUVJw5c2bSpEnggjRVVVVXV9eEhISWlhYqlfrmzRsfHx9LS0uwjxaJRHJxcUlLSxsaGjo5OZ08efLevXs5OTngvBLQUzo6Otra2hoaGqqrq8vLy4uLi4uKioqLi8vLy6urqxsaGupKS05t2rpZf/LeseM9R2scVxt9Uln9pOpoDw3NrRMNnCZNdpyov1Jv4ipdPXtdPQe9iQ76Bi6GU9ZNM95kOn3j9BkbTUzXTJnqpG9gr6u3Sldv1UR9F8MpG0xMN0+fsd7YZPWkySCtg77BhmnGG6fPcDU2cTSYtEpXb6XexLVTprqaTt88fcbG6TPA95YZMzd3+cH3pq7YDTNmrp8zt/jFS4jZec0pO75AEGRgYLBv3z7Q3H///beOjk6Ppre0tNT9f7dmzRp23aStrQ2DwcCAUl5ejkKh0tPTe/BhfxxefEkNu7Vp1SoVObng4OABuub69esRCISSkpKbmxsPD4+KikpMTMwA9P99FDAl/9/n+305/r76S319/d69e4H1Jjs7uzdv3jQ3N1+4cEFLSwucY9y2bRvYBfv06VNgnAlskDUzMwO71xgMRkVFxa1bt1avXq2pqcnDw4NEImEr3w4ODj4+Pg8fPvzw4UNTU1NHRweY8Wlpaamqqvr48WN2dvazZ88ePXqU2OWSkpJSU1OfPXv25s2bsg/5HYXF1XEJ151X7x+vAwZHx9Q0jukZ3Nmzd5+NrdXYcTp8/PIIhCwCoYpAmskr7LOxTT1/oePtO6j2MyXrdZTXMUfDKZo4LlkEwkBI+KDdso/RD6Cq6rr0JyfXuBgICcsjEHOUlO8eOw4VFVenPtox31IVgRxP4Dm7aTNU8BGqb/jKp7EJaiZ3DpRY34Mv7LjQp5/BYOjr6zs6OoL55nPnzomKijY1NfVJDAKHF1+eRkZB7e27tm+XlJQc4FiNpaUlfAAHiUQeOHAA9Cv2/+Tv62lDlWrWrFlgJeuXWsxirx27bvg74gv4n8zLy1uyZAk3N7eEhMSBAwdqa2uLioq2b98ODivq6uqeP3++vr6+sbExKChoxowZwI63kpKSq6trUlJSa2srhUJ5+vTpwYMHjY2NRUREUF0OGPpetmzZ8ePHY2NjCwoKWlpawKinvb29urr6w4cPz549i4uLi4yMDAoKunjx4tmzZ/38jJvVXAAAIABJREFU/M6dO3fhwoWgoKDIyMjEh3Gvnzwtf/uOVlJSlZJ6dd263dp6B8eM85xinHkr/Iynp5ONjYGmpgQvLwGBICAQMkTi7ClTvPbuzUpLg8hkRlPT0/j47S4umvLyvAiECDf33GnTbl6+3P75c1tNTdC5c1PGj+dDIuVERPZs3lyZn99SWem5Z4+8qCgRg1m5eHFRTs6g7L0zmJ2XtnetRffQX/T19ffu3Qu6/a5du3rrLwPABBwVFRWFx+PXr1+/f/9+IpH4zz//wFF9eoYfXzo6IAbDw8NDRESk90450CsMDQ1hfEEgEEJCQlu3bo2Pj2fvM+x96b/3/+Lzuz0EAvDFb/eeewFd9qV+k/ERi8WKj483MDAAi0TBwcEUCuXx48cLFizg4eHh4+NbtGhRQkICMAq3b98+dXV1LBZLIBCMjIx8fHw+fvzIYDCqqqquX7++fPlyZWVlLi4uJBJJIBCUlZXnzZt38ODBqKio9+/fNzc3M7scsN376tWruLi40NDQs2fPenp6uru779ixY8uWLZs2bdqyZcuOHTvc3d09PT3Pnj0bGhoa/zDuzcsXn4uKoNralsdPQlzW7ptjUZSVdedu1MGDBy0tLZWVlQkEAhiRKSkpLV++/Pr165WVlR0dHR8/fjx9+vS0adN4eHgwGIyamtrevXuBqb3ExMRFixaBi64XLFjw+PFjCoVy/fp1cBzJwMAgPj6+9yo12DXHPoRh7+TNzc1bt2599+4dCDx16hSYiwH3rx87doydePD+uLg4Jycna2vrq1ev9i5SDz7/Cb50vd++vr6CgoJ79uzpPZGho6ODQCCQSHYrS4jZs2f36DY/8VFXVzcqKuonFuCbsn6UkNBtH/N3whcqlXrx4kUFBQUsFmtmZgYuBgoJCdHT08NgMFJSUtu2bcvLy6NSqcnJyStWrBATE0OhUBISEsuXL7937x6wtvv69etDhw4ZGRkJCQmBrS7i4uJTp07dsmVLcHDw69evwUFHFovV0tJSXFz87Nmz27dvBwQEHD58eNu2bc7OznZ2dosWLZrf7RYtWmRnZ+fs7Lxt2zYPD4+AgIA7kbdfZDyt/FjAqKuDKJTa3PfNnz+/efPm+vXrW7dunTp1KphRRqFQQkJCRkZGhw4devXqFZVKbWpqunfv3ooVK6SkpFAolKio6PLly5OTk6lUal5e3vbt26WkpDAYjJ6e3vXr12k0WlpampmZGRaLVVBQuHjxYn/XJPXYm9sf3PTo+QM8/jgHmPl/hy8QBD148EBGRsbCwuL+/fvw2CchIUFFRYVdf+Hm5raysrp79+6vo788fPgQLvA3dfWfQpyWmPj8QcxBl7W/i/4CXuiGhgZ3d3dgpt/R0bGgoKCpqeno0aPy8vJoNHrs2LE+Pj61tbVNTU3BwcEmJibAwvaYMWP27Nnz6tUrOp3e0NBw//59JycnVVVVoLzw8PBoaGjY2dn5+Pg8evQI6BEsFqutra24uDgjIyM8PNzb2/vvv/92dnZevHixmZnZ1KlT9fX19fT0tLW1dXR09PX1p06damZmtnjxYmdn57///tvb2zs8PDwjI6O4sIjaSoaYDAa9o6qq6tGjRz4+PnZ2dhoaGmDeh4uLS1VV1dHR8f79+w0NDXQ6/dWrV3v27NHU1ATXYJuYmAQFBTU1NdXW1vr4+GhqaqLRaHl5eU9Pz6amJmCegpeXV1hY2N3dvb8b/nrgC9y3e3iGEDV6cAaPffL/T/EFgqDS0tLZs2crKiqeP38e9L2YmBgBAQGAL0gkUktLq/cw6qf0UvZMHzx48KvhS3/gm5SUdD8yconpdINRcr8LvoAXtKyszMHBgUAgiImJ7d27t7a2tqysbOPGjcCGtrGxcXh4eFtbW0lJyZEjR0AX5ePjA7ZES0tLGQzGp0+f/P39Z8+eDVQbNBotISEBrOFGRER8+PABmLal0WgVFRWZmZkRERHe3t7btv21bNmK2bNnT548WUtLS01NTUlJSU5ObtSoUXJyckpKSurq6lpaWoaGhrNnz162bNn27du9vb0jIiIyMzMryyvoVBoEQW1tbR8+fIiMjNy5c6exsbGEhAQ4eC0mJjZ79mx/f38wfCstLfX39zcxMQEzR5qamkeOHCkpKWlra4uIiDAxMQG2x11dXcvKyj5//rx37x4xMRE8Hu/g4FBSUgJWmuGd/n32856BXwZRXyZlesb289wnWPRDO1Dwf40vEATRaLSjR4+KiIhs3rw5ISEhOjoa3GAtLCz8119/wUelQff+RXr12LFjf5fxkZ+fn5qCwjKz2ZcOefxG+ALONJqbmwMbkf7+/mQyOTs728rKCky+2NjYgHsOX79+7erqKiMjg0KhxMTEbG1t7969C4z1Z2Rk7Nu3T1tbm5eXF1gyVlVVtbW1PX369JMnTz5//sxisZhMZl1dXXZ29r17906fPr1jxw5bWzsTk+na2tqqqqqysrJ93t8oKyurqqqqra1tampqY2Pz119/+fj43Lt3Lzs7u66uDmzJ+/z585MnT3x9fW1tbdXU1PB4PBKJ5OHh0dbWdnd3z8jIaG9vB5Y9bW1tAQLKyMi4urpmZWXRaLTHjx/b2Njw8/Pz8PAsXrw4Ozu7tbXV3/+sklLngHHOnDlZWVmg23cixr/HiQbq3p1x34UvX2M62PifgC+gaKmpqSoqKsbGxkFBQVgsdu7cuZGRkf39J7OrEj/FTyKRIiMjf0rWg880Pj5+/fr1YmJip44ehcitMZcu/174kpiYaGBggEajx48fHxERQaVSU1NTTU1NcTicuLj4hg0b3r59S6VSExMTbW1tgREpeXn5jRs3pqeng9mN6OhoFxcXcJAaiUQSicSJEydu2rQpLCwsLy8PKC8UCqWwsDA5OfnSpUt79uxdsWKl6Yzp47UngLPRgoKCfHx8PHgCnoubm5ubi4uLQCDw8fEJCQmBM9bgMKS9vf2ePXsuXbqUnJxcWFgIc87LywsLC9u0aZOBgQGRSARL40pKSi4uLtHR0WCGKD09fePGjXJycuA4ko2NTWJiIpVKfffu3YYNG8TExHA4nImJSWpqKpVKjYiImDBhAgaFnqRvkJSQCMMKAI2Be/lgaGAOMGc4ZEg8Pw1fIAiqqamxsbERERFxdHQcfC/6KZRgzuinZD3ITMPDw6dOnaqhofHkyZPOIyo0+u+FLwwGIyIiAuysMzIySkxMpNFoUVFROjo6GAxm1KhRe/fuBXcGRUREmJmZ8fDwALt2Bw4cADcfVlRUBAcHA+u2YGZXSkpq1qxZBw8ejIuLq6ioAKd+6+vrX79+HRkZ6eXltXbteguL+Tp6uorKSuLi4kQiERh5wWGwOAww9tD5zcXFxcPDIygoKCEhoaSkpKura2FhsXbtWi8vr4iIiNevX9fX1zOZTLD1Ji4u7uDBg7NmzZKUlARDJAkJCWtr6+Dg4MrKSnAL5YEDB8aOHYvFYnl4eMzMzMLDw8lkcklJyb59+0aNGoXBYLS1tcFdzImJiUZGRlg0ZsxojcjwiM6bOTo/DLACPTAEfBO+sLMCGw7ZQ/rzfxWVfia+QBDU0dHh6+srKirq5OQE9u8OsjuNcDL2YWNSUtKxY8dIJNKyZcu+3M71G+ILjUa7evUqWDyaO3fu8+fPKRRKUFDQ6NGj0Wi0mpraiRMnampqGhsbL1++PHnyZC6uTgXDwMDA29u7qKiIyWQWFBScOXPGzMxMUFAQHDVSUlKysrLy8fF5+vRpQ0MD2EpXVlb26NGjy5cv79q1y9bWdurUqerq6tLS0kQikUAg4HA4cLUj2DgDcAqD6QQbYB9TWlpaXV3dyMjI1tZ2165dly9fTktLKysro9PpEAQ1NDRkZGScPn168eLF4CZsJBIpKChoZmZ25syZgoICBoNRVFTk7e1tYGAA9KPJkydfvny5oaHh8+fPJ0+eVFNTQ6PR6urqQYHX2tsomZmZFhYWYAnp6uUrEJUGUems6trOs0jf6L6KBYPhRyaTP3Q7cGnUwKl+Mr6AOmdmZurr66uoqHh6esKr17/UWCk0NBQuGHvf/ukwFxQUZGJiQiKRLly48O+lOb8hvlAoFF9fX2lpaW5ubhsbm5ycHDKZfO7cOQUFBQwGo6Wldf78+cbGxpqaGh8fnwkTJoCdL6amppcuXQKrQjk5OUeOHJkyZQqYfCEQCKNHj3ZwcLh8+XJ2djawotLW1lZQUBATE3P69OmNGzdaWFjo6urKy8uLiIjw8PAA47vAOgy8oAkbuMPhcDw8PCIiIvLy8np6evPmzXN1dT19+nRsbGx+fj7MPzs7+/Llyw4ODsA4JgKB4OXlnTJlypEjR7Kzszs6OiorKy9dujR9+nSggk2YMMHHx6e6urqxsfH8+fNgp7K8vPw5v7OtLeScnBzbJTb8WJyyuHjgiZOswqI0v3NbZs2GmpoHo8IM3PkHiO0PjPz8/P7V67BYOzs7YBemP1bDiy9PIu50bjrsOpDaXwlAOIVCOX/+/KhRowCc//R+26MAioqKv9r5xqioqBUrVoiKiq5fv76nLQ8mE6LSfq/xUXNzs5eXl7i4OB6PX7lyJbD5cuLECXAJycSJE4OCgsB2OE9PTw0NDTQazc/PP2fOnJCQkPr6ejqdnpmZuXfvXj09PTwej0Ag+Pj4JkyYsH79+tDQ0Pz8fBqtc5Wnubn57du3t2/f9vT0dHJymjFjxtixY4EBeXBxPQqFQSLRMLjAy5ooFAqDwXBzcwsICMjIyGhqagLzDv/8809kZGROTg4wZEmj0fLz80NDQ9evXz9hwgQ+Pj4kEonH4/X09Nzd3TMzMzs6Ourr60NDQ+fOncvPz49Go8GlTmVlZWQyOTg4WF9fH4PByMjInDhxorGxseBD/poV9lIYnC6/wPH/tXcl8FBtf1zGLLZh7PtS9n1PIsreZqmkkhZElLK2KJEthZIWWiyJZI0o+3jaEP2zFYVKr5R9mxn7/D/jvObNQ1KPojf3Mx/OPfecc8/53Xu+93d+57eYbPBfsfKEtKyrghK+o3sCvnxtNfS1/Onn49euWlhYrF279gsHU//NOE1ziy8E+4BxfPladyfkt7a2uru7s7Gxbdq0aV7JU4ny3aKiol/Ov+Tk5Li5uXFycq5bt+7Zs2cTaEg4Hedf7l27voDku11dXT4+PiwsLHR0dHv27Glqauro6AgICODg4IDBYOrq6rdv38ZgMG/evDl58qSoqChYd5iYmKSkpAC56ePHjw8fPiwvLw80XxgYGFRVVZ2cnFJTU5uamoCbtY6OjmfPniUkJHh7e2/fvn3lypXi4uLs7Oz09PQwGHB5SQCXReM/UpRZtGgRBAKBQqF0dHTs7OxgiWRpaent7X3r1q1nz551dHSA9f6bN29SU1OdnZ1VVVUZGBiAIq+srOyhQ4ceP348MDDQ1dWVkpJiamoKRNSioqLe3t5v3rzBYDCJiYnAcx0XB+cZP7/+T5/a6+qPWWxfzcPnKCPrLSUbKC4JLLbxLa14glsGkh/w20BQl//LP0NJSUlwcHBhEdrOfq+jo2NFRUVTU9PRo0ctLS1v3749QfW2u7s7Jycn+58H2BEnvmCjo6MKCgpeXl7EnG8m5he+gO7W1tZu3LiRg4Pj4MGD2dnZkxdKX5vhX8ufwIz8wOnevXt/rcklcWjBwcESEhIyMjIZGRl/L4gmPOcFuD7q6Ojw8vJiZmamp6ffu3fv27dv29rafH19Ab6AkGNYLLaxsfHEiRNCQkJAO3bjxo1paWnd3d1YLPbBgweurq4yMjIwGAxsHqmpqbm5uaWnp7979w4YBLS1tT19+jQ+Pt7T03Pr1q3q6itERcXZ2NjA4ggCgRBWQxQUVBQEHoZUnRzgC1gisbGxiYmJqaurb9myxdPTEwSEBE5nRkZG3r17l5GR4ebmpqamRpQEycjIuLi4PHjwAIPB9PT0AJ9yQMNYSEjI09OzsbERi8WCYHIwGIyblfW854m+//0v39fPU2WZp5SMn6T0GTECuJwVkTglLl3i5fP41JlHgYHjvzOPAgnp4qCg57Hx+H4sAWLw+IiICAQCISQkdODAAXFxcV5eXklJyc2bN5uYmECh0OLiYtK3prKyUlJSUnz8kJCQEBcXB869SMtgsVg4HL569WoxMTEQuembEVTmI77g8fiRkZHc3FwVFRVhYWF/f3+i7GNKaAAANBmGpiz8Y5nE6f1j1X+sFumIioqKYmNjV6xYwc3NHRoa2t/fT/rgJ6Z/O3zR1NRMTk4G+OLp6TkBX3p6erBYbHFxsbOzMxFfUCgUwJeMjIx3796BzSOALzdv3vT09DQ3Nwf4wsrKSoovEAoKVjicFQpFEIDmL5QB4l6wkcTKyioqKqqurm5ubg5CWZeXl88EX4qLi7FYLMAXMzMzwL+Q4ktKSgpwo8XLwupkse2Arp67guJJqXFkERY/K0IAl7MiEoHikp4y8oflFA/LyY//FMfTii6KSvaqyx/E3iTiCxUVFXDB/fz5cwoKioCAADwej8Vi+fj4goODSV+bsTGCs70Jx4QP2P/+9z8KCgoDA4OYmBg/Pz8GBgZbW1vSRian5ym+AKERFosNDw8XEBBQUlIKCAiY4GF7cqTHH5vGM6kVGBhI3N4infYzqfu9ZUixDNzr+vXrJiYmKBRq3759nz59In2KU8vhFiC+dHZ2njx5EqyPbG1tgUM5f39/Tk5OKBSqrq6emJgI1kfe3t4iIiJAecTU1DQ1NbW7uxuHwz169Mjd3V1OTg6sj5BI5LJly1xcXNLS0sAG09jYWHt7e0VFxa1bt7y8vCwsLDQ1NcXExNjY2Ojo6IixRxAUFCt4eC2VVIThcOQ4xADjOAgEAoPBwPpITExMU1PTwsLCy8vr1q1bFRUV7e3tY2NjYHsoLS3NxcWFqAIDh8Pl5OTc3d0fPXqEw+G6u7tTU1M3bNgA8EVERMTLy+vt27cYDCYpKUlDQwMOh/NwsJ8+dizr8uWTq9d4yMoHSEoBzgXgi7+E9Nk1awNMTAJMTE6Zmp4y3hBgZBxgZOxjYuq/2xr37j3w/xIRcZmd/S//CU1NTTAYrKSkBLw8wsLCp06dIn2Rurq6MjIy0v95NDU1kZbB4XCvXr0Cyj54PP7kyZMoFAosDEmLkabnL74Qe9nW1nb69GkxMbHFixcfOHAAyFmJk5B0thMzv3dKf7M8Hx/f3Ml3i8aPyX3Izc319fVVUlJiZ2e3tbWtrq4GNCFiCjFBpNVfiQWILz09PadOnWJjY6Ohodm1a9fr16+7urqCgoK4ubmhUKiqqmpcXFxfX19zc7O/vz/YtGZgYFi3bl1CQkJHR8fg4GBZWdmxY8eUlJQQCMSiRYvo6emVlJT2799/+/ZtEEsAj8d3d3dXVVWlpKT4+fnt3r1bR0dHSkqKi4uLgYEBDodTUVFRUlIiKCh4KSg2iIpZKCiKwaD04xADWUQJFGGQSCQXF5eUlJS2tvbu3bv9/f1TUlKqqqqAG5ShIULko9u3b+/fv19JSQnIdxEIhJKS0rFjx0pLSwcHBzs7OxMSEtatW8fAwACBQCQkJPz9/Zubm/v7++Pj45ctWwaFQnm4uM8GBg5//tz5pMRr9WonSWmwRAoUJ/i18paUwr95h+/owHeO/zq68B1d+M5OfGcXYXE0PIwfIwh/IyIi2NlZe3t78Xg8wBfiKwTwhfT9efbsGQ8PD9f4wcnJCRLXr18n3R4aHBzs6uoivmxpaWkIBOLFixekZYhXQWLe4QtxzMQE6CgGg0lNTdXR0WFhYdmwYQNQnfxp3lh4eXnnDl8mI0taWpqDgwMvL6+4uPiZM2cm8CwTHuEUpwsQX/r7+0NDQ7m4uBAIxNatW2tqakCINQEBASoqKgUFhWvXrnV3d3/8+PHs2bNycnIQCISOjk5XVzcqKurTp09DQ0OVlZV+fn7Lly+npaWloKCgpaWVlpa2traOiYmpqakBX93+/v5Xr15lZmaePXvWwcFhzZo1ioqK/Pz8zMzMNDQIKJSg+0JFQUFNQcFOQbFZRNxKXkEMBmWgoIAvWgSFw0AwSX5+fhB4wMHBATg9qK+vBytWLBZbW1sbHR1tY2MDvFuBnixfvtzf3//58+fDw8OfPn2KiooCkY/A1ntwcHBLS0t3d3dkZCRBW5eKSlBQ8ML5sP7ursbKyr2bzAQhkNV8/O5fXOd5ysjiW9sJODIyRPgND//1G/ki3B23UAoPD2djY5uAL2BaCQkJEfkXkDM6Oto7fvT19YFEb28vUOohvmDx8fEcHBx/6Vjh8ceOHePk5MThcMQCkxPzDl8md5E0Z2Rk5NmzZ3v27GFlZVVWVvb39ycumuaOeUGj0adOnfoJ66PCwsJr164ZGxszMjIaGhqmp6dP//BIKfOP9ALEF+CcQUBAAAaDGRkZlZeXYzCY6OhooG8mISFx7ty5tra2jo6Oq1evLlu2DA6HU1NTL1++PCwsDIhX6uvrQ0NDdXV1gWI+HA4XFhY2Nze/ePFiWVkZ4C9A+OeioqKrV68eOnTIzMxMXV0dxJ9mYKBHIGBQgDGLKGkpKATHIWaHopIEAs5IQUEHgzEiGTg5OUVFRTU0NMzMzA4dOnT16tWioiIQABvsf5eVlV28eHHLli1CQkJgpcbIyKirq3vu3Ln6+nogAL5w4YK6ujo1NTUcDldVVQVOs9ra2kJDQwFrJioqGhkd1Y/FVFRUGButo6GikubmTj8d/DziWpCewUElFXwncX+aIMqd8hjnX9gn4AsoKSwsDGQxU1YkZk74xn/69AnYi6akpAQHB9PT04eEhBALT5lYYPhCHMOnT58CAwOBQZqDg8P0/jcnMwjfm0O6CvveutOUJ2Jienr6iRMnlJSUWFlZ7e3ta2pqJmwfEgc+o8QCxJeRkZHExERxcXEqKiptbe2ioqKBgYHk5GR5eXngsuDkyZNASeT27du6urpA11ZeXt7Pz+/ly5cjIyN//vlndHT0xo0bgekg0CJZvXq1v79/YWFhS0sL2EJqbW2tqKi4ffu2v7+/jY2NoaGhgoLC4sWL2djYkEgkNTU1DEZAGTiEEklYKFGaiUnsVlCQoaPlhiO4WFgWL16soKBgaGhoY2Pj7++fkJBQUVHR2toKGm9paSksLPT391+zZg3Q3AFGmKamptHR0e/fvx8ZGXn58qWfn5+8vDwMRmCIdHV1ExIS+vr63r9/7+PjA5xRyMvLJycnDwwMFBUVamuvhEEh0qKiGfEJeCwO395ZFH8Lj8FO0H+Z/GJkZWWZmZmBT1RLS4uhoSGI6IrH43fu3JmQkDC5yjdzqqurN2/eLC0tra2tHRUV9Zfn869XW6j4ApZ8AwMDaWlp69atY2ZmFhISsrCwuHDhApGjmWZif++l/fv3E/enZxFrQFxBsFBXVVU9e/bs16RlE74kX3+g41cWIL4A53UqKioQCERZWRlY3xQWFhKsb6BQDg4OJycn4FwqJydn48aNQHghJCTk4uJSWlo6MDDQ2dmZnp5uZWUlKCgIJClMTEzLly93cXFJTk5uaGgA/pn6+/tfv36dl5cXHh5+6NChrVu3amlpycjICAoKsrGxARMkwFkgYHAGCEQUAjGXkNqppLyMnU2Gh0dBSmqlptbWrVsPHToUHh6en5//+vVrsDgaGBhoaGhITk52dXVdvnw52H6moqISEBCwsrK6c+cO0AMsLS11cXEREhKCQCAMDAwbN27MycnB4XAvX750cnICnkA1NTWBp7709DRlZUVAk5ycPPzo2HgUpHENl+9z0/CNV+abl0nfwKGhIdLTaerOPb4MDREoMpfH2NhYd3d3enq6ra3t4sWLgbmHt7c30WPuDNFkGuAg+secpgy4NE0BEEQhLy/v7Nmz5ubmQC3d1NT0ypUrf/755zc/Bd9BwoWJL0+fPtXX16eiohIREbl+/ToGM746MDampqZmYGDYvn17SUnJ4OBgeXm5nZ0dJycncF5naWl57969vr4+HA738OHDw4cPy8rKAvdOwLnUjh07wsPDy8rKgAnSyMjI58+fKyoqAJPv6Oi4YcMGTU1NWVnpJUsEubm5WVlZUSgUw/jBhKTnpKeXRDJul5Ldo6S8TlJireqyzSYmBw4cCA4OTklJKS8v//z5M3h2nZ2dT58+DQ8P37FjB9HFFDU1tays7OHDhx88eIDFYvv6+u7fv29paQmsHzk5OW1tbZ8+fTo4OFhaWrp9+3YGBgZqampjY+OKigoMBhMVFQUCyOrp6ZWXlxNmNVDI/bng8h3v3j+Lzj2+fI/+7j/79iNng4ODFRUVXl5eIP422EG4fv36zJmaKQGCj48vLS0N4BRpAdI0uEpc8pCCWmFhYUJCwvHjx3V0dFAolJCQkL29PZgVM/wOzJwWhAYXIL7g8fjGxkYLCwsEAsHJyenn59fR0fHmzRtbW1sUCoVAIPT19TMzM3E4XGNjo7e3N4hOjUQiDQwMoqKigAlSXV1daGiotrY2MzPzokWLQMgBfX19T0/PzMzMpqYmwMJgsdi3b98+evQoPj7+1KlT+/bt27Rpk7b2SmVlRUlJSSEhIX5+fh4eHm5ubh4eHgE+fhkBAQPBxdaKKtaqy/bq6x2xtQ3y978VF//w4cO3b98CyfHg4OCbN28yMzOPHz+ur68PFkeLFi1iYWHR1tYODQ2tq6sDxkfR0dEGBgbAOEBMTMzLy6uhoQGHw929e1dfXx+BQDAyMu7Zs+fNmzednZ1+fn5A5r1t27bGxsaZvwbzpOTvgy8TJuro6OjHjx+vXbu2fv16dnZ2GAwmJiamp6e3b9++gICA5OTkCUAw4RTwGkSMuHnz5uQCxKuTN5iB7yJXV9f169fLy8vT0dExMDCsWLHC39+/urp6+pDgs/BmLEx8aW9vP3z4MCMjIxKJtLe3ByYCJ0+e5OXlpaKikpeXDw8Pb29v7+jouH79uoaGBgKBgME9XhdwAAAgAElEQVRg8vLyPj4+gKqtra0pKSnbt28HdtiLFi1CIpFycnK7du0KDw8vKSkBghLgfLehoaG4uDguLi4wMNDZ2dnS0nL9+vUrV2qqqhI8Y8rJycnIyMjKyioqKqqrLl2jobFLR89RQ2uf2vLQA453o6IfFxU1NDT09vYCn1VtbW0lJSXh4eG7d++Wk5NDIpHA+cvixYstLCxSUlJaW1uHh4erq6t9fHyAfSY1NbW6uvq1a9dAKNrw8HCwecTLy+vt7Q3g1d7eHolEMjIyuru7EzduZuEN+VlNLHh8AbAyAVwmUG9oaKilpQXsSm7btk1FRYWGhgaJRCooKBgZGbm5uZ09e/b69euJiYn37t2bOadTUFBw//79pKSkmJiYy5cvHzt2zMLCQk1NDcRRFxcXNzIyOnny5O3bt8Hif/pOTujzvzpdmPiCxWIvXrzIz88Pg8HWr19fWlqKw+GioqKAiJefn9/Dw6OxsRGHw+Xk5JiZmTExMUEgED4+Phsbm9zcXLBEKi0tPXr0qKqqKnGG8/Dw6OrqHjlyJDk5+cWLF319fUARrqur69WrVw8fPrx16xYIXO/g4GBpabFxo+natWsNDAz09fUNDAzWrl27YcOGHdst3WxtL+x3PGq41lFrFfr6tZba2t729tHhkbGxsf7+/hcvXiQnJx89elRHR4eHhwcKhS5atAjYQHl4eADndX19fbm5uTY2Nnx8fBAIhImJyczMLDs7GzBlHh4e/Pz8EAhETk4uMjISh8OVlpYaGRnBYDA+Pr4LFy4QFdv+1bvxcysveHz5AXKNjY0NDQ3V19cnJCR4eXkZGxsrKSnx8fFRU1MDNXAqKio2NrbFixdLS0svW7ZMU1Nz6dKlK1euVFNTU1BQEBMT4+DgQCAQxMJ8fHyysrK6urqOjo6RkZFlZWX9/f3fdNIzh3Azji8Ly75x3CpzNDMzU1GRIM5UVFRMTk4GQWBXr14NDJe3bdsGXGTW1NS4u7svWbIEAoHQ09Pr6elduXIF7FK/e/fu+vXrmzZt4ufnB5Ocjo4O2N2cOXMmJycHWPoQIaaxsfHJkycZGRmRkZHBwcFeXl5ubm77HPfb7rXbs2ePnZ2do6Ojm5ubl5dXaHDQ7atX0TduBphtcVm5qrnoD8JuzsgIFot98+ZNTk7OmTNnzM3NJSUl6ejoFi2CQKFwfn7+TZs2Xb9+/e3btyMjI83NzVeuXNHX1weLoyVLlri7u1dXVwPnmNu2bWNgYEAgEKtXry4oKMDhcCkpKcC9loKCwt27d8GW4hy+Nj8wl75VZW7xZYee4XYjI3NT041fjk2bNn1J/oz/GzZsmPI2IH/yVVNT09WrVy9btkxSUpKHhwcC+dtUnxg+hZWVVVhYWEVFxcDAwMjIiLT9yQ2SXgXpmZSZXOu7csxNTXevN9qhq7eA7KcBvlRVVRkbG8NgMF5e3sDAwM7Ozvr6ent7exYWFmBFHRsb29PT09raevXqVQ0NDRBCQEJCwt3d/fHjxzgcDoPBFBUVHTlyhKieD4FAWFhYVFVVbWxsLly4ANRVsFgsWNeAjeGqqqri4uL09PS4uLiIiIjQsPPBZ0OCgoJCQkLOnz9/5cqVuLi4jIyM4qI/Gp496694FrrTyllHr7O8At/d29L05sEfxRcvXrSxsVFVVWVlZR23k4QwMjItW7bsyJEjaDS6v78fh8M9efLE3d1dUlISeKtSV1e/evVqa2trT0/PzZs31dXVYTAYCwuLg4NDXV1dZ2fn6dOneXl5YTCYsbFxZWXlwkIWgDxziy8eu22CPD39vbxOjh/e3t4gMUd/v9m+j4/P9LcmtjChpKSk5JEjR6asS6xCTExZbCaZ/6YF0rr+Xl7njh0/tN1yoeALceZ8/vzZzc0NOMG1srIC0yw0NBRo2QkKCh4/fvz169cDAwOFhYU7d+7k4OCgpKRkYWExNja+ceMGcILZ1NQUExNjYWEhIiICbAVgMBgPD4+Wltb+/fuvXr1aXFwM7H0Ajzk4ONjR0fH2bVNtbXVZWVlRUVF2bk7mvay7WZmZ97JycnKKiorKyspqa2vfvXvT3d6G7+/Hf24L223jpq1Tl3mvMq8gJvzq/v0HVq5cycvLC3TqEAiEiIiIhYVFTExMU1MTcJ1548YNY2NjEFWSg4Nj586dhYWFOByuoaHh+PHjQPNFXFw8NDS0s7Ozrq7O2tqanp4ehUK5urp+/vz5W7zCfLw+t/gSHXC6NC/vwVxGhp8sdp2cM+Uuz+RMorx2cmJ6A+7J5UlzZnIj0j7PpDxp+yBNWmshxocFk2NgYOD69esiIiJQKFRTU/PevXtA2mJoaEhNTY1EIjdu3JiXl4fD4ZqamgIDAxUUFODjh4yMzOHDhx8/fozFYjEYTFlZWUBAgL6+PohYBqI4CgoK6urqHjhwICIiorCwEJg4gRDUo6OjAwPYnp6uT58+NTc3NzQ11r2qf1lfV/eqvrGxsbm5+dOnT+MhCrCjo8MEJRQcDl//6vQWC0etVTHHTxzb62CorbtYQBBEbqSiouLk5NTT0/P39y8tLcVgMFgs9tGjR4cPH5aRkYHD4TAYTEFBITAwsKmpCYfD5eXlbdq0CYlEIhAIAwMDIJG5f/8+0P0RFhaOjIz8WnC1+QgqJH362fhCOpEmT5Jv5vyqOPP5+fmgbz/TaPub1PhagYWLL2NjY48fP9bT04NCoQICAkFBQT09Pa9fv3ZycuLk5ATWOufOnfv48WNfX19WVpa5uTk7OztgYdatW3f16tWmpqbR0dHPnz9nZGQ4OzsvW7aMmZkZSMpoaWmXLFmio6Pj4OAQGhqalZX1vKryQ8tHDAYDAoyMC2XGBgeHcThc/5cDh8MMDuKAhguQ2mAwmM8f/nxdUVEcd+uQnuE+NY3ty5bL8/IxEAKSUFBSUjIzM6uqqjo7O9+9e/fz58+jo6NNTU3Xrl1bt24dYF5YWVnNzc0zMzP7+/s/fvwYGhoqLy9PVCMk2nYKCgpCoVA9Pb1Hjx59U5xHMqnnUXJu8SXKP5DIv0yDLF+7NGU+6Yf6axNs1vN1dXW/V1tv1vsw8wYXLr7g8fiPHz86OzujUCg6Orrt27e/fPmyt7c3OjpaRUUFCoWysLDs3Lnz4cOHAwMDr1+/DggIACwMFAoVFRV1cHC4f/9+T08PCPZ88+ZNGxsbOTk5RkZGIsQICAisWLFi165dvr6+N+Pj0H8U1dXVtbS09PX1DQ4OjoxMVlwbHfe7MDI4ONjX19fS0lJXV1dUVHQrLj7Ey+voho0EvRgVVTkkIUggbBEFI5JBTk7O2tr65s2bDQ0Nw8PDPT099+/fd3BwEBUVBUbYioqK/v7+YFfx0aNHu3fvZmVlhUKhKioq0dHRvb29L1++tLS0pKOjQ6FQzs7O33RDOY8Q5Z9dmVt8mXJ9NCVqzHzy/BJ8kZKSIurXzbyrv6rkgsaXgYGBmzdvgkAlSkpKqampQJF39+7dTExMMBhMRUXl4sWLLS0t/f392dnZO3bs4ObmpqSkpKOjU1dX9/Pze/78+cDAAA6Hq6qqCg8Pt7S0lJaWZmBgoKSkBEHXuLi4FBUVTUxMnJycQkJCkm4n/oEuqqysbGxs/PjxY0dHR09PT19fT39/f19fX09PT0dHx8ePfzY2vq6srCwqKkpMTAwJCXE+6LTJyEhDVlaOmdVcVMJaQVEcjuClppGTkLCwsAgPD6+srMThcAMDA5WVlf7+/hoaGvT09JSUlFxcXDt27MjJyenv729pabl48aKKigoMBmNiYtq1axdQ201LSwO6MNLS0rGxsQt0cYTH438BvoBZ9wMoMwFZfqCFH57wxsbGmZmZP1z9J1dciPhCFPGOjY1VVVVt3ryZmpqahYXFw8Ojubm5o6Pj0qVL8vLyQHVg165df/zxBw6He/fu3YULFzQ1Neno6IC5gLGxcVRUVGNj48jISF9f39OnT8PCwrZt2yYjI4NCoYAHTCgUysTEJCwsrKGhsXnzZjcX1zOBpyMjI1NTU/Py8h49evT0aemzZ+WVlZX/+9//ysvLHz16lJeXk5qaHBkZefr0aRcXl82bN69Q1xAREmZGMTEsWiRAQWEuKrFbScVQVMx206bLoaEVT8v7+vpAyNqoqCgTExMgiqajo9PU1AQ23yCA3K5du9jY2MDS79KlS+3t7c3NzceOHWNlZaWmpjYzMyPdOSJS6Z9cwvw9+0n4MgEaJkMMaQHS9E+emdPcbn72asoOL0R8IZ0i3d3dISEhwFeDvr5+dnY2FostLS3duXMnMzMzFAqVl5cPCgp6+/bt4OBgSUmJq6uruLg4sHsWEhLas2dPSkoKMOnq6ekpLS29cOHCjh07FBUVWVlZgXdeCARCQ0PDzs4OnC2YmJjYWFm7ubj6+PgEBQVduHAhIiLi6tWrERERFy9eDA4O9vHxcXNzs7KxNjY1UVdXFxMTY2dnp6GhAf5iGCkppVGMNkpL7VWXhbu7vXzwENPVBUy6U1JS9uzZA0JKAiVyFxeXkpKSgYGBt2/fBgUFAckLExPTzp07gRpedna2gYEBDAYTEBAIDg4GniVI6bOA0j8JX6acBlNmTuBKioqKSPduJlydsoW5yMzIyPhVt/6B4SxEfCH9Mo+Ojj548GDNmjVwOJyXl9fLy+v9+/cdHR1XrlxRVlaGwWAoFMrU1DQ9Pb23t7erqystLW3btm1AX4mamlpeXt7JySkzM7OlpWVkZKS3t7eiouLatWt79+7V0NDg4+OjpaUFjAxAGVZWVkFBQTkZWXV1dX19fVNTU3NzcwsLi+3bt1tYWJibm5uYmBgYGKirq8vIyQosFgScBbEFWlpaPj4e/WXLfLdbnlhvcmCldnMRGo/Ftn34kHU308nJSV5enpqaGgKB8PDwbN26NS0traurq7e3Nz09HXjJhMFgSkpKERERHR0d79+/9/Ly4ufnB560Hz58SOoEl5RKCwJlfga+PCwsdHJy0iE5jIyMHBwcpl9xFBYWhoWFqaioiIuLA/cuv5CDUFJS+pn+634AU0irLER8mTBbQPAAXl5eBAKhp6eXlZWFwWCeP3/u4ODAxcUFgUCWLFni4uJSXl4+MDDw7t27iIgIAwMDsFWERCJVVFTc3d3v3bsHIAaDwdTW1t6+ffvw4cNGRkbS0tJsbGwIBIKIEcCxLjMzMzc3N7+ggLCwsKioKPCSLywsLCgoyMXFxczMTOqmFwKBUFNTs7GxSUtLGxkZHTt86G5c3LuHj8N227jr6L7OyX54J/2oqyuwVADRDgwMDMLDw9+9ezcwMFBRUeHq6gqix3Fxce3bt+/58+cYDCYrK0tfX5+ampqXl9fPz6+trW0CZRbW6c/AlwcFBXp6ejw8PPZfDj09PSQSKSkpSdz3JZ0eIF1YWCgmJqaoqHjy5Ml79+5NLvATcog8C1m++63XehQ/OtpXW3tYTvHqps14HCFY6o8d4BM9MjJSXFy8du1aOBzOzc3t7u7++vXr3t7epKQkfX19WlpaBAKhqqoKgsMODAzU1NScOnVKQ0MDyHEZGRmBc++MjIzm5uahoSGwHsnLyzt37pytra22tra4OCEyCQ0NDXAWs2jRIkI0WCgVlKCeAiNEt/9yQKFQUIaCgrD9TEVFRUNDA6KUaGtr29rang09l5eX9/btW4Lq3fs/g7ZZOmqt8t29S09JiZmeHrKIkoGBAYRwBNYApCFiaWlp9fX1k5KSent7GxoaDh06xM3NDYfD16xZ88cff5AyLz9Gz19b6+fhi4qKCiki+Pv7QyCQiIgIYmZOTk5GRgY4LSwsTEtL4+Pjc3V1JbI5BQUFaWlpxDmPRqPv3r2bm5ublpZGCkB37twhtVG8d+8ecG2Znp4+YY+5sLAwNTU1KyuL2Afg0Dc9PT03N5c0c9++fUT/UqT58zP9G/AveDy+o6MjKCiIj48PBoOpqakBy4C3b98GBARIS0tDoVAUCmVkZBQfH9/a2orFYktKSo4fP7506VLg/IWRkVFZWXn//v0JCQn19fUYDGZkZKSjo6OysjI5OTkgIMDKykpfX19WVpaXlxeFQhGDT4OdbBAWFoAOiEINItKiUCheXl4ZGRk9PR0rq13AFh+EuB8ZGRno73tfW5sVfsVRQ8tOZakyMxMjBQUDNfXSpUuPHz/+5MkTLBbb2toaHx+/fv16JiYmKBQqJSUVEBDw9u3bnp6euLg4NTU1YB4RFBT0NWdjvxYyvuvuPwlf9PX1lZWVSZ0eXLhwgZKSMjIyEo1GZ2Zm2tvbi4qK8vDwmJiYxMbGZmdng/05FhaWNWvWFBQU+Pr6qqqqcnFxqampnT59GkxsBQUFU1NTJBIpJCSUnZ19+fJlPT094N7d3d0dMEe6urp79uyxtLTk4uJiYWHZu3cvqBsXFycjI8PMzMzHx2dsbAww6Pr162vXruXm5hYTE3NyciL63J2fOPK1Xv0e+DI6OlpeXm5qakpLS4tCoSwtLR89egQEvfb29sDBCtjrzcrK6urq6uvrKy4uPnLkiIKCAthOoqWllZKS2rFjx+XLl0tKStra2oaHhwcGBlpaWsrLy4F/qYMHD27atGnlypXy8vIiIiK8vLwcHBwsLCxMTEwoFIqJiYmFhYWDg4OXl1dEREReXn7lypWbNm06ePBgcPCZlJSk8vLylpYWHA43PDzc1tZWWloafuny3m3bDBcvMReV2KGoJIek15SWPn7o0IM/ivv6+rq6urKyssCeOvDguXfv3pKSEiwW+/jxY0tLSyYmJlpaWhMTk/Ly8n/lI/W7YGDOCv8kfNHT0xMUFPTw8Dh27JiHh8fu3bs5ODiWLl0KZoiVlZWwsPCVK1fi4+MNDQ0VFRULCwvv3LnDx8fn4eGRlZUVGRmJRCI9PT1TU1OdnJxQKFRSUhIajRYVFWVhYTl16tT58+fz8vKYmZltbGxSUlL8/f1ZWVnPnDmDRqOXL18OhUKPHDmSmJi4Z88eGhqapKSk+/fvL1myREtL68aNG5GRkVxcXG5ubrm5uQICAlu2bElMTAwODubl5fX09AQ9jIyMJIqZSRmor83wX5v/e+ALHo/HYDDXr1+Xk5ODQqGLFy8+fvx4Q0NDX1/fvXv3Nm3axMTEBLxP2tnZ5eXljSut9AE1fFVVVaBTB4cTjJj19fU9PDxSUlJevHjR09MzOjo6ODjY1tb28uVLNBodFxd39uxZDw8Pe3v77du3b9iwAfhn0NPTI/pn2L59u729vYeHR0hISFxcHBqNfvnyZVtb27hq71BPT8+LFy9SUlKOHTu22sBwCS8vCgLhpqDYJiFtq6zis2tnVSF6oLe3p6cnLy/Pzs4OKOYyMzNv2rQpKyurv78fmCABtzVycnLXrl3DYDBzNut/XsM/D18QCAQvLy8PDw8cDmdgYPD09ATcQX5+vqioqL29ffL4ER4ejkKhEhMT8/PzBQUF/fz80Gi0tbW1oqJiSkpKUlJScnKypKSkm5sbwJcNGzaAyRwUFMTCwnLr1i3QjrGx8erVq9FotJqamoCAACiTmppKSUl56dKlyMhICARy+fJlkB8ZGXnjxo3w8HAmJqbIyEjQwtatWzU1NQGayMjIkOW7076VsyZ/Ib3L2NjY69evnZ2dOTk5gav9q1evto0fMTExOjo6IG60qKjogQMH0Gh0b29vf3//w4cPvby8Vq5cCfRKqKiomJiYlJSUduzYERISkpOT8+rVq+7u7uHxo6+v78OHDy9evHjy5El2dnZiYmJMTMzVq1cvXrwYFhZ28eLFq1evxsTE3L59Ozs7+/Hjxy9evPjw4UNfXx+o3t3d+epVXU5OTkhIyM6dOwlb4MwsUAgVFEIlwMS0VUXliMGa/StXvf+jCN/R8aCg4KDjAVFRURgMRk9Pr6OjEx0dDYZDDIrAycnp7Oz8+vVrUjos3PTPwxfi+ujixYuMjIwmJiaAI0hOTqakpOTk5BQYP/j5+VlZWX19fUnxRVJSkoGBARQQEBDg4OAwNDQsLCwUFRW1s7MDGLFx40YEAsHPzw+KcXFxLVmypLCwcPny5Xp6eqBMRkYGBQXF2bNnPT09GRkZSaU2RUVFVlZWwOwFtMDNzS0iIgKkM2T57rde8TnBFzwePzQ0VFBQYGxsTEdHh0QijYyM7t6929fX9+7du9DQUDU1NRDaVUJCwtnZuaCgoLu7u7+/v7y8/OzZs0ZGRgICAsBTDzU1NT8/v5aWlp2dXWho6L1792pqaj5//ozBYABS4HC4np6etra2P//88+3bt42Nja9fv25sbHz79u2ff/7Z1tbW09MD1kHDw8MEE6TPn6urq+/duxcaGmq7105zpRY/Pz9wIQSHwwUEBEzXrws/ffplbv4Fqz3uOrr5VyJOOOyTHdfToaGhWbZs2blz5969ewcMqYyMjJBIJB0dnbGxcUFBwcwdaH/rufzi6z8VX4gbzH5+fhAI5ODBg2g0Ojs7m4OD4/Dhw3fHj/T09MjIyPv37wN88fX1RaPR69ev19LSAgXu3r0bExOTmJg4AV/c3d15eHju3LkDisXHx8fGxoL1kb6+/gR8uXnzJg0NTUxMDMi/cuXK2bNnfX19WVhYEhMTMzMz7969e+vWrdjYWCDECQwMnCDxBRXn59+Fuz6a0ooPBB5bunQpHA5nZ2e3trZ++PAhBoN59eqVn5+foqIiAoGAw+ESEhIgzENXV9fAwEB9fX1MTIy1tbWcnBzQ3IVAIEgkcvHixVpaWlZWVn5+fnFxcUVFRS9fvvzw4UN3dzcWix0cHBweHh4ZGQGgQ0wPDg5isVgQ4O3ly5dFRUVxcXG+vr5WVlZaWlqLhZbQMyAJwdkgEBQKJS8vD+K6vaqrx/f3j72s89mwwU5dY7WYKAslJR0MpqSg6OfnV1dXh8ViHz58aG1tzc7ODofDly5dGhUVtaAV6ibg2U/FF+JsLCws1NfXp6Oji4+PR6PRpqamS5cuTU9PLyws9PDwYGVlTUhIIOVfgoKCGBkZr127VlhYGBcXx8bGBtz2kPIvaWlp1NTUPj4+BQUF2dnZkpKSJiYmX8OX/Px8CQkJa2vr3Nzce/fuiYuL29jYpKens7CwAMFwdna2qqqqnp5eQUEBERaJ/Z/niYWLLxPeTrBXPTY21tzc7OvrC/w2CAoKuri4PHv2DIvFVldXe3t7KygogLhFwsLC1tbWd+7caWlpAU5Rc3JyvLy81qxZs2TJEjo6OoK6LRUVPT09Hx+fsrIy0MPy9/e/fv06WP+WlZVVV1fX19c3NDQ0NjY2NDTU19dXVxP8wgCZYGRkpL+/v729vZHROmVlRT4+Pnp6egiUipIKQktPt1hoyerVq728vHJycgh9GBhs//gxNznZbYu5pYyMlbyCLD2dlpS0r6dnVVUVFov93//+5+LiAsQxIiIiPj4+79+/X3BKdBOeGunpnONLWX4+0H8B6yPizExNTUWhUMuXLy8oKIiOjlZTU+Pm5paQkODg4Ni3bx8ajSbFl/v375uZmfHw8EhKSnJycmpoaACvP6T4gkajDxw4ICgoKC4uzsvLu2TJkpSUlK/hCwjJKC4uLiwsLCAgoKCgALbG3d3dRUREREVF+fn5Fy9eTHTr7evru4D2kn4bfCG+qaOjo1VVVY6Ojtzc3DAYTFxc3NPTE0R9raqqOnnypLKyMi0tLRQK5eXl3bJlS2RkZF1dHQ6H6+vrq66uvnHjhqOjo5YWYQkDUAYCgSAQCGZmZkFBQUVFRV1d3c2bN9vZ2bm6unp6egYEBJw5cyY4OPjMmTMBAQEnTpxwdXW1tbXdvHmzjo6OoqKioKAgExMjAgEDPAstPR2fAL/mSq39Bxxv3LhRXV0NnAHXv6yLuh65xdxMjItLmIJii5ik1VLV03a2TeXlQ/39L2pqPT09gWUDNzf3/v37Kysrf4M9I+JT+3n2jbdv3wasChFf0Gh0QkICcV8GMCZBQUF37twB7vgLCwtjY2OJyi9oNDo9PT04ODg+Pp64lRMbGzvBrDk7O/vcuXORkZFEOIiPj799+zZos6Cg4Nq1a0SxS25uLpD1kqr55eTkXLhw4erVq8QW0Gg0Uf6yIHiZ3w9f8Hj84ODggwcPLC0tWVlZ4XC4jIzMyZMna2trsVhsTU1NYGAgUK4DBpC6urp+fn7FxcXt7e2Dg4Otra1PnjyJiIiwt7fX1tYWEhJCoVBwOBygAxwOp6enZ2Fh4eXlFRYWlpSUlJeXV1JSUlZWVlJSUlBQkJKSEhYW5uXlZWZmpqenh8PhVFRUEAgEDoejUMzCwqLa2tr29vYRERFPnjxpbf00OIhrb29/8OCBn5+frq4uQVeYkpKTltZUeanH6nWuq7Tf/1H0ofJ5gLe3jIwMAgZnY2G1tLR88ODB4OAgmJy/DQsz5/wL0f8LEVn+/RSdox3iaZol7x+RfpSmSs+VfJf0XlgsNjs7G+xMw+FwWVlZb2/vqqoq4GLy8uXLa9asYWdnp6KioqOjk5WV3bNnT2xsbG1tbV9fH1B7efLkSVRUlLu7u6mpqbKysoCAABMTEzU1NVDPBasnKioqKBRK0OEdP4DyLkAioLxLTU3NxMQkICCgrKxsYrLBzc0tMjLyyZMnLS0tAwMDfX09tbXVsbGxe/bskZWVpaenp6KiYmdnX2O4Ovr8+fZHjy/t2XNQRzfIfq+6hAQ9FZQVxWS2cdP9+/d/jw1p0uf18/gXIrjMXWIadJjhTacEPtBsTEwMkWmaYWu/sNhvxr+Qfsz7+/vT09NNTEyYmJjgcLiUlJSHh0dZWRkGg/nw4UNCQsKOHTsEBQUBNHBxceno6Bw9evTOnTuNjY39/f2Al6mqqsrIyAgNDXV2djYzM1uxYoWUlJSAgAA7OzsTExMSiaSlpaWmpkYgENTU1LS0tEgkkomJiZ2dXUBAQEpKasWKFWZmZk4uzufOh6anp1dVVbW2tg4MEPxyNgj9wPEAABdISURBVDQ0pKene3h46Ois4uLiAN0QFBTcsWNHQkLC5/fv8T09tdm5rtp6e5SUZemRAnT0m9cb3blzp6+vb8LM/D1OfxL/MnnygxzilCYtQMwkTlHSHNI0scAPJEjvSKw+ZSa4SrxETBBrzbfEb4YvE2ZaT09PWlqaqakpMzMzDAYTFhbev39/YWFhd3d3V1cXGo12dXVVUVFhZGQE5tFCQkJGRkZeXl7p6el1dXVdXV2Dg4PAMWVlZWVOTk5UVNSpU6fc3NxsbGzMzc2NjIwMDAx0dHS0tbV1dHRAlAhzc3MbGxs3N7dTp05FRUVlZ2cD35oAs7q6OurqXqSnp588edLIyEhYWJiGBgGBLAI2Cs7Ozmg0uqurq7u7G11QeGjv3pW8/OaiEruUVfboaOcnJmK6ukCwelIknTDqBXo6t/gSc+oMWB8BUCBCAzFBOjOnmbek1Unrfi2ftNlZSdva2hKlNrPS4Jw28nvjCx6P7+3tvXv3rrm5OQcHgUfg5eW1sLBITEz8+JHgTLe6uvrixYubNm0SEhICjhGQSKSoqOi6desOHz4cGxtbUlLy/v37vr6+oaEhLBbb2dnZ3NxcW1tbWlpaWFiYmZmZkpJy+/btW7du3b59OyUlBQgBS0tLa2trm5ubu7q6wE42iG1SUlISFxd3+PDhdevWiYqKgthG1NTUS5YsMdu46dKFi9XV1RgM5uPHj0lJSRYWFgI83IyUlLLMTPvVNZ00td4U5OMH5zxG+6+Cp7nFF1L/mKS4MA2UfG3ikVafXIbYILEYMTG58IScr5UktolGo6WlpScIkic0Mq9OfzN8mfKr3t/fn5+fb21tDeKoMTMz6+vrnzt3rqqqCii/5ebmenp66urq8vDwAFcMdHR0ROe7/v7+CQkJDx8+fP36dWtrKxDQAK+aWCwWeMbs7e3t6+vr7+/HYrHA0yXYkGptbQWBHxMSEvz9/Xfv3r1ixQoBAQGwM4VAIEDESE9Pz/zcvNZPn7FYbFVV1blz5/T09IB/LAF+XsedO8sTEi7Z2LnoG7SWPMEPjUPMZOe/vwoYZum+PwlfEhMToyYd+fn5d+/eBb5dSCfzbM1VUuAgTf9A+0uXLiXbB0z7yv0M+e6EDoAIqu7u7lJSUkBWIisr6+jomJeXByyqm5qaUlNT3dzcVq1axcfHB1wxwOFwZmZmERERTU3Nbdu2HTp0KDQ09NatWzk5OU+ePKmqqnr16lVTU9O7d++am5vfvXvX1NT06tWrqqqqJ0+e5OTkgGCyhw4d2rZtm5aWloiICDMzM9hRoqam5uPjW7VqlZubW2pqalNTE7CWzs3NdXR0lJWVpaGhQSAQUlJS7u7u5SVP8H19+M9t4bb2h3T12kpLfksu5ifhi6GhIZDDQ78cCAQiOTn5yJEjwsLCYMITIYaYQKPRN2/eNDQ0JBpeA5gAf0mLAb8KxGITEOQHwAUEQiFWzMrKmnC7CbeYV6e/Gf8yAVZI2ZmRkZH6+vqQkJCVK1eiUCgYDMbBwWFkZBQaGvrs2TNg8fjq1avU1NSjR4+uXbtWTEwMCIapqKiAHRw3N7eUlJS6uvq6dessLCzs7OxcXFyOHj3q6enp5eXl6el59OhRFxcXOzu7bdu2rVu3TkNDQ0pKioeHh4GBAcAKHA5nYmISExNbu3bt0aNHU1JSXr161d/f39PT8+zZs/PnzxsZGXFycgK3e1paWiEhIXV1dcPDwwSZy/AwvqUl3NbeCUAMkYsZw+PHRsd/E0a/wE5/Er7o6enJy8vfvXs3MzMzKysrc/woLCx0d3cXFBQEk5M4mUnn6uHDh/n5+Ulzfkl6yr79kp7M5Ka/N75MmGGjo6OfPn1KSkravn27oKAgHA4HbhmsrKyio6NramqA0eObN29yc3NDQkJsbGyIfAfYmaaiooLBYDQ0NEgkEnhj4OHh4ePj4+fn5+Pj4+HhAR4bkEgk8BEDNrCpqamZmZmFhYW1tLSsra1DQkJyc3PfvHkD1lY1NTXR0dFWVlZSUlK0tLRwOFxQkH/79m2JiYmfP38eGRv9ayU0NkqAmNb2cFt7dx3dv7kYkD84SIAY/OiEIS+g05+HLxP0d8E8cXd3X7x4MUhnZGQ4OTkZGxtv37793LlzaDQ6KSlJT0+PiYnJ3d3917p3AvEDFgrK/KfwBUw2LBZbVlbm4+OjqamJQqGgUCgjI6OSkpKdnV1MTMzz5887OzuxWGxbW1t1dfWdO3eCgoIcHBzWr1+voqIiJCTEwcHByMgIgAD4Caf6cgBdGAQCQUtLy8jIyMHBISQkpKKisn79egcHB6ARWlVV1dbWhsFgOjs7Kysrb9y4YWdnp6SkBHqCQqFWrFjh63uyrKwEKLkQuBMiSHzhYi7v2eusp99eUoIfGMIPDPU+/198gB9+eJCMLwRqRVwOp6CgeP/+PYFuI6P4gYGbpwKI8l09PT1lZWWgREv6BSbyL+np6ZycnHJycrt37wYuvAICAm7duqWhocHIyGhra5uVlfULp7eUlNT8l78UFqELiwjU/e3xhXSJRJynIyMjLS0tGRkZtra2srKySCQSLEnk5OQsLCxCQkLy8vIaGxt7enowGEx7e/vr168fPnyYlJR0/vz5Y8eO7d27d+vWrevXr9fV1dXS0lJXV1++fLm6urqWlpauru769eu3bt26d+/eY8eOnT9/PikpCciG29vbMRhMT09PY2NjXl5ecHCwhYWFrKwsWIUhkUhZWVk7O7uMjAzgCXgcLCbxI4Bb+dx2ec/eI6t0MQ+f4EvLA1fqHNdYgf/Ugh8dJUEj4nAXRmKW+Jep8CUu4G980dfXp6SkBOpG4C8wnibiS1BQ0MqVKwGTUlBQICkpuWXLFjQaDdZHvxBZABoaGhpO8K1JipLzJP3fwZdp5tbg4ODr169jY2N3794tLS2NRCKpqKhoaWn5+flXrVrl4OBw6dKlvLy8uro6AA3ALcOnT5+ampqqq6tLS0uLiopycnLAKj4r66/49qWlpTU1NY2NjSAQNQ6HAyBVV1eXn59/6dKlffv2rVq1SkBAAEiRkUiktLT0rl27YmNjGxoaiIr/pPjyD5Qcw+OHhvEfW6KsbE5qaAWqaZySkDwhLVufnkFYQI1OgqRpSDCfLs0SvuDx4eH/5F9wA6T4oqenJyYiGhZ6PjQ09Pz4kZycjEajifgCnOl6eXnt2rVLXV2djo4OWD9Plr/8Ejkr6U1J0z8ZWYoK0UWF377ng4KC8tzci8eP34248rN2JX7B/tHX5tHY2BgIGBAdHW1jY6OsrMzCwgK+aigUSkRERFtb28bGxt/fH9iv1tTUNDc3t7W19fb2glj02PEDh8OBBBZL0M3t7e0Fwc9qamqAuZy/v7+NjY22traIiAiQLsNgMBYWFiUlJRsbm+jo6NraWgwGA3DkH2gyZdeHh/EYLLYQ7S2vFCguGSQmcVJK9paLGx43QFgQLMxjzvGlLDcP2E+rKCmTzg0wS4n4Eh4ezsjIKCIiYmZmduLECTk5ua/hy7en1xyUILV1nIPmZ9okGV9mPssAyrx69SopKcnd3V1PT2/JkiVIJBLIU+jp6Xl4eGRkZLS1tbdt2+bk5OTj4xMWFhYdHZ2YmJienp6VlXXv3r2srKz09PTExMTo6OiwsDAfHx8nJ6dt27bp6OjIyMjw8PAAB3pQKJSenn7JkiV6enpubm5JSUnAo/i3MYV0PMPDn0pKj63U9pWUPismeVZEwk9S2muFFv5jC4GFWZjHnOHLwBf+JSd3HF90ppfvGhoaKikpgV1h4Ad3Snz5VQulBaH/AtZHhUUE+Ut5bu6lY/9R/oV0Jo6NjQ0NDX348KG4uPjSpUt79+5dtWqVsLAwMzMzAoEA0eZpaGgYGRk5OTkXL14sLi4uJyenoqKybNkyNTW1ZcuWqaioyMnJiYuLCwoKcnJyMjEx0dDQwOFwKBQKPDwICwuvWrVq7969Fy9eLC4u/vDhw+Dg4PchC6HHo51NTc56+u4Kir6S0kGikmfFJE9JSB6Xlf2QkU7QvluYx5zjyxf+5W98IZXyEvmXgwcPolCogICAsLAwHR0dKiqq9evXo9FoX19fWlpaR0fHyVFEZvrR/xfliEsh4J/hV6HbDEdAii8VOWR8+ceMHB0d7e/vf/PmzR9//HH9+vUjR45s3rxZQ0NDXFyci4sLhUKBmEpf1LP+8R9sSIMtJBQKxcXFJS4urqGhYW5ufuTIkWvXrhUVFTU1NfX39/94uCKC/GUI//bti6gbsZa7vOSVTkjLnpCW9ZCVT3JxJSxy/95w+se45vnJLOHL1+W7AF/27du3a9euyfMzODgYOOi+f/++tbW1tLS0oqLiwYMHT5w4YWZmBoQyBgYG8vLyCQkJM5xmc1HMxsZm/tsfkcp3n+XmXDrmkRX+X5S/TD/lRkZGcDjc58+fX7x4UVBQcPPmzdOnT7u5ue3evXvjxo2GhoZaWlpqampLly5VUVFZunSpmpqalpaWoaHhxo0bd+/e7erqevr06Zs3bxYUFLx48eLz588DAwMjIyPTMSz/2I7+eu/ARvXgECE63bvm5zfjLltbuS1VdVupje/oXKC6drOML3/++SeBfuP700T5bnFhwVzM+Z/W5mRY/Gm3/q4bkeJLRU72pWMemZcjCMoUX5EOzqqrtHkk3/36DJ54ZWRkZHBwsKenB+wf1dTUlJWVFRcX5+XlZWdn379/Pzs7Oz8/v7i4uKysrKampqmpCewfTcCU6cAFP67rMnPuA4DRyCiBncFh8Y1NZfHxn+tfEfHlxo0bJSUlXl5e586dw+FwE4c0z85nGV+am5sJAxwZxZPsHxUXFgC9jOlny+RpXFRURFyhTF93rq/GxcUtFP8vRYXoR/kFz3KywwH/AvDli74oHo+vra21sbGJiIhQU1O7dOnSLL2QCxJfJowdeBcfHR0d+ecxOjr6DQSZ0NB3nX6Bni//8fjRMcJqaHQUPzJMkOwSLAn+VoGRlJRkZ2fn4eEREhIiGBnM72OW8eVv/ToCvgRG+QeW5uVNgy+TMWXmgDLzkv8efYj+Mf99U3Pdwl/4kp0b7nH8r/XRyN9vJx6Pf/ToEfDMdOLEiezs7Fl6P38HfJklUnxnM19w5cv/f1SfvLSSlJSUlpb+cUHPP5qf85MfwZfJY8Z/0X/5m38h7B8F/qW/iybobBC59/EJVoBGf3XRNBl0iHNymkvEMnORmLf4MiVV/6G/C0zmSF6kR48eUSyiyM3PI8kjJP/dJ3ph4Ms3xzhNgWkuTaDkD59OvsXkHElJaSsrG+IcnBzRZXKVH+7Pv684y/jyN/8ySNifvul/qvJ+bnlOXkl+/pO8PPArzcsrzcsd/xFySsfz5+ffsvFul+Xn+x89+iAraz70dpx6BKIBihGpOt633Cf5uaV5eRW5+dVZ968cPZ555epfjkVI3hSAL+/ej69kSfL/XXJh4Mu/G+MUtX/+ZJaUlHZ1dSesn0i2lH5+N6agxVRZs4kviygo/mwetz8aHcUPDcQF+IVY2yR7eiV6nbzl5XPLyzvB+yThL8kPnH7z760TXt8sk+Dl/V8oM049rwQvL1Iyfhm71y1vQn6i18nU416B2y2zIsIJ+EK01h1/Awj4QkHR0tIy1fvww3kLGF+Ik5OY+GEqfLMike/4gZKge5KSkq6urt+sPk8KzA2+jI3iR4Yqc+6nngnMOBWYHnj6TmBQeuDp9NNnCH9JfnfG0zP5m/ZXO4TqMyk/i2XunAp0W2+U5OM7i23+8CjGqReYHkigKulvvG+BoIfpgaczAwhUqntQTJAREgSGfx+PHz8m48vf5Jg2NeuI82/wBfRUQkKCiC/t7e2fPn0qKyt78eLF0NBQWVnZmzdvZr3P01LoGxd/BF+mbPIf9kcEKo7iR79Iv4EMfCH/1V66tP/jx7+E+QtoIATJ7kTTFcC/fPz4ETzHiIiI3Nxcb2/vJ0+e/Pnnn4GBgTU1NVM+4mkzFzD/Mu245tFFABzr168PCgoC3QoLC+Pn57e0tOTg4NDX19+yZYuQkBAajZ4/nZ4bfJk/45ulnmhoaLS2ts5SY7+4mY8fP549e5YYbUdGRsbW1jYlJYWNje3gwYMpKSny8vLf30Uyvnw/zf51jbCwsM2bN+PxeA8PDxsbGzwef/jw4eDg4H/d8Kw1QMaXGZGyvLx8aAHagHR3d/v4+DQ1NZEOcgL/LCMj09DQgMfjhYSEQEkBAQEsFktaZQZpMr7MgEizXSQsLOzo0aN4PD4oKMjPzw+Px/v5+RG5m9m+24+0R8aXGVHtwoULs6cqMqM7zkqhjo4ODg4OFAp14MCBCShDbF9GRgaslURFRTs6OvB4vICAQH9/P7HAzBJkfJkZnWa1VFhYmKen538CXy5fvvy3/7pZJeJ8aGzLli2zp+r68wYE8IVi/GBkZJwSZcj48vOex2zfKTo6GqyGIiIiLly4gMfjw8LCrly5Mtv3+fH2Zpl/iYqKyvgdDzExMVtb2wU3sps3b6JQKIAv4C8KhXJ0dCTlZYKCgnp6evB4fGBgIBDK+Pr6kvhbm+G7ReZfZkio2Sw2PDwMlu1DQ0PDw8PAGcW8MhqYNXy5f/8+DAYjfZXJ6XlLAVlZ2VevXpG+6UShDDFBenUGaTK+zIBIc1zkR5/dHHZrdvAFKCnX1taW/47H06dPzczMDh069PTp04qKigU0xIKCAmZmZlKY4+fnDw4O7uzsnP6d+v43lYwv01N0zq9+/yOb8y7h8fjZwZef0dNfeo99+/YtdPkLQBYgwZ0DWpLxZQ6IuvCbJOPLjJ5hYGBgWlrajIrOp0JAvsvPzx8SEjJnyAIGTMaX+fTg501fyPgyo0cxNDQ0q96YZnTTf18Ig8HExMQQV0NzyUKT8eXfP67fsAUyvvyGD/VXDImML7+C6vP+nmR8+fYjGhsba2hoaG9v/3bR/24JMr78d5/9NCMn48s0xCG4XKqqqlq6dCkXFxczM7Orq+tC8RtGOqq5XBYR70PGFyIpyIm/KUDGl79pMTk1MDCgoaFhY2Pz6dOn1NRUZmbmO3fuTC5GziF4Oxod7autPSyneHXTZoIHfPJBpgB5f3r6d+DJkyf09PQfPnwAxWxtbY2MjH4KOzB9v+bhVRJ82WhOxpd5+IR+SZfI/Mt0ZE9PTxcXFx8YGACFrl27pqSktBCXSNMN8t9c+9tv1V/4clRW6RoZX/4NSX+vumR8me55njlzhhRQUlJSeHl553/QmemGNLvXSPFlbLivtpaML7NL4IXeGhlfpnuCYWFhioqKRIbl1q1boqKi32/7N90tfpdro3gCvlQflVUk8y+/yzOdhXGQ8WU6IqalpYmIiBCdLV26dGnlypVk+ctUJCPFF7J8dyoK/SfzyPgy3WOvrq6mo6Orq6sDhUxNTYEXwunq/EevAXyZsH80SthXIh//YQqQ8WW6hz82NrZu3ToFBYWMjAxnZ2cmJqb6+vrpKvx3r5HsH/29P03Gl//uCwFGTsaXb7wBAwMD0dHRy5Yt27BhQ0FBwTdK/3cvT4kv/11ykEcOKEDGF/KbMCsUIOPLrJDxd2uEjC+/2xP9BeP5K9wVWX/3F9B+nt+SjC/z/AEthO6R8WUhPKVf0kcyvvwSsv9+Nx3Fj4xMa39ElvX+fg/92yMi48u3aUQu8W0KjI7hx0a7Xr50VFQO3WKBX4Cx6L49RnKJ76cAGV++n2bkGlNSYAw/1NlZmpz6sqAQP0Ki9jLzkO5TNkvOXMgUIOPLQn5686rvY3j86BgBWUZG8X/bJeEJadLTedVncmfmmAJkfJljAv9nmieYTQAoGUeTiZBCRpn/zJtAOlAyvpBSg5yeHQpMASZTZM3OvcitzGcKkPFlPj8dct/IFFjYFCDjy8J+fuTekykwnylAxpf5/HTIfSNTYGFTgIwvC/v5kXtPpsB8pgAZX+bz0yH3jUyBhU2B/wOdvMmeFHnZnwAAAABJRU5ErkJggg==;" parent="191" vertex="1">
                    <mxGeometry x="9.5" y="25" width="411.25" height="215" as="geometry"/>
                </mxCell>
                <mxCell id="195" value="" style="edgeStyle=none;rounded=1;jumpStyle=none;html=1;shadow=0;labelBackgroundColor=none;startArrow=none;startFill=0;jettySize=auto;orthogonalLoop=1;strokeColor=#12AAB5;strokeWidth=3;fontFamily=Helvetica;fontSize=14;fontColor=#FFFFFF;spacing=5;fontStyle=1;fillColor=#b0e3e6;entryX=0;entryY=0;entryDx=0;entryDy=0;exitX=1;exitY=1;exitDx=0;exitDy=0;" parent="1" source="12" target="191" edge="1">
                    <mxGeometry relative="1" as="geometry">
                        <mxPoint x="1440" y="1300" as="targetPoint"/>
                        <mxPoint x="1544" y="887" as="sourcePoint"/>
                    </mxGeometry>
                </mxCell>
                <mxCell id="199" value="Polarization of light" style="swimlane;gradientColor=none;startSize=23;fontColor=#000000;fillColor=#F0A729;strokeColor=#F0A729;" parent="1" vertex="1">
                    <mxGeometry x="877" y="470" width="560" height="180" as="geometry"/>
                </mxCell>
                <mxCell id="201" value="Only transverse waves can be polarised" style="rounded=1;whiteSpace=wrap;html=1;shadow=0;labelBackgroundColor=none;strokeColor=none;strokeWidth=3;fontFamily=Helvetica;fontSize=14;align=center;spacing=5;fontStyle=0;arcSize=7;perimeterSpacing=2;fontColor=#000000;fillColor=#f5af58;" parent="199" vertex="1">
                    <mxGeometry x="9.75" y="120" width="540.5" height="51" as="geometry"/>
                </mxCell>
                <mxCell id="202" value="Polarizer or Poloriod is a transparent plastic sheet on which particles are deposited in a series of parallel lines. Natural crystals such as tourmaline, calcite and quartz are used as polariser" style="rounded=1;whiteSpace=wrap;html=1;shadow=0;labelBackgroundColor=none;strokeColor=none;strokeWidth=3;fontFamily=Helvetica;fontSize=14;align=center;spacing=5;fontStyle=0;arcSize=7;perimeterSpacing=2;fontColor=#000000;fillColor=#f5af58;" parent="199" vertex="1">
                    <mxGeometry x="9.5" y="30" width="540.5" height="80" as="geometry"/>
                </mxCell>
                <mxCell id="203" value="" style="edgeStyle=none;rounded=0;jumpStyle=none;html=1;shadow=0;labelBackgroundColor=none;startArrow=none;startFill=0;endArrow=classic;endFill=1;jettySize=auto;orthogonalLoop=1;strokeColor=#F08705;strokeWidth=3;fontFamily=Helvetica;fontSize=14;fontColor=#FFFFFF;spacing=5;entryX=0.5;entryY=1;entryDx=0;entryDy=0;exitX=0.5;exitY=0;exitDx=0;exitDy=0;" parent="1" source="5" target="199" edge="1">
                    <mxGeometry relative="1" as="geometry">
                        <mxPoint x="1110" y="670" as="targetPoint"/>
                        <mxPoint x="1110" y="731.5" as="sourcePoint"/>
                    </mxGeometry>
                </mxCell>
            </root>
        </mxGraphModel>
    </diagram>
</mxfile>